<svg id="组_18" data-name="组 18" xmlns="http://www.w3.org/2000/svg" xmlns:xlink="http://www.w3.org/1999/xlink" width="121.59" height="110.72" viewBox="0 0 121.59 110.72">
  <defs>
    <style>
      .cls-1, .cls-2 {
        fill: #333;
        fill-rule: evenodd;
      }

      .cls-1 {
        filter: url(#filter);
      }

      .cls-2 {
        filter: url(#filter-2);
      }

      .cls-3 {
        fill: #2c69ff;
        filter: url(#filter-3);
      }
    </style>
    <filter id="filter" x="2862.5" y="6527.28" width="119.28" height="20.19" filterUnits="userSpaceOnUse">
      <feFlood result="flood" flood-color="#fff"/>
      <feComposite result="composite" operator="in" in2="SourceGraphic"/>
      <feBlend result="blend" in2="SourceGraphic"/>
    </filter>
    <filter id="filter-2" x="2860.19" y="6566.84" width="117.28" height="27.6" filterUnits="userSpaceOnUse">
      <feFlood result="flood" flood-color="#fff"/>
      <feComposite result="composite" operator="in" in2="SourceGraphic"/>
      <feBlend result="blend" in2="SourceGraphic"/>
    </filter>
    <filter id="filter-3" x="29.81" y="107.72" width="60" height="3" filterUnits="userSpaceOnUse">
      <feFlood result="flood" flood-color="#fff"/>
      <feComposite result="composite" operator="in" in2="SourceGraphic"/>
      <feBlend result="blend" in2="SourceGraphic"/>
    </filter>
  </defs>
  <path id="News_Center" data-name="News Center" class="cls-1" d="M2864.75,6546.46c-0.01-.14-0.01-0.38-0.01-0.72a15.471,15.471,0,0,1,.19-2.26c0.13-.88.31-1.8,0.53-2.78s0.48-1.97.78-3,0.6-2,.92-2.92,0.65-1.78.99-2.56a12.424,12.424,0,0,1,.96-1.88c0.05,1.39.11,2.72,0.2,3.99s0.21,2.53.36,3.78,0.34,2.5.57,3.75,0.5,2.54.84,3.88a1.741,1.741,0,0,0,1.11.78,6.182,6.182,0,0,0,1.96.28h0.15a0.777,0.777,0,0,0,.16-0.02,0.1,0.1,0,0,1-.02-0.08,18.673,18.673,0,0,1,.27-2.54c0.17-1.06.4-2.2,0.7-3.44s0.64-2.5,1.03-3.78,0.82-2.47,1.27-3.57a17.541,17.541,0,0,1,1.44-2.79,3.667,3.667,0,0,1,1.53-1.47,3.4,3.4,0,0,0-.39-0.53,4.1,4.1,0,0,0-.53-0.48,4.6,4.6,0,0,0-.6-0.37,2.169,2.169,0,0,0-.57-0.2,1.275,1.275,0,0,0-.7.68,14.086,14.086,0,0,0-.83,1.75c-0.29.75-.6,1.62-0.92,2.61s-0.64,2.07-.96,3.23-0.63,2.37-.92,3.64-0.58,2.55-.83,3.83a26.216,26.216,0,0,1-.95-5.1c-0.14-1.67-.2-3.38-0.2-5.12,0-.88.02-1.71,0.07-2.49a14.013,14.013,0,0,1,.19-1.74,1.033,1.033,0,0,0-.52-0.42,11.317,11.317,0,0,0-1.08-.49c-0.4-.16-0.81-0.29-1.21-0.41a3.734,3.734,0,0,0-.93-0.16l0.16,1a18.84,18.84,0,0,0-1.21,2.08c-0.45.89-.92,1.87-1.4,2.94s-0.95,2.19-1.42,3.36-0.87,2.29-1.23,3.36-0.66,2.04-.88,2.92a9,9,0,0,0-.34,2.02,1.2,1.2,0,0,0,.48,1.02,6.147,6.147,0,0,0,1.85.78A1.486,1.486,0,0,1,2864.75,6546.46Zm20.1-12.76a3.826,3.826,0,0,0-1.59.36,6.542,6.542,0,0,0-1.56.98,9.38,9.38,0,0,0-1.42,1.46,11.6,11.6,0,0,0-1.15,1.79,9.473,9.473,0,0,0-.77,1.97,7.838,7.838,0,0,0-.28,2,3.522,3.522,0,0,0,.93,2.46,3.94,3.94,0,0,0,2.58,1.22,6.6,6.6,0,0,0,2.43-1.22,11.377,11.377,0,0,0,2.37-2.38,3.956,3.956,0,0,0-.41-0.41c-0.26.27-.55,0.57-0.88,0.9a9.137,9.137,0,0,1-1.05.91,6.564,6.564,0,0,1-1.19.71,3.052,3.052,0,0,1-1.27.29,0.81,0.81,0,0,1-.55-0.18,1.165,1.165,0,0,1-.34-0.47,2.427,2.427,0,0,1-.17-0.63,4.847,4.847,0,0,1-.05-0.64c0-.12.01-0.22,0.02-0.33s0.01-.2.01-0.3a20.677,20.677,0,0,0,2.69-1.25,8.759,8.759,0,0,0,1.95-1.45,5.509,5.509,0,0,0,1.24-1.87,8.32,8.32,0,0,0,.53-2.56,3.212,3.212,0,0,0-2.07-1.36h0Zm-0.96,5.22a10.816,10.816,0,0,1-3.19,2.36,9.773,9.773,0,0,1,.79-2.06,9.261,9.261,0,0,1,1.12-1.68,5.634,5.634,0,0,1,1.31-1.16,3.571,3.571,0,0,1,1.34-.52A4.9,4.9,0,0,1,2883.89,6538.92Zm4.67,6.27a1.98,1.98,0,0,0,1.09.72,11.274,11.274,0,0,0,.67-0.95c0.2-.29.39-0.58,0.59-0.87s0.41-.59.64-0.91,0.49-.69.79-1.11c0.14-.19.33-0.42,0.55-0.69s0.45-.54.67-0.81,0.44-.49.65-0.69a2.247,2.247,0,0,1,.51-0.4c-0.02.13-.04,0.26-0.05,0.38s-0.05.28-.09,0.46-0.08.38-.14,0.62-0.13.54-.23,0.89a10.186,10.186,0,0,0-.2,1.09,10.8,10.8,0,0,0-.06,1.22,1.674,1.674,0,0,0,.36,1.1,1.122,1.122,0,0,0,.91.43,1.318,1.318,0,0,0,.68-0.33,10.823,10.823,0,0,0,.96-0.83c0.35-.33.7-0.69,1.06-1.07s0.69-.74,1-1.06c0.73-.78,1.37-1.5,1.92-2.17a13.046,13.046,0,0,0,1.36-1.99,10.828,10.828,0,0,0,.88-2.05,11.669,11.669,0,0,0,.44-2.4,0.886,0.886,0,0,0-.52-0.12,3.316,3.316,0,0,0-.9.13,1.289,1.289,0,0,0-.64.32c-0.14.79-.28,1.46-0.41,2.03s-0.27,1.09-.42,1.55a10.235,10.235,0,0,1-.53,1.31,13.308,13.308,0,0,1-.75,1.31c-0.24.38-.52,0.77-0.83,1.17s-0.61.77-.89,1.11-0.53.61-.75,0.84a2.594,2.594,0,0,1-.44.38c0.12-.58.24-1.28,0.39-2.12s0.3-1.69.48-2.54a22.118,22.118,0,0,1,.6-2.34,5.154,5.154,0,0,1,.72-1.57,0.389,0.389,0,0,0-.19-0.24,2.2,2.2,0,0,0-.93-0.26,4.629,4.629,0,0,0-.51-0.03,1.7,1.7,0,0,0-.41.03,2.9,2.9,0,0,0-.69,1.05c-0.13.39-.25,0.72-0.34,1.01a5.951,5.951,0,0,1-.46,1.02,5.663,5.663,0,0,1-1.01,1.17,12.434,12.434,0,0,0-1.26,1.35c-0.47.57-.97,1.21-1.5,1.91,0.1-.59.19-1.23,0.28-1.91a16.263,16.263,0,0,1,.38-1.99,9.356,9.356,0,0,1,.67-1.82,4.3,4.3,0,0,1,1.12-1.43,0.863,0.863,0,0,0-.61-0.43,3.164,3.164,0,0,0-1.05-.17,2.315,2.315,0,0,0-1.64.61,3.662,3.662,0,0,0-.97,1.74c-0.16.56-.32,1.19-0.47,1.9s-0.29,1.39-.41,2.06-0.21,1.3-.29,1.87a11.822,11.822,0,0,0-.1,1.35A2.011,2.011,0,0,0,2888.56,6545.19Zm22.4-10.51a8.682,8.682,0,0,0-.76-0.88c-0.29-.28-0.58-0.54-0.88-0.78a2.36,2.36,0,0,0-.71-0.42,3.973,3.973,0,0,0-1.2.53,4.7,4.7,0,0,0-1.01.93,5,5,0,0,0-.69,1.18,3.318,3.318,0,0,0-.27,1.29,4.591,4.591,0,0,0,.12,1.03c0.08,0.34.17,0.7,0.26,1.06s0.17,0.73.25,1.12a5.761,5.761,0,0,1,.12,1.18,4.707,4.707,0,0,0-1.96.4,5.321,5.321,0,0,0-1.56,1.04,4.858,4.858,0,0,0-1.04,1.47,4.143,4.143,0,0,0-.39,1.76,2.308,2.308,0,0,0,.34.66,3.885,3.885,0,0,0,.56.59,3.594,3.594,0,0,0,.69.43,2.107,2.107,0,0,0,.69.19,4.519,4.519,0,0,0,3.04-1.41,4.662,4.662,0,0,0,1.09-3.23c0-.19,0-0.35-0.01-0.48s-0.01-.25-0.01-0.38a0.712,0.712,0,0,1,.03-0.23,0.405,0.405,0,0,1,.21-0.15,3.511,3.511,0,0,1,.49-0.16c0.22-.05.51-0.12,0.88-0.2a0.459,0.459,0,0,0,.09-0.31,0.657,0.657,0,0,0-.02-0.19h-1.68a0.806,0.806,0,0,1-.03-0.29,9.287,9.287,0,0,1,.51-3.51,1.6,1.6,0,0,1,1.46-1.2,0.482,0.482,0,0,1,.42.23,0.937,0.937,0,0,1,.16.57,1.158,1.158,0,0,1-.06.33c-0.04.13-.09,0.26-0.13,0.39s-0.1.24-.14,0.34a0.767,0.767,0,0,0-.06.23,0.353,0.353,0,0,0,.32.36,0.585,0.585,0,0,0,.4-0.26,3.4,3.4,0,0,0,.41-0.66,5.151,5.151,0,0,0,.33-0.89,4.68,4.68,0,0,0,.15-0.95A2.226,2.226,0,0,0,2910.96,6534.68Zm-7.99,10.81a1.891,1.891,0,0,1,.34-0.96,5.793,5.793,0,0,1,.84-1.07,5.626,5.626,0,0,1,1.08-.88,2.725,2.725,0,0,1,1.05-.45,3.816,3.816,0,0,1-.22,1.27,5.678,5.678,0,0,1-.62,1.23,4.9,4.9,0,0,1-.9,1.03,3.888,3.888,0,0,1-1.09.7,1.035,1.035,0,0,1-.48-0.87h0Zm16.75-.3a5.853,5.853,0,0,0,4.52,1.66,7.9,7.9,0,0,0,1.3-.81,14.151,14.151,0,0,0,1.44-1.22c0.49-.46.98-0.97,1.48-1.53s0.98-1.14,1.44-1.75a0.965,0.965,0,0,0-.29-0.5,31.741,31.741,0,0,1-3.45,2.81,8.474,8.474,0,0,1-2.62,1.32,2.152,2.152,0,0,1-1.46-1.27,6.3,6.3,0,0,1-.56-2.86,17.079,17.079,0,0,1,3.34-9.82,10.831,10.831,0,0,1,1.04-1.27,8,8,0,0,1,1.17-.98,5.772,5.772,0,0,1,1.19-.64,3.175,3.175,0,0,1,1.14-.23,1.07,1.07,0,0,1,1.32,1.06,2.568,2.568,0,0,1-.5,1.38,6.351,6.351,0,0,1-1.33,1.45,2.043,2.043,0,0,0,.58,1.09,1.846,1.846,0,0,0,1.08.57,4.646,4.646,0,0,0,.74-0.79,6.787,6.787,0,0,0,.59-0.95,4.366,4.366,0,0,0,.38-1,3.741,3.741,0,0,0,.14-0.98,2.31,2.31,0,0,0-.93-1.95,4.212,4.212,0,0,0-2.58-.69,7.953,7.953,0,0,0-2.76.49,10.076,10.076,0,0,0-2.53,1.38,13.081,13.081,0,0,0-2.18,2.1,13.693,13.693,0,0,0-1.72,2.67,15.282,15.282,0,0,0-1.12,3.08,14.05,14.05,0,0,0-.39,3.3A6.965,6.965,0,0,0,2919.72,6545.19Zm18.41-11.49a3.826,3.826,0,0,0-1.59.36,6.542,6.542,0,0,0-1.56.98,9.38,9.38,0,0,0-1.42,1.46,11.6,11.6,0,0,0-1.15,1.79,9.473,9.473,0,0,0-.77,1.97,7.838,7.838,0,0,0-.28,2,3.522,3.522,0,0,0,.93,2.46,3.94,3.94,0,0,0,2.58,1.22,6.6,6.6,0,0,0,2.43-1.22,11.377,11.377,0,0,0,2.37-2.38,3.956,3.956,0,0,0-.41-0.41c-0.26.27-.55,0.57-0.88,0.9a9.137,9.137,0,0,1-1.05.91,6.564,6.564,0,0,1-1.19.71,3.052,3.052,0,0,1-1.27.29,0.81,0.81,0,0,1-.55-0.18,1.165,1.165,0,0,1-.34-0.47,2.427,2.427,0,0,1-.17-0.63,4.847,4.847,0,0,1-.05-0.64c0-.12.01-0.22,0.02-0.33s0.01-.2.01-0.3a20.677,20.677,0,0,0,2.69-1.25,8.759,8.759,0,0,0,1.95-1.45,5.509,5.509,0,0,0,1.24-1.87,8.32,8.32,0,0,0,.53-2.56,3.212,3.212,0,0,0-2.07-1.36h0Zm-0.96,5.22a10.816,10.816,0,0,1-3.19,2.36,9.773,9.773,0,0,1,.79-2.06,9.261,9.261,0,0,1,1.12-1.68,5.634,5.634,0,0,1,1.31-1.16,3.571,3.571,0,0,1,1.34-.52A4.9,4.9,0,0,1,2937.17,6538.92Zm7.07-4.26a25.608,25.608,0,0,0-1.67,3.31c-0.27.62-.52,1.25-0.74,1.87s-0.41,1.22-.57,1.79-0.27,1.08-.36,1.55a7.064,7.064,0,0,0-.13,1.15,5.184,5.184,0,0,0,.36,1.07,1.757,1.757,0,0,0,.75.8,2.673,2.673,0,0,0,.68-0.68c0.26-.35.57-0.77,0.92-1.26,0.63-.87,1.24-1.65,1.84-2.36s1.28-1.41,2.03-2.13a5.733,5.733,0,0,1,1.29-1.03,4.465,4.465,0,0,1,.65-0.34c-0.27.64-.49,1.19-0.67,1.64s-0.31.85-.41,1.18a6.455,6.455,0,0,0-.19.85,5.418,5.418,0,0,0-.05.65,4.647,4.647,0,0,0,.1,1,1.881,1.881,0,0,0,.35.8,1.811,1.811,0,0,0,.69.54,2.709,2.709,0,0,0,1.14.2,1.548,1.548,0,0,0,.49-0.09q0.285-.1.57-0.24c0.19-.1.37-0.2,0.55-0.31a5.017,5.017,0,0,0,.46-0.34,0.831,0.831,0,0,0-.06-0.28,0.374,0.374,0,0,0-.16-0.2,1.349,1.349,0,0,0-.46.12,1.4,1.4,0,0,1-.55.12,0.572,0.572,0,0,1-.44-0.17,1.2,1.2,0,0,1-.16-0.77,5.892,5.892,0,0,1,.27-1.65,11.662,11.662,0,0,1,.66-1.79c0.26-.58.53-1.13,0.81-1.63a8.617,8.617,0,0,1,.76-1.19,1.935,1.935,0,0,1,.51-0.47,0.276,0.276,0,0,0,.18-0.13,3.749,3.749,0,0,0-.66-0.88,1.4,1.4,0,0,0-1.04-.42,2.661,2.661,0,0,0-1.27.4,8.585,8.585,0,0,0-1.38.96c-0.46.38-.89,0.78-1.31,1.2s-0.78.8-1.08,1.12q-0.21.21-.6,0.66c-0.26.29-.53,0.62-0.83,0.98s-0.6.72-.91,1.08-0.6.68-.85,0.95a4.7,4.7,0,0,1,.51-1.41c0.3-.56.63-1.16,1-1.8s0.74-1.25,1.1-1.86a10.957,10.957,0,0,0,.82-1.56,4.555,4.555,0,0,0-.82-1.45,2.528,2.528,0,0,0-1.17-.85A5.4,5.4,0,0,0,2944.24,6534.66Zm12.8,1.15c-0.3.73-.58,1.48-0.84,2.23s-0.48,1.48-.67,2.17a18.952,18.952,0,0,0-.44,1.91,7.947,7.947,0,0,0-.16,1.45,1.6,1.6,0,0,0,.31.88,3.622,3.622,0,0,0,.81.8,4.988,4.988,0,0,0,1.09.6,3.21,3.21,0,0,0,1.2.24,2.075,2.075,0,0,0,.58-0.21,6.811,6.811,0,0,0,.79-0.47,9.144,9.144,0,0,0,.75-0.56,2.328,2.328,0,0,0,.5-0.5,1.374,1.374,0,0,0-.17-0.36,4.507,4.507,0,0,1-1.15.67,5.322,5.322,0,0,1-1.37.36,0.985,0.985,0,0,1-.79-1.17,9.106,9.106,0,0,1,.18-1.69,18.825,18.825,0,0,1,.5-2c0.22-.7.48-1.44,0.79-2.2s0.67-1.53,1.07-2.3a8.061,8.061,0,0,0,2.86-.45,0.946,0.946,0,0,0-.08-0.37,0.771,0.771,0,0,0-.19-0.3,8.383,8.383,0,0,1-.99.07h-0.98c0.4-.67.78-1.26,1.12-1.78s0.76-1.07,1.24-1.68a1.439,1.439,0,0,0-.44-0.29c-0.2-.09-0.44-0.18-0.69-0.27s-0.51-.16-0.76-0.22a3.293,3.293,0,0,0-.61-0.08,2.674,2.674,0,0,0-.54.52,11.829,11.829,0,0,0-.74.98c-0.27.39-.54,0.82-0.82,1.29s-0.54.93-.78,1.41h-1.06a7.282,7.282,0,0,1-1.2-.1,4.549,4.549,0,0,0,.1.81,1.5,1.5,0,0,0,.22.61h1.36Zm12.2-2.11a3.906,3.906,0,0,0-1.6.36,6.542,6.542,0,0,0-1.56.98,9.854,9.854,0,0,0-1.42,1.46,11.6,11.6,0,0,0-1.15,1.79,10.064,10.064,0,0,0-.77,1.97,7.816,7.816,0,0,0-.27,2,3.56,3.56,0,0,0,.92,2.46,3.987,3.987,0,0,0,2.58,1.22,6.712,6.712,0,0,0,2.44-1.22,11.583,11.583,0,0,0,2.36-2.38,3.956,3.956,0,0,0-.41-0.41q-0.375.4-.87,0.9a9.24,9.24,0,0,1-1.06.91,6.239,6.239,0,0,1-1.19.71,3.017,3.017,0,0,1-1.27.29,0.828,0.828,0,0,1-.55-0.18,1.267,1.267,0,0,1-.34-0.47,2.424,2.424,0,0,1-.16-0.63,3.589,3.589,0,0,1-.05-0.64c0-.12,0-0.22.01-0.33s0.01-.2.01-0.3a20.076,20.076,0,0,0,2.69-1.25,8.828,8.828,0,0,0,1.96-1.45,5.633,5.633,0,0,0,1.23-1.87,8.038,8.038,0,0,0,.53-2.56,3.217,3.217,0,0,0-2.06-1.36h0Zm-0.96,5.22a10.865,10.865,0,0,1-3.2,2.36,9.794,9.794,0,0,1,.8-2.06,8.742,8.742,0,0,1,1.11-1.68,5.843,5.843,0,0,1,1.31-1.16,3.571,3.571,0,0,1,1.34-.52A4.945,4.945,0,0,1,2968.28,6538.92Zm3.86,6.01a4.768,4.768,0,0,0,.54.41,5.826,5.826,0,0,0,.6.32,1.883,1.883,0,0,0,.52.16c0.24-1.11.49-2.06,0.75-2.86a10.665,10.665,0,0,1,.96-2.12,8.143,8.143,0,0,1,1.36-1.68,16.522,16.522,0,0,1,1.92-1.55,4.056,4.056,0,0,0,1.89,2.21,6.881,6.881,0,0,0,.66-0.77,2.05,2.05,0,0,0,.33-0.55,3.193,3.193,0,0,1-.31-1.59,6.429,6.429,0,0,1,.43-2.28,0.793,0.793,0,0,0-.43-0.3,2.063,2.063,0,0,0-.65-0.11,0.83,0.83,0,0,0-.51.12,16.978,16.978,0,0,1-1.86,2.36c-0.66.7-1.42,1.44-2.29,2.2a19.691,19.691,0,0,1,1-2.52,9.1,9.1,0,0,1,1.14-1.75,2.174,2.174,0,0,0-.41-0.35,5.578,5.578,0,0,0-.6-0.34,4.3,4.3,0,0,0-.7-0.29,3.85,3.85,0,0,0-.69-0.17,3.368,3.368,0,0,0-.53.71,12.088,12.088,0,0,0-.55,1.16c-0.29.69-.59,1.47-0.89,2.33s-0.59,1.72-.86,2.58-0.51,1.66-.71,2.42-0.34,1.38-.42,1.84A1.161,1.161,0,0,0,2972.14,6544.93Z" transform="translate(-2860.19 -6527.28)"/>
  <path id="新闻中心" class="cls-2" d="M2866.08,6586.24c0.6-.33.6-0.45-0.06-0.6a17.524,17.524,0,0,1-2.04-.84,13.6,13.6,0,0,1-3.78,5.73,4.4,4.4,0,0,1,2.43.96,44.077,44.077,0,0,1,2.28-3.81A6.67,6.67,0,0,1,2866.08,6586.24Zm8.64,2.43c-1.02-1.35-1.71-2.28-2.79-3.57l-1.77,1.2a12.306,12.306,0,0,1,2.49,3.87Zm-7.38-12.78a21.52,21.52,0,0,1-1.41-3l-2.25.87a7.533,7.533,0,0,1,1.26,3Zm3.48,1.2c1.5-1.83,2.01-2.43,2.34-2.58,0.48-.21.39-0.42,0.06-0.51a7.225,7.225,0,0,1-2.34-1.08,33.515,33.515,0,0,1-1.86,4.2,68.158,68.158,0,0,1-7.92-.27v2.4a61.856,61.856,0,0,1,6.3-.3v3a46.886,46.886,0,0,1-5.76-.27v2.49a52.38,52.38,0,0,1,5.76-.3v4.86c0,2.67-.33,2.79-3.06,2.31a4.863,4.863,0,0,1,1.05,2.85c3.9-.63,4.23-1.02,4.23-3.21v-6.78a32.41,32.41,0,0,1,5.04.27v-2.49a50.234,50.234,0,0,1-5.04.27v-3a46.958,46.958,0,0,1,5.43.3v-2.4C2873.91,6576.97,2872.56,6577.06,2870.82,6577.09Zm8.19-.09v-5.67c1.29-.06,1.59-0.09,3.81-0.36,2.67-.33,3.18-0.39,3.81-0.27,0.75,0.15.93,0,.33-0.57a9.8,9.8,0,0,1-1.53-2.37,24.157,24.157,0,0,1-8.94,1.71,75.744,75.744,0,0,1,.21,8.25c-0.24,8.97-1.23,12.33-4.02,15.18a6.107,6.107,0,0,1,2.73,1.23c2.49-3.75,3.48-7.77,3.6-15.06h2.73v10.59a40.945,40.945,0,0,1-.24,4.77h2.91a39.946,39.946,0,0,1-.24-4.77v-10.59a15.063,15.063,0,0,1,3.18.39v-2.82a17.621,17.621,0,0,1-4.44.36h-3.9Zm-11.16-6.72a52.2,52.2,0,0,1-5.73-.3v2.55a49.582,49.582,0,0,1,6.48-.33,44.991,44.991,0,0,1,6.21.33v-2.55c-1.17.15-2.55,0.24-4.41,0.3-0.33-1.29-.51-2.1-0.75-3.15l-2.7.54C2867.28,6568.48,2867.58,6569.38,2867.85,6570.28Zm27.39,3.45c0.33-.45.24-0.6-0.36-0.6a11.459,11.459,0,0,1-2.52-.3,15.529,15.529,0,0,1,.18,3.06v14.37a16.5,16.5,0,0,1-.3,3.48h2.73a29.1,29.1,0,0,1-.15-3.48v-14.31A4.9,4.9,0,0,1,2895.24,6573.73Zm20.76-5.13c-1.83.12-4.77,0.27-7.32,0.27a52.491,52.491,0,0,1-7.5-.33v2.49a67.851,67.851,0,0,1,7.56-.27h4.83v19.47c0,0.87-.54,1.35-3.24,1.14a6.449,6.449,0,0,1,1.11,2.85c3.99-.45,4.44-1.14,4.44-3.6v-18.57C2915.88,6570.79,2915.91,6569.77,2916,6568.6Zm-16.47,2.49a17.722,17.722,0,0,1-2.73-3.69l-2.13,1.26a15.041,15.041,0,0,1,2.67,3.96Zm1.38,4.5h6.12v2.4h-6.12v-2.4Zm-2.13,10.98c-0.9.03-1.8,0.03-2.73,0l-0.03,2.28a30.387,30.387,0,0,1,3.3-.45l7.71-.45c0,1.5,0,3.33-.06,4.2h2.43c-0.09-1.17-.15-2.7-0.15-4.32a25.862,25.862,0,0,1,2.85-.06l-0.03-2.04c-0.51.09-1.74,0.27-2.82,0.36v-10.47c0.66,0.03,1.35.12,2.13,0.21v-2.37a42.978,42.978,0,0,1-7.2.36,51.054,51.054,0,0,1-7.62-.39v2.37a15.7,15.7,0,0,1,2.22-.18v10.95Zm2.13-2.76h6.12v2.4l-6.12.27v-2.67Zm0-4.11h6.12v2.37h-6.12v-2.37Zm41.58,4.59v1.83h2.85c-0.06-1.26-.15-3.09-0.15-4.29v-5.76c0-1.05.09-2.91,0.15-3.69-1.47.18-4.77,0.3-10.02,0.33v-3.51a2.384,2.384,0,0,1,.36-1.65c0.48-.42.39-0.54-0.09-0.54a28.65,28.65,0,0,1-3.18-.18,16.549,16.549,0,0,1,.3,4.47v1.41c-5.01-.03-8.25-0.12-9.72-0.33a22.741,22.741,0,0,1,.21,3.09v6.48c0,1.26-.09,3.21-0.21,4.47h2.76v-2.13h6.96v4.38c0,1.35-.15,3.96-0.3,5.4h3.21c-0.18-1.65-.3-4.05-0.3-5.4v-4.38h7.17Zm-7.17-2.25v-7.08h7.17v7.08h-7.17Zm-9.57,0v-7.08h6.96v7.08h-6.96Zm42.57-8.7a79.857,79.857,0,0,1-5.61-5.91l-2.37,1.86a33.712,33.712,0,0,1,5.34,6.12Zm9.15,10.35c-1.56-2.07-3.9-5.25-5.46-7.44l-2.31,1.56a26.232,26.232,0,0,1,4.65,7.41Zm-21.6-5.79c0.48-.45.42-0.63-0.33-0.6a7.428,7.428,0,0,1-2.64-.39,20.238,20.238,0,0,1-2.52,10.05,8.725,8.725,0,0,1,3.21.66c0.54-2.34,1.23-5.46,1.59-7.26A8.122,8.122,0,0,1,2955.87,6577.9Zm17.22,10.14a4.381,4.381,0,0,1-2.88-2.13c-0.45,3.48-.84,4.02-2.1,4.2a35.212,35.212,0,0,1-5.31.06c-0.87-.12-1.05-0.72-1.05-1.59v-10.92a1.01,1.01,0,0,1,.36-0.93c0.48-.39.36-0.57-0.27-0.54a14.254,14.254,0,0,1-3.03-.15,24.877,24.877,0,0,1,.27,4.02V6589c0,2.55.54,3.36,1.77,3.63a40.333,40.333,0,0,0,7.68.09C2971.38,6592.42,2971.71,6592.24,2973.09,6588.04Z" transform="translate(-2860.19 -6527.28)"/>
  <rect id="Rectangle_5_copy_11" data-name="Rectangle 5 copy 11" class="cls-3" x="29.81" y="107.72" width="60" height="3"/>
</svg>
