<svg id="组_16" data-name="组 16" xmlns="http://www.w3.org/2000/svg" xmlns:xlink="http://www.w3.org/1999/xlink" width="147.59" height="112.91" viewBox="0 0 147.59 112.91">
  <defs>
    <style>
      .cls-1, .cls-2 {
        fill: #333;
        fill-rule: evenodd;
      }

      .cls-1 {
        filter: url(#filter);
      }

      .cls-2 {
        filter: url(#filter-2);
      }

      .cls-3 {
        fill: #2c69ff;
        filter: url(#filter-3);
      }
    </style>
    <filter id="filter" x="2860.59" y="3773.09" width="132.35" height="28.72" filterUnits="userSpaceOnUse">
      <feFlood result="flood" flood-color="#fff"/>
      <feComposite result="composite" operator="in" in2="SourceGraphic"/>
      <feBlend result="blend" in2="SourceGraphic"/>
    </filter>
    <filter id="filter-2" x="2849.66" y="3814.84" width="147.59" height="28.04" filterUnits="userSpaceOnUse">
      <feFlood result="flood" flood-color="#fff"/>
      <feComposite result="composite" operator="in" in2="SourceGraphic"/>
      <feBlend result="blend" in2="SourceGraphic"/>
    </filter>
    <filter id="filter-3" x="44.34" y="109.91" width="60" height="3" filterUnits="userSpaceOnUse">
      <feFlood result="flood" flood-color="#fff"/>
      <feComposite result="composite" operator="in" in2="SourceGraphic"/>
      <feBlend result="blend" in2="SourceGraphic"/>
    </filter>
  </defs>
  <path id="Our_strengths" data-name="Our strengths" class="cls-1" d="M2870.13,3775.3a4.032,4.032,0,0,0-.72-0.06,4.526,4.526,0,0,0-2.29.65,8.6,8.6,0,0,0-2.09,1.74,15.27,15.27,0,0,0-1.79,2.52,20.172,20.172,0,0,0-1.4,3.01,20.611,20.611,0,0,0-.91,3.22,15.568,15.568,0,0,0-.33,3.09,6.309,6.309,0,0,0,1.17,4.14,4.113,4.113,0,0,0,3.37,1.41,8.023,8.023,0,0,0,3.14-.7,11.249,11.249,0,0,0,3.08-1.97,14.758,14.758,0,0,0,2.06-2.23,16.167,16.167,0,0,0,1.67-2.74,15.231,15.231,0,0,0,1.1-3.08,13.551,13.551,0,0,0,.4-3.3,5.552,5.552,0,0,0-.21-1.68,3.251,3.251,0,0,0-.5-1.04,2.132,2.132,0,0,0-.65-0.6,7.108,7.108,0,0,0-.63-0.35c0.01,0.08.03,0.17,0.04,0.29s0.04,0.26.06,0.44a5.538,5.538,0,0,1,.06.67c0.02,0.27.03,0.59,0.03,0.97a19.148,19.148,0,0,1-.25,2.99,20.754,20.754,0,0,1-.72,2.97,19.441,19.441,0,0,1-1.14,2.72,12.829,12.829,0,0,1-1.52,2.29,9.944,9.944,0,0,1-1.24,1.27,9.248,9.248,0,0,1-1.37.99,7.539,7.539,0,0,1-1.37.63,3.693,3.693,0,0,1-1.25.23,2.051,2.051,0,0,1-1.82-.91,4.949,4.949,0,0,1-.63-2.78,13.522,13.522,0,0,1,.34-2.93,16.943,16.943,0,0,1,.92-2.88,16.052,16.052,0,0,1,1.41-2.62,12.141,12.141,0,0,1,1.77-2.13,8.216,8.216,0,0,1,2.03-1.44,4.707,4.707,0,0,1,2.15-.53c0.22,0,.47.01,0.74,0.03a5.618,5.618,0,0,1,.82.14,1.1,1.1,0,0,0-.3-0.5,5.274,5.274,0,0,0-.68-0.61c-0.28-.21-0.57-0.41-0.89-0.61a6.525,6.525,0,0,0-.94-0.49A3.149,3.149,0,0,0,2870.13,3775.3Zm13.84,17.53c0.22,0.11.43,0.21,0.65,0.3a4.726,4.726,0,0,0,.59.21,2,2,0,0,0,.43.07,0.091,0.091,0,0,0,.05-0.03,0.1,0.1,0,0,0,.04-0.07,0.8,0.8,0,0,0-.08-0.29,2.925,2.925,0,0,1-.18-0.42,3.117,3.117,0,0,1-.18-0.62,3.826,3.826,0,0,1-.08-0.88,6.307,6.307,0,0,1,.31-1.92,15.8,15.8,0,0,1,.77-1.98c0.3-.66.63-1.34,0.98-2.02s0.67-1.39.96-2.09a1.216,1.216,0,0,0-.36-0.28,3.249,3.249,0,0,0-.56-0.24,6.95,6.95,0,0,0-.69-0.18,3.249,3.249,0,0,0-.67-0.07,5.036,5.036,0,0,0-.71.83,9.226,9.226,0,0,0-.53.87,8.417,8.417,0,0,0-.38.83c-0.11.27-.19,0.49-0.25,0.69a8.239,8.239,0,0,1-.49,1.05c-0.21.35-.42,0.69-0.64,1.02s-0.44.64-.66,0.93-0.41.54-.56,0.76c-0.66.9-1.17,1.56-1.54,2a2.872,2.872,0,0,1-.91.79,0.484,0.484,0,0,1-.11-0.15,0.53,0.53,0,0,1-.06-0.28,4.6,4.6,0,0,1,.11-0.84,10.652,10.652,0,0,1,.27-1.08c0.11-.37.23-0.72,0.34-1.06a7.8,7.8,0,0,1,.29-0.77,27.425,27.425,0,0,1,1.95-3.93,17.185,17.185,0,0,1,1.1-1.61,1.482,1.482,0,0,0-.47-0.35,5.829,5.829,0,0,0-.58-0.23,3.122,3.122,0,0,0-.59-0.13c-0.19-.02-0.36-0.04-0.5-0.04a6.3,6.3,0,0,0-1.45,1.53,15.35,15.35,0,0,0-1.24,2.09,22.272,22.272,0,0,0-.97,2.26,20.264,20.264,0,0,0-.64,2.07,5.766,5.766,0,0,0-.15.93c-0.03.29-.04,0.66-0.04,1.11a1.783,1.783,0,0,0,.37.77,2.762,2.762,0,0,0,.65.58,3.381,3.381,0,0,0,.79.38,2.97,2.97,0,0,0,.81.13,1.181,1.181,0,0,0,.44-0.22,4.306,4.306,0,0,0,.59-0.52c0.13-.16.32-0.41,0.58-0.75s0.51-.67.78-1.02a11.544,11.544,0,0,1,.73-0.91,1.079,1.079,0,0,1,.43-0.39,2.769,2.769,0,0,0-.12.87,3.6,3.6,0,0,0,.16.98,1.756,1.756,0,0,0,.61.96A5.155,5.155,0,0,0,2883.97,3792.83Zm4.45,0.1a4.768,4.768,0,0,0,.54.41,5.826,5.826,0,0,0,.6.32,1.883,1.883,0,0,0,.52.16c0.24-1.11.49-2.06,0.75-2.86a10.665,10.665,0,0,1,.96-2.12,8.143,8.143,0,0,1,1.36-1.68,16.522,16.522,0,0,1,1.92-1.55,4.056,4.056,0,0,0,1.89,2.21,6.881,6.881,0,0,0,.66-0.77,2.05,2.05,0,0,0,.33-0.55,3.193,3.193,0,0,1-.31-1.59,6.429,6.429,0,0,1,.43-2.28,0.793,0.793,0,0,0-.43-0.3,2.063,2.063,0,0,0-.65-0.11,0.83,0.83,0,0,0-.51.12,16.978,16.978,0,0,1-1.86,2.36c-0.66.7-1.42,1.44-2.29,2.2a19.691,19.691,0,0,1,1-2.52,9.1,9.1,0,0,1,1.14-1.75,2.174,2.174,0,0,0-.41-0.35,5.578,5.578,0,0,0-.6-0.34,4.3,4.3,0,0,0-.7-0.29,3.85,3.85,0,0,0-.69-0.17,3.368,3.368,0,0,0-.53.71,12.088,12.088,0,0,0-.55,1.16c-0.29.69-.59,1.47-0.89,2.33s-0.59,1.72-.86,2.58-0.51,1.66-.71,2.42-0.34,1.38-.42,1.84A1.161,1.161,0,0,0,2888.42,3792.93Zm23.52-10.25a7.7,7.7,0,0,0-.77-0.88q-0.435-.42-0.87-0.78a2.487,2.487,0,0,0-.71-0.42,3.768,3.768,0,0,0-1.2.53,4.473,4.473,0,0,0-1.01.93,5.034,5.034,0,0,0-.7,1.18,3.494,3.494,0,0,0-.26,1.29,4.591,4.591,0,0,0,.12,1.03c0.08,0.34.16,0.7,0.25,1.06s0.17,0.73.25,1.12a5.761,5.761,0,0,1,.12,1.18,4.693,4.693,0,0,0-1.95.4,5.321,5.321,0,0,0-1.56,1.04,5.071,5.071,0,0,0-1.05,1.47,4.287,4.287,0,0,0-.38,1.76,2.079,2.079,0,0,0,.34.66,3.448,3.448,0,0,0,.56.59,3.525,3.525,0,0,0,.68.43,2.16,2.16,0,0,0,.7.19,4.519,4.519,0,0,0,3.04-1.41,4.71,4.71,0,0,0,1.09-3.23c0-.19-0.01-0.35-0.01-0.48s-0.02-.25-0.02-0.38a0.68,0.68,0,0,1,.04-0.23,0.335,0.335,0,0,1,.2-0.15,4.3,4.3,0,0,1,.5-0.16c0.21-.05.5-0.12,0.87-0.2a0.414,0.414,0,0,0,.1-0.31,0.382,0.382,0,0,0-.03-0.19h-1.68a1.4,1.4,0,0,1-.02-0.29,9.527,9.527,0,0,1,.5-3.51,1.621,1.621,0,0,1,1.47-1.2,0.506,0.506,0,0,1,.42.23,1.007,1.007,0,0,1,.15.57,1.158,1.158,0,0,1-.06.33c-0.04.13-.08,0.26-0.13,0.39s-0.09.24-.13,0.34a0.767,0.767,0,0,0-.06.23,0.345,0.345,0,0,0,.31.36,0.582,0.582,0,0,0,.41-0.26,3.963,3.963,0,0,0,.41-0.66,5.151,5.151,0,0,0,.32-0.89,4.718,4.718,0,0,0,.16-0.95A2.431,2.431,0,0,0,2911.94,3782.68Zm-7.99,10.81a1.961,1.961,0,0,1,.33-0.96,6.791,6.791,0,0,1,.84-1.07,6.311,6.311,0,0,1,1.08-.88,2.826,2.826,0,0,1,1.06-.45,3.834,3.834,0,0,1-.23,1.27,5.226,5.226,0,0,1-.61,1.23,5.546,5.546,0,0,1-.9,1.03,4.036,4.036,0,0,1-1.09.7,1.035,1.035,0,0,1-.48-0.87h0Zm11.21-9.68c-0.31.73-.59,1.48-0.84,2.23s-0.48,1.48-.68,2.17a18.952,18.952,0,0,0-.44,1.91,8.95,8.95,0,0,0-.16,1.45,1.537,1.537,0,0,0,.32.88,3.371,3.371,0,0,0,.8.8,4.988,4.988,0,0,0,1.09.6,3.21,3.21,0,0,0,1.2.24,2.075,2.075,0,0,0,.58-0.21,6.811,6.811,0,0,0,.79-0.47c0.27-.18.52-0.37,0.76-0.56a2.49,2.49,0,0,0,.49-0.5,1.109,1.109,0,0,0-.17-0.36,4.507,4.507,0,0,1-1.15.67,5.218,5.218,0,0,1-1.37.36,0.985,0.985,0,0,1-.79-1.17,9.106,9.106,0,0,1,.18-1.69c0.12-.62.29-1.29,0.5-2s0.48-1.44.79-2.2,0.67-1.53,1.07-2.3a8.061,8.061,0,0,0,2.86-.45,1.156,1.156,0,0,0-.07-0.37,0.927,0.927,0,0,0-.2-0.3,8.236,8.236,0,0,1-.99.07h-0.97c0.4-.67.77-1.26,1.11-1.78s0.76-1.07,1.24-1.68a1.5,1.5,0,0,0-.43-0.29c-0.21-.09-0.44-0.18-0.7-0.27s-0.51-.16-0.76-0.22a3.193,3.193,0,0,0-.61-0.08,2.674,2.674,0,0,0-.54.52,11.829,11.829,0,0,0-.74.98c-0.27.39-.54,0.82-0.82,1.29s-0.54.93-.78,1.41h-1.05a7.109,7.109,0,0,1-1.2-.1,4.43,4.43,0,0,0,.09.81,1.667,1.667,0,0,0,.22.61h1.37Zm5.4,9.12a4.768,4.768,0,0,0,.54.41,5.826,5.826,0,0,0,.6.32,1.936,1.936,0,0,0,.51.16,26.75,26.75,0,0,1,.76-2.86,9.639,9.639,0,0,1,.96-2.12,8.1,8.1,0,0,1,1.35-1.68,16.522,16.522,0,0,1,1.92-1.55,3.882,3.882,0,0,0,.75,1.28,3.928,3.928,0,0,0,1.15.93,6.881,6.881,0,0,0,.66-0.77,1.687,1.687,0,0,0,.32-0.55,3.307,3.307,0,0,1-.31-1.59,6.658,6.658,0,0,1,.43-2.28,0.757,0.757,0,0,0-.43-0.3,2.016,2.016,0,0,0-.65-0.11,0.8,0.8,0,0,0-.5.12,18.617,18.617,0,0,1-1.86,2.36c-0.66.7-1.43,1.44-2.29,2.2a19.823,19.823,0,0,1,.99-2.52,9.1,9.1,0,0,1,1.14-1.75,2.076,2.076,0,0,0-.4-0.35,5.578,5.578,0,0,0-.6-0.34,4.7,4.7,0,0,0-.7-0.29,3.748,3.748,0,0,0-.7-0.17,3.344,3.344,0,0,0-.52.71,11.782,11.782,0,0,0-.56,1.16c-0.28.69-.58,1.47-0.88,2.33s-0.6,1.72-.87,2.58-0.51,1.66-.71,2.42-0.34,1.38-.42,1.84A1.209,1.209,0,0,0,2920.56,3792.93Zm16.46-11.23a3.906,3.906,0,0,0-1.6.36,6.962,6.962,0,0,0-1.56.98,9.8,9.8,0,0,0-1.41,1.46,10.9,10.9,0,0,0-1.15,1.79,9.473,9.473,0,0,0-.77,1.97,7.42,7.42,0,0,0-.28,2,3.522,3.522,0,0,0,.93,2.46,3.94,3.94,0,0,0,2.58,1.22,6.677,6.677,0,0,0,2.43-1.22,11.377,11.377,0,0,0,2.37-2.38,5.276,5.276,0,0,0-.41-0.41c-0.26.27-.55,0.57-0.88,0.9a10.07,10.07,0,0,1-1.05.91,6.924,6.924,0,0,1-1.19.71,3.052,3.052,0,0,1-1.27.29,0.855,0.855,0,0,1-.56-0.18,1.246,1.246,0,0,1-.33-0.47,2.427,2.427,0,0,1-.17-0.63,4.847,4.847,0,0,1-.05-0.64c0-.12.01-0.22,0.01-0.33s0.02-.2.02-0.3a19.911,19.911,0,0,0,2.68-1.25,8.828,8.828,0,0,0,1.96-1.45,5.509,5.509,0,0,0,1.24-1.87,8.334,8.334,0,0,0,.52-2.56,3.193,3.193,0,0,0-2.06-1.36h0Zm-0.96,5.22a10.816,10.816,0,0,1-3.19,2.36,9.545,9.545,0,0,1,1.91-3.74,5.6,5.6,0,0,1,1.3-1.16,3.677,3.677,0,0,1,1.35-.52A4.959,4.959,0,0,1,2936.06,3786.92Zm7.07-4.26a24.384,24.384,0,0,0-1.67,3.31c-0.27.62-.52,1.25-0.74,1.87s-0.42,1.22-.57,1.79-0.27,1.08-.36,1.55a6.1,6.1,0,0,0-.13,1.15,5.184,5.184,0,0,0,.36,1.07,1.789,1.789,0,0,0,.74.8,2.678,2.678,0,0,0,.69-0.68c0.26-.35.57-0.77,0.92-1.26,0.63-.87,1.24-1.65,1.84-2.36a28.277,28.277,0,0,1,2.03-2.13,5.733,5.733,0,0,1,1.29-1.03,4.465,4.465,0,0,1,.65-0.34c-0.27.64-.5,1.19-0.67,1.64s-0.31.85-.41,1.18a5.163,5.163,0,0,0-.19.85,5.418,5.418,0,0,0-.05.65,4.647,4.647,0,0,0,.1,1,2,2,0,0,0,.34.8,1.848,1.848,0,0,0,.7.54,2.709,2.709,0,0,0,1.14.2,1.6,1.6,0,0,0,.49-0.09c0.19-.07.37-0.15,0.57-0.24s0.37-.2.55-0.31a4.771,4.771,0,0,0,.45-0.34,0.831,0.831,0,0,0-.06-0.28,0.364,0.364,0,0,0-.15-0.2,1.3,1.3,0,0,0-.46.12,1.4,1.4,0,0,1-.55.12,0.572,0.572,0,0,1-.44-0.17,1.2,1.2,0,0,1-.16-0.77,6.233,6.233,0,0,1,.26-1.65,14.216,14.216,0,0,1,.66-1.79c0.27-.58.54-1.13,0.82-1.63a8.617,8.617,0,0,1,.76-1.19,1.935,1.935,0,0,1,.51-0.47,0.276,0.276,0,0,0,.18-0.13,3.749,3.749,0,0,0-.66-0.88,1.418,1.418,0,0,0-1.04-.42,2.63,2.63,0,0,0-1.27.4,8.585,8.585,0,0,0-1.38.96,16.64,16.64,0,0,0-1.31,1.2c-0.42.42-.78,0.8-1.08,1.12a7.7,7.7,0,0,0-.6.66c-0.26.29-.53,0.62-0.83,0.98s-0.6.72-.91,1.08-0.6.68-.85,0.95a4.434,4.434,0,0,1,.51-1.41c0.3-.56.63-1.16,1-1.8s0.73-1.25,1.1-1.86a10.957,10.957,0,0,0,.82-1.56,4.555,4.555,0,0,0-.82-1.45,2.578,2.578,0,0,0-1.17-.85A5.4,5.4,0,0,0,2943.13,3782.66Zm5.72,18.13a4.853,4.853,0,0,0,.9.53,6.381,6.381,0,0,0,1.12.36,5.988,5.988,0,0,0,1.17.13,4.185,4.185,0,0,0,.95-0.12,5.769,5.769,0,0,0,1.06-.36,6.84,6.84,0,0,0,1.05-.59,4.786,4.786,0,0,0,.93-0.8,17.377,17.377,0,0,0,1.55-2.01,20.941,20.941,0,0,0,1.27-2.25c0.39-.81.77-1.69,1.15-2.64s0.78-2.01,1.21-3.16c0.24-.66.53-1.41,0.85-2.26s0.77-1.89,1.31-3.14a1.805,1.805,0,0,0-.69-0.36,5.317,5.317,0,0,0-1.16-.22,17.475,17.475,0,0,1-3.24,5.36q-0.45.495-.96,0.99a12.239,12.239,0,0,1-.97.87c-0.31.24-.59,0.45-0.84,0.61a1.206,1.206,0,0,1-.59.24,0.075,0.075,0,0,1-.07-0.04,0.639,0.639,0,0,1-.02-0.2,4.534,4.534,0,0,1,.37-1.68,13.221,13.221,0,0,1,.96-1.92,18.124,18.124,0,0,1,2.9-3.61,9.144,9.144,0,0,1,1.54-1.19,2.616,2.616,0,0,1,1.33-.46,1.329,1.329,0,0,1,.67.15,2.06,2.06,0,0,0-.61-1.19,1.952,1.952,0,0,0-1.26-.35,4.561,4.561,0,0,0-1.76.37,9.1,9.1,0,0,0-1.78,1,10.663,10.663,0,0,0-1.65,1.46,10.979,10.979,0,0,0-1.36,1.79,10.605,10.605,0,0,0-.92,1.93,5.583,5.583,0,0,0-.35,1.92,4.224,4.224,0,0,0,.14,1.09,3.281,3.281,0,0,0,.41.93,2.874,2.874,0,0,0,.61.68,1.648,1.648,0,0,0,.76.35,5.3,5.3,0,0,0,.75-0.38c0.3-.18.6-0.37,0.9-0.58s0.6-.43.88-0.66a7.99,7.99,0,0,0,.71-0.64,28.39,28.39,0,0,1-1.44,4.08,14.8,14.8,0,0,1-1.81,3.05,7.979,7.979,0,0,1-2.13,1.91,4.613,4.613,0,0,1-2.37.66c-0.18,0-.33-0.01-0.46-0.02a1.234,1.234,0,0,1-.37-0.12q-0.18-.105-0.39-0.24c-0.13-.1-0.3-0.24-0.49-0.41a2.253,2.253,0,0,0-.21.24,0.388,0.388,0,0,0-.1.26A1.9,1.9,0,0,0,2948.85,3800.79Zm17.74-16.98c-0.31.73-.59,1.48-0.84,2.23s-0.48,1.48-.67,2.17a19.148,19.148,0,0,0-.45,1.91,8.785,8.785,0,0,0-.15,1.45,1.521,1.521,0,0,0,.31.88,3.568,3.568,0,0,0,.8.8,4.988,4.988,0,0,0,1.09.6,3.21,3.21,0,0,0,1.2.24,2.075,2.075,0,0,0,.58-0.21,6.066,6.066,0,0,0,.79-0.47,9.35,9.35,0,0,0,.76-0.56,2.49,2.49,0,0,0,.49-0.5,1.109,1.109,0,0,0-.17-0.36,4.342,4.342,0,0,1-1.15.67,5.218,5.218,0,0,1-1.37.36,0.985,0.985,0,0,1-.79-1.17,9.106,9.106,0,0,1,.18-1.69c0.12-.62.29-1.29,0.5-2s0.48-1.44.8-2.2,0.66-1.53,1.06-2.3a8.023,8.023,0,0,0,2.86-.45,0.937,0.937,0,0,0-.07-0.37,0.907,0.907,0,0,0-.19-0.3,8.551,8.551,0,0,1-1,.07h-0.97c0.4-.67.77-1.26,1.11-1.78s0.76-1.07,1.24-1.68a1.368,1.368,0,0,0-.43-0.29c-0.21-.09-0.44-0.18-0.7-0.27s-0.51-.16-0.75-0.22a3.384,3.384,0,0,0-.62-0.08,3.338,3.338,0,0,0-.54.52,11.829,11.829,0,0,0-.74.98c-0.26.39-.54,0.82-0.82,1.29s-0.54.93-.78,1.41h-1.05a7.109,7.109,0,0,1-1.2-.1,4.43,4.43,0,0,0,.09.81,1.667,1.667,0,0,0,.22.61h1.37Zm5.73,9.24c0.07,0.17.14,0.35,0.21,0.51a1.657,1.657,0,0,0,.24.42,0.332,0.332,0,0,0,.2.17,0.383,0.383,0,0,0,.24-0.14,1.041,1.041,0,0,0,.22-0.31,20.656,20.656,0,0,1,1.26-2.54,27.139,27.139,0,0,1,1.56-2.38,22.809,22.809,0,0,1,1.7-2.08,14.738,14.738,0,0,1,1.74-1.6c0.18-.12.37-0.25,0.57-0.38a1.087,1.087,0,0,1,.37-0.19,0.08,0.08,0,0,1,.09.09q-0.57,1.185-1.08,2.31c-0.33.75-.62,1.44-0.86,2.07s-0.43,1.19-.56,1.66a4.148,4.148,0,0,0-.21,1.07,1.5,1.5,0,0,0,.11.55,1.663,1.663,0,0,0,.29.48,1.568,1.568,0,0,0,.42.35,0.964,0.964,0,0,0,.48.13,1.9,1.9,0,0,0,.57-0.14q0.39-.15.78-0.33a5.437,5.437,0,0,0,.69-0.36,0.561,0.561,0,0,0,.29-0.27,0.266,0.266,0,0,0-.03-0.12,1.144,1.144,0,0,0-.14-0.27,1.012,1.012,0,0,0-.27.1,1.477,1.477,0,0,1-.57.09,0.384,0.384,0,0,1-.31-0.08,0.5,0.5,0,0,1-.08-0.32,4.332,4.332,0,0,1,.42-1.48,21.684,21.684,0,0,1,1.08-2.16c0.44-.78.93-1.55,1.46-2.32a18.4,18.4,0,0,1,1.53-1.96,4.293,4.293,0,0,0-1.27-1.11,2.782,2.782,0,0,0-1.34-.41q-2.235,0-6.84,5.88c0.14-.57.3-1.12,0.46-1.64s0.36-1.04.57-1.56,0.43-1.04.68-1.57,0.53-1.1.83-1.71a23.628,23.628,0,0,1,2.28-3.54,41.894,41.894,0,0,1,3.24-3.73,3.025,3.025,0,0,0-.56-0.43,4.566,4.566,0,0,0-.77-0.37,5.108,5.108,0,0,0-.87-0.25,3.524,3.524,0,0,0-.82-0.1,23.829,23.829,0,0,0-1.62,2.06c-0.54.76-1.06,1.55-1.55,2.38s-0.96,1.68-1.38,2.54-0.8,1.72-1.12,2.57c-0.37.95-.7,1.89-0.99,2.83s-0.56,1.85-.77,2.72a23.246,23.246,0,0,0-.49,2.43,12.788,12.788,0,0,0-.17,1.98A1.481,1.481,0,0,0,2972.32,3793.05Zm20.21-10.37a7.7,7.7,0,0,0-.77-0.88c-0.28-.28-0.58-0.54-0.87-0.78a2.36,2.36,0,0,0-.71-0.42,3.768,3.768,0,0,0-1.2.53,4.622,4.622,0,0,0-1.7,2.11,3.318,3.318,0,0,0-.27,1.29,4.591,4.591,0,0,0,.12,1.03c0.08,0.34.17,0.7,0.25,1.06s0.18,0.73.26,1.12a5.761,5.761,0,0,1,.12,1.18,4.707,4.707,0,0,0-1.96.4,5.321,5.321,0,0,0-1.56,1.04,4.858,4.858,0,0,0-1.04,1.47,4.143,4.143,0,0,0-.39,1.76,2.308,2.308,0,0,0,.34.66,3.885,3.885,0,0,0,.56.59,3.594,3.594,0,0,0,.69.43,2.107,2.107,0,0,0,.69.19,4.519,4.519,0,0,0,3.04-1.41,4.662,4.662,0,0,0,1.09-3.23c0-.19,0-0.35-0.01-0.48s-0.01-.25-0.01-0.38a0.712,0.712,0,0,1,.03-0.23,0.365,0.365,0,0,1,.21-0.15,3.511,3.511,0,0,1,.49-0.16c0.21-.05.51-0.12,0.87-0.2a0.414,0.414,0,0,0,.1-0.31,0.657,0.657,0,0,0-.02-0.19h-1.68a0.806,0.806,0,0,1-.03-0.29,9.287,9.287,0,0,1,.51-3.51,1.6,1.6,0,0,1,1.46-1.2,0.482,0.482,0,0,1,.42.23,1.009,1.009,0,0,1,.16.57,1.158,1.158,0,0,1-.06.33c-0.04.13-.09,0.26-0.14,0.39s-0.09.24-.13,0.34a0.767,0.767,0,0,0-.06.23,0.345,0.345,0,0,0,.31.36,0.582,0.582,0,0,0,.41-0.26,3.4,3.4,0,0,0,.41-0.66,4.435,4.435,0,0,0,.32-0.89,4.718,4.718,0,0,0,.16-0.95A2.226,2.226,0,0,0,2992.53,3782.68Zm-7.99,10.81a1.891,1.891,0,0,1,.34-0.96,5.793,5.793,0,0,1,.84-1.07,5.626,5.626,0,0,1,1.08-.88,2.725,2.725,0,0,1,1.05-.45,3.6,3.6,0,0,1-.23,1.27,5.226,5.226,0,0,1-.61,1.23,4.9,4.9,0,0,1-.9,1.03,4.036,4.036,0,0,1-1.09.7,1.035,1.035,0,0,1-.48-0.87h0Z" transform="translate(-2849.66 -3773.09)"/>
  <path id="竭律的优势" class="cls-2" d="M2863.84,3824.07V3822h7.98v2.07h-7.98Zm0-3.87v-1.95h7.98v1.95h-7.98Zm-9.75,13.44c-0.33-2.61-.57-5.46-0.72-8.01l-2.4.36a33.253,33.253,0,0,1,.75,7.89Zm5.94-10.05v-2.61a66.92,66.92,0,0,1-9.81,0v2.61a33.385,33.385,0,0,1,4.92-.24A43.692,43.692,0,0,1,2860.03,3823.59Zm-3.24-4.56a18.53,18.53,0,0,1-1.38-3.78l-2.67.78a12.9,12.9,0,0,1,1.17,3.81Zm-1.8,16.95a47.576,47.576,0,0,1-5.34.78,11.374,11.374,0,0,1,.75,2.88,65.334,65.334,0,0,1,9.45-2.79,4.73,4.73,0,0,1,.12-2.31c-1.05.36-2.04,0.66-2.97,0.93,1.35-8.04,1.68-8.94,2.13-9.57,0.24-.33.21-0.42-0.18-0.45a10.314,10.314,0,0,1-2.7-.63A54.362,54.362,0,0,1,2854.99,3835.98Zm8.52-5.85h3.51a3.184,3.184,0,1,0-1.26,6.24,20.476,20.476,0,0,0,2.1-2.94,27.228,27.228,0,0,1,2.79,2.82l1.71-1.83a35.373,35.373,0,0,1-3.57-2.82,14.524,14.524,0,0,0,.54-1.47h3.84l-0.18,8.04c-0.03,1.23-.33,1.38-2.82,1.32,0.84,1.68.96,2.34,0.87,2.91,3.78-.69,4.44-1.68,4.44-4.2l0.12-10.29a25.374,25.374,0,0,1-3.75.3h-6.84a25.9,25.9,0,0,0,1.47-2.22c4.02,0,6.3.03,7.65,0.09-0.06-1.17-.09-3.15-0.09-5.01,0-1.89.03-3.84,0.09-4.95a49.761,49.761,0,0,1-6.3.18,48.819,48.819,0,0,1-6.27-.18c0.06,1.08.09,3.06,0.09,4.95,0,1.86-.03,3.84-0.09,5.01,0.75-.06,1.32-0.09,2.58-0.09a23.375,23.375,0,0,1-5.76,6.18,3.761,3.761,0,0,1,1.89,1.41c0.36-.33.72-0.69,1.08-1.05,0.03,0.6.06,1.2,0.06,1.8v3.57a13.707,13.707,0,0,1-.06,1.83c0.6-.03,2.28-0.06,4.11-0.06,1.86,0,3.78.03,4.29,0.06v-2.28a11.7,11.7,0,0,1-2.34.18h-3.9v-3.6a2.59,2.59,0,0,1,.33-1.5c0.24-.24.18-0.39-0.18-0.36a10.433,10.433,0,0,1-1.92-.03C2862.34,3831.51,2862.94,3830.85,2863.51,3830.13Zm24.06-13.56a11.662,11.662,0,0,1-2.31-1.41,15.5,15.5,0,0,1-1.83,3.36,14.641,14.641,0,0,1-3.21,3.51,13.459,13.459,0,0,1,1.98,1.53c0.9-.96,2.25-2.55,2.88-3.42,1.65-2.28,2.16-2.88,2.43-2.94C2888.08,3817.08,2888.08,3816.81,2887.57,3816.57Zm-2.01,9.81c0.12-.18.24-0.39,0.36-0.57a12.521,12.521,0,0,1,1.38-1.92c0.54-.3.6-0.42,0.06-0.63a11.263,11.263,0,0,1-2.13-1.23,17.927,17.927,0,0,1-1.98,4.02,18.4,18.4,0,0,1-3.72,4.2,5.819,5.819,0,0,1,1.38,2.28c0.96-1.11,1.71-2.01,2.43-2.94v7.62a42.642,42.642,0,0,1-.27,4.83h2.49v-15.66Zm11.58-6.27h4.44v2.55h-4.44v-2.55Zm0,4.5h4.44v2.55h-4.44v-2.55Zm0,13.08c3.51,0,6.66.06,8.58,0.27v-2.43c-1.92.21-5.07,0.27-8.58,0.27v-2.49a68.733,68.733,0,0,1,7.44.27v-2.37a68.733,68.733,0,0,1-7.44.27v-2.43c3.75,0,5.79.09,6.93,0.21-0.09-.99-0.18-2.58-0.21-4.59,0.99,0.03,1.89.12,2.46,0.18v-2.43a15.277,15.277,0,0,1-2.46.21c0.03-2.1.12-3.75,0.21-4.68-1.32.15-4.02,0.24-6.93,0.24v-1.38a1.133,1.133,0,0,1,.3-0.81c0.39-.42.33-0.63-0.15-0.6a9.832,9.832,0,0,1-2.61-.3,17.88,17.88,0,0,1,.24,3.09,52.378,52.378,0,0,1-5.88-.24v2.37a44.481,44.481,0,0,1,5.88-.21v2.55h-2.25a37.609,37.609,0,0,1-4.32-.24v2.43a36.75,36.75,0,0,1,4.32-.24h2.25v2.55a54.635,54.635,0,0,1-5.91-.24v2.37c1.26-.12,2.58-0.21,5.91-0.24v2.43c-2.94-.03-4.89-0.09-6.66-0.27v2.37c1.74-.18,3.72-0.24,6.66-0.27v2.49c-3.21-.03-6.06-0.12-7.86-0.27v2.43c1.83-.15,4.65-0.24,7.86-0.27a49.071,49.071,0,0,1-.24,5.19h2.64C2897.2,3841.29,2897.14,3839.79,2897.14,3837.69Zm32.67-5.22a35.271,35.271,0,0,1-2.73-5.28l-2.43,1.05a20.445,20.445,0,0,1,2.52,5.61Zm-2.58-12.03a11.994,11.994,0,0,1,1.86-3.78c0.6-.45.54-0.78-0.03-0.75a9.856,9.856,0,0,1-3.12-.51c-0.84,4.86-2.25,8.49-3.96,10.74a5.4,5.4,0,0,1,2.22,1.5,29.418,29.418,0,0,0,2.25-4.89h6.36l-0.57,14.16c-0.06,1.74-.9,2.31-4.95,1.86a5.514,5.514,0,0,1,1.65,3.33c4.38-.3,5.7-1.71,5.79-3.84l0.63-15.09a22.053,22.053,0,0,1,.24-2.97,25.99,25.99,0,0,1-3.39.24h-4.98Zm-8.16,7.68h-5.4v-5.28h5.4v5.28Zm0,8.01h-5.4v-5.97h5.4v5.97Zm-5.4,2.04h5.4v2.67h2.79a36.714,36.714,0,0,1-.24-4.38v-13.2a16.237,16.237,0,0,1,.21-2.73,45.578,45.578,0,0,1-5.4.24c0.78-3.09,1.08-3.78,1.53-4.2,0.48-.45.42-0.72-0.06-0.75a17.186,17.186,0,0,1-3.24-.45,29.575,29.575,0,0,1-.6,5.37c-1.2-.06-2.31-0.12-3.12-0.21a15.3,15.3,0,0,1,.21,2.73v13.41a32.783,32.783,0,0,1-.24,4.41h2.76v-2.91Zm49.8-18.51a43.4,43.4,0,0,0-4.02-3.18l-1.77,1.68a27.215,27.215,0,0,1,3.99,3.63Zm-17.4.69a11.723,11.723,0,0,1,1.68-3.45c0.6-.48.57-0.66-0.06-0.84a16.712,16.712,0,0,1-2.64-.93,27.169,27.169,0,0,1-1.8,6.15,25.174,25.174,0,0,1-3.99,6.51,6.148,6.148,0,0,1,1.71,2.16c1.08-1.62,1.92-3,2.7-4.44v10.23a62.074,62.074,0,0,1-.36,6.6h2.76v-21.99Zm10.74,4.86v12.75c0,2.85.24,3.12,4.2,3.12s4.35-.3,5.64-4.77a4.271,4.271,0,0,1-2.73-1.5c-0.45,3.72-.78,3.96-2.64,3.96-1.98,0-2.1-.21-2.1-1.8v-11.76a57.493,57.493,0,0,1,6.27.3v-2.88a50.9,50.9,0,0,1-7.11.33h-2.55c0.21-2.55.3-4.32,0.39-5.7a1.6,1.6,0,0,1,.54-1.32c0.42-.24.33-0.63-0.09-0.6a14.64,14.64,0,0,1-3.42-.3,41.344,41.344,0,0,1,.21,7.92,53.839,53.839,0,0,1-6.03-.33v2.88c1.53-.15,3.6-0.27,5.88-0.3-0.75,8.07-3.09,11.76-6.87,14.7a6.586,6.586,0,0,1,2.52,1.65c4.08-4.05,6-8.52,6.72-16.35h1.17Zm26.46,7.65a4.06,4.06,0,0,1,.66-1.41c0.42-.39.36-0.57-0.12-0.54a17.882,17.882,0,0,1-3.15-.3,6.131,6.131,0,0,1,.03,2.25,91.246,91.246,0,0,1-9.27-.3v2.52c2.16-.21,4.68-0.27,8.7-0.27-1.32,2.7-4.56,4.41-9.54,5.1a6.557,6.557,0,0,1,1.38,2.37c5.7-1.47,9.33-3.6,10.71-7.47h7.44l-0.69,2.94c-0.24.96-1.02,1.38-4.59,1.08a6.6,6.6,0,0,1,1.23,3.06c4.53-.39,5.34-0.84,5.91-3.36l1.32-6A84.732,84.732,0,0,1,2983.27,3832.86Zm1.44-9.72c-0.6-.3-1.17-0.6-1.74-0.9l-1.44,1.56c0.78,0.36,1.56.75,2.31,1.17a10.234,10.234,0,0,1-4.53,3.63,5.272,5.272,0,0,1,2.22,1.68,18.367,18.367,0,0,0,4.05-4.26,27.246,27.246,0,0,1,2.85,2.16l1.62-1.89a39.27,39.27,0,0,0-3.45-2.13,10.694,10.694,0,0,0,1.02-3.69l3.21-.15a24.471,24.471,0,0,0-.27,5.34c0.3,2.16.9,3.75,2.28,4.68,1.77,1.2,3.3.66,4.41-3.3a3.055,3.055,0,0,1-2.22-1.44c-0.66,2.73-1.08,2.91-1.41,2.46a5.686,5.686,0,0,1-.75-2.13c-0.3-1.8-.18-3.84,1.05-8.04a38.624,38.624,0,0,1-6.06.54,10.656,10.656,0,0,1,.54-2.67c0.45-.42.33-0.54-0.12-0.48a15.06,15.06,0,0,1-2.94-.18,24.078,24.078,0,0,1,.12,3.39c-1.11.03-2.37,0.03-3.75,0.03l0.3,2.43c0.93-.12,2.25-0.27,3.3-0.36A12.7,12.7,0,0,1,2984.71,3823.14Zm-9.69.18c-1.71.27-3.48,0.48-5.19,0.63a7.4,7.4,0,0,1,.66,2.7,31.69,31.69,0,0,1,4.53-1.26v2.52c0,0.6-.48.96-2.97,0.81a4.854,4.854,0,0,1,1.02,2.64c3.66-.6,4.11-1.05,4.11-2.7v-3.69c1.14-.18,2.28-0.33,3.24-0.42a6.689,6.689,0,0,1,0-2.19c-0.96.21-2.07,0.42-3.24,0.6v-2.46c1.32,0.03,2.37.12,3.21,0.21v-2.28c-0.84.06-1.89,0.12-3.21,0.15v-1.86a2,2,0,0,1,.42-1.17c0.39-.33.27-0.57-0.27-0.54a13.525,13.525,0,0,1-2.52-.18,26.622,26.622,0,0,1,.21,3.78c-2.13,0-3.69-.09-4.89-0.18v2.28a40.111,40.111,0,0,1,4.89-.24v2.85Z" transform="translate(-2849.66 -3773.09)"/>
  <rect id="Rectangle_5_copy_7" data-name="Rectangle 5 copy 7" class="cls-3" x="44.34" y="109.91" width="60" height="3"/>
</svg>
