<svg id="组_15" data-name="组 15" xmlns="http://www.w3.org/2000/svg" width="117.37" height="110.75" viewBox="0 0 117.37 110.75">
  <defs>
    <style>
      .cls-1 {
        fill: #333;
        fill-rule: evenodd;
      }

      .cls-2 {
        fill: #2b68ff;
      }
    </style>
  </defs>
  <path id="Our_team" data-name="Our team" class="cls-1" d="M2892.69,2883.3a4.2,4.2,0,0,0-.72-0.06,4.5,4.5,0,0,0-2.29.65,8.417,8.417,0,0,0-2.09,1.74,14.7,14.7,0,0,0-1.79,2.52,20.172,20.172,0,0,0-1.4,3.01,20.651,20.651,0,0,0-.92,3.22,16.3,16.3,0,0,0-.32,3.09,6.367,6.367,0,0,0,1.16,4.14,4.133,4.133,0,0,0,3.38,1.41,8.1,8.1,0,0,0,3.14-.7,11.2,11.2,0,0,0,3.07-1.97,14.31,14.31,0,0,0,2.07-2.23,16.119,16.119,0,0,0,1.66-2.74,15.256,15.256,0,0,0,1.11-3.08,14.05,14.05,0,0,0,.39-3.3,5.589,5.589,0,0,0-.2-1.68,3.475,3.475,0,0,0-.5-1.04,2.132,2.132,0,0,0-.65-0.6,7.166,7.166,0,0,0-.64-0.35c0.02,0.08.03,0.17,0.05,0.29s0.04,0.26.06,0.44,0.04,0.41.06,0.67,0.02,0.59.02,0.97a18.008,18.008,0,0,1-.25,2.99,20.754,20.754,0,0,1-.72,2.97,17.311,17.311,0,0,1-1.14,2.72,12.8,12.8,0,0,1-1.51,2.29,9.386,9.386,0,0,1-1.25,1.27,8.754,8.754,0,0,1-1.37.99,7.463,7.463,0,0,1-1.36.63,3.736,3.736,0,0,1-1.25.23,2.079,2.079,0,0,1-1.83-.91,5.041,5.041,0,0,1-.62-2.78,12.929,12.929,0,0,1,.34-2.93,16.943,16.943,0,0,1,.92-2.88,16.008,16.008,0,0,1,1.4-2.62,12.636,12.636,0,0,1,1.78-2.13,8.216,8.216,0,0,1,2.03-1.44,4.707,4.707,0,0,1,2.15-.53c0.22,0,.47.01,0.74,0.03a6.117,6.117,0,0,1,.82.14,1.1,1.1,0,0,0-.3-0.5,6.2,6.2,0,0,0-.69-0.61,10.628,10.628,0,0,0-.89-0.61,7,7,0,0,0-.93-0.49A3.492,3.492,0,0,0,2892.69,2883.3Zm13.83,17.53c0.22,0.11.44,0.21,0.65,0.3a5.371,5.371,0,0,0,.59.21,2.208,2.208,0,0,0,.43.07,0.068,0.068,0,0,0,.05-0.03,0.13,0.13,0,0,0,.05-0.07,0.672,0.672,0,0,0-.09-0.29q-0.075-.165-0.18-0.42a5.486,5.486,0,0,1-.18-0.62,4.479,4.479,0,0,1-.08-0.88,6.307,6.307,0,0,1,.31-1.92,19.64,19.64,0,0,1,.77-1.98c0.3-.66.63-1.34,0.98-2.02a22.95,22.95,0,0,0,.96-2.09,1.216,1.216,0,0,0-.36-0.28,2.943,2.943,0,0,0-.56-0.24,6.748,6.748,0,0,0-.68-0.18,3.342,3.342,0,0,0-.68-0.07,4.97,4.97,0,0,0-.7.83,9.226,9.226,0,0,0-.53.87c-0.15.29-.28,0.57-0.39,0.83s-0.18.49-.25,0.69a7.065,7.065,0,0,1-.49,1.05c-0.2.35-.41,0.69-0.64,1.02s-0.44.64-.66,0.93-0.4.54-.56,0.76c-0.66.9-1.17,1.56-1.54,2a2.769,2.769,0,0,1-.91.79,0.725,0.725,0,0,1-.11-0.15,0.53,0.53,0,0,1-.06-0.28,4.6,4.6,0,0,1,.11-0.84,10.723,10.723,0,0,1,.28-1.08c0.11-.37.22-0.72,0.33-1.06s0.21-.59.29-0.77a26.288,26.288,0,0,1,1.96-3.93,18.1,18.1,0,0,1,1.09-1.61,1.379,1.379,0,0,0-.47-0.35,4.842,4.842,0,0,0-.57-0.23,3.3,3.3,0,0,0-.59-0.13c-0.19-.02-0.36-0.04-0.51-0.04a6.491,6.491,0,0,0-1.45,1.53,15.3,15.3,0,0,0-1.23,2.09,22.359,22.359,0,0,0-.98,2.26,17.8,17.8,0,0,0-.63,2.07,7.268,7.268,0,0,0-.16.93q-0.03.435-.03,1.11a1.677,1.677,0,0,0,.37.77,2.578,2.578,0,0,0,.65.58,3.2,3.2,0,0,0,.79.38,2.962,2.962,0,0,0,.8.13,1.283,1.283,0,0,0,.45-0.22,3.76,3.76,0,0,0,.58-0.52c0.13-.16.32-0.41,0.58-0.75s0.52-.67.78-1.02,0.51-.66.73-0.91a1.237,1.237,0,0,1,.43-0.39,2.769,2.769,0,0,0-.12.87,4.039,4.039,0,0,0,.16.98,1.814,1.814,0,0,0,.61.96A6.111,6.111,0,0,0,2906.52,2900.83Zm4.46,0.1a4.768,4.768,0,0,0,.54.41,5.826,5.826,0,0,0,.6.32,1.936,1.936,0,0,0,.51.16,26.75,26.75,0,0,1,.76-2.86,9.639,9.639,0,0,1,.96-2.12,8.1,8.1,0,0,1,1.35-1.68,16.522,16.522,0,0,1,1.92-1.55,3.882,3.882,0,0,0,.75,1.28,3.928,3.928,0,0,0,1.15.93,6.881,6.881,0,0,0,.66-0.77,1.687,1.687,0,0,0,.32-0.55,3.307,3.307,0,0,1-.31-1.59,6.658,6.658,0,0,1,.43-2.28,0.757,0.757,0,0,0-.43-0.3,2.016,2.016,0,0,0-.65-0.11,0.8,0.8,0,0,0-.5.12,18.617,18.617,0,0,1-1.86,2.36c-0.66.7-1.43,1.44-2.29,2.2a19.823,19.823,0,0,1,.99-2.52,9.1,9.1,0,0,1,1.14-1.75,2.076,2.076,0,0,0-.4-0.35,5.578,5.578,0,0,0-.6-0.34,4.7,4.7,0,0,0-.7-0.29,3.748,3.748,0,0,0-.7-0.17,3.344,3.344,0,0,0-.52.71,11.782,11.782,0,0,0-.56,1.16c-0.28.69-.58,1.47-0.88,2.33s-0.6,1.72-.87,2.58-0.51,1.66-.71,2.42-0.34,1.38-.42,1.84A1.209,1.209,0,0,0,2910.98,2900.93Zm18.43-9.12c-0.31.73-.59,1.48-0.84,2.23s-0.48,1.48-.67,2.17a19.148,19.148,0,0,0-.45,1.91,8.785,8.785,0,0,0-.15,1.45,1.521,1.521,0,0,0,.31.88,3.568,3.568,0,0,0,.8.8,4.988,4.988,0,0,0,1.09.6,3.21,3.21,0,0,0,1.2.24,2.075,2.075,0,0,0,.58-0.21,6.066,6.066,0,0,0,.79-0.47,9.35,9.35,0,0,0,.76-0.56,2.49,2.49,0,0,0,.49-0.5,1.109,1.109,0,0,0-.17-0.36,4.342,4.342,0,0,1-1.15.67,5.218,5.218,0,0,1-1.37.36,0.985,0.985,0,0,1-.79-1.17,9.106,9.106,0,0,1,.18-1.69c0.12-.62.29-1.29,0.5-2s0.48-1.44.8-2.2,0.66-1.53,1.06-2.3a8.023,8.023,0,0,0,2.86-.45,0.937,0.937,0,0,0-.07-0.37,0.907,0.907,0,0,0-.19-0.3,8.551,8.551,0,0,1-1,.07h-0.97c0.4-.67.77-1.26,1.11-1.78s0.76-1.07,1.24-1.68a1.368,1.368,0,0,0-.43-0.29c-0.21-.09-0.44-0.18-0.7-0.27s-0.51-.16-0.75-0.22a3.384,3.384,0,0,0-.62-0.08,3.338,3.338,0,0,0-.54.52,11.829,11.829,0,0,0-.74.98c-0.26.39-.54,0.82-0.82,1.29s-0.54.93-.78,1.41h-1.05a7.109,7.109,0,0,1-1.2-.1,4.43,4.43,0,0,0,.09.81,1.667,1.667,0,0,0,.22.61h1.37Zm12.19-2.11a3.906,3.906,0,0,0-1.6.36,6.962,6.962,0,0,0-1.56.98,9.8,9.8,0,0,0-1.41,1.46,10.9,10.9,0,0,0-1.15,1.79,9.473,9.473,0,0,0-.77,1.97,7.42,7.42,0,0,0-.28,2,3.522,3.522,0,0,0,.93,2.46,3.94,3.94,0,0,0,2.58,1.22,6.677,6.677,0,0,0,2.43-1.22,11.377,11.377,0,0,0,2.37-2.38,5.276,5.276,0,0,0-.41-0.41c-0.26.27-.55,0.57-0.88,0.9a10.07,10.07,0,0,1-1.05.91,6.924,6.924,0,0,1-1.19.71,3.052,3.052,0,0,1-1.27.29,0.855,0.855,0,0,1-.56-0.18,1.246,1.246,0,0,1-.33-0.47,2.427,2.427,0,0,1-.17-0.63,4.847,4.847,0,0,1-.05-0.64c0-.12.01-0.22,0.01-0.33s0.02-.2.02-0.3a19.911,19.911,0,0,0,2.68-1.25,8.828,8.828,0,0,0,1.96-1.45,5.509,5.509,0,0,0,1.24-1.87,8.334,8.334,0,0,0,.52-2.56,3.193,3.193,0,0,0-2.06-1.36h0Zm-0.96,5.22a10.816,10.816,0,0,1-3.19,2.36,9.545,9.545,0,0,1,1.91-3.74,5.6,5.6,0,0,1,1.3-1.16,3.677,3.677,0,0,1,1.35-.52A4.959,4.959,0,0,1,2940.64,2894.92Zm11.84-2.48c-0.2.4-.4,0.78-0.61,1.17s-0.41.75-.61,1.1-0.38.67-.54,0.96a22.459,22.459,0,0,1-2.21,3.23,3.322,3.322,0,0,1-1.61,1.19,0.54,0.54,0,0,1-.33-0.58,6.086,6.086,0,0,1,.53-2.37,11.218,11.218,0,0,1,1.35-2.38,9.548,9.548,0,0,1,1.85-1.9,4.359,4.359,0,0,1,1.98-.94,1.323,1.323,0,0,0-.22-0.51,3.5,3.5,0,0,0-.46-0.59,4.408,4.408,0,0,0-.58-0.5,2.067,2.067,0,0,0-.54-0.29,3.278,3.278,0,0,0-2.04.86,10.648,10.648,0,0,0-1.96,2.13,12.658,12.658,0,0,0-1.47,2.77,7.836,7.836,0,0,0-.58,2.85,3.65,3.65,0,0,0,.55,2.06,1.692,1.692,0,0,0,1.44.8,3.045,3.045,0,0,0,1.22-.56,7.512,7.512,0,0,0,1.3-1.2,15.223,15.223,0,0,0,1.28-1.71,15.673,15.673,0,0,0,1.1-2.07,11.184,11.184,0,0,0-.91,3.74c0,1.19.43,1.78,1.29,1.78a3.249,3.249,0,0,0,.82-0.12,2.424,2.424,0,0,0,.74-0.31,1.111,1.111,0,0,1-.48-0.64,3.849,3.849,0,0,1-.14-1.11,7.241,7.241,0,0,1,.16-1.42,16,16,0,0,1,.44-1.75c0.19-.63.42-1.28,0.7-1.96s0.56-1.35.88-2.03a0.384,0.384,0,0,0-.18-0.26,2.229,2.229,0,0,0-.44-0.28,3.141,3.141,0,0,0-.59-0.21,2.087,2.087,0,0,0-.56-0.09Q2952.78,2891.855,2952.48,2892.44Zm16.86,2.34c-0.22.43-.43,0.88-0.63,1.37a14.466,14.466,0,0,0-.52,1.53,6.432,6.432,0,0,0-.21,1.62,4.447,4.447,0,0,0,.09.93,2.155,2.155,0,0,0,.34.77,1.738,1.738,0,0,0,.61.53,2.034,2.034,0,0,0,.95.19,2.5,2.5,0,0,0,1.13-.25,5.662,5.662,0,0,0,.98-0.64,2.462,2.462,0,0,0-.02-0.26,0.374,0.374,0,0,0-.17-0.24,0.9,0.9,0,0,0-.37.11,1.4,1.4,0,0,1-.54.1,0.529,0.529,0,0,1-.41-0.15,1.026,1.026,0,0,1-.15-0.66,5.843,5.843,0,0,1,.4-1.95q0.39-1.08.9-2.19c0.34-.75.67-1.45,1-2.13a11.988,11.988,0,0,0,.7-1.72,1.344,1.344,0,0,0-.58-0.74,1.8,1.8,0,0,0-.9-0.25,2.719,2.719,0,0,0-1.48.51,9.623,9.623,0,0,0-1.69,1.44,28.236,28.236,0,0,0-1.95,2.24c-0.68.87-1.42,1.84-2.2,2.92a4.427,4.427,0,0,1,.5-1.36c0.29-.57.6-1.16,0.94-1.76s0.65-1.19.94-1.74a6.273,6.273,0,0,0,.57-1.31,0.62,0.62,0,0,0-.22-0.21,4.858,4.858,0,0,0-.48-0.27,3.069,3.069,0,0,0-.62-0.24,2.112,2.112,0,0,0-.63-0.1,2.9,2.9,0,0,0-1.72.77,15.976,15.976,0,0,0-1.94,1.87c-0.64.74-1.28,1.52-1.89,2.35s-1.15,1.57-1.6,2.21a7.118,7.118,0,0,1,.6-1.94,20.983,20.983,0,0,1,1.01-1.87c0.37-.61.72-1.19,1.06-1.74a7.9,7.9,0,0,0,.74-1.58,5.73,5.73,0,0,0-1.14-.91,3.887,3.887,0,0,0-1.21-.45c-0.55.96-1.11,2.01-1.69,3.16a23.219,23.219,0,0,0-1.43,3.48,16.011,16.011,0,0,0-.45,1.78,12.724,12.724,0,0,0-.18,1.44,5.248,5.248,0,0,0,.36,1.18,2.543,2.543,0,0,0,.87.98,4.241,4.241,0,0,0,.85-1.11c0.39-.62.88-1.35,1.48-2.18,0.44-.63.92-1.26,1.44-1.91s1-1.24,1.48-1.76a11.732,11.732,0,0,1,1.35-1.27,1.794,1.794,0,0,1,.98-0.49,22.928,22.928,0,0,0-1.26,2,17.178,17.178,0,0,0-.86,1.81,16.384,16.384,0,0,0-.57,1.66c-0.14.54-.25,1.05-0.33,1.55a2.42,2.42,0,0,0,.55,1.04,2.639,2.639,0,0,0,.91.64c0.26-.31.57-0.72,0.94-1.23s0.76-1.06,1.19-1.65,0.86-1.17,1.32-1.76,0.89-1.14,1.32-1.63a13.551,13.551,0,0,1,1.18-1.2,1.613,1.613,0,0,1,.94-0.47C2969.76,2893.98,2969.57,2894.36,2969.34,2894.78Z" transform="translate(-2866.66 -2883.25)"/>
  <path id="竭律团队" class="cls-1" d="M2880.84,2932.07V2930h7.98v2.07h-7.98Zm0-3.87v-1.95h7.98v1.95h-7.98Zm-9.75,13.44c-0.33-2.61-.57-5.46-0.72-8.01l-2.4.36a33.253,33.253,0,0,1,.75,7.89Zm5.94-10.05v-2.61a66.92,66.92,0,0,1-9.81,0v2.61a33.385,33.385,0,0,1,4.92-.24A43.692,43.692,0,0,1,2877.03,2931.59Zm-3.24-4.56a18.53,18.53,0,0,1-1.38-3.78l-2.67.78a12.9,12.9,0,0,1,1.17,3.81Zm-1.8,16.95a47.576,47.576,0,0,1-5.34.78,11.374,11.374,0,0,1,.75,2.88,65.334,65.334,0,0,1,9.45-2.79,4.73,4.73,0,0,1,.12-2.31c-1.05.36-2.04,0.66-2.97,0.93,1.35-8.04,1.68-8.94,2.13-9.57,0.24-.33.21-0.42-0.18-0.45a10.314,10.314,0,0,1-2.7-.63A54.362,54.362,0,0,1,2871.99,2943.98Zm8.52-5.85h3.51a3.184,3.184,0,1,0-1.26,6.24,20.476,20.476,0,0,0,2.1-2.94,27.228,27.228,0,0,1,2.79,2.82l1.71-1.83a35.373,35.373,0,0,1-3.57-2.82,14.524,14.524,0,0,0,.54-1.47h3.84l-0.18,8.04c-0.03,1.23-.33,1.38-2.82,1.32,0.84,1.68.96,2.34,0.87,2.91,3.78-.69,4.44-1.68,4.44-4.2l0.12-10.29a25.374,25.374,0,0,1-3.75.3h-6.84a25.9,25.9,0,0,0,1.47-2.22c4.02,0,6.3.03,7.65,0.09-0.06-1.17-.09-3.15-0.09-5.01,0-1.89.03-3.84,0.09-4.95a49.761,49.761,0,0,1-6.3.18,48.819,48.819,0,0,1-6.27-.18c0.06,1.08.09,3.06,0.09,4.95,0,1.86-.03,3.84-0.09,5.01,0.75-.06,1.32-0.09,2.58-0.09a23.375,23.375,0,0,1-5.76,6.18,3.761,3.761,0,0,1,1.89,1.41c0.36-.33.72-0.69,1.08-1.05,0.03,0.6.06,1.2,0.06,1.8v3.57a13.707,13.707,0,0,1-.06,1.83c0.6-.03,2.28-0.06,4.11-0.06,1.86,0,3.78.03,4.29,0.06v-2.28a11.7,11.7,0,0,1-2.34.18h-3.9v-3.6a2.59,2.59,0,0,1,.33-1.5c0.24-.24.18-0.39-0.18-0.36a10.433,10.433,0,0,1-1.92-.03C2879.34,2939.51,2879.94,2938.85,2880.51,2938.13Zm24.06-13.56a11.662,11.662,0,0,1-2.31-1.41,15.5,15.5,0,0,1-1.83,3.36,14.641,14.641,0,0,1-3.21,3.51,13.459,13.459,0,0,1,1.98,1.53c0.9-.96,2.25-2.55,2.88-3.42,1.65-2.28,2.16-2.88,2.43-2.94C2905.08,2925.08,2905.08,2924.81,2904.57,2924.57Zm-2.01,9.81c0.12-.18.24-0.39,0.36-0.57a12.521,12.521,0,0,1,1.38-1.92c0.54-.3.6-0.42,0.06-0.63a11.263,11.263,0,0,1-2.13-1.23,17.927,17.927,0,0,1-1.98,4.02,18.4,18.4,0,0,1-3.72,4.2,5.819,5.819,0,0,1,1.38,2.28c0.96-1.11,1.71-2.01,2.43-2.94v7.62a42.642,42.642,0,0,1-.27,4.83h2.49v-15.66Zm11.58-6.27h4.44v2.55h-4.44v-2.55Zm0,4.5h4.44v2.55h-4.44v-2.55Zm0,13.08c3.51,0,6.66.06,8.58,0.27v-2.43c-1.92.21-5.07,0.27-8.58,0.27v-2.49a68.733,68.733,0,0,1,7.44.27v-2.37a68.733,68.733,0,0,1-7.44.27v-2.43c3.75,0,5.79.09,6.93,0.21-0.09-.99-0.18-2.58-0.21-4.59,0.99,0.03,1.89.12,2.46,0.18v-2.43a15.277,15.277,0,0,1-2.46.21c0.03-2.1.12-3.75,0.21-4.68-1.32.15-4.02,0.24-6.93,0.24v-1.38a1.133,1.133,0,0,1,.3-0.81c0.39-.42.33-0.63-0.15-0.6a9.832,9.832,0,0,1-2.61-.3,17.88,17.88,0,0,1,.24,3.09,52.378,52.378,0,0,1-5.88-.24v2.37a44.481,44.481,0,0,1,5.88-.21v2.55h-2.25a37.609,37.609,0,0,1-4.32-.24v2.43a36.75,36.75,0,0,1,4.32-.24h2.25v2.55a54.635,54.635,0,0,1-5.91-.24v2.37c1.26-.12,2.58-0.21,5.91-0.24v2.43c-2.94-.03-4.89-0.09-6.66-0.27v2.37c1.74-.18,3.72-0.24,6.66-0.27v2.49c-3.21-.03-6.06-0.12-7.86-0.27v2.43c1.83-.15,4.65-0.24,7.86-0.27a49.071,49.071,0,0,1-.24,5.19h2.64C2914.2,2949.29,2914.14,2947.79,2914.14,2945.69Zm34.98,2.37v1.47h2.73c-0.18-1.71-.27-3.87-0.27-5.58v-14.97a42.044,42.044,0,0,1,.27-4.59c-1.29.18-3.36,0.27-11.64,0.27s-10.32-.06-11.67-0.27a26.25,26.25,0,0,1,.3,4.59v14.64c0,1.83-.15,4.44-0.3,6.18h2.85v-1.74h17.73Zm-17.73-2.04V2926.7h17.73v19.32h-17.73Zm9.81-14.7a66.644,66.644,0,0,1-8.01-.27v2.31c1.23-.12,3-0.24,6.51-0.27a17.584,17.584,0,0,1-7.8,8.19,16.521,16.521,0,0,1,2.04,1.8c4.08-3.51,5.61-5.04,7.29-9.36v7.23c0,1.29-.75,1.62-3.45,1.17a4.887,4.887,0,0,1,1.05,2.52c4.02-.48,4.65-1.05,4.65-2.64v-8.88a25.455,25.455,0,0,1,3.78.24v-2.25a31.186,31.186,0,0,1-3.78.21v-1.68a2.182,2.182,0,0,1,.39-1.41c0.45-.39.39-0.57-0.36-0.54a22.891,22.891,0,0,1-2.58-.12A24.122,24.122,0,0,1,2941.2,2931.32Zm27.87-6.57a48.412,48.412,0,0,1-5.43.24,51.055,51.055,0,0,1-5.52-.24c0.12,1.2.21,2.7,0.21,4.41v14.19c0,2.52-.09,4.41-0.27,7.08h2.67v-23.4h4.83l-2.67,7.38c2.31,2.19,3.21,4.11,3.09,6.27-0.09,1.62-.72,2.04-3.84,2.19a6.337,6.337,0,0,1,1.41,2.88c3.24-.63,4.59-2.07,4.89-4.29,0.36-2.67-.39-4.41-3-7.53Zm5.88,12.78a22.482,22.482,0,0,0,1.77,6.09,14.619,14.619,0,0,0,5.34,6.03,7.726,7.726,0,0,1,1.98-2.82,12.368,12.368,0,0,1-5.01-4.2c-1.89-2.85-2.94-5.91-3.33-11.64,0.18-1.92.3-3.42,0.42-4.56a2.962,2.962,0,0,1,.75-2.04c0.36-.3.3-0.48-0.12-0.51-1.38-.06-2.4-0.18-3.57-0.33a60.133,60.133,0,0,1-.27,10.77c-0.75,7.26-3.03,10.77-8.16,13.71a5.811,5.811,0,0,1,2.22,2.01A18.121,18.121,0,0,0,2974.95,2937.53Z" transform="translate(-2866.66 -2883.25)"/>
  <rect id="Rectangle_5_copy_7" data-name="Rectangle 5 copy 7" class="cls-2" x="29.34" y="107.75" width="60" height="3"/>
</svg>
