<svg id="组_14" data-name="组 14" xmlns="http://www.w3.org/2000/svg" width="117.59" height="110.75" viewBox="0 0 117.59 110.75">
  <defs>
    <style>
      .cls-1 {
        fill: #333;
        fill-rule: evenodd;
      }

      .cls-2 {
        fill: #2b68ff;
      }
    </style>
  </defs>
  <path id="Our_team" data-name="Our team" class="cls-1" d="M2892.69,2883.3a4.2,4.2,0,0,0-.72-0.06,4.5,4.5,0,0,0-2.29.65,8.417,8.417,0,0,0-2.09,1.74,14.7,14.7,0,0,0-1.79,2.52,20.172,20.172,0,0,0-1.4,3.01,20.651,20.651,0,0,0-.92,3.22,16.3,16.3,0,0,0-.32,3.09,6.367,6.367,0,0,0,1.16,4.14,4.133,4.133,0,0,0,3.38,1.41,8.1,8.1,0,0,0,3.14-.7,11.2,11.2,0,0,0,3.07-1.97,14.31,14.31,0,0,0,2.07-2.23,16.119,16.119,0,0,0,1.66-2.74,15.256,15.256,0,0,0,1.11-3.08,14.05,14.05,0,0,0,.39-3.3,5.589,5.589,0,0,0-.2-1.68,3.475,3.475,0,0,0-.5-1.04,2.132,2.132,0,0,0-.65-0.6,7.166,7.166,0,0,0-.64-0.35c0.02,0.08.03,0.17,0.05,0.29s0.04,0.26.06,0.44,0.04,0.41.06,0.67,0.02,0.59.02,0.97a18.008,18.008,0,0,1-.25,2.99,20.754,20.754,0,0,1-.72,2.97,17.311,17.311,0,0,1-1.14,2.72,12.8,12.8,0,0,1-1.51,2.29,9.386,9.386,0,0,1-1.25,1.27,8.754,8.754,0,0,1-1.37.99,7.463,7.463,0,0,1-1.36.63,3.736,3.736,0,0,1-1.25.23,2.079,2.079,0,0,1-1.83-.91,5.041,5.041,0,0,1-.62-2.78,12.929,12.929,0,0,1,.34-2.93,16.943,16.943,0,0,1,.92-2.88,16.008,16.008,0,0,1,1.4-2.62,12.636,12.636,0,0,1,1.78-2.13,8.216,8.216,0,0,1,2.03-1.44,4.707,4.707,0,0,1,2.15-.53c0.22,0,.47.01,0.74,0.03a6.117,6.117,0,0,1,.82.14,1.1,1.1,0,0,0-.3-0.5,6.2,6.2,0,0,0-.69-0.61,10.628,10.628,0,0,0-.89-0.61,7,7,0,0,0-.93-0.49A3.492,3.492,0,0,0,2892.69,2883.3Zm13.83,17.53c0.22,0.11.44,0.21,0.65,0.3a5.371,5.371,0,0,0,.59.21,2.208,2.208,0,0,0,.43.07,0.068,0.068,0,0,0,.05-0.03,0.13,0.13,0,0,0,.05-0.07,0.672,0.672,0,0,0-.09-0.29q-0.075-.165-0.18-0.42a5.486,5.486,0,0,1-.18-0.62,4.479,4.479,0,0,1-.08-0.88,6.307,6.307,0,0,1,.31-1.92,19.64,19.64,0,0,1,.77-1.98c0.3-.66.63-1.34,0.98-2.02a22.95,22.95,0,0,0,.96-2.09,1.216,1.216,0,0,0-.36-0.28,2.943,2.943,0,0,0-.56-0.24,6.748,6.748,0,0,0-.68-0.18,3.342,3.342,0,0,0-.68-0.07,4.97,4.97,0,0,0-.7.83,9.226,9.226,0,0,0-.53.87c-0.15.29-.28,0.57-0.39,0.83s-0.18.49-.25,0.69a7.065,7.065,0,0,1-.49,1.05c-0.2.35-.41,0.69-0.64,1.02s-0.44.64-.66,0.93-0.4.54-.56,0.76c-0.66.9-1.17,1.56-1.54,2a2.769,2.769,0,0,1-.91.79,0.725,0.725,0,0,1-.11-0.15,0.53,0.53,0,0,1-.06-0.28,4.6,4.6,0,0,1,.11-0.84,10.723,10.723,0,0,1,.28-1.08c0.11-.37.22-0.72,0.33-1.06s0.21-.59.29-0.77a26.288,26.288,0,0,1,1.96-3.93,18.1,18.1,0,0,1,1.09-1.61,1.379,1.379,0,0,0-.47-0.35,4.842,4.842,0,0,0-.57-0.23,3.3,3.3,0,0,0-.59-0.13c-0.19-.02-0.36-0.04-0.51-0.04a6.491,6.491,0,0,0-1.45,1.53,15.3,15.3,0,0,0-1.23,2.09,22.359,22.359,0,0,0-.98,2.26,17.8,17.8,0,0,0-.63,2.07,7.268,7.268,0,0,0-.16.93q-0.03.435-.03,1.11a1.677,1.677,0,0,0,.37.77,2.578,2.578,0,0,0,.65.58,3.2,3.2,0,0,0,.79.38,2.962,2.962,0,0,0,.8.13,1.283,1.283,0,0,0,.45-0.22,3.76,3.76,0,0,0,.58-0.52c0.13-.16.32-0.41,0.58-0.75s0.52-.67.78-1.02,0.51-.66.73-0.91a1.237,1.237,0,0,1,.43-0.39,2.769,2.769,0,0,0-.12.87,4.039,4.039,0,0,0,.16.98,1.814,1.814,0,0,0,.61.96A6.111,6.111,0,0,0,2906.52,2900.83Zm4.46,0.1a4.768,4.768,0,0,0,.54.41,5.826,5.826,0,0,0,.6.32,1.936,1.936,0,0,0,.51.16,26.75,26.75,0,0,1,.76-2.86,9.639,9.639,0,0,1,.96-2.12,8.1,8.1,0,0,1,1.35-1.68,16.522,16.522,0,0,1,1.92-1.55,3.882,3.882,0,0,0,.75,1.28,3.928,3.928,0,0,0,1.15.93,6.881,6.881,0,0,0,.66-0.77,1.687,1.687,0,0,0,.32-0.55,3.307,3.307,0,0,1-.31-1.59,6.658,6.658,0,0,1,.43-2.28,0.757,0.757,0,0,0-.43-0.3,2.016,2.016,0,0,0-.65-0.11,0.8,0.8,0,0,0-.5.12,18.617,18.617,0,0,1-1.86,2.36c-0.66.7-1.43,1.44-2.29,2.2a19.823,19.823,0,0,1,.99-2.52,9.1,9.1,0,0,1,1.14-1.75,2.076,2.076,0,0,0-.4-0.35,5.578,5.578,0,0,0-.6-0.34,4.7,4.7,0,0,0-.7-0.29,3.748,3.748,0,0,0-.7-0.17,3.344,3.344,0,0,0-.52.71,11.782,11.782,0,0,0-.56,1.16c-0.28.69-.58,1.47-0.88,2.33s-0.6,1.72-.87,2.58-0.51,1.66-.71,2.42-0.34,1.38-.42,1.84A1.209,1.209,0,0,0,2910.98,2900.93Zm18.43-9.12c-0.31.73-.59,1.48-0.84,2.23s-0.48,1.48-.67,2.17a19.148,19.148,0,0,0-.45,1.91,8.785,8.785,0,0,0-.15,1.45,1.521,1.521,0,0,0,.31.88,3.568,3.568,0,0,0,.8.8,4.988,4.988,0,0,0,1.09.6,3.21,3.21,0,0,0,1.2.24,2.075,2.075,0,0,0,.58-0.21,6.066,6.066,0,0,0,.79-0.47,9.35,9.35,0,0,0,.76-0.56,2.49,2.49,0,0,0,.49-0.5,1.109,1.109,0,0,0-.17-0.36,4.342,4.342,0,0,1-1.15.67,5.218,5.218,0,0,1-1.37.36,0.985,0.985,0,0,1-.79-1.17,9.106,9.106,0,0,1,.18-1.69c0.12-.62.29-1.29,0.5-2s0.48-1.44.8-2.2,0.66-1.53,1.06-2.3a8.023,8.023,0,0,0,2.86-.45,0.937,0.937,0,0,0-.07-0.37,0.907,0.907,0,0,0-.19-0.3,8.551,8.551,0,0,1-1,.07h-0.97c0.4-.67.77-1.26,1.11-1.78s0.76-1.07,1.24-1.68a1.368,1.368,0,0,0-.43-0.29c-0.21-.09-0.44-0.18-0.7-0.27s-0.51-.16-0.75-0.22a3.384,3.384,0,0,0-.62-0.08,3.338,3.338,0,0,0-.54.52,11.829,11.829,0,0,0-.74.98c-0.26.39-.54,0.82-0.82,1.29s-0.54.93-.78,1.41h-1.05a7.109,7.109,0,0,1-1.2-.1,4.43,4.43,0,0,0,.09.81,1.667,1.667,0,0,0,.22.61h1.37Zm12.19-2.11a3.906,3.906,0,0,0-1.6.36,6.962,6.962,0,0,0-1.56.98,9.8,9.8,0,0,0-1.41,1.46,10.9,10.9,0,0,0-1.15,1.79,9.473,9.473,0,0,0-.77,1.97,7.42,7.42,0,0,0-.28,2,3.522,3.522,0,0,0,.93,2.46,3.94,3.94,0,0,0,2.58,1.22,6.677,6.677,0,0,0,2.43-1.22,11.377,11.377,0,0,0,2.37-2.38,5.276,5.276,0,0,0-.41-0.41c-0.26.27-.55,0.57-0.88,0.9a10.07,10.07,0,0,1-1.05.91,6.924,6.924,0,0,1-1.19.71,3.052,3.052,0,0,1-1.27.29,0.855,0.855,0,0,1-.56-0.18,1.246,1.246,0,0,1-.33-0.47,2.427,2.427,0,0,1-.17-0.63,4.847,4.847,0,0,1-.05-0.64c0-.12.01-0.22,0.01-0.33s0.02-.2.02-0.3a19.911,19.911,0,0,0,2.68-1.25,8.828,8.828,0,0,0,1.96-1.45,5.509,5.509,0,0,0,1.24-1.87,8.334,8.334,0,0,0,.52-2.56,3.193,3.193,0,0,0-2.06-1.36h0Zm-0.96,5.22a10.816,10.816,0,0,1-3.19,2.36,9.545,9.545,0,0,1,1.91-3.74,5.6,5.6,0,0,1,1.3-1.16,3.677,3.677,0,0,1,1.35-.52A4.959,4.959,0,0,1,2940.64,2894.92Zm11.84-2.48c-0.2.4-.4,0.78-0.61,1.17s-0.41.75-.61,1.1-0.38.67-.54,0.96a22.459,22.459,0,0,1-2.21,3.23,3.322,3.322,0,0,1-1.61,1.19,0.54,0.54,0,0,1-.33-0.58,6.086,6.086,0,0,1,.53-2.37,11.218,11.218,0,0,1,1.35-2.38,9.548,9.548,0,0,1,1.85-1.9,4.359,4.359,0,0,1,1.98-.94,1.323,1.323,0,0,0-.22-0.51,3.5,3.5,0,0,0-.46-0.59,4.408,4.408,0,0,0-.58-0.5,2.067,2.067,0,0,0-.54-0.29,3.278,3.278,0,0,0-2.04.86,10.648,10.648,0,0,0-1.96,2.13,12.658,12.658,0,0,0-1.47,2.77,7.836,7.836,0,0,0-.58,2.85,3.65,3.65,0,0,0,.55,2.06,1.692,1.692,0,0,0,1.44.8,3.045,3.045,0,0,0,1.22-.56,7.512,7.512,0,0,0,1.3-1.2,15.223,15.223,0,0,0,1.28-1.71,15.673,15.673,0,0,0,1.1-2.07,11.184,11.184,0,0,0-.91,3.74c0,1.19.43,1.78,1.29,1.78a3.249,3.249,0,0,0,.82-0.12,2.424,2.424,0,0,0,.74-0.31,1.111,1.111,0,0,1-.48-0.64,3.849,3.849,0,0,1-.14-1.11,7.241,7.241,0,0,1,.16-1.42,16,16,0,0,1,.44-1.75c0.19-.63.42-1.28,0.7-1.96s0.56-1.35.88-2.03a0.384,0.384,0,0,0-.18-0.26,2.229,2.229,0,0,0-.44-0.28,3.141,3.141,0,0,0-.59-0.21,2.087,2.087,0,0,0-.56-0.09Q2952.78,2891.855,2952.48,2892.44Zm16.86,2.34c-0.22.43-.43,0.88-0.63,1.37a14.466,14.466,0,0,0-.52,1.53,6.432,6.432,0,0,0-.21,1.62,4.447,4.447,0,0,0,.09.93,2.155,2.155,0,0,0,.34.77,1.738,1.738,0,0,0,.61.53,2.034,2.034,0,0,0,.95.19,2.5,2.5,0,0,0,1.13-.25,5.662,5.662,0,0,0,.98-0.64,2.462,2.462,0,0,0-.02-0.26,0.374,0.374,0,0,0-.17-0.24,0.9,0.9,0,0,0-.37.11,1.4,1.4,0,0,1-.54.1,0.529,0.529,0,0,1-.41-0.15,1.026,1.026,0,0,1-.15-0.66,5.843,5.843,0,0,1,.4-1.95q0.39-1.08.9-2.19c0.34-.75.67-1.45,1-2.13a11.988,11.988,0,0,0,.7-1.72,1.344,1.344,0,0,0-.58-0.74,1.8,1.8,0,0,0-.9-0.25,2.719,2.719,0,0,0-1.48.51,9.623,9.623,0,0,0-1.69,1.44,28.236,28.236,0,0,0-1.95,2.24c-0.68.87-1.42,1.84-2.2,2.92a4.427,4.427,0,0,1,.5-1.36c0.29-.57.6-1.16,0.94-1.76s0.65-1.19.94-1.74a6.273,6.273,0,0,0,.57-1.31,0.62,0.62,0,0,0-.22-0.21,4.858,4.858,0,0,0-.48-0.27,3.069,3.069,0,0,0-.62-0.24,2.112,2.112,0,0,0-.63-0.1,2.9,2.9,0,0,0-1.72.77,15.976,15.976,0,0,0-1.94,1.87c-0.64.74-1.28,1.52-1.89,2.35s-1.15,1.57-1.6,2.21a7.118,7.118,0,0,1,.6-1.94,20.983,20.983,0,0,1,1.01-1.87c0.37-.61.72-1.19,1.06-1.74a7.9,7.9,0,0,0,.74-1.58,5.73,5.73,0,0,0-1.14-.91,3.887,3.887,0,0,0-1.21-.45c-0.55.96-1.11,2.01-1.69,3.16a23.219,23.219,0,0,0-1.43,3.48,16.011,16.011,0,0,0-.45,1.78,12.724,12.724,0,0,0-.18,1.44,5.248,5.248,0,0,0,.36,1.18,2.543,2.543,0,0,0,.87.98,4.241,4.241,0,0,0,.85-1.11c0.39-.62.88-1.35,1.48-2.18,0.44-.63.92-1.26,1.44-1.91s1-1.24,1.48-1.76a11.732,11.732,0,0,1,1.35-1.27,1.794,1.794,0,0,1,.98-0.49,22.928,22.928,0,0,0-1.26,2,17.178,17.178,0,0,0-.86,1.81,16.384,16.384,0,0,0-.57,1.66c-0.14.54-.25,1.05-0.33,1.55a2.42,2.42,0,0,0,.55,1.04,2.639,2.639,0,0,0,.91.64c0.26-.31.57-0.72,0.94-1.23s0.76-1.06,1.19-1.65,0.86-1.17,1.32-1.76,0.89-1.14,1.32-1.63a13.551,13.551,0,0,1,1.18-1.2,1.613,1.613,0,0,1,.94-0.47C2969.76,2893.98,2969.57,2894.36,2969.34,2894.78Z" transform="translate(-2866.47 -2883.25)"/>
  <path id="竭律团队" class="cls-1" d="M2889.9,2928.23h-9.33v-2.4h9.33v2.4Zm0,4.08h-9.33v-2.43h9.33v2.43Zm2.13-8.22h-13.5v9.93h13.5v-9.93Zm-18.54,3.36a34.646,34.646,0,0,0-1.95-4.35l-1.92.57a33.953,33.953,0,0,1,1.92,4.47Zm3.18,1.05h-10.02v2.07h10.02v-2.07Zm-5.76,14.16a82.408,82.408,0,0,0-1.53-10.68l-1.83.33a77.082,77.082,0,0,1,1.44,10.71Zm2.79,0.72c0.75-3.15,1.53-7.71,2.1-11.22l-2.13-.42a109.372,109.372,0,0,1-1.86,12.12c-2.01.51-3.87,0.93-5.34,1.26l0.51,2.19c2.88-.75,6.6-1.71,10.14-2.7l-0.21-2.01Zm4.74-2.79v6.3h11.1v-1.62h-9.21v-4.68h-1.89Zm6.54-2.04a8.1,8.1,0,0,1-3.9,5.22,13.847,13.847,0,0,1,1.14,1.23,10.011,10.011,0,0,0,2.97-2.97,33.493,33.493,0,0,1,3.3,2.7l1.02-1.2a29.805,29.805,0,0,0-3.63-2.76,9.36,9.36,0,0,0,.69-2.01Zm-3.72-2.31a20.315,20.315,0,0,0,.81-1.92l-2.04-.27a14.6,14.6,0,0,1-4.05,6.18,7.029,7.029,0,0,1,1.35,1.47,16.924,16.924,0,0,0,2.97-3.66h10.68c-0.27,6.99-.63,9.57-1.14,10.2a0.752,0.752,0,0,1-.81.33,17.905,17.905,0,0,1-2.31-.09,4.513,4.513,0,0,1,.51,1.68,21.754,21.754,0,0,0,2.76.03,2.235,2.235,0,0,0,1.71-.87c0.75-.96,1.08-3.72,1.44-12.12,0.03-.27.03-0.96,0.03-0.96h-11.91Zm21.42-13.23a21.7,21.7,0,0,1-6.24,6.12,11.811,11.811,0,0,1,1.17,1.83,28.956,28.956,0,0,0,7.17-7.14Zm0.48,6.54a28.322,28.322,0,0,1-7.17,8.1,19.181,19.181,0,0,1,1.17,2.13,31.076,31.076,0,0,0,3.36-3.27v13.74h2.1v-16.26a33.939,33.939,0,0,0,2.43-3.69Zm11.73,2.91h4.47v2.55h-4.47v-2.55Zm0-4.5h4.47v2.55h-4.47v-2.55Zm6.63,8.94v-4.44h2.19v-1.95h-2.19v-4.44h-6.63v-3.15h-2.19v3.15h-6.21v1.89h6.21v2.55h-7.62v1.95h7.62v2.55h-6.33v1.89h6.33v2.34h-6.75v1.89h6.75v2.55h-8.07v1.98h8.07v4.62h2.19v-4.62h8.49v-1.98h-8.49v-2.55h7.05v-1.89h-7.05v-2.34h6.63Zm26.76-5.58h-4.62v-3.78h-2.16v3.78h-9.63v2.01h8.91a30.137,30.137,0,0,1-9.36,8.04,8.382,8.382,0,0,1,1.44,1.5,34.326,34.326,0,0,0,8.64-7.02v6.96a0.408,0.408,0,0,1-.51.48c-0.36.03-1.65,0.03-3,0a7.349,7.349,0,0,1,.72,2.01,10.131,10.131,0,0,0,3.9-.42c0.81-.33,1.05-0.9,1.05-2.07v-9.48h4.62v-2.01Zm-18.39,15.72v-20.76h20.13v20.76h-20.13Zm-2.25-22.83v26.1h2.25v-1.23h20.13v1.23h2.34v-26.1h-24.72Zm38.64-.18-0.36.09h-7.8v26.13h2.13v-24.09h4.74c-0.66,2.01-1.62,4.62-2.55,6.78,2.31,2.34,2.94,4.38,2.94,6a2.432,2.432,0,0,1-.66,2.01,1.919,1.919,0,0,1-1.02.27,12.865,12.865,0,0,1-1.83-.03,5.066,5.066,0,0,1,.6,2.1,17.136,17.136,0,0,0,2.16-.03,3.639,3.639,0,0,0,1.62-.6c0.9-.6,1.26-1.92,1.26-3.54a9.114,9.114,0,0,0-2.85-6.48c1.05-2.34,2.22-5.22,3.18-7.65Zm7.35-1.11c-0.03,10.2.12,20.67-8.34,25.8a6.917,6.917,0,0,1,1.71,1.65c4.53-2.91,6.75-7.26,7.83-12.33,1.11,4.23,3.27,9.39,7.62,12.27a6.584,6.584,0,0,1,1.62-1.68c-6.66-4.2-8.01-13.77-8.46-16.56,0.24-2.97.24-6.09,0.27-9.15h-2.25Z" transform="translate(-2866.47 -2883.25)"/>
  <rect id="Rectangle_5_copy_7" data-name="Rectangle 5 copy 7" class="cls-2" x="29.53" y="107.75" width="60" height="3"/>
</svg>
