<svg id="组_17" data-name="组 17" xmlns="http://www.w3.org/2000/svg" width="132.72" height="110.72" viewBox="0 0 132.72 110.72">
  <defs>
    <style>
      .cls-1 {
        fill: #333;
        fill-rule: evenodd;
      }

      .cls-2 {
        fill: #2c69ff;
      }
    </style>
  </defs>
  <path id="Success_Cases" data-name="Success Cases" class="cls-1" d="M2873.63,5719.72a11.064,11.064,0,0,0-4.81-.29,7.178,7.178,0,0,0-1.65.48,5.077,5.077,0,0,0-2.35,1.83,4.449,4.449,0,0,0-.81,2.54,3.45,3.45,0,0,0,.32,1.54,4.238,4.238,0,0,0,1.03,1.28,9.679,9.679,0,0,0,1.8,1.2q1.1,0.585,2.61,1.26c0.67,0.29,1.32.58,1.94,0.86s1.17,0.58,1.64.86a5.129,5.129,0,0,1,1.13.86,1.481,1.481,0,0,1,.45.92,2.9,2.9,0,0,1-.22.77,2.816,2.816,0,0,1-.67.95,3.959,3.959,0,0,1-1.32.8,5.852,5.852,0,0,1-2.19.34,11,11,0,0,1-2.62-.35,10.318,10.318,0,0,1-2.73-1.11,6.861,6.861,0,0,1-2.12-1.83,3.642,3.642,0,0,1-.78-1.7,4.968,4.968,0,0,0-1,1.56,3.714,3.714,0,0,0-.27,1.22,2.8,2.8,0,0,0,.9,1.96,8.93,8.93,0,0,0,2.25,1.63,14.368,14.368,0,0,0,2.92,1.12,11.527,11.527,0,0,0,2.9.4,6.471,6.471,0,0,0,2.47-.44,5.5,5.5,0,0,0,1.89-1.24,5.3,5.3,0,0,0,1.19-1.86,6.374,6.374,0,0,0,.4-2.29,5.08,5.08,0,0,0-.28-1.8,3.979,3.979,0,0,0-.87-1.33,6.363,6.363,0,0,0-1.46-1.08c-0.6-.33-1.3-0.68-2.11-1.07q-0.99-.45-2.01-0.96a19.929,19.929,0,0,1-1.86-1.02,8.335,8.335,0,0,1-1.41-1.05,1.863,1.863,0,0,1-.65-1.07,1.091,1.091,0,0,1,.32-0.77,2.566,2.566,0,0,1,.89-0.56,5.564,5.564,0,0,1,1.3-.36,8.568,8.568,0,0,1,1.57-.14,10.465,10.465,0,0,1,1.73.15,8.942,8.942,0,0,1,1.71.44,7.31,7.31,0,0,1,1.53.77,4.621,4.621,0,0,1,1.17,1.12,2.1,2.1,0,0,0,.95-0.98,3.187,3.187,0,0,0,.35-1.47,1.562,1.562,0,0,0-.04-0.42c-0.02-.11-0.06-0.29-0.11-0.57A23.877,23.877,0,0,0,2873.63,5719.72Zm11.27,17.11c0.21,0.11.43,0.21,0.64,0.3a6.221,6.221,0,0,0,.59.21,2.208,2.208,0,0,0,.43.07,0.055,0.055,0,0,0,.05-0.03,0.13,0.13,0,0,0,.05-0.07,0.8,0.8,0,0,0-.08-0.29,2.925,2.925,0,0,1-.18-0.42,3.117,3.117,0,0,1-.18-0.62,3.783,3.783,0,0,1-.09-0.88,6.63,6.63,0,0,1,.31-1.92,19.64,19.64,0,0,1,.77-1.98c0.31-.66.63-1.34,0.99-2.02s0.67-1.39.96-2.09a1.216,1.216,0,0,0-.36-0.28,3.054,3.054,0,0,0-.57-0.24,6.107,6.107,0,0,0-.68-0.18,3.319,3.319,0,0,0-.67-0.07,4.6,4.6,0,0,0-.71.83,9.226,9.226,0,0,0-.53.87,8.417,8.417,0,0,0-.38.83c-0.11.27-.19,0.49-0.26,0.69a6.184,6.184,0,0,1-.49,1.05q-0.3.525-.63,1.02-0.345.495-.66,0.93c-0.22.28-.41,0.54-0.57,0.76-0.65.9-1.17,1.56-1.53,2a2.881,2.881,0,0,1-.92.79,0.764,0.764,0,0,1-.1-0.15,0.53,0.53,0,0,1-.06-0.28,4.438,4.438,0,0,1,.1-0.84c0.08-.36.17-0.72,0.28-1.08s0.22-.72.34-1.06,0.2-.59.28-0.77a27.294,27.294,0,0,1,1.96-3.93,18.1,18.1,0,0,1,1.09-1.61,1.379,1.379,0,0,0-.47-0.35,4.842,4.842,0,0,0-.57-0.23,3.3,3.3,0,0,0-.59-0.13c-0.19-.02-0.36-0.04-0.5-0.04a6.322,6.322,0,0,0-1.46,1.53,16.4,16.4,0,0,0-1.23,2.09,22.272,22.272,0,0,0-.97,2.26,18.027,18.027,0,0,0-.64,2.07,7.268,7.268,0,0,0-.16.93q-0.03.435-.03,1.11a1.783,1.783,0,0,0,.37.77,2.578,2.578,0,0,0,.65.58,3.381,3.381,0,0,0,.79.38,2.962,2.962,0,0,0,.8.13,1.208,1.208,0,0,0,.45-0.22,4.306,4.306,0,0,0,.59-0.52c0.12-.16.32-0.41,0.57-0.75s0.52-.67.78-1.02,0.51-.66.73-0.91a1.144,1.144,0,0,1,.44-0.39,2.769,2.769,0,0,0-.12.87,3.966,3.966,0,0,0,.15.98,1.875,1.875,0,0,0,.61.96A6.272,6.272,0,0,0,2884.9,5736.83Zm5.04-2.25a5.586,5.586,0,0,0,.81,1.53,4.458,4.458,0,0,0,1.21,1.09,3.516,3.516,0,0,0,1.49.5,3.743,3.743,0,0,0,.95-0.35,12.7,12.7,0,0,0,1.12-.67,11.458,11.458,0,0,0,1.1-.88,10.706,10.706,0,0,0,.94-0.98,0.629,0.629,0,0,0-.08-0.27,0.508,0.508,0,0,0-.16-0.21c-0.37.27-.75,0.52-1.14,0.76s-0.78.46-1.14,0.64a9.435,9.435,0,0,1-1.04.44,3.747,3.747,0,0,1-.84.22c-0.57-.26-0.86-1.03-0.86-2.33a8.128,8.128,0,0,1,2.11-5.49,6.593,6.593,0,0,1,1.39-1.2,2.362,2.362,0,0,1,1.2-.46,0.565,0.565,0,0,1,.56.7,3.968,3.968,0,0,1-1.61,2.66,1.571,1.571,0,0,0,.49.47,1.038,1.038,0,0,0,1.26-.07,2.53,2.53,0,0,0,.59-0.66,4.154,4.154,0,0,0,.41-0.93,3.79,3.79,0,0,0,.15-1.07,2.285,2.285,0,0,0-.67-1.77,2.709,2.709,0,0,0-1.92-.63,5.281,5.281,0,0,0-2.46.62,7.457,7.457,0,0,0-2.11,1.6,8.316,8.316,0,0,0-1.49,2.28,6.483,6.483,0,0,0-.56,2.66A5.483,5.483,0,0,0,2889.94,5734.58Zm10.08,0a5.586,5.586,0,0,0,.81,1.53,4.458,4.458,0,0,0,1.21,1.09,3.516,3.516,0,0,0,1.49.5,3.743,3.743,0,0,0,.95-0.35,12.7,12.7,0,0,0,1.12-.67,11.458,11.458,0,0,0,1.1-.88,10.706,10.706,0,0,0,.94-0.98,0.629,0.629,0,0,0-.08-0.27,0.508,0.508,0,0,0-.16-0.21c-0.37.27-.75,0.52-1.14,0.76s-0.78.46-1.14,0.64a9.435,9.435,0,0,1-1.04.44,3.747,3.747,0,0,1-.84.22c-0.57-.26-0.86-1.03-0.86-2.33a8.128,8.128,0,0,1,2.11-5.49,6.593,6.593,0,0,1,1.39-1.2,2.362,2.362,0,0,1,1.2-.46,0.565,0.565,0,0,1,.56.7,3.968,3.968,0,0,1-1.61,2.66,1.571,1.571,0,0,0,.49.47,1.038,1.038,0,0,0,1.26-.07,2.53,2.53,0,0,0,.59-0.66,4.154,4.154,0,0,0,.41-0.93,3.79,3.79,0,0,0,.15-1.07,2.285,2.285,0,0,0-.67-1.77,2.709,2.709,0,0,0-1.92-.63,5.281,5.281,0,0,0-2.46.62,7.457,7.457,0,0,0-2.11,1.6,8.316,8.316,0,0,0-1.49,2.28,6.483,6.483,0,0,0-.56,2.66A5.483,5.483,0,0,0,2900.02,5734.58Zm16.16-8.88a3.906,3.906,0,0,0-1.6.36,6.962,6.962,0,0,0-1.56.98,9.8,9.8,0,0,0-1.41,1.46,10.9,10.9,0,0,0-1.15,1.79,9.473,9.473,0,0,0-.77,1.97,7.42,7.42,0,0,0-.28,2,3.522,3.522,0,0,0,.93,2.46,3.94,3.94,0,0,0,2.58,1.22,6.677,6.677,0,0,0,2.43-1.22,11.377,11.377,0,0,0,2.37-2.38,5.276,5.276,0,0,0-.41-0.41c-0.26.27-.55,0.57-0.88,0.9a10.07,10.07,0,0,1-1.05.91,6.924,6.924,0,0,1-1.19.71,3.052,3.052,0,0,1-1.27.29,0.855,0.855,0,0,1-.56-0.18,1.246,1.246,0,0,1-.33-0.47,2.427,2.427,0,0,1-.17-0.63,4.847,4.847,0,0,1-.05-0.64c0-.12.01-0.22,0.01-0.33s0.02-.2.02-0.3a19.911,19.911,0,0,0,2.68-1.25,8.828,8.828,0,0,0,1.96-1.45,5.509,5.509,0,0,0,1.24-1.87,8.334,8.334,0,0,0,.52-2.56,3.193,3.193,0,0,0-2.06-1.36h0Zm-0.96,5.22a10.816,10.816,0,0,1-3.19,2.36,9.545,9.545,0,0,1,1.91-3.74,5.6,5.6,0,0,1,1.3-1.16,3.677,3.677,0,0,1,1.35-.52A4.959,4.959,0,0,1,2915.22,5730.92Zm12-4.24a7.7,7.7,0,0,0-.77-0.88q-0.435-.42-0.87-0.78a2.487,2.487,0,0,0-.71-0.42,3.768,3.768,0,0,0-1.2.53,4.473,4.473,0,0,0-1.01.93,5.034,5.034,0,0,0-.7,1.18,3.494,3.494,0,0,0-.26,1.29,4.591,4.591,0,0,0,.12,1.03c0.08,0.34.16,0.7,0.25,1.06s0.17,0.73.25,1.12a5.761,5.761,0,0,1,.12,1.18,4.693,4.693,0,0,0-1.95.4,5.321,5.321,0,0,0-1.56,1.04,5.071,5.071,0,0,0-1.05,1.47,4.287,4.287,0,0,0-.38,1.76,2.079,2.079,0,0,0,.34.66,3.448,3.448,0,0,0,.56.59,3.525,3.525,0,0,0,.68.43,2.16,2.16,0,0,0,.7.19,4.519,4.519,0,0,0,3.04-1.41,4.71,4.71,0,0,0,1.09-3.23c0-.19-0.01-0.35-0.01-0.48s-0.02-.25-0.02-0.38a0.68,0.68,0,0,1,.04-0.23,0.335,0.335,0,0,1,.2-0.15,4.3,4.3,0,0,1,.5-0.16c0.21-.05.5-0.12,0.87-0.2a0.414,0.414,0,0,0,.1-0.31,0.382,0.382,0,0,0-.03-0.19h-1.68a1.4,1.4,0,0,1-.02-0.29,9.527,9.527,0,0,1,.5-3.51,1.621,1.621,0,0,1,1.47-1.2,0.506,0.506,0,0,1,.42.23,1.007,1.007,0,0,1,.15.57,1.158,1.158,0,0,1-.06.33c-0.04.13-.08,0.26-0.13,0.39s-0.09.24-.13,0.34a0.767,0.767,0,0,0-.06.23,0.345,0.345,0,0,0,.31.36,0.582,0.582,0,0,0,.41-0.26,3.963,3.963,0,0,0,.41-0.66,5.151,5.151,0,0,0,.32-0.89,4.718,4.718,0,0,0,.16-0.95A2.431,2.431,0,0,0,2927.22,5726.68Zm-7.99,10.81a1.961,1.961,0,0,1,.33-0.96,6.791,6.791,0,0,1,.84-1.07,6.311,6.311,0,0,1,1.08-.88,2.826,2.826,0,0,1,1.06-.45,3.834,3.834,0,0,1-.23,1.27,5.226,5.226,0,0,1-.61,1.23,5.546,5.546,0,0,1-.9,1.03,4.036,4.036,0,0,1-1.09.7,1.035,1.035,0,0,1-.48-0.87h0Zm16.29-10.81a8.682,8.682,0,0,0-.76-0.88c-0.29-.28-0.58-0.54-0.88-0.78a2.36,2.36,0,0,0-.71-0.42,3.973,3.973,0,0,0-1.2.53,4.7,4.7,0,0,0-1.01.93,5,5,0,0,0-.69,1.18,3.318,3.318,0,0,0-.27,1.29,4.591,4.591,0,0,0,.12,1.03c0.08,0.34.17,0.7,0.26,1.06s0.17,0.73.25,1.12a5.761,5.761,0,0,1,.12,1.18,4.707,4.707,0,0,0-1.96.4,5.321,5.321,0,0,0-1.56,1.04,4.858,4.858,0,0,0-1.04,1.47,4.143,4.143,0,0,0-.39,1.76,2.308,2.308,0,0,0,.34.66,3.885,3.885,0,0,0,.56.59,3.594,3.594,0,0,0,.69.43,2.107,2.107,0,0,0,.69.19,4.519,4.519,0,0,0,3.04-1.41,4.662,4.662,0,0,0,1.09-3.23c0-.19,0-0.35-0.01-0.48s-0.01-.25-0.01-0.38a0.712,0.712,0,0,1,.03-0.23,0.405,0.405,0,0,1,.21-0.15,3.511,3.511,0,0,1,.49-0.16c0.22-.05.51-0.12,0.88-0.2a0.459,0.459,0,0,0,.09-0.31,0.657,0.657,0,0,0-.02-0.19h-1.68a0.806,0.806,0,0,1-.03-0.29,9.287,9.287,0,0,1,.51-3.51,1.6,1.6,0,0,1,1.46-1.2,0.482,0.482,0,0,1,.42.23,0.937,0.937,0,0,1,.16.57,1.158,1.158,0,0,1-.06.33c-0.04.13-.09,0.26-0.13,0.39s-0.1.24-.14,0.34a0.767,0.767,0,0,0-.06.23,0.353,0.353,0,0,0,.32.36,0.585,0.585,0,0,0,.4-0.26,3.4,3.4,0,0,0,.41-0.66,5.151,5.151,0,0,0,.33-0.89,4.68,4.68,0,0,0,.15-0.95A2.226,2.226,0,0,0,2935.52,5726.68Zm-7.99,10.81a1.891,1.891,0,0,1,.34-0.96,5.793,5.793,0,0,1,.84-1.07,5.626,5.626,0,0,1,1.08-.88,2.725,2.725,0,0,1,1.05-.45,3.816,3.816,0,0,1-.22,1.27,5.678,5.678,0,0,1-.62,1.23,4.9,4.9,0,0,1-.9,1.03,3.888,3.888,0,0,1-1.09.7,1.035,1.035,0,0,1-.48-0.87h0Zm16.75-.3a5.853,5.853,0,0,0,4.52,1.66,7.9,7.9,0,0,0,1.3-.81,14.151,14.151,0,0,0,1.44-1.22c0.49-.46.98-0.97,1.48-1.53s0.98-1.14,1.44-1.75a0.965,0.965,0,0,0-.29-0.5,31.741,31.741,0,0,1-3.45,2.81,8.474,8.474,0,0,1-2.62,1.32,2.152,2.152,0,0,1-1.46-1.27,6.3,6.3,0,0,1-.56-2.86,17.079,17.079,0,0,1,3.34-9.82,10.831,10.831,0,0,1,1.04-1.27,8,8,0,0,1,1.17-.98,5.772,5.772,0,0,1,1.19-.64,3.175,3.175,0,0,1,1.14-.23,1.07,1.07,0,0,1,1.32,1.06,2.568,2.568,0,0,1-.5,1.38,6.351,6.351,0,0,1-1.33,1.45,2.043,2.043,0,0,0,.58,1.09,1.846,1.846,0,0,0,1.08.57,4.646,4.646,0,0,0,.74-0.79,6.787,6.787,0,0,0,.59-0.95,4.366,4.366,0,0,0,.38-1,3.741,3.741,0,0,0,.14-0.98,2.31,2.31,0,0,0-.93-1.95,4.212,4.212,0,0,0-2.58-.69,7.953,7.953,0,0,0-2.76.49,10.076,10.076,0,0,0-2.53,1.38,13.081,13.081,0,0,0-2.18,2.1,13.693,13.693,0,0,0-1.72,2.67,15.282,15.282,0,0,0-1.12,3.08,14.05,14.05,0,0,0-.39,3.3A6.965,6.965,0,0,0,2944.28,5737.19Zm19.6-8.75c-0.2.4-.4,0.78-0.61,1.17s-0.41.75-.61,1.1-0.38.67-.54,0.96a23.312,23.312,0,0,1-2.21,3.23,3.367,3.367,0,0,1-1.61,1.19,0.546,0.546,0,0,1-.34-0.58,6.271,6.271,0,0,1,.53-2.37,11.26,11.26,0,0,1,1.36-2.38,9.548,9.548,0,0,1,1.85-1.9,4.359,4.359,0,0,1,1.98-.94,1.323,1.323,0,0,0-.22-0.51,3.575,3.575,0,0,0-.47-0.59,3.782,3.782,0,0,0-.57-0.5,2.067,2.067,0,0,0-.54-0.29,3.278,3.278,0,0,0-2.04.86,10.362,10.362,0,0,0-1.96,2.13,13.135,13.135,0,0,0-1.48,2.77,8.027,8.027,0,0,0-.57,2.85,3.572,3.572,0,0,0,.55,2.06,1.692,1.692,0,0,0,1.44.8,3.011,3.011,0,0,0,1.21-.56,7.551,7.551,0,0,0,1.31-1.2,15.2,15.2,0,0,0,1.27-1.71,14.626,14.626,0,0,0,1.11-2.07,11.248,11.248,0,0,0-.92,3.74c0,1.19.44,1.78,1.3,1.78a3.312,3.312,0,0,0,.82-0.12,2.424,2.424,0,0,0,.74-0.31,1.111,1.111,0,0,1-.48-0.64,3.529,3.529,0,0,1-.14-1.11,7.987,7.987,0,0,1,.15-1.42,16.17,16.17,0,0,1,.45-1.75c0.19-.63.42-1.28,0.69-1.96s0.57-1.35.89-2.03a0.384,0.384,0,0,0-.18-0.26,2.569,2.569,0,0,0-.44-0.28,3.417,3.417,0,0,0-.59-0.21,2.216,2.216,0,0,0-.57-0.09C2964.27,5727.67,2964.08,5728.05,2963.88,5728.44Zm11.44-1.76a8.815,8.815,0,0,0-.77-0.88c-0.29-.28-0.58-0.54-0.88-0.78a2.247,2.247,0,0,0-.71-0.42,3.973,3.973,0,0,0-1.2.53,4.425,4.425,0,0,0-1,.93,5.034,5.034,0,0,0-.7,1.18,3.3,3.3,0,0,0-.26,1.29,4.591,4.591,0,0,0,.12,1.03c0.08,0.34.16,0.7,0.25,1.06s0.17,0.73.25,1.12a5.761,5.761,0,0,1,.12,1.18,4.74,4.74,0,0,0-1.96.4,5.321,5.321,0,0,0-1.56,1.04,5.039,5.039,0,0,0-1.04,1.47,4.132,4.132,0,0,0-.38,1.76,2.042,2.042,0,0,0,.33.66,3.516,3.516,0,0,0,.57.59,3.245,3.245,0,0,0,.68.43,2.1,2.1,0,0,0,.7.19,4.516,4.516,0,0,0,3.03-1.41,4.662,4.662,0,0,0,1.09-3.23c0-.19,0-0.35-0.01-0.48s-0.01-.25-0.01-0.38a0.5,0.5,0,0,1,.04-0.23,0.335,0.335,0,0,1,.2-0.15,4.033,4.033,0,0,1,.49-0.16c0.22-.05.51-0.12,0.88-0.2a0.459,0.459,0,0,0,.09-0.31,0.421,0.421,0,0,0-.02-0.19h-1.68a0.912,0.912,0,0,1-.02-0.29,9.319,9.319,0,0,1,.5-3.51,1.61,1.61,0,0,1,1.46-1.2,0.482,0.482,0,0,1,.42.23,0.937,0.937,0,0,1,.16.57,1.158,1.158,0,0,1-.06.33c-0.04.13-.08,0.26-0.13,0.39s-0.09.24-.13,0.34a0.767,0.767,0,0,0-.06.23,0.338,0.338,0,0,0,.31.36,0.6,0.6,0,0,0,.41-0.26,3.39,3.39,0,0,0,.4-0.66,5.151,5.151,0,0,0,.33-0.89,4.074,4.074,0,0,0,.15-0.95A2.161,2.161,0,0,0,2975.32,5726.68Zm-8,10.81a1.99,1.99,0,0,1,.34-0.96,5.793,5.793,0,0,1,.84-1.07,6.311,6.311,0,0,1,1.08-.88,2.761,2.761,0,0,1,1.06-.45,3.834,3.834,0,0,1-.23,1.27,5.641,5.641,0,0,1-.61,1.23,5.546,5.546,0,0,1-.9,1.03,4.083,4.083,0,0,1-1.1.7,1.035,1.035,0,0,1-.48-0.87h0Zm14.96-11.79a3.906,3.906,0,0,0-1.6.36,6.542,6.542,0,0,0-1.56.98,9.854,9.854,0,0,0-1.42,1.46,11.6,11.6,0,0,0-1.15,1.79,10.064,10.064,0,0,0-.77,1.97,7.816,7.816,0,0,0-.27,2,3.56,3.56,0,0,0,.92,2.46,3.987,3.987,0,0,0,2.58,1.22,6.712,6.712,0,0,0,2.44-1.22,11.583,11.583,0,0,0,2.36-2.38,3.956,3.956,0,0,0-.41-0.41q-0.375.4-.87,0.9a9.24,9.24,0,0,1-1.06.91,6.239,6.239,0,0,1-1.19.71,3.017,3.017,0,0,1-1.27.29,0.828,0.828,0,0,1-.55-0.18,1.267,1.267,0,0,1-.34-0.47,2.424,2.424,0,0,1-.16-0.63,3.589,3.589,0,0,1-.05-0.64c0-.12,0-0.22.01-0.33s0.01-.2.01-0.3a20.076,20.076,0,0,0,2.69-1.25,8.828,8.828,0,0,0,1.96-1.45,5.633,5.633,0,0,0,1.23-1.87,8.038,8.038,0,0,0,.53-2.56,3.217,3.217,0,0,0-2.06-1.36h0Zm-0.96,5.22a10.865,10.865,0,0,1-3.2,2.36,9.794,9.794,0,0,1,.8-2.06,8.742,8.742,0,0,1,1.11-1.68,5.843,5.843,0,0,1,1.31-1.16,3.571,3.571,0,0,1,1.34-.52A4.945,4.945,0,0,1,2981.32,5730.92Zm12-4.24a8.815,8.815,0,0,0-.77-0.88c-0.29-.28-0.58-0.54-0.88-0.78a2.36,2.36,0,0,0-.71-0.42,3.973,3.973,0,0,0-1.2.53,4.425,4.425,0,0,0-1,.93,4.714,4.714,0,0,0-.7,1.18,3.3,3.3,0,0,0-.26,1.29,4.078,4.078,0,0,0,.12,1.03c0.07,0.34.16,0.7,0.25,1.06s0.17,0.73.25,1.12a5.761,5.761,0,0,1,.12,1.18,4.707,4.707,0,0,0-1.96.4,5.321,5.321,0,0,0-1.56,1.04,4.858,4.858,0,0,0-1.04,1.47,4.132,4.132,0,0,0-.38,1.76,2.042,2.042,0,0,0,.33.66,3.516,3.516,0,0,0,.57.59,3.245,3.245,0,0,0,.68.43,2.1,2.1,0,0,0,.7.19,4.516,4.516,0,0,0,3.03-1.41,4.662,4.662,0,0,0,1.09-3.23c0-.19,0-0.35-0.01-0.48s-0.01-.25-0.01-0.38a0.5,0.5,0,0,1,.04-0.23,0.335,0.335,0,0,1,.2-0.15,4.033,4.033,0,0,1,.49-0.16c0.22-.05.51-0.12,0.88-0.2a0.459,0.459,0,0,0,.09-0.31,0.657,0.657,0,0,0-.02-0.19h-1.68a0.912,0.912,0,0,1-.02-0.29,9.319,9.319,0,0,1,.5-3.51,1.61,1.61,0,0,1,1.46-1.2,0.482,0.482,0,0,1,.42.23,0.937,0.937,0,0,1,.16.57,1.158,1.158,0,0,1-.06.33c-0.04.13-.08,0.26-0.13,0.39s-0.1.24-.13,0.34a0.545,0.545,0,0,0-.06.23,0.338,0.338,0,0,0,.31.36,0.622,0.622,0,0,0,.41-0.26,3.964,3.964,0,0,0,.4-0.66,5.151,5.151,0,0,0,.33-0.89,4.68,4.68,0,0,0,.15-0.95A2.161,2.161,0,0,0,2993.32,5726.68Zm-8,10.81a1.891,1.891,0,0,1,.34-0.96,5.793,5.793,0,0,1,.84-1.07,6.311,6.311,0,0,1,1.08-.88,2.7,2.7,0,0,1,1.06-.45,3.834,3.834,0,0,1-.23,1.27,6.129,6.129,0,0,1-.61,1.23,5.546,5.546,0,0,1-.9,1.03,4.083,4.083,0,0,1-1.1.7,1.035,1.035,0,0,1-.48-0.87h0Z" transform="translate(-2861 -5719.28)"/>
  <path id="成功案例" class="cls-1" d="M2888.99,5762.43a18.351,18.351,0,0,0-1.92-3.24l-2.37,1.14a12.625,12.625,0,0,1,1.77,3.33Zm-9.09,4.05c0.99,7.5,1.32,8.91,2.79,11.97a18.3,18.3,0,0,1-7.11,5.46,4.292,4.292,0,0,1,2.01,2.1,30.114,30.114,0,0,0,6.24-5.37,20.661,20.661,0,0,0,3.75,4.41c2.79,2.22,3.45,1.92,5.22-3.33a4.9,4.9,0,0,1-2.55-1.86c-0.45,4.26-1.32,4.35-4.86-1.29a24.15,24.15,0,0,0,3.09-6.66,4.484,4.484,0,0,1,.99-1.74c0.48-.18.48-0.39,0-0.54a14.051,14.051,0,0,1-2.82-1.17,23.59,23.59,0,0,1-2.49,7.68,34.03,34.03,0,0,1-1.86-9.66c4.77,0,7.71.18,8.88,0.3v-2.79c-1.11.12-3.51,0.27-8.97,0.3-0.09-2.64,0-4.35.27-4.65,0.51-.57.39-0.72-0.3-0.66a13.956,13.956,0,0,1-2.94-.18c0.12,1.56.27,3.63,0.45,5.49-6.84,0-10.14-.15-11.22-0.3,0.48,13.26-.24,16.56-3.15,20.16a6.5,6.5,0,0,1,2.64,1.23c2.25-4.08,2.85-6.09,3-12.81h4.98l-0.27,5.19c0,1.47-.75,1.74-3.84,1.2a6.124,6.124,0,0,1,1.11,3.06c4.17-.93,4.83-1.38,5.01-3.57l0.42-8.07a58.727,58.727,0,0,1-7.38.27v-4.17h8.91Zm31.68,0.84c-0.12,9.09-2.82,13.83-8.88,17.31a5.2,5.2,0,0,1,2.61,1.89c6.54-5.13,8.04-7.62,8.7-19.2h5.01l-0.9,12.54c-0.21,3.09-.96,3.51-4.32,3.09a6.63,6.63,0,0,1,1.38,3.21c4.65-.72,5.13-1.02,5.4-4.89l1.17-16.47c-1.44.12-4.17,0.18-7.62,0.18,0.21-3.99.42-5.22,0.72-5.46,0.69-.57.6-0.75-0.12-0.69a9.854,9.854,0,0,1-3.33-.3c0.12,0.93.18,2.91,0.18,6.45-2.22-.03-3.39-0.06-4.59-0.18v2.76A40.032,40.032,0,0,1,2911.58,5767.32Zm-9,10.56v-12.84a33.236,33.236,0,0,1,3.78.3v-2.94a49.728,49.728,0,0,1-10.35,0v2.94a27.262,27.262,0,0,1,4.11-.3v13.41a33.578,33.578,0,0,1-4.95.69,9.533,9.533,0,0,1,.96,3.3,90.3,90.3,0,0,1,10.8-3.3,6.594,6.594,0,0,1,.18-2.7A37.193,37.193,0,0,1,2902.58,5777.88Zm37.59-.66v-0.48a1.28,1.28,0,0,1,.42-1.05c0.48-.51.42-0.6-0.18-0.54a15,15,0,0,1-2.79-.12,12.084,12.084,0,0,1,.24,2.19c-5.04,0-9.06-.09-11.73-0.3v2.28c2.22-.18,5.46-0.27,9.45-0.3-2.25,2.16-5.37,3.69-9.96,4.89a4.387,4.387,0,0,1,1.71,2.16c4.05-1.26,8.25-3.84,10.35-7.05h0.21v3.57a24.634,24.634,0,0,1-.24,3.75h2.7a34.508,34.508,0,0,1-.18-3.75v-3.57h0.39c2.31,3.6,7.05,5.94,11.04,6.57a7.672,7.672,0,0,1,1.11-2.7c-4.53-.15-8.43-2.01-10.29-3.84,3.9,0.03,6.78.12,9.09,0.27v-2.28C2948.78,5777.1,2945.3,5777.19,2940.17,5777.22Zm-6.93-8.85a27.522,27.522,0,0,1-2.31,2.4c2.85,0.45,5.28.9,7.47,1.38a40.586,40.586,0,0,1-11.01,1.38,9.415,9.415,0,0,1,1.47,2.28c5.07-.42,10.11-1.62,12.36-2.94,2.7,0.75,5.16,1.59,7.89,2.64a8.074,8.074,0,0,1,1.44-2.1c-2.13-.6-4.83-1.26-7.59-1.86a7.768,7.768,0,0,0,2.7-3.18c2.1,0.03,3.93.12,5.28,0.27v-2.19a64.291,64.291,0,0,1-6.48.27h-7.32a9.112,9.112,0,0,1,1.38-1.26c0.66-.36.69-0.54-0.12-0.81-0.45-.15-1.38-0.45-2.16-0.75a15.2,15.2,0,0,1-1.68,2.82c-2.82,0-5.01-.09-7.44-0.27v2.16C2929.28,5768.46,2931.14,5768.4,2933.24,5768.37Zm9.96,0a9.447,9.447,0,0,1-2.7,2.64c-2.16-.48-4.29-0.9-6.03-1.2q0.585-.765,1.17-1.44h7.56Zm-5.43-6.63c-5.64,0-7.89-.09-10.41-0.3v3.99H2930v-1.95h18.18v1.62h2.76v-3.66c-2.55.21-4.74,0.3-10.38,0.3a19.723,19.723,0,0,1-.51-2.7l-2.7.33A17.215,17.215,0,0,1,2937.77,5761.74Zm43.47-1.23c0.36-.42.3-0.51-0.21-0.48a7.138,7.138,0,0,1-2.61-.36,48.062,48.062,0,0,1,.15,4.92v17.73c0,0.96-.18,1.14-3.6.93a5.329,5.329,0,0,1,1.2,2.88c4.53-.36,4.77-0.84,4.77-2.58v-22.08A1.319,1.319,0,0,1,2981.24,5760.51Zm-4.68,3.93c0.42-.36.36-0.51-0.15-0.51a23.968,23.968,0,0,1-2.55-.21,30.227,30.227,0,0,1,.12,3.27v8.64c0,1.2-.03,2.34-0.12,3.84h2.58c-0.06-1.44-.12-2.64-0.12-3.84v-10.29A1.293,1.293,0,0,1,2976.56,5764.44Zm-17.91,5.43v9.96c0,2.16-.15,4.74-0.33,6.45h2.61v-21.3c1.41-3.21,1.65-3.66,1.92-3.96,0.48-.54.48-0.63,0.06-0.72a17.415,17.415,0,0,1-3.06-1.11,33.654,33.654,0,0,1-1.53,5.97,18.706,18.706,0,0,1-3.21,5.7,14.067,14.067,0,0,1,1.47,2.43C2957.33,5772.18,2957.99,5771.07,2958.65,5769.87Zm10.14,5.25c-0.78-.6-1.53-1.23-2.31-1.89l-1.38,1.65a15.631,15.631,0,0,1,2.91,2.43c-1.2,2.58-3.06,4.62-6.45,6.84a4.692,4.692,0,0,1,2.49,1.5,20.109,20.109,0,0,0,6.36-8.07c1.14-3.03,1.5-5.73,1.89-10.17-0.51.06-1.41,0.09-2.07,0.09h-2.73c0.3-1.2.57-2.52,0.9-4.17a34.548,34.548,0,0,1,4.56.24v-2.61a31.222,31.222,0,0,1-4.71.24,32.849,32.849,0,0,1-4.8-.24v2.61a18,18,0,0,1,2.49-.21c-0.69,4.92-2.07,8.94-4.44,12.03a4.551,4.551,0,0,1,2.1,1.08,39.569,39.569,0,0,0,3.3-6.93h2.76A34.118,34.118,0,0,1,2968.79,5775.12Z" transform="translate(-2861 -5719.28)"/>
  <rect id="Rectangle_5_copy_11" data-name="Rectangle 5 copy 11" class="cls-2" x="34" y="107.72" width="60" height="3"/>
</svg>
