<svg id="text" xmlns="http://www.w3.org/2000/svg" width="296.5" height="110.91" viewBox="0 0 296.5 110.91">
  <defs>
    <style>
      .cls-1 {
        fill: #333;
        fill-rule: evenodd;
      }

      .cls-2 {
        fill: #2b68ff;
      }
    </style>
  </defs>
  <path id="What_you_want" data-name="What you want" class="cls-1" d="M2855.75,1315.44a5.409,5.409,0,0,0,1.46.38,2.92,2.92,0,0,0,1.22-.28,32.111,32.111,0,0,0,1.48-2.9c0.5-1.11,1-2.28,1.48-3.5s0.96-2.46,1.41-3.71,0.85-2.41,1.22-3.5c-0.16,1.69-.29,3.28-0.41,4.76s-0.16,2.93-.16,4.36c0,0.22,0,.49.01,0.8s0.02,0.64.03,0.97,0.04,0.68.08,1.02a8.27,8.27,0,0,0,.12.9,2.087,2.087,0,0,0,.97.7,5.339,5.339,0,0,0,1.45.38,2.886,2.886,0,0,0,1.22-.28c0.23-.63.55-1.45,0.98-2.48s0.9-2.12,1.45-3.31,1.13-2.4,1.76-3.65,1.26-2.42,1.89-3.52a33.552,33.552,0,0,1,1.82-2.92,8.982,8.982,0,0,1,1.58-1.81,3.964,3.964,0,0,0-1.04-.83,3.186,3.186,0,0,0-1.14-.4,6.233,6.233,0,0,0-.74,1.06c-0.32.53-.7,1.2-1.13,2s-0.91,1.73-1.42,2.76-1.04,2.15-1.58,3.34-1.09,2.44-1.65,3.74-1.08,2.62-1.59,3.95q-0.045-.555-0.06-1.23c-0.01-.46-0.01-0.92-0.01-1.38,0-1.11.04-2.29,0.12-3.56s0.19-2.49.33-3.69,0.33-2.31.54-3.33a13.949,13.949,0,0,1,.73-2.46,1.052,1.052,0,0,0-.5-0.42,11.46,11.46,0,0,0-1.04-.49q-0.6-.24-1.2-0.42a3.651,3.651,0,0,0-.93-0.18c-0.11.47-.31,1.15-0.59,2.05s-0.62,1.92-1.02,3.05-0.83,2.31-1.3,3.55-0.95,2.43-1.42,3.57-0.93,2.16-1.37,3.08a18.506,18.506,0,0,1-1.16,2.13c-0.03-.42-0.06-0.88-0.07-1.37s-0.03-1-.03-1.51c0-1.11.04-2.29,0.12-3.56s0.19-2.49.34-3.69,0.32-2.31.54-3.33a13.147,13.147,0,0,1,.73-2.46,1.261,1.261,0,0,0-.53-0.42,10.554,10.554,0,0,0-1.05-.49c-0.4-.16-0.8-0.3-1.19-0.42a3.334,3.334,0,0,0-.9-0.18c-0.1,1.67-.21,3.13-0.34,4.41s-0.24,2.44-.35,3.52-0.19,2.12-.26,3.1-0.11,2.01-.11,3.08c0,0.68.02,1.4,0.06,2.18s0.1,1.49.18,2.14A2.141,2.141,0,0,0,2855.75,1315.44Zm18.11-1.39c0.07,0.17.13,0.35,0.21,0.51a1.657,1.657,0,0,0,.24.42,0.308,0.308,0,0,0,.2.17,0.438,0.438,0,0,0,.24-0.14,1.041,1.041,0,0,0,.22-0.31,20.656,20.656,0,0,1,1.26-2.54,23.241,23.241,0,0,1,1.56-2.38,22.809,22.809,0,0,1,1.7-2.08,13.321,13.321,0,0,1,1.74-1.6c0.18-.12.36-0.25,0.56-0.38a1.094,1.094,0,0,1,.38-0.19,0.08,0.08,0,0,1,.09.09q-0.57,1.185-1.08,2.31c-0.33.75-.62,1.44-0.86,2.07s-0.43,1.19-.57,1.66a4.5,4.5,0,0,0-.2,1.07,1.5,1.5,0,0,0,.11.55,1.663,1.663,0,0,0,.29.48,1.568,1.568,0,0,0,.42.35,0.964,0.964,0,0,0,.48.13,1.975,1.975,0,0,0,.57-0.14q0.39-.15.78-0.33a6.219,6.219,0,0,0,.69-0.36,0.522,0.522,0,0,0,.28-0.27,0.254,0.254,0,0,0-.02-0.12,1.768,1.768,0,0,0-.14-0.27,0.9,0.9,0,0,0-.27.1,1.477,1.477,0,0,1-.57.09,0.426,0.426,0,0,1-.32-0.08,0.579,0.579,0,0,1-.07-0.32,4.332,4.332,0,0,1,.42-1.48,21.684,21.684,0,0,1,1.08-2.16c0.44-.78.93-1.55,1.45-2.32a18.4,18.4,0,0,1,1.54-1.96,4.293,4.293,0,0,0-1.27-1.11,2.786,2.786,0,0,0-1.35-.41q-2.22,0-6.84,5.88c0.15-.57.3-1.12,0.47-1.64s0.36-1.04.57-1.56,0.43-1.04.68-1.57,0.52-1.1.83-1.71a23.628,23.628,0,0,1,2.28-3.54,41.894,41.894,0,0,1,3.24-3.73,3.128,3.128,0,0,0-.57-0.43,4.125,4.125,0,0,0-.76-0.37,5.108,5.108,0,0,0-.87-0.25,3.543,3.543,0,0,0-.83-0.1c-0.54.62-1.08,1.31-1.62,2.06s-1.05,1.55-1.54,2.38-0.96,1.68-1.38,2.54-0.8,1.72-1.12,2.57c-0.37.95-.7,1.89-1,2.83s-0.55,1.85-.76,2.72-0.38,1.67-.5,2.43a13.994,13.994,0,0,0-.16,1.98A1.481,1.481,0,0,0,2873.86,1314.05Zm20.05-8.61c-0.2.4-.4,0.78-0.61,1.17s-0.41.75-.61,1.1-0.38.67-.54,0.96a22.459,22.459,0,0,1-2.21,3.23,3.322,3.322,0,0,1-1.61,1.19,0.54,0.54,0,0,1-.33-0.58,6.086,6.086,0,0,1,.53-2.37,11.218,11.218,0,0,1,1.35-2.38,9.548,9.548,0,0,1,1.85-1.9,4.359,4.359,0,0,1,1.98-.94,1.323,1.323,0,0,0-.22-0.51,3.5,3.5,0,0,0-.46-0.59,4.408,4.408,0,0,0-.58-0.5,2.067,2.067,0,0,0-.54-0.29,3.278,3.278,0,0,0-2.04.86,10.648,10.648,0,0,0-1.96,2.13,12.658,12.658,0,0,0-1.47,2.77,7.836,7.836,0,0,0-.58,2.85,3.65,3.65,0,0,0,.55,2.06,1.692,1.692,0,0,0,1.44.8,3.045,3.045,0,0,0,1.22-.56,7.512,7.512,0,0,0,1.3-1.2,15.223,15.223,0,0,0,1.28-1.71,15.673,15.673,0,0,0,1.1-2.07,11.184,11.184,0,0,0-.91,3.74c0,1.19.43,1.78,1.29,1.78a3.249,3.249,0,0,0,.82-0.12,2.424,2.424,0,0,0,.74-0.31,1.111,1.111,0,0,1-.48-0.64,3.849,3.849,0,0,1-.14-1.11,7.241,7.241,0,0,1,.16-1.42,16,16,0,0,1,.44-1.75c0.19-.63.42-1.28,0.7-1.96s0.56-1.35.88-2.03a0.384,0.384,0,0,0-.18-0.26,2.229,2.229,0,0,0-.44-0.28,3.141,3.141,0,0,0-.59-0.21,2.087,2.087,0,0,0-.56-0.09Q2894.21,1304.855,2893.91,1305.44Zm5.94-.63c-0.3.73-.58,1.48-0.84,2.23s-0.48,1.48-.67,2.17a18.952,18.952,0,0,0-.44,1.91,7.947,7.947,0,0,0-.16,1.45,1.521,1.521,0,0,0,.31.88,3.622,3.622,0,0,0,.81.8,4.768,4.768,0,0,0,1.09.6,3.21,3.21,0,0,0,1.2.24,1.936,1.936,0,0,0,.57-0.21,6.9,6.9,0,0,0,.8-0.47,9.144,9.144,0,0,0,.75-0.56,2.241,2.241,0,0,0,.49-0.5,1.042,1.042,0,0,0-.16-0.36,4.4,4.4,0,0,1-1.16.67,5.146,5.146,0,0,1-1.36.36,0.99,0.99,0,0,1-.8-1.17,9.106,9.106,0,0,1,.18-1.69,19,19,0,0,1,.51-2c0.21-.7.48-1.44,0.79-2.2s0.67-1.53,1.07-2.3a7.965,7.965,0,0,0,2.85-.45,0.937,0.937,0,0,0-.07-0.37,0.907,0.907,0,0,0-.19-0.3,8.551,8.551,0,0,1-1,.07h-0.97c0.4-.67.77-1.26,1.12-1.78s0.75-1.07,1.23-1.68a1.368,1.368,0,0,0-.43-0.29q-0.315-.135-0.69-0.27c-0.26-.09-0.51-0.16-0.76-0.22a3.293,3.293,0,0,0-.61-0.08,2.674,2.674,0,0,0-.54.52c-0.23.27-.48,0.6-0.75,0.98s-0.53.82-.81,1.29-0.54.93-.78,1.41h-1.06a7.282,7.282,0,0,1-1.2-.1,3.779,3.779,0,0,0,.1.81,1.529,1.529,0,0,0,.21.61h1.37Zm21.55,2.37c0.44-1,.9-2.04,1.4-3.09a1.207,1.207,0,0,0-.38-0.28,3.168,3.168,0,0,0-.58-0.24c-0.23-.07-0.46-0.13-0.7-0.18a3.249,3.249,0,0,0-.67-0.07c-0.39.64-.75,1.26-1.08,1.87s-0.66,1.2-.97,1.78-0.63,1.15-.95,1.71-0.67,1.14-1.06,1.72a10.562,10.562,0,0,1-1.63,1.98,2.765,2.765,0,0,1-1.15.71,0.725,0.725,0,0,1-.11-0.15,0.53,0.53,0,0,1-.06-0.28,3.981,3.981,0,0,1,.12-0.84c0.08-.36.17-0.72,0.28-1.08s0.21-.72.32-1.06a7.8,7.8,0,0,1,.29-0.77,25.25,25.25,0,0,1,1.97-3.93,10.822,10.822,0,0,1,1.15-1.61,1.654,1.654,0,0,0-.51-0.35,5.332,5.332,0,0,0-.6-0.23,3.221,3.221,0,0,0-.6-0.13c-0.19-.02-0.35-0.04-0.48-0.04a6.623,6.623,0,0,0-1.42,1.53,15.4,15.4,0,0,0-1.25,2.09,20.387,20.387,0,0,0-.99,2.26,17.8,17.8,0,0,0-.63,2.07,7.271,7.271,0,0,0-.17.92,10.732,10.732,0,0,0-.05,1.12,1.71,1.71,0,0,0,.39.77,2.809,2.809,0,0,0,.66.58,3.2,3.2,0,0,0,.79.38,2.962,2.962,0,0,0,.8.13,3.4,3.4,0,0,0,1.14-.74,12.511,12.511,0,0,0,1.14-1.24,15.514,15.514,0,0,0,1.01-1.37c0.3-.47.56-0.86,0.77-1.18a28.692,28.692,0,0,1-1.63,4.7,17.191,17.191,0,0,1-2.13,3.57,9.331,9.331,0,0,1-2.47,2.28,5.013,5.013,0,0,1-2.68.81,3.132,3.132,0,0,1-.46-0.03,0.89,0.89,0,0,1-.39-0.12,2.305,2.305,0,0,1-.37-0.24,4.445,4.445,0,0,1-.48-0.41,0.642,0.642,0,0,0-.34.51,1.943,1.943,0,0,0,.57.63,4.44,4.44,0,0,0,.91.53,6.164,6.164,0,0,0,1.1.36,5.356,5.356,0,0,0,1.19.13,4.991,4.991,0,0,0,2.35-.61,8.641,8.641,0,0,0,2.28-1.76,17.151,17.151,0,0,0,1.59-1.93,17.925,17.925,0,0,0,1.34-2.24,25.319,25.319,0,0,0,1.18-2.65c0.37-.96.73-2.02,1.1-3.19C2920.59,1309.22,2920.97,1308.19,2921.4,1307.18Zm7.05,6.59a8.076,8.076,0,0,0,2.09-1.86,8.429,8.429,0,0,0,1.36-2.46,8.287,8.287,0,0,0,.5-2.87c0-1.5-.43-2.25-1.28-2.25a1.342,1.342,0,0,0-.21.01,1.548,1.548,0,0,1-.22.01,2.152,2.152,0,0,0-3.98-.72,9.1,9.1,0,0,0-1.56,1.49,11.257,11.257,0,0,0-1.25,1.84,9.9,9.9,0,0,0-.82,2,7.458,7.458,0,0,0-.28,1.99,4.284,4.284,0,0,0,.81,2.69,3.084,3.084,0,0,0,2.19,1.2A8.205,8.205,0,0,0,2928.45,1313.77Zm0-7.95a5.116,5.116,0,0,1,1.88-1.01,1.825,1.825,0,0,1,.24.62,5.167,5.167,0,0,1,.07.99,9.2,9.2,0,0,1-.37,2.66,8.152,8.152,0,0,1-1.03,2.23,6.476,6.476,0,0,1-1.56,1.65,5.234,5.234,0,0,1-1.98.9,0.905,0.905,0,0,1-.43-0.6,3.2,3.2,0,0,1-.19-1.11,4.584,4.584,0,0,1,.14-1.09,8.877,8.877,0,0,1,.41-1.27,10.377,10.377,0,0,1,.62-1.31,11.761,11.761,0,0,1,.77-1.2A9.814,9.814,0,0,1,2928.45,1305.82Zm12.24,8.01c0.21,0.11.43,0.21,0.65,0.3a5.27,5.27,0,0,0,.58.21,2.179,2.179,0,0,0,.44.07,0.054,0.054,0,0,0,.04-0.03,0.091,0.091,0,0,0,.05-0.07,0.8,0.8,0,0,0-.08-0.29,2.925,2.925,0,0,1-.18-0.42,3.117,3.117,0,0,1-.18-0.62,3.783,3.783,0,0,1-.09-0.88,6.329,6.329,0,0,1,.32-1.92,17.405,17.405,0,0,1,.76-1.98c0.31-.66.64-1.34,0.99-2.02s0.67-1.39.96-2.09a1.216,1.216,0,0,0-.36-0.28,3.054,3.054,0,0,0-.57-0.24,6.107,6.107,0,0,0-.68-0.18,3.249,3.249,0,0,0-.67-0.07,5.036,5.036,0,0,0-.71.83,9.226,9.226,0,0,0-.53.87,8.417,8.417,0,0,0-.38.83c-0.11.27-.19,0.49-0.25,0.69a7.143,7.143,0,0,1-.5,1.05q-0.3.525-.63,1.02-0.345.5-.66,0.93c-0.22.28-.41,0.54-0.57,0.76-0.65.9-1.16,1.56-1.53,2a2.872,2.872,0,0,1-.91.79,0.484,0.484,0,0,1-.11-0.15,0.53,0.53,0,0,1-.06-0.28,3.856,3.856,0,0,1,.11-0.84,10.652,10.652,0,0,1,.27-1.08c0.11-.37.23-0.72,0.34-1.06a7.8,7.8,0,0,1,.29-0.77,27.425,27.425,0,0,1,1.95-3.93c0.59-.92.95-1.45,1.09-1.61a1.34,1.34,0,0,0-.46-0.35,5.829,5.829,0,0,0-.58-0.23,3.3,3.3,0,0,0-.59-0.13c-0.19-.02-0.36-0.04-0.5-0.04a6.3,6.3,0,0,0-1.45,1.53,15.35,15.35,0,0,0-1.24,2.09,22.272,22.272,0,0,0-.97,2.26,20.264,20.264,0,0,0-.64,2.07,5.766,5.766,0,0,0-.15.93c-0.03.29-.04,0.66-0.04,1.11a1.783,1.783,0,0,0,.37.77,2.762,2.762,0,0,0,.65.58,3.381,3.381,0,0,0,.79.38,2.97,2.97,0,0,0,.81.13,1.181,1.181,0,0,0,.44-0.22,4.306,4.306,0,0,0,.59-0.52q0.2-.24.57-0.75t0.78-1.02c0.27-.35.51-0.66,0.74-0.91a1.079,1.079,0,0,1,.43-0.39,2.769,2.769,0,0,0-.12.87,3.966,3.966,0,0,0,.15.98,1.83,1.83,0,0,0,.62.96A5.155,5.155,0,0,0,2940.69,1313.83Zm10.97,0.36a1.944,1.944,0,0,0,1.09.72c0.25-.33.48-0.65,0.67-0.95s0.39-.58.59-0.87,0.41-.59.63-0.91,0.49-.69.8-1.11c0.14-.19.32-0.42,0.55-0.69s0.45-.54.67-0.81a8.838,8.838,0,0,1,.65-0.69,2.244,2.244,0,0,1,.5-0.4c-0.01.13-.03,0.26-0.05,0.38a3.44,3.44,0,0,1-.08.46c-0.04.18-.09,0.38-0.14,0.62s-0.14.54-.23,0.89a8.3,8.3,0,0,0-.21,1.09,10.8,10.8,0,0,0-.06,1.22,1.674,1.674,0,0,0,.36,1.1,1.141,1.141,0,0,0,.92.43,1.353,1.353,0,0,0,.68-0.33,10.823,10.823,0,0,0,.96-0.83c0.34-.33.7-0.69,1.06-1.07s0.69-.74.99-1.06c0.74-.78,1.38-1.5,1.92-2.17a13.138,13.138,0,0,0,1.37-1.99,10.828,10.828,0,0,0,.88-2.05,12.381,12.381,0,0,0,.44-2.4,0.922,0.922,0,0,0-.53-0.12,3.427,3.427,0,0,0-.9.13,1.2,1.2,0,0,0-.63.32c-0.15.79-.28,1.46-0.41,2.03s-0.27,1.09-.42,1.55a10.235,10.235,0,0,1-.53,1.31,11.735,11.735,0,0,1-.76,1.31c-0.24.38-.51,0.77-0.82,1.17s-0.61.77-.89,1.11-0.53.61-.76,0.84a2.711,2.711,0,0,1-.43.38c0.11-.58.24-1.28,0.38-2.12s0.31-1.69.48-2.54,0.38-1.62.6-2.34a5.684,5.684,0,0,1,.72-1.57,0.357,0.357,0,0,0-.19-0.24,2.307,2.307,0,0,0-.41-0.17,2.713,2.713,0,0,0-.51-0.09,4.952,4.952,0,0,0-.52-0.03,1.755,1.755,0,0,0-.41.03,2.872,2.872,0,0,0-.68,1.05c-0.14.39-.25,0.72-0.35,1.01a6.819,6.819,0,0,1-.45,1.02,6,6,0,0,1-1.01,1.17,12.434,12.434,0,0,0-1.26,1.35c-0.47.57-.97,1.21-1.5,1.91,0.09-.59.19-1.23,0.27-1.91a16.28,16.28,0,0,1,.39-1.99,9.356,9.356,0,0,1,.67-1.82,4.172,4.172,0,0,1,1.12-1.43,0.886,0.886,0,0,0-.62-0.43,3.106,3.106,0,0,0-1.04-.17,2.3,2.3,0,0,0-1.64.61,3.672,3.672,0,0,0-.98,1.74c-0.16.56-.31,1.19-0.46,1.9s-0.29,1.39-.41,2.06-0.22,1.3-.29,1.87a12.308,12.308,0,0,0-.11,1.35A2.015,2.015,0,0,0,2951.66,1314.19Zm22.41-8.75c-0.2.4-.4,0.78-0.61,1.17s-0.41.75-.61,1.1-0.38.67-.54,0.96a23.312,23.312,0,0,1-2.21,3.23,3.322,3.322,0,0,1-1.61,1.19,0.54,0.54,0,0,1-.33-0.58,6.245,6.245,0,0,1,.52-2.37,11.713,11.713,0,0,1,1.36-2.38,9.548,9.548,0,0,1,1.85-1.9,4.359,4.359,0,0,1,1.98-.94,1.323,1.323,0,0,0-.22-0.51,3.575,3.575,0,0,0-.47-0.59,3.782,3.782,0,0,0-.57-0.5,2.067,2.067,0,0,0-.54-0.29,3.278,3.278,0,0,0-2.04.86,10.362,10.362,0,0,0-1.96,2.13,12.658,12.658,0,0,0-1.47,2.77,7.836,7.836,0,0,0-.58,2.85,3.572,3.572,0,0,0,.55,2.06,1.692,1.692,0,0,0,1.44.8,3.011,3.011,0,0,0,1.21-.56,7.551,7.551,0,0,0,1.31-1.2,15.2,15.2,0,0,0,1.27-1.71,14.626,14.626,0,0,0,1.11-2.07,11.184,11.184,0,0,0-.91,3.74c0,1.19.43,1.78,1.29,1.78a3.312,3.312,0,0,0,.82-0.12,2.424,2.424,0,0,0,.74-0.31,1.111,1.111,0,0,1-.48-0.64,3.849,3.849,0,0,1-.14-1.11,7.987,7.987,0,0,1,.15-1.42c0.11-.54.26-1.13,0.45-1.75s0.42-1.28.69-1.96,0.57-1.35.89-2.03a0.384,0.384,0,0,0-.18-0.26,2.569,2.569,0,0,0-.44-0.28,3.141,3.141,0,0,0-.59-0.21,2.148,2.148,0,0,0-.56-0.09Q2974.37,1304.855,2974.07,1305.44Zm6.51-1.78a24.384,24.384,0,0,0-1.67,3.31c-0.27.62-.52,1.25-0.75,1.87s-0.41,1.22-.56,1.79-0.27,1.08-.36,1.55a6.1,6.1,0,0,0-.13,1.15,5.184,5.184,0,0,0,.36,1.07,1.789,1.789,0,0,0,.74.8,2.844,2.844,0,0,0,.69-0.68c0.26-.35.57-0.77,0.92-1.26,0.62-.87,1.24-1.65,1.84-2.36s1.27-1.41,2.02-2.13a5.989,5.989,0,0,1,1.3-1.03,4.465,4.465,0,0,1,.65-0.34c-0.27.64-.5,1.19-0.67,1.64a12.189,12.189,0,0,0-.41,1.18,5.163,5.163,0,0,0-.19.85,3.922,3.922,0,0,0-.05.65,5.391,5.391,0,0,0,.09,1,2.012,2.012,0,0,0,.35.8,1.848,1.848,0,0,0,.7.54,2.649,2.649,0,0,0,1.14.2,1.6,1.6,0,0,0,.49-0.09c0.18-.07.37-0.15,0.56-0.24s0.38-.2.56-0.31,0.32-.23.45-0.34a0.831,0.831,0,0,0-.06-0.28,0.364,0.364,0,0,0-.15-0.2,1.248,1.248,0,0,0-.46.12,1.44,1.44,0,0,1-.55.12,0.611,0.611,0,0,1-.45-0.17,1.282,1.282,0,0,1-.15-0.77,6.233,6.233,0,0,1,.26-1.65,14.216,14.216,0,0,1,.66-1.79c0.27-.58.54-1.13,0.82-1.63a9.79,9.79,0,0,1,.75-1.19,2.093,2.093,0,0,1,.52-0.47,0.276,0.276,0,0,0,.18-0.13,3.749,3.749,0,0,0-.66-0.88,1.418,1.418,0,0,0-1.04-.42,2.7,2.7,0,0,0-1.28.4,9.572,9.572,0,0,0-1.38.96c-0.45.38-.89,0.78-1.3,1.2s-0.78.8-1.08,1.12a7.7,7.7,0,0,0-.6.66c-0.26.29-.54,0.62-0.83,0.98s-0.6.72-.91,1.08-0.6.68-.86,0.95a4.5,4.5,0,0,1,.52-1.41c0.3-.56.63-1.16,1-1.8s0.73-1.25,1.1-1.86a10.957,10.957,0,0,0,.82-1.56,4.555,4.555,0,0,0-.82-1.45,2.551,2.551,0,0,0-1.18-.85A5.849,5.849,0,0,0,2980.58,1303.66Zm12.8,1.15c-0.3.73-.59,1.48-0.84,2.23s-0.48,1.48-.67,2.17-0.34,1.32-.45,1.91a8.785,8.785,0,0,0-.15,1.45,1.521,1.521,0,0,0,.31.88,3.789,3.789,0,0,0,.8.8,5.063,5.063,0,0,0,1.1.6,3.172,3.172,0,0,0,1.2.24,2.04,2.04,0,0,0,.57-0.21,6.066,6.066,0,0,0,.79-0.47,7.879,7.879,0,0,0,.76-0.56,2.241,2.241,0,0,0,.49-0.5,0.93,0.93,0,0,0-.17-0.36,4.342,4.342,0,0,1-1.15.67,5.218,5.218,0,0,1-1.37.36,0.991,0.991,0,0,1-.79-1.17,9.106,9.106,0,0,1,.18-1.69,19,19,0,0,1,.51-2c0.21-.7.48-1.44,0.79-2.2s0.67-1.53,1.07-2.3a8,8,0,0,0,2.85-.45,0.937,0.937,0,0,0-.07-0.37,0.907,0.907,0,0,0-.19-0.3,8.551,8.551,0,0,1-1,.07h-0.97c0.4-.67.77-1.26,1.12-1.78s0.75-1.07,1.23-1.68a1.368,1.368,0,0,0-.43-0.29c-0.21-.09-0.44-0.18-0.7-0.27a7.079,7.079,0,0,0-.75-0.22,3.4,3.4,0,0,0-.61-0.08,2.674,2.674,0,0,0-.54.52,11.757,11.757,0,0,0-.75.98c-0.26.39-.54,0.82-0.81,1.29s-0.54.93-.78,1.41h-1.06a7.282,7.282,0,0,1-1.2-.1,3.779,3.779,0,0,0,.1.81,1.529,1.529,0,0,0,.21.61h1.37Z" transform="translate(-2774.69 -1294.09)"/>
  <path id="您可能正在面临的问题" class="cls-1" d="M2796.07,1358.57a5.434,5.434,0,0,1-2.76-1.47c-0.33,2.67-.42,2.94-1.38,3.09a30.29,30.29,0,0,1-6.54.12,1.063,1.063,0,0,1-.99-1.26v-3.03a0.926,0.926,0,0,1,.39-0.9c0.42-.39.3-0.54-0.24-0.51a12.667,12.667,0,0,1-2.82-.27,13.312,13.312,0,0,1,.21,2.61v2.85c0,1.83.51,2.31,1.89,2.58a57.156,57.156,0,0,0,8.64.15C2794.75,1362.26,2795.23,1361.87,2796.07,1358.57Zm-16.05-3.69-2.76-.87a17.925,17.925,0,0,1-2.58,6.24l2.97,1.11A54.388,54.388,0,0,1,2780.02,1354.88Zm21.36,3.24a49.372,49.372,0,0,0-5.04-4.95l-1.86,1.32a36.179,36.179,0,0,1,4.32,5.19Zm-9.93-1.11c-0.51-.78-1.38-2.25-2.13-3.63l-2.34.93a14.838,14.838,0,0,1,1.86,3.81Zm9.06-7.59c-1.74-1.77-2.58-2.58-4.41-4.2l-1.83,1.44a20.261,20.261,0,0,1,4.08,4.5Zm-11.82-2.94c0.57-.21.57-0.36-0.09-0.54a11.165,11.165,0,0,1-2.19-1.05,14.981,14.981,0,0,1-3.54,5.22,7.464,7.464,0,0,1,2.19,1.08,36.677,36.677,0,0,0,2.25-3.21A3.186,3.186,0,0,1,2788.69,1346.48Zm4.92-3.54c0.39-.27.33-0.51-0.24-0.48a20.609,20.609,0,0,1-2.82-.15,25.2,25.2,0,0,1,.15,3.63v3.66c0,0.54-.33.78-2.52,0.72a5.289,5.289,0,0,1,.87,2.49c3.48-.27,3.99-0.84,3.99-2.07v-7.05A0.939,0.939,0,0,1,2793.61,1342.94Zm-14.64.24v5.22a34.15,34.15,0,0,1-.21,4.2h2.55v-12.69a7.061,7.061,0,0,1,2.13-2.34c0.63-.15.63-0.33,0.03-0.45a10.786,10.786,0,0,1-2.91-1.08c-0.36,1.65-3.09,5.94-5.64,8.28a5.293,5.293,0,0,1,1.35,2.37C2777.29,1345.43,2778.1,1344.35,2778.97,1343.18Zm8.67-1.68h9.39l-0.9,1.95,2.31,0.87,1.95-4.98a29.725,29.725,0,0,1-4.98.27h-6.42a8.023,8.023,0,0,1,2.28-2.28c0.63-.18.63-0.33,0.03-0.45a11.9,11.9,0,0,1-2.91-1.08,16.508,16.508,0,0,1-5.73,7.59,6.167,6.167,0,0,1,2.1,1.47C2785.99,1343.51,2786.8,1342.61,2787.64,1341.5Zm36.36-.78v18.24c0,1.56-.51,1.95-5.34,1.17a5.07,5.07,0,0,1,1.38,3.15c5.73,0.18,6.54-.72,6.54-3.36v-19.17c1.8,0.03,3.21.12,4.26,0.24v-2.85a50.238,50.238,0,0,1-6.72.33h-12.03a36.457,36.457,0,0,1-6.78-.33v2.82a52.375,52.375,0,0,1,6.78-.24H2824Zm-6.21,11.58h-6.87v-5.79h6.87v5.79Zm-6.87,2.22h6.87v2.16h2.64a32.212,32.212,0,0,1-.27-4.2v-4.14c0-1.29.12-3.45,0.21-4.41a48.932,48.932,0,0,1-5.79.21c-3.3,0-5.25-.09-6.36-0.21,0.12,1.14.21,3.06,0.21,4.41v4.14c0,1.35-.12,4.26-0.27,5.76h2.76v-3.72Zm28.41,2.88h5.73v2.07c0,0.93-.72,1.08-2.7.72a5.075,5.075,0,0,1,.96,2.64c3.42-.3,4.05-0.75,4.05-2.52V1349.9a14.552,14.552,0,0,1,.21-2.76,46.893,46.893,0,0,1-5.4.24,47.689,47.689,0,0,1-5.37-.24,14.552,14.552,0,0,1,.21,2.76v8.01a43.283,43.283,0,0,1-.24,4.71h2.55v-5.22Zm12.99-3.15v-3.18a1.024,1.024,0,0,1,.51-0.96c0.54-.42.42-0.63-0.12-0.63a14.694,14.694,0,0,1-2.79-.18,19.343,19.343,0,0,1,.24,3.3v6.81c0,2.67.3,2.88,5.31,2.88,4.11,0,4.5-.3,5.49-3.75a4,4,0,0,1-2.49-1.71c-0.24,2.73-1.05,3.36-3.03,3.36-2.97,0-3.12-.24-3.12-0.99v-3.03c4.56-1.86,6.87-2.61,7.2-2.55,0.42,0.06.6-.21,0.24-0.51a9.81,9.81,0,0,1-1.71-2.01A25.716,25.716,0,0,1,2852.32,1354.25Zm-7.26-.96v2.37h-5.73v-2.37h5.73Zm-5.73-1.68v-2.34h5.73v2.34h-5.73Zm6.99-6.84c0.3,0.57.54,1.05,0.66,1.35l2.16-1.26a59.814,59.814,0,0,0-3.63-5.28l-1.83.96a26.125,26.125,0,0,1,1.8,2.76l-6.51.12c1.14-1.32,1.71-1.98,3-3.54a8,8,0,0,1,1.56-1.56c0.78-.51.69-0.69,0-0.81a8.842,8.842,0,0,1-2.52-1.02,23.946,23.946,0,0,1-3.45,5.67,4.091,4.091,0,0,1-1.8,1.26,16.716,16.716,0,0,1,.69,2.55,9.387,9.387,0,0,1,2.94-.6Zm6.27-3.09v-3.15a1.087,1.087,0,0,1,.51-0.96c0.54-.42.42-0.63-0.12-0.63a14.384,14.384,0,0,1-2.76-.18,20.033,20.033,0,0,1,.21,3.3v5.25c0,2.67.33,2.85,5.34,2.85,3.66,0,4.17-.12,5.19-3.24a3.928,3.928,0,0,1-2.37-1.56c-0.42,2.61-.81,2.91-2.85,2.91-2.91,0-3.15-.42-3.15-1.17v-1.62c4.8-1.92,6.57-2.46,7.08-2.4,0.6,0.06.72-.27,0.33-0.54a7.588,7.588,0,0,1-1.86-2.01A22.011,22.011,0,0,1,2852.59,1341.68Zm17.22,16.95a31.855,31.855,0,0,1-4.47-.33v3c1.74-.21,3.9-0.27,12.66-0.27,9.27,0,11.67.09,13.17,0.27v-3c-1.59.24-3.9,0.36-10.92,0.36v-8.7h3.54c1.83,0,3.36.03,4.65,0.15v-2.82a28.12,28.12,0,0,1-4.68.3h-3.51v-6.69c3.93,0.03,6.84.15,9.09,0.33v-3c-2.64.21-6.09,0.3-10.98,0.3s-8.31-.09-10.95-0.3v3c2.49-.24,5.64-0.33,10.08-0.33v17.76h-5.01v-11.13a1.565,1.565,0,0,1,.33-1.14c0.48-.33.45-0.72,0.03-0.72a23.967,23.967,0,0,1-3.21-.27,18.263,18.263,0,0,1,.18,3.54v9.69Zm42.99-9.03v-3.84a1.5,1.5,0,0,1,.39-1.05c0.42-.3.36-0.48-0.12-0.48a15.076,15.076,0,0,1-2.97-.3,34.752,34.752,0,0,1,.27,5.67,59.186,59.186,0,0,1-6.03-.3v2.79c1.56-.18,3.36-0.3,6.03-0.36v7.32c-3.33-.03-5.61-0.12-7.62-0.3v2.76c2.22-.21,4.89-0.3,9-0.3,4.14,0,6.78.09,9.03,0.3v-2.76c-2.04.18-4.44,0.27-7.98,0.3v-7.32a60,60,0,0,1,6.54.27v-2.7C2917.69,1349.48,2915.74,1349.57,2912.8,1349.6Zm-9.06-7.26a23.605,23.605,0,0,1-2.55,3.99,8.238,8.238,0,0,1-2.01-.15,11.382,11.382,0,0,1,.27,2.19,28.4,28.4,0,0,1-5.19,4.29,6.022,6.022,0,0,1,2.22,1.83c1.05-.93,2.07-1.89,3.03-2.85v5.7c0,1.35-.06,2.64-0.18,5.31h2.76c-0.12-2.67-.15-3.96-0.15-5.31v-8.37a32.327,32.327,0,0,0,4.47-6.66c5.91-.03,11.01.06,14.43,0.3v-2.76c-3.24.24-7.74,0.33-13.38,0.3,1.26-2.61,1.5-2.97,1.71-3.12,0.75-.54.6-0.78-0.03-0.84a19.136,19.136,0,0,1-3.21-.72,17.926,17.926,0,0,1-1.2,4.68c-3.3-.06-5.79-0.15-7.98-0.3v2.76C2898.7,1342.46,2900.92,1342.4,2903.74,1342.34Zm31.77,8.46h4.98v2.91h-4.98v-2.91Zm0,8.16v-3.3h4.98v3.3h-4.98Zm10.95,0h-3.69V1346h3.69v12.96ZM2933.32,1346v12.96h-3.6V1346h3.6Zm7.17,0v2.88h-4.98V1346h4.98Zm-3.81-6a28.783,28.783,0,0,1-.48,3.99c-3.81-.03-6.27-0.12-9-0.3a21.677,21.677,0,0,1,.24,3.63v11.28a35.644,35.644,0,0,1-.27,4.35h2.55v-1.86h16.74v1.53h2.67a39.512,39.512,0,0,1-.27-4.65v-10.71a31.669,31.669,0,0,1,.21-3.54c-2.31.18-5.22,0.27-10.5,0.27,0.39-1.35.72-2.64,0.99-3.99,5.22,0,8.7.09,11.61,0.3v-2.46c-3.15.24-7.11,0.3-12.99,0.3s-9.9-.06-13.08-0.3v2.46C2927.98,1340.09,2931.58,1340,2936.68,1340Zm26.91-2.31c0.45-.51.36-0.75-0.18-0.66a8.414,8.414,0,0,1-2.52-.15c0.09,1.44.12,3.24,0.12,5.97v13.53c0,2.16-.03,4.05-0.12,6.72h2.55c-0.09-2.58-.12-4.56-0.12-6.72v-17.16A2.527,2.527,0,0,1,2963.59,1337.69Zm-4.98,2.19c0.45-.51.36-0.72-0.15-0.66a12.829,12.829,0,0,1-2.52-.12c0.06,1.41.09,3.15,0.09,5.88v8.52c0,2.16-.03,3.99-0.09,6.63h2.55c-0.09-2.52-.12-4.47-0.12-6.63v-12.09A2.79,2.79,0,0,1,2958.61,1339.88Zm17.01,8.07a35.549,35.549,0,0,0-3.33-3.99l-2.22,1.11a10.778,10.778,0,0,1,3,3.96Zm-7.32,12.42h9.3v1.95h2.61a21.931,21.931,0,0,1-.33-3.99v-6.36a9.437,9.437,0,0,1,.18-2.25c-1.17.09-2.58,0.12-7.11,0.12-4.56,0-5.76-.03-7.05-0.12a9.146,9.146,0,0,1,.18,2.25v6.36a23.909,23.909,0,0,1-.3,4.11h2.52v-2.07Zm3.39-1.92h-3.39v-6.69h3.39v6.69Zm2.19-6.69h3.72v6.69h-3.72v-6.69Zm-4.71-8.79h5.31a44.488,44.488,0,0,1,6.48.27v-2.58a46.692,46.692,0,0,1-6.45.24h-4.17c1.26-2.19,1.83-2.85,2.46-3.3,0.42-.3.36-0.48-0.09-0.54a8.228,8.228,0,0,1-3.03-1.02,26.769,26.769,0,0,1-5.88,10.41,4.014,4.014,0,0,1,1.98,1.41C2967.07,1346.18,2968.24,1344.47,2969.17,1342.97Zm35.64,10.5a35.271,35.271,0,0,1-2.73-5.28l-2.43,1.05a20.445,20.445,0,0,1,2.52,5.61Zm-2.58-12.03a11.994,11.994,0,0,1,1.86-3.78c0.6-.45.54-0.78-0.03-0.75a9.856,9.856,0,0,1-3.12-.51c-0.84,4.86-2.25,8.49-3.96,10.74a5.4,5.4,0,0,1,2.22,1.5,29.418,29.418,0,0,0,2.25-4.89h6.36l-0.57,14.16c-0.06,1.74-.9,2.31-4.95,1.86a5.514,5.514,0,0,1,1.65,3.33c4.38-.3,5.7-1.71,5.79-3.84l0.63-15.09a22.053,22.053,0,0,1,.24-2.97,25.99,25.99,0,0,1-3.39.24h-4.98Zm-8.16,7.68h-5.4v-5.28h5.4v5.28Zm0,8.01h-5.4v-5.97h5.4v5.97Zm-5.4,2.04h5.4v2.67h2.79a36.714,36.714,0,0,1-.24-4.38v-13.2a16.237,16.237,0,0,1,.21-2.73,45.578,45.578,0,0,1-5.4.24c0.78-3.09,1.08-3.78,1.53-4.2,0.48-.45.42-0.72-0.06-0.75a17.186,17.186,0,0,1-3.24-.45,29.575,29.575,0,0,1-.6,5.37c-1.2-.06-2.31-0.12-3.12-0.21a15.3,15.3,0,0,1,.21,2.73v13.41a32.783,32.783,0,0,1-.24,4.41h2.76v-2.91Zm35.4-18.69a33.887,33.887,0,0,0-2.91-4.23l-2.28,1.23a19.239,19.239,0,0,1,2.55,4.38Zm15.9-2.58c-2.04.15-4.32,0.18-6.78,0.18-2.43,0-4.68-.03-6.99-0.18v2.67c2.04-.15,3.51-0.18,4.71-0.18h6.36v18.3c0,1.29-.69,1.65-3.99,1.2a7.738,7.738,0,0,1,1.38,3.12c4.95-.51,5.19-1.02,5.19-3.21v-18.3A26.627,26.627,0,0,1,3039.97,1337.9Zm-6.57,18.15c-0.03-1.35-.06-3.36-0.06-5.37,0-2.04.03-4.02,0.06-5.4a68.764,68.764,0,0,1-10.74,0c0.09,1.38.12,3.36,0.12,5.4,0,1.98-.03,3.99-0.12,5.4a52.469,52.469,0,0,1,5.37-.18C3030.94,1355.9,3032.11,1355.96,3033.4,1356.05Zm-13.95-12.57c0.45-.6.36-0.9-0.45-0.84a12.929,12.929,0,0,1-2.4-.21c0.09,1.11.12,2.19,0.12,3.63v12.21a33.142,33.142,0,0,1-.27,4.26h2.79v-18.15A1.13,1.13,0,0,1,3019.45,1343.48Zm11.61,10.23H3025v-5.97h6.06v5.97Zm18-10.32h4.86v2.16h-4.86v-2.16Zm7.26-6.12a35.466,35.466,0,0,1-4.89.21,37.72,37.72,0,0,1-4.74-.21,18.771,18.771,0,0,1,.18,3.06v4.41a15.913,15.913,0,0,1-.18,2.76,33.62,33.62,0,0,1,4.68-.18,38.857,38.857,0,0,1,4.95.18,25.59,25.59,0,0,1-.18-2.76v-4.41C3056.14,1339.55,3056.23,1337.93,3056.32,1337.27Zm-2.4,4.35h-4.86v-2.25h4.86v2.25Zm11.7,12.36-1.26,1.5a22.005,22.005,0,0,1,3.78,3.21l1.56-1.8A21.775,21.775,0,0,0,3065.62,1353.98Zm-3.03-8.16a42.666,42.666,0,0,1-.09,5.43c-0.36,3.12-1.74,4.47-5.43,6.3a6.973,6.973,0,0,1,2.01,1.47c3.12-1.83,4.92-3.87,5.31-6.48a45.673,45.673,0,0,0,.48-4.86,1.223,1.223,0,0,1,.39-0.99c0.33-.21.33-0.39-0.12-0.39A8.766,8.766,0,0,1,3062.59,1345.82Zm0-6.69a19.428,19.428,0,0,1-.75,3.45,30.807,30.807,0,0,1-3.51-.21,32.264,32.264,0,0,1,.15,3.48v3.99c0,1.41-.06,3.03-0.18,4.35h2.34v-9.81h6.21v8.97h2.43c-0.12-1.41-.18-2.94-0.18-4.35v-3.15c0-1.26.06-2.82,0.12-3.48a42.7,42.7,0,0,1-5.19.21,27.3,27.3,0,0,1,.78-3.45,50.429,50.429,0,0,1,5.49.24v-2.43a82.022,82.022,0,0,1-12.54,0v2.43A46.992,46.992,0,0,1,3062.59,1339.13Zm-9.36,14.46v-2.61c1.41,0.03,2.64.09,3.66,0.21v-2.4a74.745,74.745,0,0,1-11.97,0v2.4a54.8,54.8,0,0,1,6.03-.24v7.26a8.683,8.683,0,0,1-2.43-3.15,3.575,3.575,0,0,1,.87-1.95c0.33-.24.15-0.6-0.3-0.6a9.527,9.527,0,0,1-2.28-.42,26.131,26.131,0,0,1-3.03,9.96,4.533,4.533,0,0,1,2.4.75,23.7,23.7,0,0,0,1.74-5.22,9.956,9.956,0,0,0,5.85,4.23c2.52,0.72,8.37.75,16.53,0.54a9.086,9.086,0,0,1,.9-2.82c-8.31.9-14.88,0.81-17.97-.15v-3.96a23.393,23.393,0,0,1,3.45.18v-2.19A24.723,24.723,0,0,1,3053.23,1353.59Z" transform="translate(-2774.69 -1294.09)"/>
  <rect class="cls-2" x="118.31" y="107.91" width="60" height="3"/>
</svg>
