<svg id="组_14" data-name="组 14" xmlns="http://www.w3.org/2000/svg" xmlns:xlink="http://www.w3.org/1999/xlink" width="116.62" height="112.94" viewBox="0 0 116.62 112.94">
  <defs>
    <style>
      .cls-1, .cls-2 {
        fill: #333;
        fill-rule: evenodd;
      }

      .cls-1 {
        filter: url(#filter);
      }

      .cls-2 {
        filter: url(#filter-2);
      }

      .cls-3 {
        fill: #2b68ff;
        filter: url(#filter-3);
      }
    </style>
    <filter id="filter" x="2873.62" y="2036.06" width="107.16" height="21.75" filterUnits="userSpaceOnUse">
      <feFlood result="flood" flood-color="#fff"/>
      <feComposite result="composite" operator="in" in2="SourceGraphic"/>
      <feBlend result="blend" in2="SourceGraphic"/>
    </filter>
    <filter id="filter-2" x="2865" y="2077.53" width="116.62" height="28.25" filterUnits="userSpaceOnUse">
      <feFlood result="flood" flood-color="#fff"/>
      <feComposite result="composite" operator="in" in2="SourceGraphic"/>
      <feBlend result="blend" in2="SourceGraphic"/>
    </filter>
    <filter id="filter-3" x="29" y="109.94" width="60" height="3" filterUnits="userSpaceOnUse">
      <feFlood result="flood" flood-color="#fff"/>
      <feComposite result="composite" operator="in" in2="SourceGraphic"/>
      <feBlend result="blend" in2="SourceGraphic"/>
    </filter>
  </defs>
  <path id="What_we_do" data-name="What we do" class="cls-1" d="M2874.85,2057.44a5.339,5.339,0,0,0,1.45.38,2.886,2.886,0,0,0,1.22-.28,29.706,29.706,0,0,0,1.48-2.9c0.5-1.11,1-2.28,1.49-3.5s0.95-2.46,1.4-3.71,0.86-2.41,1.23-3.5c-0.16,1.69-.3,3.28-0.41,4.76s-0.17,2.93-.17,4.36c0,0.22,0,.49.01,0.8s0.02,0.64.04,0.97,0.04,0.68.07,1.02a8.27,8.27,0,0,0,.12.9,2.141,2.141,0,0,0,.97.7,5.436,5.436,0,0,0,1.45.38,2.964,2.964,0,0,0,1.23-.28c0.22-.63.55-1.45,0.97-2.48s0.91-2.12,1.45-3.31,1.13-2.4,1.77-3.65,1.26-2.42,1.88-3.52a33.552,33.552,0,0,1,1.82-2.92,8.975,8.975,0,0,1,1.59-1.81,4.01,4.01,0,0,0-1.05-.83,3.186,3.186,0,0,0-1.14-.4,6.88,6.88,0,0,0-.74,1.06c-0.32.53-.7,1.2-1.13,2s-0.9,1.73-1.41,2.76-1.04,2.15-1.59,3.34-1.09,2.44-1.64,3.74-1.09,2.62-1.6,3.95q-0.045-.555-0.06-1.23c-0.01-.46-0.01-0.92-0.01-1.38,0-1.11.04-2.29,0.12-3.56s0.19-2.49.34-3.69,0.32-2.31.54-3.33a13.147,13.147,0,0,1,.73-2.46,1.042,1.042,0,0,0-.51-0.42,11.46,11.46,0,0,0-1.04-.49,12.154,12.154,0,0,0-1.2-.42,3.671,3.671,0,0,0-.92-0.18c-0.12.47-.31,1.15-0.59,2.05s-0.62,1.92-1.02,3.05-0.84,2.31-1.31,3.55-0.94,2.43-1.42,3.57-0.92,2.16-1.36,3.08a16.923,16.923,0,0,1-1.17,2.13c-0.03-.42-0.05-0.88-0.07-1.37s-0.02-1-.02-1.51c0-1.11.04-2.29,0.12-3.56s0.19-2.49.33-3.69,0.33-2.31.54-3.33a13.949,13.949,0,0,1,.73-2.46,1.209,1.209,0,0,0-.52-0.42c-0.31-.16-0.66-0.33-1.06-0.49s-0.8-.3-1.19-0.42a3.334,3.334,0,0,0-.9-0.18c-0.09,1.67-.21,3.13-0.33,4.41s-0.25,2.44-.35,3.52-0.19,2.12-.27,3.1-0.1,2.01-.1,3.08c0,0.68.02,1.4,0.06,2.18s0.1,1.49.18,2.14A2.087,2.087,0,0,0,2874.85,2057.44Zm18.11-1.39c0.06,0.17.13,0.35,0.2,0.51a1.657,1.657,0,0,0,.24.42,0.36,0.36,0,0,0,.2.17,0.383,0.383,0,0,0,.24-0.14,1.041,1.041,0,0,0,.22-0.31,20.656,20.656,0,0,1,1.26-2.54,27.139,27.139,0,0,1,1.56-2.38,22.809,22.809,0,0,1,1.7-2.08,14.738,14.738,0,0,1,1.74-1.6c0.18-.12.37-0.25,0.57-0.38a1.087,1.087,0,0,1,.37-0.19,0.087,0.087,0,0,1,.1.09q-0.585,1.185-1.08,2.31-0.51,1.125-.87,2.07c-0.24.64-.43,1.19-0.56,1.66a4.148,4.148,0,0,0-.21,1.07,1.5,1.5,0,0,0,.11.55,1.663,1.663,0,0,0,.29.48,1.568,1.568,0,0,0,.42.35,0.964,0.964,0,0,0,.48.13,2.022,2.022,0,0,0,.58-0.14q0.375-.15.78-0.33a6.009,6.009,0,0,0,.68-0.36,0.561,0.561,0,0,0,.29-0.27,0.266,0.266,0,0,0-.03-0.12,1.144,1.144,0,0,0-.14-0.27,0.888,0.888,0,0,0-.26.1,1.569,1.569,0,0,1-.58.09,0.4,0.4,0,0,1-.31-0.08,0.5,0.5,0,0,1-.07-0.32,4.332,4.332,0,0,1,.42-1.48,21.684,21.684,0,0,1,1.08-2.16c0.44-.78.92-1.55,1.45-2.32a19.8,19.8,0,0,1,1.53-1.96,4.173,4.173,0,0,0-1.27-1.11,2.782,2.782,0,0,0-1.34-.41q-2.235,0-6.84,5.88c0.14-.57.3-1.12,0.47-1.64s0.35-1.04.56-1.56,0.44-1.04.68-1.57,0.53-1.1.83-1.71a23.628,23.628,0,0,1,2.28-3.54,41.894,41.894,0,0,1,3.24-3.73,3.025,3.025,0,0,0-.56-0.43,4.224,4.224,0,0,0-.77-0.37,5.272,5.272,0,0,0-.86-0.25,3.67,3.67,0,0,0-.83-0.1,23.829,23.829,0,0,0-1.62,2.06c-0.54.76-1.05,1.55-1.55,2.38s-0.96,1.68-1.38,2.54-0.8,1.72-1.12,2.57c-0.36.95-.7,1.89-0.99,2.83s-0.55,1.85-.77,2.72a23.246,23.246,0,0,0-.49,2.43,14.163,14.163,0,0,0-.17,1.98A1.276,1.276,0,0,0,2892.96,2056.05Zm20.05-8.61c-0.2.4-.41,0.78-0.61,1.17s-0.42.75-.62,1.1-0.38.67-.54,0.96a23.421,23.421,0,0,1-2.2,3.23,3.367,3.367,0,0,1-1.61,1.19,0.535,0.535,0,0,1-.34-0.58,6.271,6.271,0,0,1,.53-2.37,10.842,10.842,0,0,1,1.36-2.38,9.505,9.505,0,0,1,1.84-1.9,4.359,4.359,0,0,1,1.98-.94,1.146,1.146,0,0,0-.21-0.51,4.19,4.19,0,0,0-.47-0.59,3.846,3.846,0,0,0-.58-0.5,2.067,2.067,0,0,0-.54-0.29,3.322,3.322,0,0,0-2.04.86,10.612,10.612,0,0,0-1.95,2.13,13.135,13.135,0,0,0-1.48,2.77,8.027,8.027,0,0,0-.57,2.85,3.572,3.572,0,0,0,.55,2.06,1.692,1.692,0,0,0,1.44.8,3.011,3.011,0,0,0,1.21-.56,7.551,7.551,0,0,0,1.31-1.2,16.522,16.522,0,0,0,1.27-1.71,14.577,14.577,0,0,0,1.1-2.07,11.437,11.437,0,0,0-.91,3.74c0,1.19.43,1.78,1.3,1.78a3.177,3.177,0,0,0,.81-0.12,2.385,2.385,0,0,0,.75-0.31,1.035,1.035,0,0,1-.48-0.64,3.5,3.5,0,0,1-.15-1.11,8.1,8.1,0,0,1,.16-1.42,16,16,0,0,1,.44-1.75c0.2-.63.43-1.28,0.7-1.96s0.57-1.35.89-2.03a0.384,0.384,0,0,0-.18-0.26,2.328,2.328,0,0,0-.45-0.28,3.037,3.037,0,0,0-.58-0.21,2.216,2.216,0,0,0-.57-0.09C2913.4,2046.67,2913.21,2047.05,2913.01,2047.44Zm5.94-.63c-0.31.73-.59,1.48-0.84,2.23s-0.48,1.48-.67,2.17a19.148,19.148,0,0,0-.45,1.91,8.785,8.785,0,0,0-.15,1.45,1.521,1.521,0,0,0,.31.88,3.568,3.568,0,0,0,.8.8,4.988,4.988,0,0,0,1.09.6,3.21,3.21,0,0,0,1.2.24,2.075,2.075,0,0,0,.58-0.21,6.066,6.066,0,0,0,.79-0.47,9.35,9.35,0,0,0,.76-0.56,2.49,2.49,0,0,0,.49-0.5,1.109,1.109,0,0,0-.17-0.36,4.342,4.342,0,0,1-1.15.67,5.218,5.218,0,0,1-1.37.36,0.985,0.985,0,0,1-.79-1.17,9.106,9.106,0,0,1,.18-1.69c0.12-.62.29-1.29,0.5-2s0.48-1.44.8-2.2,0.66-1.53,1.06-2.3a8.023,8.023,0,0,0,2.86-.45,0.937,0.937,0,0,0-.07-0.37,0.907,0.907,0,0,0-.19-0.3,8.551,8.551,0,0,1-1,.07h-0.97c0.4-.67.77-1.26,1.11-1.78s0.76-1.07,1.24-1.68a1.368,1.368,0,0,0-.43-0.29c-0.21-.09-0.44-0.18-0.7-0.27s-0.51-.16-0.75-0.22a3.384,3.384,0,0,0-.62-0.08,3.338,3.338,0,0,0-.54.52,11.829,11.829,0,0,0-.74.98c-0.26.39-.54,0.82-0.82,1.29s-0.54.93-.78,1.41h-1.05a7.109,7.109,0,0,1-1.2-.1,4.43,4.43,0,0,0,.09.81,1.667,1.667,0,0,0,.22.61h1.37Zm11.91,9.38a1.972,1.972,0,0,0,1.1.72c0.25-.33.48-0.65,0.67-0.95s0.39-.58.59-0.87,0.41-.59.63-0.91,0.49-.69.79-1.11c0.15-.19.33-0.42,0.56-0.69s0.44-.54.67-0.81a8.838,8.838,0,0,1,.65-0.69,2.039,2.039,0,0,1,.5-0.4c-0.02.13-.03,0.26-0.05,0.38a3.44,3.44,0,0,1-.08.46c-0.04.18-.09,0.38-0.15,0.62s-0.13.54-.22,0.89a8.3,8.3,0,0,0-.21,1.09,10.8,10.8,0,0,0-.06,1.22,1.674,1.674,0,0,0,.36,1.1,1.136,1.136,0,0,0,.91.43,1.374,1.374,0,0,0,.69-0.33c0.29-.23.61-0.5,0.96-0.83s0.69-.69,1.05-1.07,0.7-.74,1-1.06c0.74-.78,1.38-1.5,1.92-2.17a13.909,13.909,0,0,0,1.37-1.99,10.177,10.177,0,0,0,.87-2.05,11.645,11.645,0,0,0,.45-2.4,0.922,0.922,0,0,0-.53-0.12,3.427,3.427,0,0,0-.9.13,1.289,1.289,0,0,0-.64.32c-0.14.79-.28,1.46-0.4,2.03s-0.27,1.09-.42,1.55a11.93,11.93,0,0,1-.53,1.31,11.735,11.735,0,0,1-.76,1.31,12.775,12.775,0,0,1-.83,1.17c-0.31.4-.6,0.77-0.88,1.11s-0.54.61-.76,0.84a2.711,2.711,0,0,1-.43.38c0.11-.58.24-1.28,0.38-2.12s0.31-1.69.48-2.54,0.38-1.62.6-2.34a5.684,5.684,0,0,1,.72-1.57,0.357,0.357,0,0,0-.19-0.24,2.307,2.307,0,0,0-.41-0.17,2.713,2.713,0,0,0-.51-0.09,4.952,4.952,0,0,0-.52-0.03,1.755,1.755,0,0,0-.41.03,2.749,2.749,0,0,0-.68,1.05c-0.14.39-.25,0.72-0.35,1.01a5.951,5.951,0,0,1-.46,1.02,5.55,5.55,0,0,1-1,1.17,12.434,12.434,0,0,0-1.26,1.35c-0.48.57-.98,1.21-1.5,1.91,0.09-.59.18-1.23,0.27-1.91a16.28,16.28,0,0,1,.39-1.99,8.749,8.749,0,0,1,.67-1.82,4.27,4.27,0,0,1,1.11-1.43,0.841,0.841,0,0,0-.61-0.43,3.106,3.106,0,0,0-1.04-.17,2.323,2.323,0,0,0-1.65.61,3.662,3.662,0,0,0-.97,1.74c-0.16.56-.31,1.19-0.47,1.9s-0.28,1.39-.4,2.06-0.22,1.3-.29,1.87a12.308,12.308,0,0,0-.11,1.35A2.088,2.088,0,0,0,2930.86,2056.19Zm21.23-11.49a3.826,3.826,0,0,0-1.59.36,6.542,6.542,0,0,0-1.56.98,9.38,9.38,0,0,0-1.42,1.46,11.6,11.6,0,0,0-1.15,1.79,9.473,9.473,0,0,0-.77,1.97,7.838,7.838,0,0,0-.28,2,3.522,3.522,0,0,0,.93,2.46,3.94,3.94,0,0,0,2.58,1.22,6.6,6.6,0,0,0,2.43-1.22,11.377,11.377,0,0,0,2.37-2.38,3.956,3.956,0,0,0-.41-0.41c-0.26.27-.55,0.57-0.88,0.9a9.137,9.137,0,0,1-1.05.91,6.564,6.564,0,0,1-1.19.71,3.052,3.052,0,0,1-1.27.29,0.81,0.81,0,0,1-.55-0.18,1.165,1.165,0,0,1-.34-0.47,2.427,2.427,0,0,1-.17-0.63,4.847,4.847,0,0,1-.05-0.64c0-.12.01-0.22,0.02-0.33s0.01-.2.01-0.3a20.677,20.677,0,0,0,2.69-1.25,8.759,8.759,0,0,0,1.95-1.45,5.509,5.509,0,0,0,1.24-1.87,8.32,8.32,0,0,0,.53-2.56,3.212,3.212,0,0,0-2.07-1.36h0Zm-0.96,5.22a10.816,10.816,0,0,1-3.19,2.36,9.773,9.773,0,0,1,.79-2.06,9.261,9.261,0,0,1,1.12-1.68,5.634,5.634,0,0,1,1.31-1.16,3.571,3.571,0,0,1,1.34-.52A4.9,4.9,0,0,1,2951.13,2049.92Zm13.8-4.48a9.636,9.636,0,0,0-1.28,1.22,11.341,11.341,0,0,0-1.2,1.62,14.36,14.36,0,0,0-.99,1.85,12.769,12.769,0,0,0-.67,1.91,6.925,6.925,0,0,0-.25,1.78,3.249,3.249,0,0,0,.88,2.41,4.139,4.139,0,0,0,2.53,1.07,4.294,4.294,0,0,0,1.63-.71,8.413,8.413,0,0,0,1.57-1.45,14.138,14.138,0,0,0,1.41-2.02,18.139,18.139,0,0,0,1.14-2.39,16.589,16.589,0,0,0,.76-2.58,12.1,12.1,0,0,0,.28-2.57,14.2,14.2,0,0,0-.25-2.61,17.807,17.807,0,0,0-.71-2.65,16.414,16.414,0,0,0-1.06-2.4,9,9,0,0,0-1.27-1.86,1.9,1.9,0,0,0-.66.24,4.537,4.537,0,0,0-.67.44,4.3,4.3,0,0,0-.58.54,1.771,1.771,0,0,0-.32.5c0.58,0.93,1.06,1.76,1.44,2.48a17.765,17.765,0,0,1,.92,1.99,10.9,10.9,0,0,1,.53,1.76c0.12,0.57.22,1.17,0.3,1.81a4.167,4.167,0,0,0-1.1-.74,2.773,2.773,0,0,0-1.11-.29A3.341,3.341,0,0,0,2964.93,2045.44Zm-2.25,9.53a4.583,4.583,0,0,1,.26-1.44,12.583,12.583,0,0,1,.72-1.71,20.226,20.226,0,0,1,1.03-1.77,16.075,16.075,0,0,1,1.23-1.65,14.941,14.941,0,0,1,1.29-1.33,4.473,4.473,0,0,1,1.23-.81,1.108,1.108,0,0,1,.02.19v0.5a10.985,10.985,0,0,1-.42,2.94,15.256,15.256,0,0,1-1.09,2.86,11.39,11.39,0,0,1-1.51,2.31,4.094,4.094,0,0,1-1.68,1.28,1.212,1.212,0,0,1-1.08-1.37h0Zm14.17,0.8a8.076,8.076,0,0,0,2.09-1.86,8.429,8.429,0,0,0,1.36-2.46,8.287,8.287,0,0,0,.5-2.87c0-1.5-.43-2.25-1.28-2.25a1.342,1.342,0,0,0-.21.01,1.548,1.548,0,0,1-.22.01,2.152,2.152,0,0,0-3.98-.72,9.1,9.1,0,0,0-1.56,1.49,11.257,11.257,0,0,0-1.25,1.84,9.9,9.9,0,0,0-.82,2,7.458,7.458,0,0,0-.28,1.99,4.284,4.284,0,0,0,.81,2.69,3.084,3.084,0,0,0,2.19,1.2A8.205,8.205,0,0,0,2976.85,2055.77Zm0-7.95a5.116,5.116,0,0,1,1.88-1.01,1.825,1.825,0,0,1,.24.62,5.167,5.167,0,0,1,.07.99,9.2,9.2,0,0,1-.37,2.66,8.152,8.152,0,0,1-1.03,2.23,6.476,6.476,0,0,1-1.56,1.65,5.234,5.234,0,0,1-1.98.9,0.905,0.905,0,0,1-.43-0.6,3.2,3.2,0,0,1-.19-1.11,4.584,4.584,0,0,1,.14-1.09,8.877,8.877,0,0,1,.41-1.27,10.377,10.377,0,0,1,.62-1.31,11.761,11.761,0,0,1,.77-1.2A9.814,9.814,0,0,1,2976.85,2047.82Z" transform="translate(-2865 -2036.06)"/>
  <path id="专业领域" class="cls-2" d="M2873.62,2088.06c-2.43.06-6.69-.03-8.61-0.18v2.55c1.74-.09,5.46-0.15,7.95-0.18-0.72,2.34-1.11,2.97-1.89,3.51a7.642,7.642,0,0,1,.84,2.25,17.778,17.778,0,0,1,3.81-.36h6.69l-5.1,3.9c-1.47-.63-3.21-1.32-5.13-2.07l-1.5,1.98a69.612,69.612,0,0,1,13.05,6.33l1.74-2.4c-1.65-.9-3.45-1.8-5.79-2.82l4.86-3.84a5.423,5.423,0,0,1,3.03-.99v-2.58a20.825,20.825,0,0,1-3.6.3h-9.48c0.36-1.17.66-2.25,0.96-3.21h8.85c2.31,0,4.56.06,6.66,0.18v-2.55c-2.07.12-4.35,0.18-6.66,0.18h-8.16c0.45-1.5.84-2.73,1.14-3.75h5.82a48.34,48.34,0,0,1,5.25.27v-2.67a48.34,48.34,0,0,1-5.25.27h-5.16c0.81-2.55.96-2.85,1.26-3.09,0.57-.45.57-0.63-0.21-0.78-0.6-.12-2.19-0.54-2.88-0.78a38.206,38.206,0,0,1-.93,4.65c-1.95,0-5.82-.12-7.38-0.27v2.67c1.41-.12,4.8-0.24,6.84-0.27C2874.31,2085.54,2873.98,2086.8,2873.62,2088.06Zm30.21,12.93c-3.66,0-6.75-.09-8.49-0.27v2.85c1.77-.18,4.8-0.27,12.72-0.27,8.7,0,11.82.09,13.23,0.27v-2.85c-1.26.15-4.5,0.27-9,.27v-20.76a1.134,1.134,0,0,1,.51-0.99c0.36-.3.27-0.51-0.18-0.51a14.58,14.58,0,0,1-3.09-.21c0.15,1.47.24,3,.24,4.26v18.21h-3.42v-20.82a1.056,1.056,0,0,1,.51-0.96c0.36-.3.27-0.51-0.18-0.51a14.675,14.675,0,0,1-3.09-.24,38.365,38.365,0,0,1,.24,4.26v18.27Zm-1.23-5.73c-1.47-3.54-2.94-7.65-3.96-10.92l-2.76,1.17a34.241,34.241,0,0,1,3.63,10.77Zm17.73-10.17c0.45-.27.45-0.51,0-0.54a10.991,10.991,0,0,1-3.36-.93,45.15,45.15,0,0,1-3.39,11.82,3.842,3.842,0,0,1,2.58.57c0.63-1.62,1.56-4.26,2.52-7.65A8.434,8.434,0,0,1,2920.33,2085.09Zm31.47,17.64a44.4,44.4,0,0,0-5.37-3.99l-1.59,1.68a20.784,20.784,0,0,1,4.83,4.32Zm-6.39-12.78c0.24-.18.12-0.33-0.06-0.3a13.966,13.966,0,0,1-3.03-.15,24.7,24.7,0,0,1-.12,7.26c-0.63,3.69-3.57,5.34-7.56,6.09a7.738,7.738,0,0,1,1.86,2.46c4.95-2.07,7.17-4.14,7.77-7.47,0.21-1.17.48-3.75,0.63-5.88A6.094,6.094,0,0,1,2945.41,2089.95Zm-14.67,9.06c-0.72-1.05-1.41-1.98-1.8-2.46l-1.83,1.32a26.914,26.914,0,0,1,4.11,6.78l2.25-1.41a20.812,20.812,0,0,0-1.32-2.19l4.32-9.6a37.838,37.838,0,0,1-5.61.24,35.674,35.674,0,0,1-5.46-.24v2.7a36.57,36.57,0,0,1,5.28-.3h2.49Zm2.31-9.66a19.288,19.288,0,0,1-1.5-3.54l-2.31.96a10.8,10.8,0,0,1,1.44,3.6Zm-0.84-8.76a3.544,3.544,0,0,1,1.11-.93c0.36-.12.36-0.39,0-0.45a10.251,10.251,0,0,1-2.94-1.14c-1.95,5.04-3.51,7.17-6.57,9.66a5.737,5.737,0,0,1,2.01,1.92,59.169,59.169,0,0,0,5.22-7.29,24.127,24.127,0,0,1,4.29,4.71l1.86-2.13C2935.54,2083.41,2933.86,2081.91,2932.21,2080.59Zm10.17,1.23a11.239,11.239,0,0,1-.66,3.54c-1.92,0-3.33-.03-4.2-0.09a27.664,27.664,0,0,1,.12,3.57v6.36a35.71,35.71,0,0,1-.21,3.75h2.43l0.03-11.58h7.68l0.03,11.01h2.58a36.125,36.125,0,0,1-.18-3.75v-5.79c0-2.04.03-2.85,0.09-3.57-2.4.06-3.09,0.09-5.73,0.09a32.938,32.938,0,0,1,.63-3.54c2.67,0,3.93.06,6.51,0.21v-2.46c-1.86.18-4.14,0.24-7.56,0.24-3.51,0-5.73-.06-7.59-0.24v2.46C2937.67,2081.91,2940.13,2081.82,2942.38,2081.82Zm37.2-1.26a25.634,25.634,0,0,0-1.77-2.13l-2.04,1.29a13.64,13.64,0,0,1,1.8,2.37Zm-19.77,17.31v-8.73a17.923,17.923,0,0,1,2.73.24v-2.55a17.923,17.923,0,0,1-2.73.24v-6.39a0.726,0.726,0,0,1,.39-0.75c0.39-.21.36-0.48-0.12-0.48a10.586,10.586,0,0,1-2.61-.3c0.18,2.07.27,3.84,0.27,7.95a16.929,16.929,0,0,1-2.94-.27v2.55a16.624,16.624,0,0,1,2.94-.27v9.66c-1.11.45-2.25,0.9-3.36,1.29a7.914,7.914,0,0,1,1.02,2.79,30.812,30.812,0,0,1,7.08-3.99,3.679,3.679,0,0,1-.12-2.28C2961.64,2097,2960.77,2097.42,2959.81,2097.87Zm11.31,0.15a35.3,35.3,0,0,1-8.97,2.73,9.374,9.374,0,0,1,.93,2.61,41.979,41.979,0,0,1,8.16-3.06A3.938,3.938,0,0,1,2971.12,2098.02Zm0.84-13.38c0.39,7.71.84,10.74,2.04,13.74a15.518,15.518,0,0,1-5.25,4.92,6.5,6.5,0,0,1,2.25,1.53,22.362,22.362,0,0,0,4.02-4.44,12.465,12.465,0,0,0,2.07,2.82c2.46,2.4,2.73,2.31,4.53-2.67a4.164,4.164,0,0,1-2.28-2.01c-0.33,3.63-.9,3.69-3.06-0.15a32,32,0,0,0,2.43-7.95c0.27-1.35.42-1.71,0.57-1.8,0.45-.3.51-0.48,0.03-0.54a9.248,9.248,0,0,1-2.43-.75,37.5,37.5,0,0,1-1.65,8.58c-0.6-2.22-.93-5.76-1.2-11.28,2.73,0.06,4.77.15,6.45,0.3v-2.58c-1.71.15-3.75,0.24-6.51,0.27,0.03-1.08.09-1.98,0.18-2.67a2.887,2.887,0,0,1,.33-1.17c0.48-.54.45-0.66-0.21-0.6a9.086,9.086,0,0,1-2.67-.21c0.06,1.08.12,2.01,0.27,4.65-5.28,0-7.14-.09-9.45-0.27v2.58C2964.7,2084.73,2966.98,2084.64,2971.96,2084.64Zm-3.36,9.09h-3v-4.65h3v4.65Zm-3,1.92h3v1.56h2.25a21.58,21.58,0,0,1-.24-3.09v-3.87a19.343,19.343,0,0,1,.24-3.3,21.014,21.014,0,0,1-3.78.21,20.294,20.294,0,0,1-3.66-.21,32.029,32.029,0,0,1,.18,3.3v3.9a17.458,17.458,0,0,1-.36,3.42h2.37v-1.92Z" transform="translate(-2865 -2036.06)"/>
  <rect id="Rectangle_5_copy_7" data-name="Rectangle 5 copy 7" class="cls-3" x="29" y="109.94" width="60" height="3"/>
</svg>
