<svg width="162" height="110" viewBox="0 0 162 110" fill="none" xmlns="http://www.w3.org/2000/svg">
<path d="M21.45 55.05C21.45 58.05 21.55 61.7 21.75 66C21.95 70.2 22.55 74.3 23.55 78.3C24.65 82.2 26.35 85.55 28.65 88.35C30.95 91.15 34.25 92.55 38.55 92.55C42.95 92.55 46.3 91.15 48.6 88.35C51 85.55 52.7 82.2 53.7 78.3C54.8 74.3 55.45 70.2 55.65 66C55.85 61.7 55.95 58.05 55.95 55.05C55.95 53.25 55.9 51.1 55.8 48.6C55.8 46 55.6 43.35 55.2 40.65C54.9 37.95 54.4 35.3 53.7 32.7C53.1 30 52.15 27.6 50.85 25.5C49.55 23.4 47.9 21.7 45.9 20.4C43.9 19.1 41.45 18.45 38.55 18.45C35.65 18.45 33.2 19.1 31.2 20.4C29.3 21.7 27.7 23.4 26.4 25.5C25.2 27.6 24.25 30 23.55 32.7C22.85 35.3 22.35 37.95 22.05 40.65C21.75 43.35 21.55 46 21.45 48.6C21.45 51.1 21.45 53.25 21.45 55.05ZM0.15 55.05C0.15 44.85 1.15 36.3 3.15 29.4C5.25 22.4 8.05 16.8 11.55 12.6C15.05 8.39999 19.1 5.39999 23.7 3.59999C28.4 1.79999 33.35 0.899993 38.55 0.899993C43.85 0.899993 48.8 1.79999 53.4 3.59999C58.1 5.39999 62.2 8.39999 65.7 12.6C69.3 16.8 72.1 22.4 74.1 29.4C76.2 36.3 77.25 44.85 77.25 55.05C77.25 65.55 76.2 74.35 74.1 81.45C72.1 88.45 69.3 94.05 65.7 98.25C62.2 102.45 58.1 105.45 53.4 107.25C48.8 109.05 43.85 109.95 38.55 109.95C33.35 109.95 28.4 109.05 23.7 107.25C19.1 105.45 15.05 102.45 11.55 98.25C8.05 94.05 5.25 88.45 3.15 81.45C1.15 74.35 0.15 65.55 0.15 55.05ZM114.55 45.45C116.85 45.65 119.3 45.65 121.9 45.45C124.5 45.25 126.9 44.7 129.1 43.8C131.4 42.8 133.25 41.4 134.65 39.6C136.15 37.8 136.9 35.4 136.9 32.4C136.9 27.9 135.4 24.45 132.4 22.05C129.4 19.65 125.95 18.45 122.05 18.45C116.65 18.45 112.55 20.25 109.75 23.85C107.05 27.35 105.75 31.8 105.85 37.2H85.5996C85.7996 31.8 86.7496 26.9 88.4496 22.5C90.2496 18 92.6996 14.15 95.7996 10.95C98.9996 7.75 102.8 5.3 107.2 3.59999C111.6 1.79999 116.5 0.899993 121.9 0.899993C126.1 0.899993 130.3 1.54999 134.5 2.84999C138.7 4.05 142.45 5.9 145.75 8.39999C149.15 10.9 151.9 13.95 154 17.55C156.1 21.15 157.15 25.3 157.15 30C157.15 35.1 155.9 39.6 153.4 43.5C151 47.4 147.35 50.05 142.45 51.45V51.75C148.25 53.05 152.8 55.85 156.1 60.15C159.4 64.45 161.05 69.6 161.05 75.6C161.05 81.1 159.95 86 157.75 90.3C155.65 94.6 152.8 98.2 149.2 101.1C145.6 104 141.45 106.2 136.75 107.7C132.05 109.2 127.15 109.95 122.05 109.95C116.15 109.95 110.75 109.1 105.85 107.4C101.05 105.7 96.9496 103.25 93.5496 100.05C90.1496 96.75 87.4996 92.75 85.5996 88.05C83.7996 83.35 82.9496 77.95 83.0496 71.85H103.3C103.4 74.65 103.85 77.35 104.65 79.95C105.45 82.45 106.6 84.65 108.1 86.55C109.6 88.35 111.45 89.8 113.65 90.9C115.95 92 118.65 92.55 121.75 92.55C126.55 92.55 130.6 91.1 133.9 88.2C137.2 85.2 138.85 81.15 138.85 76.05C138.85 72.05 138.05 69 136.45 66.9C134.95 64.8 133 63.3 130.6 62.4C128.2 61.4 125.55 60.85 122.65 60.75C119.85 60.55 117.15 60.45 114.55 60.45V45.45Z" fill="#F4F4F4"/>
<path d="M21.75 66L21.2505 66.0232L21.2506 66.0238L21.75 66ZM23.55 78.3L23.0649 78.4213C23.0661 78.4261 23.0674 78.4309 23.0688 78.4357L23.55 78.3ZM28.65 88.35L29.0364 88.0326L28.65 88.35ZM48.6 88.35L48.2203 88.0245L48.2136 88.0326L48.6 88.35ZM53.7 78.3L53.2178 78.1674L53.2157 78.1758L53.7 78.3ZM55.65 66L56.1494 66.0238L56.1495 66.0232L55.65 66ZM55.8 48.6H55.3C55.3 48.6067 55.3001 48.6133 55.3004 48.62L55.8 48.6ZM55.2 40.65L54.7031 40.7052C54.7037 40.7112 54.7045 40.7173 54.7054 40.7233L55.2 40.65ZM53.7 32.7L53.2119 32.8085C53.2135 32.8157 53.2153 32.8228 53.2172 32.83L53.7 32.7ZM50.85 25.5L50.4249 25.7632L50.85 25.5ZM45.9 20.4L46.1725 19.9808H46.1725L45.9 20.4ZM31.2 20.4L30.9274 19.9807L30.9177 19.9873L31.2 20.4ZM26.4 25.5L25.9749 25.2368C25.9718 25.2418 25.9688 25.2468 25.9659 25.2519L26.4 25.5ZM23.55 32.7L24.0328 32.83L24.034 32.8255L23.55 32.7ZM22.05 40.65L22.5469 40.7052L22.05 40.65ZM21.45 48.6L20.9504 48.5808C20.9501 48.5872 20.95 48.5936 20.95 48.6H21.45ZM3.15 29.4L2.67107 29.2563L2.66977 29.2608L3.15 29.4ZM11.55 12.6L11.9341 12.9201L11.55 12.6ZM23.7 3.59999L23.5212 3.13305L23.5178 3.13437L23.7 3.59999ZM53.4 3.59999L53.2178 4.06563L53.2212 4.06692L53.4 3.59999ZM65.7 12.6L65.3159 12.9201L65.3204 12.9254L65.7 12.6ZM74.1 29.4L73.6192 29.5374L73.6217 29.5456L74.1 29.4ZM74.1 81.45L73.6205 81.3082L73.6192 81.3126L74.1 81.45ZM65.7 98.25L65.3203 97.9246L65.3159 97.9299L65.7 98.25ZM53.4 107.25L53.2212 106.783L53.2178 106.784L53.4 107.25ZM23.7 107.25L23.5178 107.716L23.5212 107.717L23.7 107.25ZM11.55 98.25L11.9341 97.9299L11.55 98.25ZM3.15 81.45L2.66866 81.5856L2.67109 81.5937L3.15 81.45ZM20.95 55.05C20.95 58.0603 21.0503 61.7185 21.2505 66.0232L22.2495 65.9768C22.0497 61.6815 21.95 58.0397 21.95 55.05H20.95ZM21.2506 66.0238C21.4521 70.256 22.0568 74.3887 23.0649 78.4213L24.0351 78.1787C23.0432 74.2113 22.4479 70.144 22.2494 65.9762L21.2506 66.0238ZM23.0688 78.4357C24.1853 82.3943 25.9149 85.808 28.2636 88.6674L29.0364 88.0326C26.7851 85.292 25.1147 82.0057 24.0312 78.1643L23.0688 78.4357ZM28.2636 88.6674C30.6767 91.605 34.1314 93.05 38.55 93.05V92.05C34.3686 92.05 31.2233 90.695 29.0364 88.0326L28.2636 88.6674ZM38.55 93.05C43.0643 93.05 46.571 91.6078 48.9864 88.6674L48.2136 88.0326C46.029 90.6922 42.8357 92.05 38.55 92.05V93.05ZM48.9796 88.6754C51.4339 85.812 53.1671 82.3915 54.1843 78.4242L53.2157 78.1758C52.2329 82.0085 50.5661 85.288 48.2204 88.0246L48.9796 88.6754ZM54.1821 78.4326C55.292 74.3966 55.9477 70.2601 56.1494 66.0238L55.1506 65.9762C54.9523 70.1399 54.308 74.2034 53.2179 78.1674L54.1821 78.4326ZM56.1495 66.0232C56.3497 61.7185 56.45 58.0603 56.45 55.05H55.45C55.45 58.0397 55.3503 61.6815 55.1505 65.9768L56.1495 66.0232ZM56.45 55.05C56.45 53.2413 56.3998 51.0843 56.2996 48.58L55.3004 48.62C55.4002 51.1157 55.45 53.2587 55.45 55.05H56.45ZM56.3 48.6C56.3 45.9743 56.098 43.2998 55.6946 40.5767L54.7054 40.7233C55.102 43.4002 55.3 46.0257 55.3 48.6H56.3ZM55.6969 40.5948C55.3942 37.8698 54.8895 35.1948 54.1828 32.57L53.2172 32.83C53.9105 35.4052 54.4058 38.0302 54.7031 40.7052L55.6969 40.5948ZM54.1881 32.5915C53.5774 29.8433 52.608 27.3898 51.2751 25.2368L50.4249 25.7632C51.692 27.8101 52.6226 30.1567 53.2119 32.8085L54.1881 32.5915ZM51.2751 25.2368C49.9378 23.0765 48.2365 21.3223 46.1725 19.9808L45.6275 20.8192C47.5635 22.0776 49.1622 23.7235 50.4249 25.7632L51.2751 25.2368ZM46.1725 19.9808C44.0754 18.6177 41.5257 17.95 38.55 17.95V18.95C41.3743 18.95 43.7246 19.5823 45.6275 20.8192L46.1725 19.9808ZM38.55 17.95C35.5743 17.95 33.0246 18.6177 30.9275 19.9808L31.4725 20.8192C33.3754 19.5823 35.7257 18.95 38.55 18.95V17.95ZM30.9177 19.9873C28.9561 21.3295 27.3088 23.082 25.9749 25.2368L26.8251 25.7632C28.0912 23.718 29.6439 22.0705 31.4823 20.8126L30.9177 19.9873ZM25.9659 25.2519C24.7408 27.3958 23.7755 29.838 23.066 32.5745L24.034 32.8255C24.7245 30.162 25.6592 27.8042 26.8341 25.7481L25.9659 25.2519ZM23.0672 32.57C22.3605 35.1948 21.8558 37.8698 21.5531 40.5948L22.5469 40.7052C22.8442 38.0302 23.3395 35.4052 24.0328 32.83L23.0672 32.57ZM21.5531 40.5948C21.2518 43.3062 21.0509 45.9682 20.9504 48.5808L21.9496 48.6192C22.0491 46.0318 22.2482 43.3938 22.5469 40.7052L21.5531 40.5948ZM20.95 48.6C20.95 48.6049 20.95 48.6098 20.95 48.6146C20.95 48.6195 20.95 48.6244 20.95 48.6293C20.95 48.6342 20.95 48.639 20.95 48.6439C20.95 48.6488 20.95 48.6537 20.95 48.6585C20.95 48.6634 20.95 48.6683 20.95 48.6731C20.95 48.678 20.95 48.6829 20.95 48.6877C20.95 48.6926 20.95 48.6975 20.95 48.7023C20.95 48.7072 20.95 48.7121 20.95 48.7169C20.95 48.7218 20.95 48.7266 20.95 48.7315C20.95 48.7364 20.95 48.7412 20.95 48.7461C20.95 48.7509 20.95 48.7558 20.95 48.7606C20.95 48.7655 20.95 48.7703 20.95 48.7752C20.95 48.7801 20.95 48.7849 20.95 48.7897C20.95 48.7946 20.95 48.7994 20.95 48.8043C20.95 48.8091 20.95 48.814 20.95 48.8188C20.95 48.8237 20.95 48.8285 20.95 48.8333C20.95 48.8382 20.95 48.843 20.95 48.8479C20.95 48.8527 20.95 48.8575 20.95 48.8624C20.95 48.8672 20.95 48.872 20.95 48.8769C20.95 48.8817 20.95 48.8865 20.95 48.8914C20.95 48.8962 20.95 48.901 20.95 48.9058C20.95 48.9107 20.95 48.9155 20.95 48.9203C20.95 48.9251 20.95 48.93 20.95 48.9348C20.95 48.9396 20.95 48.9444 20.95 48.9492C20.95 48.9541 20.95 48.9589 20.95 48.9637C20.95 48.9685 20.95 48.9733 20.95 48.9781C20.95 48.983 20.95 48.9878 20.95 48.9926C20.95 48.9974 20.95 49.0022 20.95 49.007C20.95 49.0118 20.95 49.0166 20.95 49.0214C20.95 49.0262 20.95 49.031 20.95 49.0358C20.95 49.0406 20.95 49.0454 20.95 49.0502C20.95 49.055 20.95 49.0598 20.95 49.0646C20.95 49.0694 20.95 49.0742 20.95 49.079C20.95 49.0838 20.95 49.0886 20.95 49.0934C20.95 49.0982 20.95 49.103 20.95 49.1078C20.95 49.1126 20.95 49.1174 20.95 49.1221C20.95 49.1269 20.95 49.1317 20.95 49.1365C20.95 49.1413 20.95 49.1461 20.95 49.1509C20.95 49.1556 20.95 49.1604 20.95 49.1652C20.95 49.17 20.95 49.1748 20.95 49.1795C20.95 49.1843 20.95 49.1891 20.95 49.1938C20.95 49.1986 20.95 49.2034 20.95 49.2082C20.95 49.2129 20.95 49.2177 20.95 49.2225C20.95 49.2272 20.95 49.232 20.95 49.2368C20.95 49.2415 20.95 49.2463 20.95 49.2511C20.95 49.2558 20.95 49.2606 20.95 49.2654C20.95 49.2701 20.95 49.2749 20.95 49.2796C20.95 49.2844 20.95 49.2891 20.95 49.2939C20.95 49.2986 20.95 49.3034 20.95 49.3082C20.95 49.3129 20.95 49.3177 20.95 49.3224C20.95 49.3272 20.95 49.3319 20.95 49.3366C20.95 49.3414 20.95 49.3461 20.95 49.3509C20.95 49.3556 20.95 49.3604 20.95 49.3651C20.95 49.3699 20.95 49.3746 20.95 49.3793C20.95 49.3841 20.95 49.3888 20.95 49.3935C20.95 49.3983 20.95 49.403 20.95 49.4077C20.95 49.4125 20.95 49.4172 20.95 49.4219C20.95 49.4267 20.95 49.4314 20.95 49.4361C20.95 49.4409 20.95 49.4456 20.95 49.4503C20.95 49.455 20.95 49.4598 20.95 49.4645C20.95 49.4692 20.95 49.4739 20.95 49.4786C20.95 49.4834 20.95 49.4881 20.95 49.4928C20.95 49.4975 20.95 49.5022 20.95 49.507C20.95 49.5117 20.95 49.5164 20.95 49.5211C20.95 49.5258 20.95 49.5305 20.95 49.5352C20.95 49.5399 20.95 49.5446 20.95 49.5493C20.95 49.5541 20.95 49.5588 20.95 49.5635C20.95 49.5682 20.95 49.5729 20.95 49.5776C20.95 49.5823 20.95 49.587 20.95 49.5917C20.95 49.5964 20.95 49.6011 20.95 49.6058C20.95 49.6105 20.95 49.6152 20.95 49.6198C20.95 49.6245 20.95 49.6292 20.95 49.6339C20.95 49.6386 20.95 49.6433 20.95 49.648C20.95 49.6527 20.95 49.6574 20.95 49.662C20.95 49.6667 20.95 49.6714 20.95 49.6761C20.95 49.6808 20.95 49.6855 20.95 49.6901C20.95 49.6948 20.95 49.6995 20.95 49.7042C20.95 49.7089 20.95 49.7135 20.95 49.7182C20.95 49.7229 20.95 49.7276 20.95 49.7322C20.95 49.7369 20.95 49.7416 20.95 49.7462C20.95 49.7509 20.95 49.7556 20.95 49.7602C20.95 49.7649 20.95 49.7696 20.95 49.7742C20.95 49.7789 20.95 49.7836 20.95 49.7882C20.95 49.7929 20.95 49.7975 20.95 49.8022C20.95 49.8069 20.95 49.8115 20.95 49.8162C20.95 49.8208 20.95 49.8255 20.95 49.8301C20.95 49.8348 20.95 49.8394 20.95 49.8441C20.95 49.8487 20.95 49.8534 20.95 49.858C20.95 49.8627 20.95 49.8673 20.95 49.872C20.95 49.8766 20.95 49.8813 20.95 49.8859C20.95 49.8906 20.95 49.8952 20.95 49.8998C20.95 49.9045 20.95 49.9091 20.95 49.9137C20.95 49.9184 20.95 49.923 20.95 49.9277C20.95 49.9323 20.95 49.9369 20.95 49.9416C20.95 49.9462 20.95 49.9508 20.95 49.9555C20.95 49.9601 20.95 49.9647 20.95 49.9693C20.95 49.974 20.95 49.9786 20.95 49.9832C20.95 49.9878 20.95 49.9925 20.95 49.9971C20.95 50.0017 20.95 50.0063 20.95 50.0109C20.95 50.0156 20.95 50.0202 20.95 50.0248C20.95 50.0294 20.95 50.034 20.95 50.0386C20.95 50.0432 20.95 50.0479 20.95 50.0525C20.95 50.0571 20.95 50.0617 20.95 50.0663C20.95 50.0709 20.95 50.0755 20.95 50.0801C20.95 50.0847 20.95 50.0893 20.95 50.0939C20.95 50.0985 20.95 50.1031 20.95 50.1077C20.95 50.1123 20.95 50.1169 20.95 50.1215C20.95 50.1261 20.95 50.1307 20.95 50.1353C20.95 50.1399 20.95 50.1445 20.95 50.1491C20.95 50.1537 20.95 50.1583 20.95 50.1629C20.95 50.1674 20.95 50.172 20.95 50.1766C20.95 50.1812 20.95 50.1858 20.95 50.1904C20.95 50.195 20.95 50.1995 20.95 50.2041C20.95 50.2087 20.95 50.2133 20.95 50.2179C20.95 50.2224 20.95 50.227 20.95 50.2316C20.95 50.2362 20.95 50.2407 20.95 50.2453C20.95 50.2499 20.95 50.2545 20.95 50.259C20.95 50.2636 20.95 50.2682 20.95 50.2727C20.95 50.2773 20.95 50.2819 20.95 50.2864C20.95 50.291 20.95 50.2956 20.95 50.3001C20.95 50.3047 20.95 50.3093 20.95 50.3138C20.95 50.3184 20.95 50.3229 20.95 50.3275C20.95 50.332 20.95 50.3366 20.95 50.3412C20.95 50.3457 20.95 50.3503 20.95 50.3548C20.95 50.3594 20.95 50.3639 20.95 50.3685C20.95 50.373 20.95 50.3776 20.95 50.3821C20.95 50.3867 20.95 50.3912 20.95 50.3957C20.95 50.4003 20.95 50.4048 20.95 50.4094C20.95 50.4139 20.95 50.4184 20.95 50.423C20.95 50.4275 20.95 50.4321 20.95 50.4366C20.95 50.4411 20.95 50.4457 20.95 50.4502C20.95 50.4547 20.95 50.4593 20.95 50.4638C20.95 50.4683 20.95 50.4729 20.95 50.4774C20.95 50.4819 20.95 50.4864 20.95 50.491C20.95 50.4955 20.95 50.5 20.95 50.5045C20.95 50.5091 20.95 50.5136 20.95 50.5181C20.95 50.5226 20.95 50.5271 20.95 50.5317C20.95 50.5362 20.95 50.5407 20.95 50.5452C20.95 50.5497 20.95 50.5542 20.95 50.5587C20.95 50.5633 20.95 50.5678 20.95 50.5723C20.95 50.5768 20.95 50.5813 20.95 50.5858C20.95 50.5903 20.95 50.5948 20.95 50.5993C20.95 50.6038 20.95 50.6083 20.95 50.6128C20.95 50.6173 20.95 50.6218 20.95 50.6263C20.95 50.6308 20.95 50.6353 20.95 50.6398C20.95 50.6443 20.95 50.6488 20.95 50.6533C20.95 50.6578 20.95 50.6623 20.95 50.6668C20.95 50.6713 20.95 50.6757 20.95 50.6802C20.95 50.6847 20.95 50.6892 20.95 50.6937C20.95 50.6982 20.95 50.7027 20.95 50.7071C20.95 50.7116 20.95 50.7161 20.95 50.7206C20.95 50.7251 20.95 50.7295 20.95 50.734C20.95 50.7385 20.95 50.743 20.95 50.7474C20.95 50.7519 20.95 50.7564 20.95 50.7609C20.95 50.7653 20.95 50.7698 20.95 50.7743C20.95 50.7787 20.95 50.7832 20.95 50.7877C20.95 50.7921 20.95 50.7966 20.95 50.8011C20.95 50.8055 20.95 50.81 20.95 50.8145C20.95 50.8189 20.95 50.8234 20.95 50.8278C20.95 50.8323 20.95 50.8368 20.95 50.8412C20.95 50.8457 20.95 50.8501 20.95 50.8546C20.95 50.859 20.95 50.8635 20.95 50.8679C20.95 50.8724 20.95 50.8768 20.95 50.8813C20.95 50.8857 20.95 50.8902 20.95 50.8946C20.95 50.8991 20.95 50.9035 20.95 50.9079C20.95 50.9124 20.95 50.9168 20.95 50.9213C20.95 50.9257 20.95 50.9301 20.95 50.9346C20.95 50.939 20.95 50.9435 20.95 50.9479C20.95 50.9523 20.95 50.9567 20.95 50.9612C20.95 50.9656 20.95 50.97 20.95 50.9745C20.95 50.9789 20.95 50.9833 20.95 50.9878C20.95 50.9922 20.95 50.9966 20.95 51.001C20.95 51.0055 20.95 51.0099 20.95 51.0143C20.95 51.0187 20.95 51.0231 20.95 51.0276C20.95 51.032 20.95 51.0364 20.95 51.0408C20.95 51.0452 20.95 51.0496 20.95 51.054C20.95 51.0585 20.95 51.0629 20.95 51.0673C20.95 51.0717 20.95 51.0761 20.95 51.0805C20.95 51.0849 20.95 51.0893 20.95 51.0937C20.95 51.0981 20.95 51.1025 20.95 51.1069C20.95 51.1113 20.95 51.1157 20.95 51.1201C20.95 51.1245 20.95 51.1289 20.95 51.1333C20.95 51.1377 20.95 51.1421 20.95 51.1465C20.95 51.1509 20.95 51.1553 20.95 51.1597C20.95 51.1641 20.95 51.1685 20.95 51.1729C20.95 51.1773 20.95 51.1816 20.95 51.186C20.95 51.1904 20.95 51.1948 20.95 51.1992C20.95 51.2036 20.95 51.208 20.95 51.2123C20.95 51.2167 20.95 51.2211 20.95 51.2255C20.95 51.2299 20.95 51.2342 20.95 51.2386C20.95 51.243 20.95 51.2474 20.95 51.2517C20.95 51.2561 20.95 51.2605 20.95 51.2648C20.95 51.2692 20.95 51.2736 20.95 51.2779C20.95 51.2823 20.95 51.2867 20.95 51.291C20.95 51.2954 20.95 51.2998 20.95 51.3041C20.95 51.3085 20.95 51.3129 20.95 51.3172C20.95 51.3216 20.95 51.3259 20.95 51.3303C20.95 51.3346 20.95 51.339 20.95 51.3434C20.95 51.3477 20.95 51.3521 20.95 51.3564C20.95 51.3608 20.95 51.3651 20.95 51.3695C20.95 51.3738 20.95 51.3782 20.95 51.3825C20.95 51.3869 20.95 51.3912 20.95 51.3955C20.95 51.3999 20.95 51.4042 20.95 51.4086C20.95 51.4129 20.95 51.4173 20.95 51.4216C20.95 51.4259 20.95 51.4303 20.95 51.4346C20.95 51.4389 20.95 51.4433 20.95 51.4476C20.95 51.4519 20.95 51.4563 20.95 51.4606C20.95 51.4649 20.95 51.4693 20.95 51.4736C20.95 51.4779 20.95 51.4822 20.95 51.4866C20.95 51.4909 20.95 51.4952 20.95 51.4995C20.95 51.5039 20.95 51.5082 20.95 51.5125C20.95 51.5168 20.95 51.5211 20.95 51.5254C20.95 51.5298 20.95 51.5341 20.95 51.5384C20.95 51.5427 20.95 51.547 20.95 51.5513C20.95 51.5556 20.95 51.56 20.95 51.5643C20.95 51.5686 20.95 51.5729 20.95 51.5772C20.95 51.5815 20.95 51.5858 20.95 51.5901C20.95 51.5944 20.95 51.5987 20.95 51.603C20.95 51.6073 20.95 51.6116 20.95 51.6159C20.95 51.6202 20.95 51.6245 20.95 51.6288C20.95 51.6331 20.95 51.6374 20.95 51.6417C20.95 51.646 20.95 51.6503 20.95 51.6545C20.95 51.6588 20.95 51.6631 20.95 51.6674C20.95 51.6717 20.95 51.676 20.95 51.6803C20.95 51.6846 20.95 51.6888 20.95 51.6931C20.95 51.6974 20.95 51.7017 20.95 51.706C20.95 51.7102 20.95 51.7145 20.95 51.7188C20.95 51.7231 20.95 51.7273 20.95 51.7316C20.95 51.7359 20.95 51.7402 20.95 51.7444C20.95 51.7487 20.95 51.753 20.95 51.7572C20.95 51.7615 20.95 51.7658 20.95 51.7701C20.95 51.7743 20.95 51.7786 20.95 51.7828C20.95 51.7871 20.95 51.7914 20.95 51.7956C20.95 51.7999 20.95 51.8042 20.95 51.8084C20.95 51.8127 20.95 51.8169 20.95 51.8212C20.95 51.8254 20.95 51.8297 20.95 51.8339C20.95 51.8382 20.95 51.8424 20.95 51.8467C20.95 51.8509 20.95 51.8552 20.95 51.8594C20.95 51.8637 20.95 51.8679 20.95 51.8722C20.95 51.8764 20.95 51.8807 20.95 51.8849C20.95 51.8892 20.95 51.8934 20.95 51.8976C20.95 51.9019 20.95 51.9061 20.95 51.9103C20.95 51.9146 20.95 51.9188 20.95 51.923C20.95 51.9273 20.95 51.9315 20.95 51.9357C20.95 51.94 20.95 51.9442 20.95 51.9484C20.95 51.9527 20.95 51.9569 20.95 51.9611C20.95 51.9653 20.95 51.9696 20.95 51.9738C20.95 51.978 20.95 51.9822 20.95 51.9865C20.95 51.9907 20.95 51.9949 20.95 51.9991C20.95 52.0033 20.95 52.0076 20.95 52.0118C20.95 52.016 20.95 52.0202 20.95 52.0244C20.95 52.0286 20.95 52.0328 20.95 52.037C20.95 52.0413 20.95 52.0455 20.95 52.0497C20.95 52.0539 20.95 52.0581 20.95 52.0623C20.95 52.0665 20.95 52.0707 20.95 52.0749C20.95 52.0791 20.95 52.0833 20.95 52.0875C20.95 52.0917 20.95 52.0959 20.95 52.1001C20.95 52.1043 20.95 52.1085 20.95 52.1127C20.95 52.1169 20.95 52.1211 20.95 52.1253C20.95 52.1294 20.95 52.1336 20.95 52.1378C20.95 52.142 20.95 52.1462 20.95 52.1504C20.95 52.1546 20.95 52.1588 20.95 52.1629C20.95 52.1671 20.95 52.1713 20.95 52.1755C20.95 52.1797 20.95 52.1838 20.95 52.188C20.95 52.1922 20.95 52.1964 20.95 52.2006C20.95 52.2047 20.95 52.2089 20.95 52.2131C20.95 52.2172 20.95 52.2214 20.95 52.2256C20.95 52.2298 20.95 52.2339 20.95 52.2381C20.95 52.2423 20.95 52.2464 20.95 52.2506C20.95 52.2548 20.95 52.2589 20.95 52.2631C20.95 52.2672 20.95 52.2714 20.95 52.2756C20.95 52.2797 20.95 52.2839 20.95 52.288C20.95 52.2922 20.95 52.2963 20.95 52.3005C20.95 52.3047 20.95 52.3088 20.95 52.313C20.95 52.3171 20.95 52.3213 20.95 52.3254C20.95 52.3296 20.95 52.3337 20.95 52.3378C20.95 52.342 20.95 52.3461 20.95 52.3503C20.95 52.3544 20.95 52.3586 20.95 52.3627C20.95 52.3668 20.95 52.371 20.95 52.3751C20.95 52.3793 20.95 52.3834 20.95 52.3875C20.95 52.3917 20.95 52.3958 20.95 52.3999C20.95 52.4041 20.95 52.4082 20.95 52.4123C20.95 52.4165 20.95 52.4206 20.95 52.4247C20.95 52.4288 20.95 52.433 20.95 52.4371C20.95 52.4412 20.95 52.4453 20.95 52.4495C20.95 52.4536 20.95 52.4577 20.95 52.4618C20.95 52.4659 20.95 52.4701 20.95 52.4742C20.95 52.4783 20.95 52.4824 20.95 52.4865C20.95 52.4906 20.95 52.4947 20.95 52.4989C20.95 52.503 20.95 52.5071 20.95 52.5112C20.95 52.5153 20.95 52.5194 20.95 52.5235C20.95 52.5276 20.95 52.5317 20.95 52.5358C20.95 52.5399 20.95 52.544 20.95 52.5481C20.95 52.5522 20.95 52.5563 20.95 52.5604C20.95 52.5645 20.95 52.5686 20.95 52.5727C20.95 52.5768 20.95 52.5809 20.95 52.585C20.95 52.5891 20.95 52.5932 20.95 52.5973C20.95 52.6014 20.95 52.6054 20.95 52.6095C20.95 52.6136 20.95 52.6177 20.95 52.6218C20.95 52.6259 20.95 52.63 20.95 52.634C20.95 52.6381 20.95 52.6422 20.95 52.6463C20.95 52.6504 20.95 52.6544 20.95 52.6585C20.95 52.6626 20.95 52.6667 20.95 52.6707C20.95 52.6748 20.95 52.6789 20.95 52.683C20.95 52.687 20.95 52.6911 20.95 52.6952C20.95 52.6992 20.95 52.7033 20.95 52.7074C20.95 52.7114 20.95 52.7155 20.95 52.7196C20.95 52.7236 20.95 52.7277 20.95 52.7317C20.95 52.7358 20.95 52.7399 20.95 52.7439C20.95 52.748 20.95 52.752 20.95 52.7561C20.95 52.7601 20.95 52.7642 20.95 52.7682C20.95 52.7723 20.95 52.7764 20.95 52.7804C20.95 52.7845 20.95 52.7885 20.95 52.7925C20.95 52.7966 20.95 52.8006 20.95 52.8047C20.95 52.8087 20.95 52.8128 20.95 52.8168C20.95 52.8209 20.95 52.8249 20.95 52.8289C20.95 52.833 20.95 52.837 20.95 52.841C20.95 52.8451 20.95 52.8491 20.95 52.8532C20.95 52.8572 20.95 52.8612 20.95 52.8652C20.95 52.8693 20.95 52.8733 20.95 52.8773C20.95 52.8814 20.95 52.8854 20.95 52.8894C20.95 52.8934 20.95 52.8975 20.95 52.9015C20.95 52.9055 20.95 52.9095 20.95 52.9136C20.95 52.9176 20.95 52.9216 20.95 52.9256C20.95 52.9296 20.95 52.9336 20.95 52.9377C20.95 52.9417 20.95 52.9457 20.95 52.9497C20.95 52.9537 20.95 52.9577 20.95 52.9617C20.95 52.9658 20.95 52.9698 20.95 52.9738C20.95 52.9778 20.95 52.9818 20.95 52.9858C20.95 52.9898 20.95 52.9938 20.95 52.9978C20.95 53.0018 20.95 53.0058 20.95 53.0098C20.95 53.0138 20.95 53.0178 20.95 53.0218C20.95 53.0258 20.95 53.0298 20.95 53.0338C20.95 53.0378 20.95 53.0418 20.95 53.0457C20.95 53.0497 20.95 53.0537 20.95 53.0577C20.95 53.0617 20.95 53.0657 20.95 53.0697C20.95 53.0737 20.95 53.0776 20.95 53.0816C20.95 53.0856 20.95 53.0896 20.95 53.0936C20.95 53.0975 20.95 53.1015 20.95 53.1055C20.95 53.1095 20.95 53.1135 20.95 53.1174C20.95 53.1214 20.95 53.1254 20.95 53.1294C20.95 53.1333 20.95 53.1373 20.95 53.1413C20.95 53.1452 20.95 53.1492 20.95 53.1532C20.95 53.1571 20.95 53.1611 20.95 53.1651C20.95 53.169 20.95 53.173 20.95 53.177C20.95 53.1809 20.95 53.1849 20.95 53.1888C20.95 53.1928 20.95 53.1968 20.95 53.2007C20.95 53.2047 20.95 53.2086 20.95 53.2126C20.95 53.2165 20.95 53.2205 20.95 53.2244C20.95 53.2284 20.95 53.2323 20.95 53.2363C20.95 53.2402 20.95 53.2442 20.95 53.2481C20.95 53.2521 20.95 53.256 20.95 53.26C20.95 53.2639 20.95 53.2678 20.95 53.2718C20.95 53.2757 20.95 53.2797 20.95 53.2836C20.95 53.2875 20.95 53.2915 20.95 53.2954C20.95 53.2993 20.95 53.3033 20.95 53.3072C20.95 53.3111 20.95 53.3151 20.95 53.319C20.95 53.3229 20.95 53.3269 20.95 53.3308C20.95 53.3347 20.95 53.3386 20.95 53.3426C20.95 53.3465 20.95 53.3504 20.95 53.3543C20.95 53.3583 20.95 53.3622 20.95 53.3661C20.95 53.37 20.95 53.3739 20.95 53.3778C20.95 53.3818 20.95 53.3857 20.95 53.3896C20.95 53.3935 20.95 53.3974 20.95 53.4013C20.95 53.4052 20.95 53.4091 20.95 53.4131C20.95 53.417 20.95 53.4209 20.95 53.4248C20.95 53.4287 20.95 53.4326 20.95 53.4365C20.95 53.4404 20.95 53.4443 20.95 53.4482C20.95 53.4521 20.95 53.456 20.95 53.4599C20.95 53.4638 20.95 53.4677 20.95 53.4716C20.95 53.4755 20.95 53.4794 20.95 53.4833C20.95 53.4871 20.95 53.491 20.95 53.4949C20.95 53.4988 20.95 53.5027 20.95 53.5066C20.95 53.5105 20.95 53.5144 20.95 53.5182C20.95 53.5221 20.95 53.526 20.95 53.5299C20.95 53.5338 20.95 53.5377 20.95 53.5415C20.95 53.5454 20.95 53.5493 20.95 53.5532C20.95 53.557 20.95 53.5609 20.95 53.5648C20.95 53.5687 20.95 53.5725 20.95 53.5764C20.95 53.5803 20.95 53.5842 20.95 53.588C20.95 53.5919 20.95 53.5958 20.95 53.5996C20.95 53.6035 20.95 53.6073 20.95 53.6112C20.95 53.6151 20.95 53.6189 20.95 53.6228C20.95 53.6267 20.95 53.6305 20.95 53.6344C20.95 53.6382 20.95 53.6421 20.95 53.6459C20.95 53.6498 20.95 53.6536 20.95 53.6575C20.95 53.6614 20.95 53.6652 20.95 53.6691C20.95 53.6729 20.95 53.6768 20.95 53.6806C20.95 53.6844 20.95 53.6883 20.95 53.6921C20.95 53.696 20.95 53.6998 20.95 53.7037C20.95 53.7075 20.95 53.7113 20.95 53.7152C20.95 53.719 20.95 53.7229 20.95 53.7267C20.95 53.7305 20.95 53.7344 20.95 53.7382C20.95 53.742 20.95 53.7459 20.95 53.7497C20.95 53.7535 20.95 53.7574 20.95 53.7612C20.95 53.765 20.95 53.7688 20.95 53.7727C20.95 53.7765 20.95 53.7803 20.95 53.7841C20.95 53.788 20.95 53.7918 20.95 53.7956C20.95 53.7994 20.95 53.8032 20.95 53.8071C20.95 53.8109 20.95 53.8147 20.95 53.8185C20.95 53.8223 20.95 53.8261 20.95 53.8299C20.95 53.8338 20.95 53.8376 20.95 53.8414C20.95 53.8452 20.95 53.849 20.95 53.8528C20.95 53.8566 20.95 53.8604 20.95 53.8642C20.95 53.868 20.95 53.8718 20.95 53.8756C20.95 53.8794 20.95 53.8832 20.95 53.887C20.95 53.8908 20.95 53.8946 20.95 53.8984C20.95 53.9022 20.95 53.906 20.95 53.9098C20.95 53.9136 20.95 53.9174 20.95 53.9212C20.95 53.925 20.95 53.9288 20.95 53.9325C20.95 53.9363 20.95 53.9401 20.95 53.9439C20.95 53.9477 20.95 53.9515 20.95 53.9553C20.95 53.959 20.95 53.9628 20.95 53.9666C20.95 53.9704 20.95 53.9742 20.95 53.9779C20.95 53.9817 20.95 53.9855 20.95 53.9893C20.95 53.993 20.95 53.9968 20.95 54.0006C20.95 54.0044 20.95 54.0081 20.95 54.0119C20.95 54.0157 20.95 54.0194 20.95 54.0232C20.95 54.027 20.95 54.0307 20.95 54.0345C20.95 54.0383 20.95 54.042 20.95 54.0458C20.95 54.0495 20.95 54.0533 20.95 54.0571C20.95 54.0608 20.95 54.0646 20.95 54.0683C20.95 54.0721 20.95 54.0758 20.95 54.0796C20.95 54.0834 20.95 54.0871 20.95 54.0909C20.95 54.0946 20.95 54.0984 20.95 54.1021C20.95 54.1059 20.95 54.1096 20.95 54.1133C20.95 54.1171 20.95 54.1208 20.95 54.1246C20.95 54.1283 20.95 54.1321 20.95 54.1358C20.95 54.1395 20.95 54.1433 20.95 54.147C20.95 54.1507 20.95 54.1545 20.95 54.1582C20.95 54.162 20.95 54.1657 20.95 54.1694C20.95 54.1731 20.95 54.1769 20.95 54.1806C20.95 54.1843 20.95 54.1881 20.95 54.1918C20.95 54.1955 20.95 54.1992 20.95 54.203C20.95 54.2067 20.95 54.2104 20.95 54.2141C20.95 54.2179 20.95 54.2216 20.95 54.2253C20.95 54.229 20.95 54.2327 20.95 54.2365C20.95 54.2402 20.95 54.2439 20.95 54.2476C20.95 54.2513 20.95 54.255 20.95 54.2587C20.95 54.2624 20.95 54.2662 20.95 54.2699C20.95 54.2736 20.95 54.2773 20.95 54.281C20.95 54.2847 20.95 54.2884 20.95 54.2921C20.95 54.2958 20.95 54.2995 20.95 54.3032C20.95 54.3069 20.95 54.3106 20.95 54.3143C20.95 54.318 20.95 54.3217 20.95 54.3254C20.95 54.3291 20.95 54.3328 20.95 54.3365C20.95 54.3401 20.95 54.3438 20.95 54.3475C20.95 54.3512 20.95 54.3549 20.95 54.3586C20.95 54.3623 20.95 54.366 20.95 54.3696C20.95 54.3733 20.95 54.377 20.95 54.3807C20.95 54.3844 20.95 54.3881 20.95 54.3917C20.95 54.3954 20.95 54.3991 20.95 54.4028C20.95 54.4064 20.95 54.4101 20.95 54.4138C20.95 54.4175 20.95 54.4211 20.95 54.4248C20.95 54.4285 20.95 54.4321 20.95 54.4358C20.95 54.4395 20.95 54.4431 20.95 54.4468C20.95 54.4505 20.95 54.4541 20.95 54.4578C20.95 54.4615 20.95 54.4651 20.95 54.4688C20.95 54.4724 20.95 54.4761 20.95 54.4798C20.95 54.4834 20.95 54.4871 20.95 54.4907C20.95 54.4944 20.95 54.498 20.95 54.5017C20.95 54.5053 20.95 54.509 20.95 54.5126C20.95 54.5163 20.95 54.5199 20.95 54.5236C20.95 54.5272 20.95 54.5309 20.95 54.5345C20.95 54.5382 20.95 54.5418 20.95 54.5454C20.95 54.5491 20.95 54.5527 20.95 54.5564C20.95 54.56 20.95 54.5636 20.95 54.5673C20.95 54.5709 20.95 54.5745 20.95 54.5782C20.95 54.5818 20.95 54.5854 20.95 54.5891C20.95 54.5927 20.95 54.5963 20.95 54.6C20.95 54.6036 20.95 54.6072 20.95 54.6108C20.95 54.6145 20.95 54.6181 20.95 54.6217C20.95 54.6253 20.95 54.629 20.95 54.6326C20.95 54.6362 20.95 54.6398 20.95 54.6434C20.95 54.647 20.95 54.6507 20.95 54.6543C20.95 54.6579 20.95 54.6615 20.95 54.6651C20.95 54.6687 20.95 54.6723 20.95 54.6759C20.95 54.6796 20.95 54.6832 20.95 54.6868C20.95 54.6904 20.95 54.694 20.95 54.6976C20.95 54.7012 20.95 54.7048 20.95 54.7084C20.95 54.712 20.95 54.7156 20.95 54.7192C20.95 54.7228 20.95 54.7264 20.95 54.73C20.95 54.7336 20.95 54.7372 20.95 54.7408C20.95 54.7444 20.95 54.748 20.95 54.7515C20.95 54.7551 20.95 54.7587 20.95 54.7623C20.95 54.7659 20.95 54.7695 20.95 54.7731C20.95 54.7767 20.95 54.7802 20.95 54.7838C20.95 54.7874 20.95 54.791 20.95 54.7946C20.95 54.7981 20.95 54.8017 20.95 54.8053C20.95 54.8089 20.95 54.8125 20.95 54.816C20.95 54.8196 20.95 54.8232 20.95 54.8267C20.95 54.8303 20.95 54.8339 20.95 54.8375C20.95 54.841 20.95 54.8446 20.95 54.8482C20.95 54.8517 20.95 54.8553 20.95 54.8589C20.95 54.8624 20.95 54.866 20.95 54.8695C20.95 54.8731 20.95 54.8767 20.95 54.8802C20.95 54.8838 20.95 54.8873 20.95 54.8909C20.95 54.8944 20.95 54.898 20.95 54.9016C20.95 54.9051 20.95 54.9087 20.95 54.9122C20.95 54.9158 20.95 54.9193 20.95 54.9229C20.95 54.9264 20.95 54.93 20.95 54.9335C20.95 54.937 20.95 54.9406 20.95 54.9441C20.95 54.9477 20.95 54.9512 20.95 54.9548C20.95 54.9583 20.95 54.9618 20.95 54.9654C20.95 54.9689 20.95 54.9724 20.95 54.976C20.95 54.9795 20.95 54.983 20.95 54.9866C20.95 54.9901 20.95 54.9936 20.95 54.9972C20.95 55.0007 20.95 55.0042 20.95 55.0077C20.95 55.0113 20.95 55.0148 20.95 55.0183C20.95 55.0218 20.95 55.0254 20.95 55.0289C20.95 55.0324 20.95 55.0359 20.95 55.0394C20.95 55.043 20.95 55.0465 20.95 55.05H21.95C21.95 55.0465 21.95 55.043 21.95 55.0394C21.95 55.0359 21.95 55.0324 21.95 55.0289C21.95 55.0254 21.95 55.0218 21.95 55.0183C21.95 55.0148 21.95 55.0113 21.95 55.0077C21.95 55.0042 21.95 55.0007 21.95 54.9972C21.95 54.9936 21.95 54.9901 21.95 54.9866C21.95 54.983 21.95 54.9795 21.95 54.976C21.95 54.9724 21.95 54.9689 21.95 54.9654C21.95 54.9618 21.95 54.9583 21.95 54.9548C21.95 54.9512 21.95 54.9477 21.95 54.9441C21.95 54.9406 21.95 54.937 21.95 54.9335C21.95 54.93 21.95 54.9264 21.95 54.9229C21.95 54.9193 21.95 54.9158 21.95 54.9122C21.95 54.9087 21.95 54.9051 21.95 54.9016C21.95 54.898 21.95 54.8944 21.95 54.8909C21.95 54.8873 21.95 54.8838 21.95 54.8802C21.95 54.8767 21.95 54.8731 21.95 54.8695C21.95 54.866 21.95 54.8624 21.95 54.8589C21.95 54.8553 21.95 54.8517 21.95 54.8482C21.95 54.8446 21.95 54.841 21.95 54.8375C21.95 54.8339 21.95 54.8303 21.95 54.8267C21.95 54.8232 21.95 54.8196 21.95 54.816C21.95 54.8125 21.95 54.8089 21.95 54.8053C21.95 54.8017 21.95 54.7981 21.95 54.7946C21.95 54.791 21.95 54.7874 21.95 54.7838C21.95 54.7802 21.95 54.7767 21.95 54.7731C21.95 54.7695 21.95 54.7659 21.95 54.7623C21.95 54.7587 21.95 54.7551 21.95 54.7515C21.95 54.748 21.95 54.7444 21.95 54.7408C21.95 54.7372 21.95 54.7336 21.95 54.73C21.95 54.7264 21.95 54.7228 21.95 54.7192C21.95 54.7156 21.95 54.712 21.95 54.7084C21.95 54.7048 21.95 54.7012 21.95 54.6976C21.95 54.694 21.95 54.6904 21.95 54.6868C21.95 54.6832 21.95 54.6796 21.95 54.6759C21.95 54.6723 21.95 54.6687 21.95 54.6651C21.95 54.6615 21.95 54.6579 21.95 54.6543C21.95 54.6507 21.95 54.647 21.95 54.6434C21.95 54.6398 21.95 54.6362 21.95 54.6326C21.95 54.629 21.95 54.6253 21.95 54.6217C21.95 54.6181 21.95 54.6145 21.95 54.6108C21.95 54.6072 21.95 54.6036 21.95 54.6C21.95 54.5963 21.95 54.5927 21.95 54.5891C21.95 54.5854 21.95 54.5818 21.95 54.5782C21.95 54.5745 21.95 54.5709 21.95 54.5673C21.95 54.5636 21.95 54.56 21.95 54.5564C21.95 54.5527 21.95 54.5491 21.95 54.5454C21.95 54.5418 21.95 54.5382 21.95 54.5345C21.95 54.5309 21.95 54.5272 21.95 54.5236C21.95 54.5199 21.95 54.5163 21.95 54.5126C21.95 54.509 21.95 54.5053 21.95 54.5017C21.95 54.498 21.95 54.4944 21.95 54.4907C21.95 54.4871 21.95 54.4834 21.95 54.4798C21.95 54.4761 21.95 54.4724 21.95 54.4688C21.95 54.4651 21.95 54.4615 21.95 54.4578C21.95 54.4541 21.95 54.4505 21.95 54.4468C21.95 54.4431 21.95 54.4395 21.95 54.4358C21.95 54.4321 21.95 54.4285 21.95 54.4248C21.95 54.4211 21.95 54.4175 21.95 54.4138C21.95 54.4101 21.95 54.4064 21.95 54.4028C21.95 54.3991 21.95 54.3954 21.95 54.3917C21.95 54.3881 21.95 54.3844 21.95 54.3807C21.95 54.377 21.95 54.3733 21.95 54.3696C21.95 54.366 21.95 54.3623 21.95 54.3586C21.95 54.3549 21.95 54.3512 21.95 54.3475C21.95 54.3438 21.95 54.3401 21.95 54.3365C21.95 54.3328 21.95 54.3291 21.95 54.3254C21.95 54.3217 21.95 54.318 21.95 54.3143C21.95 54.3106 21.95 54.3069 21.95 54.3032C21.95 54.2995 21.95 54.2958 21.95 54.2921C21.95 54.2884 21.95 54.2847 21.95 54.281C21.95 54.2773 21.95 54.2736 21.95 54.2699C21.95 54.2662 21.95 54.2624 21.95 54.2587C21.95 54.255 21.95 54.2513 21.95 54.2476C21.95 54.2439 21.95 54.2402 21.95 54.2365C21.95 54.2327 21.95 54.229 21.95 54.2253C21.95 54.2216 21.95 54.2179 21.95 54.2141C21.95 54.2104 21.95 54.2067 21.95 54.203C21.95 54.1992 21.95 54.1955 21.95 54.1918C21.95 54.1881 21.95 54.1843 21.95 54.1806C21.95 54.1769 21.95 54.1731 21.95 54.1694C21.95 54.1657 21.95 54.162 21.95 54.1582C21.95 54.1545 21.95 54.1507 21.95 54.147C21.95 54.1433 21.95 54.1395 21.95 54.1358C21.95 54.1321 21.95 54.1283 21.95 54.1246C21.95 54.1208 21.95 54.1171 21.95 54.1133C21.95 54.1096 21.95 54.1059 21.95 54.1021C21.95 54.0984 21.95 54.0946 21.95 54.0909C21.95 54.0871 21.95 54.0834 21.95 54.0796C21.95 54.0758 21.95 54.0721 21.95 54.0683C21.95 54.0646 21.95 54.0608 21.95 54.0571C21.95 54.0533 21.95 54.0495 21.95 54.0458C21.95 54.042 21.95 54.0383 21.95 54.0345C21.95 54.0307 21.95 54.027 21.95 54.0232C21.95 54.0194 21.95 54.0157 21.95 54.0119C21.95 54.0081 21.95 54.0044 21.95 54.0006C21.95 53.9968 21.95 53.993 21.95 53.9893C21.95 53.9855 21.95 53.9817 21.95 53.9779C21.95 53.9742 21.95 53.9704 21.95 53.9666C21.95 53.9628 21.95 53.959 21.95 53.9553C21.95 53.9515 21.95 53.9477 21.95 53.9439C21.95 53.9401 21.95 53.9363 21.95 53.9325C21.95 53.9288 21.95 53.925 21.95 53.9212C21.95 53.9174 21.95 53.9136 21.95 53.9098C21.95 53.906 21.95 53.9022 21.95 53.8984C21.95 53.8946 21.95 53.8908 21.95 53.887C21.95 53.8832 21.95 53.8794 21.95 53.8756C21.95 53.8718 21.95 53.868 21.95 53.8642C21.95 53.8604 21.95 53.8566 21.95 53.8528C21.95 53.849 21.95 53.8452 21.95 53.8414C21.95 53.8376 21.95 53.8338 21.95 53.8299C21.95 53.8261 21.95 53.8223 21.95 53.8185C21.95 53.8147 21.95 53.8109 21.95 53.8071C21.95 53.8032 21.95 53.7994 21.95 53.7956C21.95 53.7918 21.95 53.788 21.95 53.7841C21.95 53.7803 21.95 53.7765 21.95 53.7727C21.95 53.7688 21.95 53.765 21.95 53.7612C21.95 53.7574 21.95 53.7535 21.95 53.7497C21.95 53.7459 21.95 53.742 21.95 53.7382C21.95 53.7344 21.95 53.7305 21.95 53.7267C21.95 53.7229 21.95 53.719 21.95 53.7152C21.95 53.7113 21.95 53.7075 21.95 53.7037C21.95 53.6998 21.95 53.696 21.95 53.6921C21.95 53.6883 21.95 53.6844 21.95 53.6806C21.95 53.6768 21.95 53.6729 21.95 53.6691C21.95 53.6652 21.95 53.6614 21.95 53.6575C21.95 53.6536 21.95 53.6498 21.95 53.6459C21.95 53.6421 21.95 53.6382 21.95 53.6344C21.95 53.6305 21.95 53.6267 21.95 53.6228C21.95 53.6189 21.95 53.6151 21.95 53.6112C21.95 53.6073 21.95 53.6035 21.95 53.5996C21.95 53.5958 21.95 53.5919 21.95 53.588C21.95 53.5842 21.95 53.5803 21.95 53.5764C21.95 53.5725 21.95 53.5687 21.95 53.5648C21.95 53.5609 21.95 53.557 21.95 53.5532C21.95 53.5493 21.95 53.5454 21.95 53.5415C21.95 53.5377 21.95 53.5338 21.95 53.5299C21.95 53.526 21.95 53.5221 21.95 53.5182C21.95 53.5144 21.95 53.5105 21.95 53.5066C21.95 53.5027 21.95 53.4988 21.95 53.4949C21.95 53.491 21.95 53.4871 21.95 53.4833C21.95 53.4794 21.95 53.4755 21.95 53.4716C21.95 53.4677 21.95 53.4638 21.95 53.4599C21.95 53.456 21.95 53.4521 21.95 53.4482C21.95 53.4443 21.95 53.4404 21.95 53.4365C21.95 53.4326 21.95 53.4287 21.95 53.4248C21.95 53.4209 21.95 53.417 21.95 53.4131C21.95 53.4091 21.95 53.4052 21.95 53.4013C21.95 53.3974 21.95 53.3935 21.95 53.3896C21.95 53.3857 21.95 53.3818 21.95 53.3778C21.95 53.3739 21.95 53.37 21.95 53.3661C21.95 53.3622 21.95 53.3583 21.95 53.3543C21.95 53.3504 21.95 53.3465 21.95 53.3426C21.95 53.3386 21.95 53.3347 21.95 53.3308C21.95 53.3269 21.95 53.3229 21.95 53.319C21.95 53.3151 21.95 53.3111 21.95 53.3072C21.95 53.3033 21.95 53.2993 21.95 53.2954C21.95 53.2915 21.95 53.2875 21.95 53.2836C21.95 53.2797 21.95 53.2757 21.95 53.2718C21.95 53.2678 21.95 53.2639 21.95 53.26C21.95 53.256 21.95 53.2521 21.95 53.2481C21.95 53.2442 21.95 53.2402 21.95 53.2363C21.95 53.2323 21.95 53.2284 21.95 53.2244C21.95 53.2205 21.95 53.2165 21.95 53.2126C21.95 53.2086 21.95 53.2047 21.95 53.2007C21.95 53.1968 21.95 53.1928 21.95 53.1888C21.95 53.1849 21.95 53.1809 21.95 53.177C21.95 53.173 21.95 53.169 21.95 53.1651C21.95 53.1611 21.95 53.1571 21.95 53.1532C21.95 53.1492 21.95 53.1452 21.95 53.1413C21.95 53.1373 21.95 53.1333 21.95 53.1294C21.95 53.1254 21.95 53.1214 21.95 53.1174C21.95 53.1135 21.95 53.1095 21.95 53.1055C21.95 53.1015 21.95 53.0975 21.95 53.0936C21.95 53.0896 21.95 53.0856 21.95 53.0816C21.95 53.0776 21.95 53.0737 21.95 53.0697C21.95 53.0657 21.95 53.0617 21.95 53.0577C21.95 53.0537 21.95 53.0497 21.95 53.0457C21.95 53.0418 21.95 53.0378 21.95 53.0338C21.95 53.0298 21.95 53.0258 21.95 53.0218C21.95 53.0178 21.95 53.0138 21.95 53.0098C21.95 53.0058 21.95 53.0018 21.95 52.9978C21.95 52.9938 21.95 52.9898 21.95 52.9858C21.95 52.9818 21.95 52.9778 21.95 52.9738C21.95 52.9698 21.95 52.9658 21.95 52.9617C21.95 52.9577 21.95 52.9537 21.95 52.9497C21.95 52.9457 21.95 52.9417 21.95 52.9377C21.95 52.9336 21.95 52.9296 21.95 52.9256C21.95 52.9216 21.95 52.9176 21.95 52.9136C21.95 52.9095 21.95 52.9055 21.95 52.9015C21.95 52.8975 21.95 52.8934 21.95 52.8894C21.95 52.8854 21.95 52.8814 21.95 52.8773C21.95 52.8733 21.95 52.8693 21.95 52.8652C21.95 52.8612 21.95 52.8572 21.95 52.8532C21.95 52.8491 21.95 52.8451 21.95 52.841C21.95 52.837 21.95 52.833 21.95 52.8289C21.95 52.8249 21.95 52.8209 21.95 52.8168C21.95 52.8128 21.95 52.8087 21.95 52.8047C21.95 52.8006 21.95 52.7966 21.95 52.7925C21.95 52.7885 21.95 52.7845 21.95 52.7804C21.95 52.7764 21.95 52.7723 21.95 52.7682C21.95 52.7642 21.95 52.7601 21.95 52.7561C21.95 52.752 21.95 52.748 21.95 52.7439C21.95 52.7399 21.95 52.7358 21.95 52.7317C21.95 52.7277 21.95 52.7236 21.95 52.7196C21.95 52.7155 21.95 52.7114 21.95 52.7074C21.95 52.7033 21.95 52.6992 21.95 52.6952C21.95 52.6911 21.95 52.687 21.95 52.683C21.95 52.6789 21.95 52.6748 21.95 52.6707C21.95 52.6667 21.95 52.6626 21.95 52.6585C21.95 52.6544 21.95 52.6504 21.95 52.6463C21.95 52.6422 21.95 52.6381 21.95 52.634C21.95 52.63 21.95 52.6259 21.95 52.6218C21.95 52.6177 21.95 52.6136 21.95 52.6095C21.95 52.6054 21.95 52.6014 21.95 52.5973C21.95 52.5932 21.95 52.5891 21.95 52.585C21.95 52.5809 21.95 52.5768 21.95 52.5727C21.95 52.5686 21.95 52.5645 21.95 52.5604C21.95 52.5563 21.95 52.5522 21.95 52.5481C21.95 52.544 21.95 52.5399 21.95 52.5358C21.95 52.5317 21.95 52.5276 21.95 52.5235C21.95 52.5194 21.95 52.5153 21.95 52.5112C21.95 52.5071 21.95 52.503 21.95 52.4989C21.95 52.4947 21.95 52.4906 21.95 52.4865C21.95 52.4824 21.95 52.4783 21.95 52.4742C21.95 52.4701 21.95 52.4659 21.95 52.4618C21.95 52.4577 21.95 52.4536 21.95 52.4495C21.95 52.4453 21.95 52.4412 21.95 52.4371C21.95 52.433 21.95 52.4288 21.95 52.4247C21.95 52.4206 21.95 52.4165 21.95 52.4123C21.95 52.4082 21.95 52.4041 21.95 52.3999C21.95 52.3958 21.95 52.3917 21.95 52.3875C21.95 52.3834 21.95 52.3793 21.95 52.3751C21.95 52.371 21.95 52.3668 21.95 52.3627C21.95 52.3586 21.95 52.3544 21.95 52.3503C21.95 52.3461 21.95 52.342 21.95 52.3378C21.95 52.3337 21.95 52.3296 21.95 52.3254C21.95 52.3213 21.95 52.3171 21.95 52.313C21.95 52.3088 21.95 52.3047 21.95 52.3005C21.95 52.2963 21.95 52.2922 21.95 52.288C21.95 52.2839 21.95 52.2797 21.95 52.2756C21.95 52.2714 21.95 52.2672 21.95 52.2631C21.95 52.2589 21.95 52.2548 21.95 52.2506C21.95 52.2464 21.95 52.2423 21.95 52.2381C21.95 52.2339 21.95 52.2298 21.95 52.2256C21.95 52.2214 21.95 52.2172 21.95 52.2131C21.95 52.2089 21.95 52.2047 21.95 52.2006C21.95 52.1964 21.95 52.1922 21.95 52.188C21.95 52.1838 21.95 52.1797 21.95 52.1755C21.95 52.1713 21.95 52.1671 21.95 52.1629C21.95 52.1588 21.95 52.1546 21.95 52.1504C21.95 52.1462 21.95 52.142 21.95 52.1378C21.95 52.1336 21.95 52.1294 21.95 52.1253C21.95 52.1211 21.95 52.1169 21.95 52.1127C21.95 52.1085 21.95 52.1043 21.95 52.1001C21.95 52.0959 21.95 52.0917 21.95 52.0875C21.95 52.0833 21.95 52.0791 21.95 52.0749C21.95 52.0707 21.95 52.0665 21.95 52.0623C21.95 52.0581 21.95 52.0539 21.95 52.0497C21.95 52.0455 21.95 52.0413 21.95 52.037C21.95 52.0328 21.95 52.0286 21.95 52.0244C21.95 52.0202 21.95 52.016 21.95 52.0118C21.95 52.0076 21.95 52.0033 21.95 51.9991C21.95 51.9949 21.95 51.9907 21.95 51.9865C21.95 51.9822 21.95 51.978 21.95 51.9738C21.95 51.9696 21.95 51.9653 21.95 51.9611C21.95 51.9569 21.95 51.9527 21.95 51.9484C21.95 51.9442 21.95 51.94 21.95 51.9357C21.95 51.9315 21.95 51.9273 21.95 51.923C21.95 51.9188 21.95 51.9146 21.95 51.9103C21.95 51.9061 21.95 51.9019 21.95 51.8976C21.95 51.8934 21.95 51.8892 21.95 51.8849C21.95 51.8807 21.95 51.8764 21.95 51.8722C21.95 51.8679 21.95 51.8637 21.95 51.8594C21.95 51.8552 21.95 51.8509 21.95 51.8467C21.95 51.8424 21.95 51.8382 21.95 51.8339C21.95 51.8297 21.95 51.8254 21.95 51.8212C21.95 51.8169 21.95 51.8127 21.95 51.8084C21.95 51.8042 21.95 51.7999 21.95 51.7956C21.95 51.7914 21.95 51.7871 21.95 51.7828C21.95 51.7786 21.95 51.7743 21.95 51.7701C21.95 51.7658 21.95 51.7615 21.95 51.7572C21.95 51.753 21.95 51.7487 21.95 51.7444C21.95 51.7402 21.95 51.7359 21.95 51.7316C21.95 51.7273 21.95 51.7231 21.95 51.7188C21.95 51.7145 21.95 51.7102 21.95 51.706C21.95 51.7017 21.95 51.6974 21.95 51.6931C21.95 51.6888 21.95 51.6846 21.95 51.6803C21.95 51.676 21.95 51.6717 21.95 51.6674C21.95 51.6631 21.95 51.6588 21.95 51.6545C21.95 51.6503 21.95 51.646 21.95 51.6417C21.95 51.6374 21.95 51.6331 21.95 51.6288C21.95 51.6245 21.95 51.6202 21.95 51.6159C21.95 51.6116 21.95 51.6073 21.95 51.603C21.95 51.5987 21.95 51.5944 21.95 51.5901C21.95 51.5858 21.95 51.5815 21.95 51.5772C21.95 51.5729 21.95 51.5686 21.95 51.5643C21.95 51.56 21.95 51.5556 21.95 51.5513C21.95 51.547 21.95 51.5427 21.95 51.5384C21.95 51.5341 21.95 51.5298 21.95 51.5254C21.95 51.5211 21.95 51.5168 21.95 51.5125C21.95 51.5082 21.95 51.5039 21.95 51.4995C21.95 51.4952 21.95 51.4909 21.95 51.4866C21.95 51.4822 21.95 51.4779 21.95 51.4736C21.95 51.4693 21.95 51.4649 21.95 51.4606C21.95 51.4563 21.95 51.4519 21.95 51.4476C21.95 51.4433 21.95 51.4389 21.95 51.4346C21.95 51.4303 21.95 51.4259 21.95 51.4216C21.95 51.4173 21.95 51.4129 21.95 51.4086C21.95 51.4042 21.95 51.3999 21.95 51.3955C21.95 51.3912 21.95 51.3869 21.95 51.3825C21.95 51.3782 21.95 51.3738 21.95 51.3695C21.95 51.3651 21.95 51.3608 21.95 51.3564C21.95 51.3521 21.95 51.3477 21.95 51.3434C21.95 51.339 21.95 51.3346 21.95 51.3303C21.95 51.3259 21.95 51.3216 21.95 51.3172C21.95 51.3129 21.95 51.3085 21.95 51.3041C21.95 51.2998 21.95 51.2954 21.95 51.291C21.95 51.2867 21.95 51.2823 21.95 51.2779C21.95 51.2736 21.95 51.2692 21.95 51.2648C21.95 51.2605 21.95 51.2561 21.95 51.2517C21.95 51.2474 21.95 51.243 21.95 51.2386C21.95 51.2342 21.95 51.2299 21.95 51.2255C21.95 51.2211 21.95 51.2167 21.95 51.2123C21.95 51.208 21.95 51.2036 21.95 51.1992C21.95 51.1948 21.95 51.1904 21.95 51.186C21.95 51.1816 21.95 51.1773 21.95 51.1729C21.95 51.1685 21.95 51.1641 21.95 51.1597C21.95 51.1553 21.95 51.1509 21.95 51.1465C21.95 51.1421 21.95 51.1377 21.95 51.1333C21.95 51.1289 21.95 51.1245 21.95 51.1201C21.95 51.1157 21.95 51.1113 21.95 51.1069C21.95 51.1025 21.95 51.0981 21.95 51.0937C21.95 51.0893 21.95 51.0849 21.95 51.0805C21.95 51.0761 21.95 51.0717 21.95 51.0673C21.95 51.0629 21.95 51.0585 21.95 51.054C21.95 51.0496 21.95 51.0452 21.95 51.0408C21.95 51.0364 21.95 51.032 21.95 51.0276C21.95 51.0231 21.95 51.0187 21.95 51.0143C21.95 51.0099 21.95 51.0055 21.95 51.001C21.95 50.9966 21.95 50.9922 21.95 50.9878C21.95 50.9833 21.95 50.9789 21.95 50.9745C21.95 50.97 21.95 50.9656 21.95 50.9612C21.95 50.9567 21.95 50.9523 21.95 50.9479C21.95 50.9435 21.95 50.939 21.95 50.9346C21.95 50.9301 21.95 50.9257 21.95 50.9213C21.95 50.9168 21.95 50.9124 21.95 50.9079C21.95 50.9035 21.95 50.8991 21.95 50.8946C21.95 50.8902 21.95 50.8857 21.95 50.8813C21.95 50.8768 21.95 50.8724 21.95 50.8679C21.95 50.8635 21.95 50.859 21.95 50.8546C21.95 50.8501 21.95 50.8457 21.95 50.8412C21.95 50.8368 21.95 50.8323 21.95 50.8278C21.95 50.8234 21.95 50.8189 21.95 50.8145C21.95 50.81 21.95 50.8055 21.95 50.8011C21.95 50.7966 21.95 50.7921 21.95 50.7877C21.95 50.7832 21.95 50.7787 21.95 50.7743C21.95 50.7698 21.95 50.7653 21.95 50.7609C21.95 50.7564 21.95 50.7519 21.95 50.7474C21.95 50.743 21.95 50.7385 21.95 50.734C21.95 50.7295 21.95 50.7251 21.95 50.7206C21.95 50.7161 21.95 50.7116 21.95 50.7071C21.95 50.7027 21.95 50.6982 21.95 50.6937C21.95 50.6892 21.95 50.6847 21.95 50.6802C21.95 50.6757 21.95 50.6713 21.95 50.6668C21.95 50.6623 21.95 50.6578 21.95 50.6533C21.95 50.6488 21.95 50.6443 21.95 50.6398C21.95 50.6353 21.95 50.6308 21.95 50.6263C21.95 50.6218 21.95 50.6173 21.95 50.6128C21.95 50.6083 21.95 50.6038 21.95 50.5993C21.95 50.5948 21.95 50.5903 21.95 50.5858C21.95 50.5813 21.95 50.5768 21.95 50.5723C21.95 50.5678 21.95 50.5633 21.95 50.5587C21.95 50.5542 21.95 50.5497 21.95 50.5452C21.95 50.5407 21.95 50.5362 21.95 50.5317C21.95 50.5271 21.95 50.5226 21.95 50.5181C21.95 50.5136 21.95 50.5091 21.95 50.5045C21.95 50.5 21.95 50.4955 21.95 50.491C21.95 50.4864 21.95 50.4819 21.95 50.4774C21.95 50.4729 21.95 50.4683 21.95 50.4638C21.95 50.4593 21.95 50.4547 21.95 50.4502C21.95 50.4457 21.95 50.4411 21.95 50.4366C21.95 50.4321 21.95 50.4275 21.95 50.423C21.95 50.4184 21.95 50.4139 21.95 50.4094C21.95 50.4048 21.95 50.4003 21.95 50.3957C21.95 50.3912 21.95 50.3867 21.95 50.3821C21.95 50.3776 21.95 50.373 21.95 50.3685C21.95 50.3639 21.95 50.3594 21.95 50.3548C21.95 50.3503 21.95 50.3457 21.95 50.3412C21.95 50.3366 21.95 50.332 21.95 50.3275C21.95 50.3229 21.95 50.3184 21.95 50.3138C21.95 50.3093 21.95 50.3047 21.95 50.3001C21.95 50.2956 21.95 50.291 21.95 50.2864C21.95 50.2819 21.95 50.2773 21.95 50.2727C21.95 50.2682 21.95 50.2636 21.95 50.259C21.95 50.2545 21.95 50.2499 21.95 50.2453C21.95 50.2407 21.95 50.2362 21.95 50.2316C21.95 50.227 21.95 50.2224 21.95 50.2179C21.95 50.2133 21.95 50.2087 21.95 50.2041C21.95 50.1995 21.95 50.195 21.95 50.1904C21.95 50.1858 21.95 50.1812 21.95 50.1766C21.95 50.172 21.95 50.1674 21.95 50.1629C21.95 50.1583 21.95 50.1537 21.95 50.1491C21.95 50.1445 21.95 50.1399 21.95 50.1353C21.95 50.1307 21.95 50.1261 21.95 50.1215C21.95 50.1169 21.95 50.1123 21.95 50.1077C21.95 50.1031 21.95 50.0985 21.95 50.0939C21.95 50.0893 21.95 50.0847 21.95 50.0801C21.95 50.0755 21.95 50.0709 21.95 50.0663C21.95 50.0617 21.95 50.0571 21.95 50.0525C21.95 50.0479 21.95 50.0432 21.95 50.0386C21.95 50.034 21.95 50.0294 21.95 50.0248C21.95 50.0202 21.95 50.0156 21.95 50.0109C21.95 50.0063 21.95 50.0017 21.95 49.9971C21.95 49.9925 21.95 49.9878 21.95 49.9832C21.95 49.9786 21.95 49.974 21.95 49.9693C21.95 49.9647 21.95 49.9601 21.95 49.9555C21.95 49.9508 21.95 49.9462 21.95 49.9416C21.95 49.9369 21.95 49.9323 21.95 49.9277C21.95 49.923 21.95 49.9184 21.95 49.9137C21.95 49.9091 21.95 49.9045 21.95 49.8998C21.95 49.8952 21.95 49.8906 21.95 49.8859C21.95 49.8813 21.95 49.8766 21.95 49.872C21.95 49.8673 21.95 49.8627 21.95 49.858C21.95 49.8534 21.95 49.8487 21.95 49.8441C21.95 49.8394 21.95 49.8348 21.95 49.8301C21.95 49.8255 21.95 49.8208 21.95 49.8162C21.95 49.8115 21.95 49.8069 21.95 49.8022C21.95 49.7975 21.95 49.7929 21.95 49.7882C21.95 49.7836 21.95 49.7789 21.95 49.7742C21.95 49.7696 21.95 49.7649 21.95 49.7602C21.95 49.7556 21.95 49.7509 21.95 49.7462C21.95 49.7416 21.95 49.7369 21.95 49.7322C21.95 49.7276 21.95 49.7229 21.95 49.7182C21.95 49.7135 21.95 49.7089 21.95 49.7042C21.95 49.6995 21.95 49.6948 21.95 49.6901C21.95 49.6855 21.95 49.6808 21.95 49.6761C21.95 49.6714 21.95 49.6667 21.95 49.662C21.95 49.6574 21.95 49.6527 21.95 49.648C21.95 49.6433 21.95 49.6386 21.95 49.6339C21.95 49.6292 21.95 49.6245 21.95 49.6198C21.95 49.6152 21.95 49.6105 21.95 49.6058C21.95 49.6011 21.95 49.5964 21.95 49.5917C21.95 49.587 21.95 49.5823 21.95 49.5776C21.95 49.5729 21.95 49.5682 21.95 49.5635C21.95 49.5588 21.95 49.5541 21.95 49.5493C21.95 49.5446 21.95 49.5399 21.95 49.5352C21.95 49.5305 21.95 49.5258 21.95 49.5211C21.95 49.5164 21.95 49.5117 21.95 49.507C21.95 49.5022 21.95 49.4975 21.95 49.4928C21.95 49.4881 21.95 49.4834 21.95 49.4786C21.95 49.4739 21.95 49.4692 21.95 49.4645C21.95 49.4598 21.95 49.455 21.95 49.4503C21.95 49.4456 21.95 49.4409 21.95 49.4361C21.95 49.4314 21.95 49.4267 21.95 49.4219C21.95 49.4172 21.95 49.4125 21.95 49.4077C21.95 49.403 21.95 49.3983 21.95 49.3935C21.95 49.3888 21.95 49.3841 21.95 49.3793C21.95 49.3746 21.95 49.3699 21.95 49.3651C21.95 49.3604 21.95 49.3556 21.95 49.3509C21.95 49.3461 21.95 49.3414 21.95 49.3366C21.95 49.3319 21.95 49.3272 21.95 49.3224C21.95 49.3177 21.95 49.3129 21.95 49.3082C21.95 49.3034 21.95 49.2986 21.95 49.2939C21.95 49.2891 21.95 49.2844 21.95 49.2796C21.95 49.2749 21.95 49.2701 21.95 49.2654C21.95 49.2606 21.95 49.2558 21.95 49.2511C21.95 49.2463 21.95 49.2415 21.95 49.2368C21.95 49.232 21.95 49.2272 21.95 49.2225C21.95 49.2177 21.95 49.2129 21.95 49.2082C21.95 49.2034 21.95 49.1986 21.95 49.1938C21.95 49.1891 21.95 49.1843 21.95 49.1795C21.95 49.1748 21.95 49.17 21.95 49.1652C21.95 49.1604 21.95 49.1556 21.95 49.1509C21.95 49.1461 21.95 49.1413 21.95 49.1365C21.95 49.1317 21.95 49.1269 21.95 49.1221C21.95 49.1174 21.95 49.1126 21.95 49.1078C21.95 49.103 21.95 49.0982 21.95 49.0934C21.95 49.0886 21.95 49.0838 21.95 49.079C21.95 49.0742 21.95 49.0694 21.95 49.0646C21.95 49.0598 21.95 49.055 21.95 49.0502C21.95 49.0454 21.95 49.0406 21.95 49.0358C21.95 49.031 21.95 49.0262 21.95 49.0214C21.95 49.0166 21.95 49.0118 21.95 49.007C21.95 49.0022 21.95 48.9974 21.95 48.9926C21.95 48.9878 21.95 48.983 21.95 48.9781C21.95 48.9733 21.95 48.9685 21.95 48.9637C21.95 48.9589 21.95 48.9541 21.95 48.9492C21.95 48.9444 21.95 48.9396 21.95 48.9348C21.95 48.93 21.95 48.9251 21.95 48.9203C21.95 48.9155 21.95 48.9107 21.95 48.9058C21.95 48.901 21.95 48.8962 21.95 48.8914C21.95 48.8865 21.95 48.8817 21.95 48.8769C21.95 48.872 21.95 48.8672 21.95 48.8624C21.95 48.8575 21.95 48.8527 21.95 48.8479C21.95 48.843 21.95 48.8382 21.95 48.8333C21.95 48.8285 21.95 48.8237 21.95 48.8188C21.95 48.814 21.95 48.8091 21.95 48.8043C21.95 48.7994 21.95 48.7946 21.95 48.7897C21.95 48.7849 21.95 48.7801 21.95 48.7752C21.95 48.7703 21.95 48.7655 21.95 48.7606C21.95 48.7558 21.95 48.7509 21.95 48.7461C21.95 48.7412 21.95 48.7364 21.95 48.7315C21.95 48.7266 21.95 48.7218 21.95 48.7169C21.95 48.7121 21.95 48.7072 21.95 48.7023C21.95 48.6975 21.95 48.6926 21.95 48.6877C21.95 48.6829 21.95 48.678 21.95 48.6731C21.95 48.6683 21.95 48.6634 21.95 48.6585C21.95 48.6537 21.95 48.6488 21.95 48.6439C21.95 48.639 21.95 48.6342 21.95 48.6293C21.95 48.6244 21.95 48.6195 21.95 48.6146C21.95 48.6098 21.95 48.6049 21.95 48.6H20.95ZM0.65 55.05C0.65 44.8791 1.64756 36.3794 3.63023 29.5392L2.66977 29.2608C0.652438 36.2206 -0.35 44.8209 -0.35 55.05H0.65ZM3.62891 29.5437C5.71571 22.5877 8.48919 17.054 11.9341 12.9201L11.1659 12.2799C7.61081 16.546 4.78429 22.2123 2.67109 29.2563L3.62891 29.5437ZM11.9341 12.9201C15.386 8.77778 19.3688 5.83172 23.8822 4.06562L23.5178 3.13437C18.8312 4.96827 14.714 8.02221 11.1659 12.2799L11.9341 12.9201ZM23.8788 4.06692C28.5198 2.28951 33.4091 1.39999 38.55 1.39999V0.399994C33.2909 0.399994 28.2802 1.31048 23.5212 3.13306L23.8788 4.06692ZM38.55 1.39999C43.7922 1.39999 48.68 2.28995 53.2178 4.06562L53.5822 3.13437C48.92 1.31004 43.9078 0.399994 38.55 0.399994V1.39999ZM53.2212 4.06692C57.8345 5.83374 61.8658 8.77995 65.3159 12.9201L66.0841 12.2799C62.5342 8.02003 58.3655 4.96626 53.5788 3.13306L53.2212 4.06692ZM65.3204 12.9254C68.8612 17.0563 71.633 22.5857 73.6192 29.5374L74.5808 29.2626C72.567 22.2143 69.7388 16.5437 66.0796 12.2746L65.3204 12.9254ZM73.6217 29.5456C75.7027 36.3833 76.75 44.8807 76.75 55.05H77.75C77.75 44.8193 76.6973 36.2167 74.5783 29.2544L73.6217 29.5456ZM76.75 55.05C76.75 65.5203 75.7026 74.269 73.6205 81.3082L74.5795 81.5918C76.6975 74.431 77.75 65.5797 77.75 55.05H76.75ZM73.6192 81.3126C71.633 88.2643 68.8612 93.7937 65.3204 97.9246L66.0796 98.5754C69.7388 94.3063 72.567 88.6357 74.5808 81.5874L73.6192 81.3126ZM65.3159 97.9299C61.8658 102.07 57.8345 105.016 53.2212 106.783L53.5788 107.717C58.3655 105.884 62.5342 102.83 66.0841 98.5701L65.3159 97.9299ZM53.2178 106.784C48.68 108.56 43.7922 109.45 38.55 109.45V110.45C43.9078 110.45 48.92 109.54 53.5822 107.716L53.2178 106.784ZM38.55 109.45C33.4091 109.45 28.5198 108.56 23.8788 106.783L23.5212 107.717C28.2802 109.54 33.2909 110.45 38.55 110.45V109.45ZM23.8822 106.784C19.3688 105.018 15.386 102.072 11.9341 97.9299L11.1659 98.5701C14.714 102.828 18.8312 105.882 23.5178 107.716L23.8822 106.784ZM11.9341 97.9299C8.48919 93.796 5.71571 88.2623 3.62891 81.3063L2.67109 81.5937C4.78429 88.6377 7.61081 94.304 11.1659 98.5701L11.9341 97.9299ZM3.63127 81.3144C1.64772 74.2728 0.65 65.5218 0.65 55.05H-0.35C-0.35 65.5782 0.652283 74.4272 2.66873 81.5856L3.63127 81.3144ZM114.55 45.45L114.593 44.9519C114.453 44.9397 114.315 44.9867 114.212 45.0814C114.108 45.1761 114.05 45.3099 114.05 45.45H114.55ZM129.1 43.8L129.289 44.2629L129.299 44.2585L129.1 43.8ZM134.65 39.6L134.266 39.2799C134.262 39.2842 134.258 39.2886 134.255 39.293L134.65 39.6ZM109.75 23.85L109.355 23.543L109.354 23.5446L109.75 23.85ZM105.85 37.2V37.7C105.984 37.7 106.112 37.646 106.206 37.5503C106.3 37.4545 106.352 37.3249 106.35 37.1907L105.85 37.2ZM85.5996 37.2L85.1 37.1815C85.0949 37.3172 85.1453 37.4491 85.2396 37.5469C85.3338 37.6447 85.4638 37.7 85.5996 37.7V37.2ZM88.4496 22.5L87.9853 22.3143L87.9832 22.3198L88.4496 22.5ZM95.7996 10.95L95.446 10.5964L95.4405 10.6021L95.7996 10.95ZM107.2 3.59999L107.38 4.06648L107.389 4.06277L107.2 3.59999ZM134.5 2.84999L134.352 3.32775L134.362 3.33076L134.5 2.84999ZM145.75 8.39999L145.448 8.79858L145.453 8.80282L145.75 8.39999ZM153.4 43.5L152.979 43.2301L152.974 43.238L153.4 43.5ZM142.45 51.45L142.312 50.9692C142.098 51.0306 141.95 51.2268 141.95 51.45H142.45ZM142.45 51.75H141.95C141.95 51.984 142.112 52.1867 142.34 52.2379L142.45 51.75ZM156.1 60.15L155.703 60.4544L156.1 60.15ZM157.75 90.3L157.304 90.0722L157.3 90.0806L157.75 90.3ZM149.2 101.1L148.886 100.711L149.2 101.1ZM136.75 107.7L136.902 108.176L136.75 107.7ZM105.85 107.4L105.683 107.871L105.686 107.872L105.85 107.4ZM93.5496 100.05L93.2013 100.409L93.2069 100.414L93.5496 100.05ZM85.5996 88.05L85.1326 88.2289L85.1361 88.2374L85.5996 88.05ZM83.0496 71.85V71.35C82.7767 71.35 82.5542 71.5689 82.5497 71.8418L83.0496 71.85ZM103.3 71.85L103.799 71.8322C103.79 71.5631 103.569 71.35 103.3 71.35V71.85ZM104.65 79.95L104.172 80.0971L104.173 80.1024L104.65 79.95ZM108.1 86.55L107.707 86.8599L107.715 86.8701L108.1 86.55ZM113.65 90.9L113.426 91.3473L113.434 91.3511L113.65 90.9ZM133.9 88.2L134.23 88.5756L134.236 88.57L133.9 88.2ZM136.45 66.9L136.043 67.1906C136.046 67.1948 136.049 67.1989 136.052 67.203L136.45 66.9ZM130.6 62.4L130.407 62.8615C130.413 62.8638 130.418 62.8661 130.424 62.8682L130.6 62.4ZM122.65 60.75L122.614 61.2487C122.62 61.2492 122.626 61.2495 122.632 61.2497L122.65 60.75ZM114.55 60.45H114.05C114.05 60.7261 114.273 60.95 114.55 60.95V60.45ZM114.506 45.9481C116.837 46.1508 119.314 46.1504 121.938 45.9485L121.861 44.9515C119.285 45.1496 116.863 45.1492 114.593 44.9519L114.506 45.9481ZM121.938 45.9485C124.585 45.7449 127.036 45.1843 129.289 44.2628L128.91 43.3372C126.763 44.2157 124.414 44.7551 121.861 44.9515L121.938 45.9485ZM129.299 44.2585C131.668 43.2286 133.588 41.7795 135.044 39.907L134.255 39.293C132.911 41.0205 131.131 42.3714 128.9 43.3415L129.299 44.2585ZM135.034 39.9201C136.628 38.0075 137.4 35.4835 137.4 32.4H136.4C136.4 35.3165 135.672 37.5925 134.266 39.2799L135.034 39.9201ZM137.4 32.4C137.4 27.7772 135.852 24.1713 132.712 21.6596L132.087 22.4404C134.948 24.7287 136.4 28.0228 136.4 32.4H137.4ZM132.712 21.6596C129.622 19.1875 126.061 17.95 122.05 17.95V18.95C125.838 18.95 129.177 20.1125 132.087 22.4404L132.712 21.6596ZM122.05 17.95C116.527 17.95 112.268 19.7981 109.355 23.543L110.144 24.157C112.832 20.7019 116.772 18.95 122.05 18.95V17.95ZM109.354 23.5446C106.57 27.1532 105.248 31.7216 105.35 37.2093L106.35 37.1907C106.251 31.8784 107.529 27.5468 110.146 24.1554L109.354 23.5446ZM105.85 36.7H85.5996V37.7H105.85V36.7ZM86.0993 37.2185C86.2975 31.8659 87.2386 27.0216 88.916 22.6802L87.9832 22.3198C86.2606 26.7784 85.3017 31.7341 85.1 37.1815L86.0993 37.2185ZM88.9138 22.6857C90.6918 18.2407 93.1078 14.4472 96.1587 11.2979L95.4405 10.6021C92.2914 13.8528 89.8074 17.7593 87.9854 22.3143L88.9138 22.6857ZM96.1532 11.3036C99.3018 8.15493 103.042 5.74236 107.38 4.06639L107.019 3.13359C102.557 4.85763 98.6974 7.34507 95.4461 10.5964L96.1532 11.3036ZM107.389 4.06277C111.721 2.29047 116.556 1.39999 121.9 1.39999V0.399994C116.443 0.399994 111.478 1.30952 107.01 3.13722L107.389 4.06277ZM121.9 1.39999C126.047 1.39999 130.197 2.04176 134.352 3.32764L134.647 2.37235C130.402 1.05823 126.152 0.399994 121.9 0.399994V1.39999ZM134.362 3.33076C138.506 4.51471 142.2 6.33792 145.448 8.79854L146.052 8.00145C142.7 5.46208 138.893 3.58528 134.637 2.36923L134.362 3.33076ZM145.453 8.80282C148.799 11.2629 151.503 14.2617 153.568 17.8019L154.432 17.2981C152.297 13.6383 149.5 10.5371 146.046 7.99717L145.453 8.80282ZM153.568 17.8019C155.618 21.3161 156.65 25.377 156.65 30H157.65C157.65 25.223 156.582 20.9839 154.432 17.2981L153.568 17.8019ZM156.65 30C156.65 35.0144 155.422 39.4187 152.979 43.2302L153.821 43.7698C156.377 39.7813 157.65 35.1856 157.65 30H156.65ZM152.974 43.238C150.647 47.0193 147.107 49.5994 142.312 50.9692L142.587 51.9308C147.592 50.5006 151.352 47.7807 153.825 43.762L152.974 43.238ZM141.95 51.45V51.75H142.95V51.45H141.95ZM142.34 52.2379C148.038 53.5149 152.481 56.2565 155.703 60.4544L156.496 59.8456C153.118 55.4435 148.461 52.5851 142.559 51.2621L142.34 52.2379ZM155.703 60.4544C158.929 64.6577 160.55 69.6976 160.55 75.6H161.55C161.55 69.5024 159.87 64.2423 156.496 59.8456L155.703 60.4544ZM160.55 75.6C160.55 81.0319 159.464 85.852 157.304 90.0723L158.195 90.5277C160.436 86.148 161.55 81.1681 161.55 75.6H160.55ZM157.3 90.0806C155.231 94.317 152.427 97.8583 148.886 100.711L149.513 101.489C153.172 98.5417 156.068 94.8829 158.199 90.5194L157.3 90.0806ZM148.886 100.711C145.337 103.569 141.243 105.741 136.598 107.224L136.902 108.176C141.656 106.659 145.862 104.431 149.513 101.489L148.886 100.711ZM136.598 107.224C131.948 108.707 127.1 109.45 122.05 109.45V110.45C127.199 110.45 132.151 109.693 136.902 108.176L136.598 107.224ZM122.05 109.45C116.198 109.45 110.854 108.607 106.013 106.928L105.686 107.872C110.645 109.593 116.101 110.45 122.05 110.45V109.45ZM106.017 106.929C101.276 105.25 97.2374 102.834 93.8923 99.6859L93.2069 100.414C96.6619 103.666 100.823 106.15 105.683 107.871L106.017 106.929ZM93.8979 99.6912C90.5512 96.443 87.9389 92.5027 86.0632 87.8626L85.1361 88.2374C87.0603 92.9973 89.748 97.057 93.2014 100.409L93.8979 99.6912ZM86.0665 87.8712C84.2937 83.242 83.4504 77.9075 83.5495 71.8582L82.5497 71.8418C82.4488 77.9925 83.3055 83.458 85.1327 88.2288L86.0665 87.8712ZM83.0496 72.35H103.3V71.35H83.0496V72.35ZM102.8 71.8678C102.901 74.7104 103.358 77.4539 104.172 80.097L105.128 79.803C104.341 77.2461 103.898 74.5896 103.799 71.8322L102.8 71.8678ZM104.173 80.1024C104.99 82.6546 106.167 84.909 107.707 86.8598L108.492 86.2402C107.032 84.391 105.909 82.2454 105.126 79.7976L104.173 80.1024ZM107.715 86.8701C109.262 88.7257 111.167 90.2179 113.426 91.3472L113.873 90.4528C111.732 89.3821 109.937 87.9743 108.484 86.2299L107.715 86.8701ZM113.434 91.3511C115.814 92.4895 118.591 93.05 121.75 93.05V92.05C118.708 92.05 116.085 91.5105 113.865 90.4489L113.434 91.3511ZM121.75 93.05C126.659 93.05 130.83 91.5634 134.23 88.5756L133.57 87.8244C130.37 90.6366 126.44 92.05 121.75 92.05V93.05ZM134.236 88.57C137.656 85.4612 139.35 81.2686 139.35 76.05H138.35C138.35 81.0314 136.744 84.9388 133.563 87.83L134.236 88.57ZM139.35 76.05C139.35 71.994 138.54 68.8187 136.847 66.597L136.052 67.203C137.559 69.1813 138.35 72.106 138.35 76.05H139.35ZM136.856 66.6094C135.299 64.4291 133.269 62.867 130.775 61.9318L130.424 62.8682C132.73 63.733 134.6 65.1709 136.043 67.1906L136.856 66.6094ZM130.792 61.9385C128.33 60.9128 125.62 60.3521 122.667 60.2503L122.632 61.2497C125.479 61.3479 128.069 61.8872 130.407 62.8615L130.792 61.9385ZM122.685 60.2513C119.874 60.0505 117.162 59.95 114.55 59.95V60.95C117.137 60.95 119.825 61.0495 122.614 61.2487L122.685 60.2513ZM115.05 60.45V45.45H114.05V60.45H115.05Z" fill="#454545" fill-opacity="0.2"/>
</svg>
