<svg width="60" height="60" viewBox="0 0 60 60" fill="none" xmlns="http://www.w3.org/2000/svg">
<path d="M59.5 30C59.5 46.2924 46.2924 59.5 30 59.5C13.7076 59.5 0.5 46.2924 0.5 30C0.5 13.7076 13.7076 0.5 30 0.5C46.2924 0.5 59.5 13.7076 59.5 30Z" stroke="#2C69FF"/>
<g clip-path="url(#clip0_18_1501)">
<path d="M43 31.1147C42.9991 31.3535 42.9292 31.5869 42.799 31.7864C42.6687 31.9858 42.4837 32.1426 42.2666 32.2377C42.0494 32.3329 41.8095 32.3621 41.5762 32.3219C41.3428 32.2817 41.1261 32.1738 40.9525 32.0114L30.0342 20.9967L30.0033 20.9672L19.0784 31.9893C18.9647 32.1065 18.829 32.1996 18.6791 32.2631C18.5292 32.3265 18.3682 32.3591 18.2057 32.3589C18.0431 32.3587 17.8823 32.3257 17.7326 32.2619C17.5829 32.198 17.4474 32.1046 17.334 31.9871C17.2206 31.8696 17.1317 31.7304 17.0724 31.5777C17.0132 31.425 16.9848 31.2619 16.9889 31.098C16.9931 30.9341 17.0297 30.7726 17.0966 30.6231C17.1636 30.4737 17.2594 30.3393 17.3786 30.2278L29.1257 18.377C29.2394 18.2576 29.3758 18.1626 29.5267 18.0977C29.6777 18.0328 29.84 17.9992 30.0041 17.9991C30.026 17.9991 30.0471 17.9991 30.0683 17.9991H30.078L30.1332 18.004C30.4233 18.0362 30.6924 18.1724 30.8914 18.3877L35.6851 23.2238V22.0983C35.6851 21.7722 35.8134 21.4595 36.042 21.2289C36.2706 20.9983 36.5806 20.8688 36.9038 20.8688C37.227 20.8688 37.537 20.9983 37.7656 21.2289C37.9942 21.4595 38.1226 21.7722 38.1226 22.0983V25.6877L42.6726 30.2778C42.8833 30.5046 43.0003 30.8039 43 31.1147ZM40.5625 33.1639V41.7704C40.5625 42.0965 40.4341 42.4093 40.2056 42.6398C39.977 42.8704 39.667 42.9999 39.3438 42.9999H36.9063V33.1639H32.0313V42.9999H20.6563C20.3331 42.9999 20.023 42.8704 19.7945 42.6398C19.5659 42.4093 19.4375 42.0965 19.4375 41.7704V33.1639L30 22.5081L40.5625 33.1639ZM27.9688 33.1639H23.0938V38.0819H27.9688V33.1639Z" fill="#2C69FF"/>
</g>
<defs>
<clipPath id="clip0_18_1501">
<rect width="26" height="25" fill="white" transform="translate(17 18)"/>
</clipPath>
</defs>
</svg>
