<svg width="60" height="60" viewBox="0 0 60 60" fill="none" xmlns="http://www.w3.org/2000/svg">
<path d="M59.5 30C59.5 46.2924 46.2924 59.5 30 59.5C13.7076 59.5 0.5 46.2924 0.5 30C0.5 13.7076 13.7076 0.5 30 0.5C46.2924 0.5 59.5 13.7076 59.5 30Z" stroke="#2C69FF"/>
<path d="M37.8288 32.2393C37.83 32.0084 37.7855 31.7796 37.6979 31.5661C37.6103 31.3525 37.4813 31.1583 37.3184 30.9948L27.4875 21.2429C26.6547 20.497 25.5917 20.0584 24.4752 20H18.7574C18.3083 20.0045 17.8776 20.1787 17.5516 20.4877C17.2257 20.7966 17.0286 21.2173 17 21.6655V27.5152C17.0256 28.0352 17.1486 28.5496 17.3619 29.0257C17.5598 29.5424 17.8613 30.0132 18.2477 30.4092L28.0794 40.1898C28.3966 40.5125 28.8303 40.6946 29.284 40.6946H29.3168L29.3336 40.6938C29.7953 40.6938 30.2394 40.5117 30.5693 40.1898L37.3192 33.4687C37.6531 33.1475 37.8368 32.7026 37.8288 32.2393ZM26.771 27.9713C27.295 27.3179 27.7072 26.9967 28.0059 27.0079C28.3039 27.0191 28.5252 27.1142 28.6705 27.2947C28.8151 27.4752 28.8918 27.7508 28.9006 28.123C28.9094 28.4945 28.6514 29.0065 28.1274 29.6607C27.6033 30.315 27.1912 30.6353 26.8932 30.6241C26.5944 30.6129 26.3732 30.5171 26.2286 30.3373C26.0832 30.156 26.0065 29.8812 25.9985 29.509C25.9898 29.1375 26.247 28.6247 26.771 27.9713ZM22.3935 25.8161C22.204 25.945 21.9908 26.0351 21.7663 26.0814C21.5417 26.1276 21.3103 26.129 21.0852 26.0855C20.8602 26.042 20.6459 25.9544 20.4548 25.8279C20.2637 25.7013 20.0995 25.5382 19.9716 25.348C19.8432 25.1584 19.7536 24.9453 19.7076 24.721C19.6617 24.4967 19.6605 24.2656 19.7039 24.0408C19.7474 23.816 19.8348 23.602 19.961 23.411C20.0872 23.22 20.2499 23.0557 20.4397 22.9276L20.4381 22.9268C20.7731 22.7019 21.1756 22.6 21.5773 22.6384C21.979 22.6769 22.3549 22.8533 22.6412 23.1377C22.9767 23.4612 23.1636 23.9086 23.1596 24.3735C23.1596 24.951 22.872 25.4918 22.3935 25.8161ZM27.5306 34.6645C27.0066 35.3187 26.5944 35.6398 26.2965 35.6278C25.9977 35.6158 25.7773 35.52 25.6319 35.3403C25.4873 35.1597 25.4106 34.8841 25.401 34.5127C25.3922 34.1412 25.6503 33.6284 26.1751 32.9742C26.6991 32.3216 27.1105 32.0004 27.4092 32.0108C27.7072 32.022 27.9285 32.1179 28.0738 32.2976C28.2184 32.4781 28.2943 32.7537 28.3039 33.126C28.3127 33.4982 28.0555 34.011 27.5306 34.6645ZM23.8418 33.1084L23.706 32.7361L30.4607 29.525L30.5965 29.8972L23.8418 33.1084Z" fill="#2C69FF"/>
<path d="M27.3142 32.7713C27.1688 32.8616 26.934 33.1092 26.6089 33.515C26.2838 33.9208 26.0849 34.2139 26.0122 34.3945C25.9395 34.5758 25.9491 34.7204 26.0393 34.8338C26.1296 34.9472 26.247 34.9576 26.3916 34.8682C26.5362 34.7779 26.7718 34.5295 27.0969 34.1237C27.4221 33.7179 27.621 33.4255 27.6937 33.245C27.7655 33.0637 27.7568 32.9183 27.6665 32.8048C27.5762 32.6914 27.4588 32.681 27.3142 32.7713ZM26.9883 29.8636C27.1329 29.7742 27.3677 29.5257 27.6937 29.12C28.0188 28.7142 28.2177 28.421 28.2904 28.2405C28.3623 28.0599 28.3535 27.9138 28.2632 27.8011C28.1729 27.6885 28.0547 27.6765 27.9109 27.7676C27.7655 27.857 27.5307 28.1055 27.2056 28.5113C26.8797 28.9171 26.6808 29.2102 26.6089 29.3908C26.5362 29.5705 26.545 29.7175 26.6352 29.8301C26.7255 29.9427 26.8437 29.9539 26.9883 29.8636ZM42.4891 30.9948L32.6135 21.2429C31.7769 20.496 30.7101 20.0575 29.59 20H26.4962C27.6164 20.0571 28.6833 20.4957 29.5197 21.2429L39.3946 30.9948C39.7245 31.3247 39.909 31.772 39.9066 32.2393C39.9102 32.4684 39.8666 32.6958 39.7785 32.9073C39.6904 33.1188 39.5597 33.3099 39.3946 33.4687L32.9035 39.8902C33.1215 40.1243 33.3676 40.3304 33.636 40.5045C33.866 40.6307 34.1248 40.6962 34.3868 40.6954H34.45C34.919 40.6996 35.3707 40.5182 35.7065 40.1906L42.4899 33.4703C42.823 33.1491 43.0076 32.7018 42.9996 32.2393C43.001 32.0084 42.9566 31.7795 42.869 31.5659C42.7814 31.3523 42.6523 31.1581 42.4891 30.9948Z" fill="#2C69FF"/>
</svg>
