<svg width="50" height="50" viewBox="0 0 50 50" fill="none" xmlns="http://www.w3.org/2000/svg">
<path d="M24.9665 41.7816H8.8012C7.22553 41.7816 6 40.5561 6 39.0388V9.74285C6 8.22553 7.28389 7 8.8012 7H40.3148C41.8904 7 43.116 8.22553 43.116 9.74285V23.5154C43.116 23.9823 42.7075 24.3908 42.2406 24.3908C41.7737 24.3908 41.3652 23.9823 41.3652 23.5154V9.74285C41.3652 9.21762 40.8983 8.75075 40.3148 8.75075H8.8012C8.21762 8.75075 7.75075 9.15926 7.75075 9.74285V39.0388C7.75075 39.564 8.21762 40.0309 8.8012 40.0309H24.9665C25.4334 40.0309 25.8419 40.4394 25.8419 40.9062C25.8419 41.3731 25.4917 41.7816 24.9665 41.7816Z" fill="#2C69FF"/>
<path d="M6.87549 15.7537H41.6571V17.5044H6.87549V15.7537Z" fill="#2C69FF"/>
<path d="M24.0911 22.2898H10.4352C9.96832 22.2898 9.55981 21.8813 9.55981 21.4144C9.55981 20.9476 9.96832 20.5391 10.4352 20.5391H24.0911C24.5579 20.5391 24.9664 20.9476 24.9664 21.4144C24.9664 21.8813 24.6163 22.2898 24.0911 22.2898ZM18.7804 26.55H10.4352C9.96832 26.55 9.55981 26.1415 9.55981 25.6746C9.55981 25.2077 9.96832 24.7992 10.4352 24.7992H18.7221C19.189 24.7992 19.5975 25.2077 19.5975 25.6746C19.6558 26.1415 19.2473 26.55 18.7804 26.55Z" fill="#2C69FF"/>
<path d="M35.4711 42.6571C30.3356 42.6571 26.1921 38.5137 26.1921 33.3781C26.1921 28.2426 30.3356 24.0991 35.4711 24.0991C40.6067 24.0991 44.7501 28.2426 44.7501 33.3781C44.7501 38.5137 40.6067 42.6571 35.4711 42.6571ZM35.4711 25.8499C31.3277 25.8499 27.9429 29.2347 27.9429 33.3781C27.9429 37.5216 31.3277 40.9063 35.4711 40.9063C39.6146 40.9063 42.9994 37.5216 42.9994 33.3781C42.9994 29.2347 39.6146 25.8499 35.4711 25.8499Z" fill="#2C69FF"/>
<path d="M40.8399 31.3939L34.8289 37.0547C34.4788 37.4048 33.8952 37.3465 33.6034 36.9963L33.5451 36.938C33.1949 36.5878 33.2533 36.0042 33.6034 35.7124L39.6143 30.0517C39.9645 29.7015 40.5481 29.7599 40.8399 30.11L40.8982 30.1684C41.2484 30.5185 41.19 31.0437 40.8399 31.3939Z" fill="#2C69FF"/>
<path d="M31.7359 32.3859L34.8873 35.7707C35.2374 36.1208 35.1791 36.7044 34.8289 36.9962L34.7706 37.0546C34.4204 37.4047 33.8368 37.3464 33.5451 36.9962L30.3937 33.6114C30.0435 33.2613 30.1019 32.6777 30.4521 32.3859L30.5104 32.3275C30.8606 32.0357 31.3858 32.0357 31.7359 32.3859Z" fill="#2C69FF"/>
</svg>
