<svg width="50" height="50" viewBox="0 0 50 50" fill="none" xmlns="http://www.w3.org/2000/svg">
<path d="M24.5275 43.0301C24.1054 43.0301 23.7235 42.8693 23.4019 42.608L23.3818 42.5879L21.211 40.4975C20.6884 39.9949 20.3869 39.1105 20.4874 38.3869L21.2713 33.5628C21.3919 32.7186 22.1758 32.0552 23.0401 32.0552H25.9547C26.8391 32.0552 27.6029 32.7387 27.7034 33.603L28.3064 38.3869C28.3868 39.0904 28.1054 39.9748 27.623 40.4975L25.4723 42.7889H25.412C25.1507 42.9497 24.8492 43.0301 24.5275 43.0301ZM24.4873 41.402C24.5074 41.4221 24.5275 41.4221 24.5275 41.4221H24.5477L24.6079 41.3618L26.4572 39.3919C26.618 39.2311 26.7587 38.809 26.7185 38.5879L26.1155 33.804C26.1155 33.7638 26.015 33.6834 25.9547 33.6834H23.0401C22.9798 33.6834 22.8793 33.7638 22.8592 33.8241L22.0753 38.6482C22.0552 38.8492 22.1758 39.211 22.3165 39.3517L24.4873 41.402ZM24.4069 31.2914C17.1507 31.2914 11.2612 25.402 11.2612 18.1457C11.2612 10.8894 17.1507 5 24.4069 5C31.6632 5 37.5527 10.8894 37.5527 18.1457C37.5527 25.402 31.6431 31.2914 24.4069 31.2914ZM24.4069 6.60804C18.0351 6.60804 12.8693 11.794 12.8693 18.1457C12.8693 24.4975 18.0552 29.6834 24.4069 29.6834C30.7788 29.6834 35.9446 24.4975 35.9446 18.1457C35.9446 11.794 30.7587 6.60804 24.4069 6.60804Z" fill="#2C69FF"/>
<path d="M8.06533 44.9397C7.68342 44.9397 7.34171 44.6583 7.28141 44.2764C7.1005 43.2513 7 42.2061 7 41.1608C7 35.3518 9.87437 29.9448 14.6583 26.6684C15.0201 26.4272 15.5226 26.5076 15.7839 26.8694C16.0251 27.2312 15.9447 27.7337 15.5829 27.995C11.2211 30.9699 8.62814 35.8945 8.62814 41.1608C8.62814 42.1056 8.70854 43.0704 8.86934 43.995C8.94975 44.4372 8.64824 44.8593 8.22613 44.9196C8.16583 44.9397 8.10553 44.9397 8.06533 44.9397ZM41.2914 45H41.2311C40.7889 44.9598 40.4673 44.5779 40.5075 44.1357C40.5477 43.6745 40.5678 43.2117 40.5678 42.7488C40.5678 37.8845 38.3367 33.3418 34.598 30.588C34.2362 30.3267 34.1558 29.8242 34.4171 29.4624C34.6784 29.1006 35.1809 29.0202 35.5427 29.2815C39.6834 32.3166 42.1557 37.3619 42.1557 42.7287C42.1557 43.2312 42.1356 43.7538 42.0954 44.2563C42.0552 44.6985 41.6934 45 41.2914 45Z" fill="#2C69FF"/>
</svg>
