<svg width="50" height="50" viewBox="0 0 50 50" fill="none" xmlns="http://www.w3.org/2000/svg">
<path d="M9.875 38.75C7.60006 38.75 5.75 36.5912 5.75 33.9375C5.75 31.2838 7.60006 29.125 9.875 29.125C12.1499 29.125 14 31.2838 14 33.9375C14 36.5912 12.1499 38.75 9.875 38.75ZM9.875 30.5C8.35837 30.5 7.125 32.0421 7.125 33.9375C7.125 35.8329 8.35837 37.375 9.875 37.375C11.3916 37.375 12.625 35.8329 12.625 33.9375C12.625 32.0421 11.3916 30.5 9.875 30.5ZM6.4375 47C6.25516 47 6.0803 46.9276 5.95136 46.7986C5.82243 46.6697 5.75 46.4948 5.75 46.3125V44.25C5.75 44.0677 5.82243 43.8928 5.95136 43.7639C6.0803 43.6349 6.25516 43.5625 6.4375 43.5625C6.61984 43.5625 6.7947 43.6349 6.92364 43.7639C7.05257 43.8928 7.125 44.0677 7.125 44.25V46.3125C7.125 46.4948 7.05257 46.6697 6.92364 46.7986C6.7947 46.9276 6.61984 47 6.4375 47ZM13.3125 47C13.1302 47 12.9553 46.9276 12.8264 46.7986C12.6974 46.6697 12.625 46.4948 12.625 46.3125V44.25C12.625 44.0677 12.6974 43.8928 12.8264 43.7639C12.9553 43.6349 13.1302 43.5625 13.3125 43.5625C13.4948 43.5625 13.6697 43.6349 13.7986 43.7639C13.9276 43.8928 14 44.0677 14 44.25V46.3125C14 46.4948 13.9276 46.6697 13.7986 46.7986C13.6697 46.9276 13.4948 47 13.3125 47Z" fill="#2C69FF"/>
<path d="M3.6875 47C3.50516 47 3.3303 46.9276 3.20136 46.7986C3.07243 46.6697 3 46.4948 3 46.3125V40.8125C3 39.6754 3.92537 38.75 5.0625 38.75H7.125C7.50381 38.75 7.8125 38.4413 7.8125 38.0625V37.7188C7.8125 37.5364 7.88493 37.3615 8.01386 37.2326C8.1428 37.1037 8.31766 37.0312 8.5 37.0312C8.68234 37.0312 8.8572 37.1037 8.98614 37.2326C9.11507 37.3615 9.1875 37.5364 9.1875 37.7188V38.0625C9.1875 39.1996 8.26213 40.125 7.125 40.125H5.0625C4.68369 40.125 4.375 40.4337 4.375 40.8125V46.3125C4.375 46.4948 4.30257 46.6697 4.17364 46.7986C4.0447 46.9276 3.86984 47 3.6875 47ZM16.0625 47C15.8802 47 15.7053 46.9276 15.5764 46.7986C15.4474 46.6697 15.375 46.4948 15.375 46.3125V40.8125C15.375 40.4337 15.0663 40.125 14.6875 40.125H12.625C11.4879 40.125 10.5625 39.1996 10.5625 38.0625V37.7188C10.5625 37.5364 10.6349 37.3615 10.7639 37.2326C10.8928 37.1037 11.0677 37.0312 11.25 37.0312C11.4323 37.0312 11.6072 37.1037 11.7361 37.2326C11.8651 37.3615 11.9375 37.5364 11.9375 37.7188V38.0625C11.9375 38.4413 12.2462 38.75 12.625 38.75H14.6875C15.8246 38.75 16.75 39.6754 16.75 40.8125V46.3125C16.75 46.4948 16.6776 46.6697 16.5486 46.7986C16.4197 46.9276 16.2448 47 16.0625 47ZM25 38.75C22.7251 38.75 20.875 36.5912 20.875 33.9375C20.875 31.2838 22.7251 29.125 25 29.125C27.2749 29.125 29.125 31.2838 29.125 33.9375C29.125 36.5912 27.2749 38.75 25 38.75ZM25 30.5C23.4834 30.5 22.25 32.0421 22.25 33.9375C22.25 35.8329 23.4834 37.375 25 37.375C26.5166 37.375 27.75 35.8329 27.75 33.9375C27.75 32.0421 26.5166 30.5 25 30.5ZM21.5625 47C21.3802 47 21.2053 46.9276 21.0764 46.7986C20.9474 46.6697 20.875 46.4948 20.875 46.3125V44.25C20.875 44.0677 20.9474 43.8928 21.0764 43.7639C21.2053 43.6349 21.3802 43.5625 21.5625 43.5625C21.7448 43.5625 21.9197 43.6349 22.0486 43.7639C22.1776 43.8928 22.25 44.0677 22.25 44.25V46.3125C22.25 46.4948 22.1776 46.6697 22.0486 46.7986C21.9197 46.9276 21.7448 47 21.5625 47ZM28.4375 47C28.2552 47 28.0803 46.9276 27.9514 46.7986C27.8224 46.6697 27.75 46.4948 27.75 46.3125V44.25C27.75 44.0677 27.8224 43.8928 27.9514 43.7639C28.0803 43.6349 28.2552 43.5625 28.4375 43.5625C28.6198 43.5625 28.7947 43.6349 28.9236 43.7639C29.0526 43.8928 29.125 44.0677 29.125 44.25V46.3125C29.125 46.4948 29.0526 46.6697 28.9236 46.7986C28.7947 46.9276 28.6198 47 28.4375 47Z" fill="#2C69FF"/>
<path d="M18.8125 47C18.6302 47 18.4553 46.9276 18.3264 46.7986C18.1974 46.6697 18.125 46.4948 18.125 46.3125V40.8125C18.125 39.6754 19.0504 38.75 20.1875 38.75H22.25C22.6288 38.75 22.9375 38.4413 22.9375 38.0625V37.7188C22.9375 37.5364 23.0099 37.3615 23.1389 37.2326C23.2678 37.1037 23.4427 37.0312 23.625 37.0312C23.8073 37.0312 23.9822 37.1037 24.1111 37.2326C24.2401 37.3615 24.3125 37.5364 24.3125 37.7188V38.0625C24.3125 39.1996 23.3871 40.125 22.25 40.125H20.1875C19.8087 40.125 19.5 40.4337 19.5 40.8125V46.3125C19.5 46.4948 19.4276 46.6697 19.2986 46.7986C19.1697 46.9276 18.9948 47 18.8125 47ZM31.1875 47C31.0052 47 30.8303 46.9276 30.7014 46.7986C30.5724 46.6697 30.5 46.4948 30.5 46.3125V40.8125C30.5 40.4337 30.1913 40.125 29.8125 40.125H27.75C26.6129 40.125 25.6875 39.1996 25.6875 38.0625V37.7188C25.6875 37.5364 25.7599 37.3615 25.8889 37.2326C26.0178 37.1037 26.1927 37.0312 26.375 37.0312C26.5573 37.0312 26.7322 37.1037 26.8611 37.2326C26.9901 37.3615 27.0625 37.5364 27.0625 37.7188V38.0625C27.0625 38.4413 27.3712 38.75 27.75 38.75H29.8125C30.9496 38.75 31.875 39.6754 31.875 40.8125V46.3125C31.875 46.4948 31.8026 46.6697 31.6736 46.7986C31.5447 46.9276 31.3698 47 31.1875 47ZM40.125 38.75C37.8501 38.75 36 36.5912 36 33.9375C36 31.2838 37.8501 29.125 40.125 29.125C42.3999 29.125 44.25 31.2838 44.25 33.9375C44.25 36.5912 42.3999 38.75 40.125 38.75ZM40.125 30.5C38.6084 30.5 37.375 32.0421 37.375 33.9375C37.375 35.8329 38.6084 37.375 40.125 37.375C41.6416 37.375 42.875 35.8329 42.875 33.9375C42.875 32.0421 41.6416 30.5 40.125 30.5ZM36.6875 47C36.5052 47 36.3303 46.9276 36.2014 46.7986C36.0724 46.6697 36 46.4948 36 46.3125V44.25C36 44.0677 36.0724 43.8928 36.2014 43.7639C36.3303 43.6349 36.5052 43.5625 36.6875 43.5625C36.8698 43.5625 37.0447 43.6349 37.1736 43.7639C37.3026 43.8928 37.375 44.0677 37.375 44.25V46.3125C37.375 46.4948 37.3026 46.6697 37.1736 46.7986C37.0447 46.9276 36.8698 47 36.6875 47ZM43.5625 47C43.3802 47 43.2053 46.9276 43.0764 46.7986C42.9474 46.6697 42.875 46.4948 42.875 46.3125V44.25C42.875 44.0677 42.9474 43.8928 43.0764 43.7639C43.2053 43.6349 43.3802 43.5625 43.5625 43.5625C43.7448 43.5625 43.9197 43.6349 44.0486 43.7639C44.1776 43.8928 44.25 44.0677 44.25 44.25V46.3125C44.25 46.4948 44.1776 46.6697 44.0486 46.7986C43.9197 46.9276 43.7448 47 43.5625 47Z" fill="#2C69FF"/>
<path d="M33.9375 47C33.7552 47 33.5803 46.9276 33.4514 46.7986C33.3224 46.6697 33.25 46.4948 33.25 46.3125V40.8125C33.25 39.6754 34.1754 38.75 35.3125 38.75H37.375C37.7538 38.75 38.0625 38.4413 38.0625 38.0625V37.7188C38.0625 37.5364 38.1349 37.3615 38.2639 37.2326C38.3928 37.1037 38.5677 37.0312 38.75 37.0312C38.9323 37.0312 39.1072 37.1037 39.2361 37.2326C39.3651 37.3615 39.4375 37.5364 39.4375 37.7188V38.0625C39.4375 39.1996 38.5121 40.125 37.375 40.125H35.3125C34.9337 40.125 34.625 40.4337 34.625 40.8125V46.3125C34.625 46.4948 34.5526 46.6697 34.4236 46.7986C34.2947 46.9276 34.1198 47 33.9375 47ZM46.3125 47C46.1302 47 45.9553 46.9276 45.8264 46.7986C45.6974 46.6697 45.625 46.4948 45.625 46.3125V40.8125C45.625 40.4337 45.3163 40.125 44.9375 40.125H42.875C41.7379 40.125 40.8125 39.1996 40.8125 38.0625V37.7188C40.8125 37.5364 40.8849 37.3615 41.0139 37.2326C41.1428 37.1037 41.3177 37.0312 41.5 37.0312C41.6823 37.0312 41.8572 37.1037 41.9861 37.2326C42.1151 37.3615 42.1875 37.5364 42.1875 37.7188V38.0625C42.1875 38.4413 42.4962 38.75 42.875 38.75H44.9375C46.0746 38.75 47 39.6754 47 40.8125V46.3125C47 46.4948 46.9276 46.6697 46.7986 46.7986C46.6697 46.9276 46.4948 47 46.3125 47ZM27.0625 23.625H22.9375C21.8004 23.625 20.875 22.6996 20.875 21.5625V18.3959C19.6184 17.6743 18.575 16.6332 17.8506 15.3782C17.1261 14.1233 16.7464 12.699 16.75 11.25C16.75 6.70081 20.4508 3 25 3C25.3142 3 25.6325 3.01788 25.9481 3.05294C29.5698 3.45719 32.5989 6.355 33.1496 9.94375C33.6735 13.3551 32.0648 16.6971 29.125 18.3959V21.5625C29.125 22.6996 28.1996 23.625 27.0625 23.625ZM25 4.375C21.2091 4.375 18.125 7.45913 18.125 11.25C18.125 13.8453 19.5619 16.1931 21.8753 17.3756C21.988 17.4332 22.0827 17.5208 22.1488 17.6288C22.2149 17.7368 22.2499 17.8609 22.25 17.9875V21.5625C22.25 21.9413 22.5587 22.25 22.9375 22.25H27.0625C27.4413 22.25 27.75 21.9413 27.75 21.5625V17.9875C27.7501 17.8609 27.7851 17.7368 27.8512 17.6288C27.9173 17.5208 28.0119 17.4332 28.1247 17.3756C30.7729 16.0212 32.2463 13.1193 31.7904 10.1528C31.3319 7.16694 28.8108 4.75587 25.7954 4.419C25.5314 4.38944 25.2661 4.375 25 4.375ZM40.125 28.4375C39.9427 28.4375 39.7678 28.3651 39.6389 28.2361C39.5099 28.1072 39.4375 27.9323 39.4375 27.75V26.375H10.5625V27.75C10.5625 27.9323 10.4901 28.1072 10.3611 28.2361C10.2322 28.3651 10.0573 28.4375 9.875 28.4375C9.69266 28.4375 9.5178 28.3651 9.38886 28.2361C9.25993 28.1072 9.1875 27.9323 9.1875 27.75V25.6875C9.1875 25.5052 9.25993 25.3303 9.38886 25.2014C9.5178 25.0724 9.69266 25 9.875 25H40.125C40.3073 25 40.4822 25.0724 40.6111 25.2014C40.7401 25.3303 40.8125 25.5052 40.8125 25.6875V27.75C40.8125 27.9323 40.7401 28.1072 40.6111 28.2361C40.4822 28.3651 40.3073 28.4375 40.125 28.4375Z" fill="#2C69FF"/>
<path d="M25 28.4375C24.8177 28.4375 24.6428 28.3651 24.5139 28.2361C24.3849 28.1072 24.3125 27.9323 24.3125 27.75V16.0625C24.3125 15.8802 24.3849 15.7053 24.5139 15.5764C24.6428 15.4474 24.8177 15.375 25 15.375C25.1823 15.375 25.3572 15.4474 25.4861 15.5764C25.6151 15.7053 25.6875 15.8802 25.6875 16.0625V27.75C25.6875 27.9323 25.6151 28.1072 25.4861 28.2361C25.3572 28.3651 25.1823 28.4375 25 28.4375Z" fill="#2C69FF"/>
<path d="M25 16.7503C24.8868 16.7503 24.7754 16.7224 24.6756 16.669C24.5759 16.6156 24.4908 16.5385 24.428 16.4443L21.678 12.3193C21.6089 12.2158 21.5692 12.0954 21.5632 11.9711C21.5572 11.8468 21.585 11.7232 21.6437 11.6134C21.7024 11.5037 21.7898 11.4119 21.8966 11.348C22.0034 11.284 22.1255 11.2503 22.25 11.2503H27.75C27.8745 11.2503 27.9966 11.284 28.1034 11.348C28.2102 11.4119 28.2976 11.5037 28.3563 11.6134C28.415 11.7232 28.4428 11.8468 28.4368 11.9711C28.4308 12.0954 28.3911 12.2158 28.322 12.3193L25.572 16.4443C25.5092 16.5385 25.4241 16.6156 25.3244 16.669C25.2246 16.7224 25.1132 16.7503 25 16.7503ZM23.5349 12.6253L25 14.8232L26.4651 12.6253H23.5349ZM14.6875 11.9378H11.9375C11.7552 11.9378 11.5803 11.8653 11.4514 11.7364C11.3224 11.6075 11.25 11.4326 11.25 11.2503C11.25 11.0679 11.3224 10.8931 11.4514 10.7641C11.5803 10.6352 11.7552 10.5628 11.9375 10.5628H14.6875C14.8698 10.5628 15.0447 10.6352 15.1736 10.7641C15.3026 10.8931 15.375 11.0679 15.375 11.2503C15.375 11.4326 15.3026 11.6075 15.1736 11.7364C15.0447 11.8653 14.8698 11.9378 14.6875 11.9378ZM14.6882 8.50027C14.6316 8.50035 14.5753 8.49342 14.5204 8.47965L11.7704 7.79215C11.5947 7.74679 11.444 7.63379 11.3513 7.47779C11.2586 7.32179 11.2313 7.13545 11.2754 6.9594C11.3195 6.78335 11.4314 6.63189 11.5867 6.53803C11.7421 6.44418 11.9282 6.41556 12.1046 6.4584L14.8546 7.1459C15.0173 7.18668 15.1595 7.28554 15.2544 7.42387C15.3493 7.5622 15.3903 7.73045 15.3698 7.89694C15.3492 8.06343 15.2685 8.21666 15.1429 8.32778C15.0172 8.43891 14.8552 8.50026 14.6875 8.50027H14.6882ZM11.9368 16.0628C11.7691 16.0626 11.6073 16.0011 11.4818 15.8899C11.3562 15.7788 11.2756 15.6255 11.2552 15.4591C11.2348 15.2927 11.2758 15.1245 11.3707 14.9862C11.4656 14.848 11.6078 14.7492 11.7704 14.7084L14.5204 14.0209C14.6961 13.9802 14.8807 14.0101 15.0345 14.1042C15.1883 14.1982 15.299 14.349 15.3427 14.5239C15.3864 14.6988 15.3597 14.8839 15.2683 15.0393C15.1768 15.1947 15.028 15.3079 14.8539 15.3546L12.1039 16.0421C12.0489 16.0559 11.9939 16.0628 11.9375 16.0628H11.9368ZM38.0625 11.9378H35.3125C35.1302 11.9378 34.9553 11.8653 34.8264 11.7364C34.6974 11.6075 34.625 11.4326 34.625 11.2503C34.625 11.0679 34.6974 10.8931 34.8264 10.7641C34.9553 10.6352 35.1302 10.5628 35.3125 10.5628H38.0625C38.2448 10.5628 38.4197 10.6352 38.5486 10.7641C38.6776 10.8931 38.75 11.0679 38.75 11.2503C38.75 11.4326 38.6776 11.6075 38.5486 11.7364C38.4197 11.8653 38.2448 11.9378 38.0625 11.9378ZM35.3118 8.50027C35.1441 8.50009 34.9823 8.43862 34.8567 8.32744C34.7312 8.21626 34.6506 8.06304 34.6302 7.8966C34.6098 7.73016 34.6508 7.56199 34.7457 7.42373C34.8406 7.28547 34.9828 7.18666 35.1454 7.1459L37.8954 6.4584C38.0711 6.41768 38.2557 6.44758 38.4095 6.54166C38.5633 6.63574 38.674 6.78648 38.7177 6.96139C38.7614 7.1363 38.7347 7.32139 38.6433 7.47678C38.5518 7.63217 38.403 7.74543 38.2289 7.79215L35.4789 8.47965C35.4239 8.4934 35.3689 8.50027 35.3125 8.50027H35.3118ZM38.0632 16.0628C38.0066 16.0629 37.9503 16.0559 37.8954 16.0421L35.1454 15.3546C34.9697 15.3093 34.819 15.1963 34.7263 15.0403C34.6336 14.8843 34.6063 14.6979 34.6504 14.5219C34.6945 14.3459 34.8064 14.1944 34.9617 14.1005C35.1171 14.0067 35.3032 13.9781 35.4796 14.0209L38.2296 14.7084C38.3923 14.7492 38.5345 14.848 38.6294 14.9864C38.7243 15.1247 38.7653 15.293 38.7448 15.4594C38.7242 15.6259 38.6435 15.7792 38.5179 15.8903C38.3922 16.0014 38.2302 16.0628 38.0625 16.0628H38.0632Z" fill="#2C69FF"/>
</svg>
