<svg width="50" height="50" viewBox="0 0 50 50" fill="none" xmlns="http://www.w3.org/2000/svg">
<path d="M37.1484 26.167C35.7324 26.167 34.3896 26.4648 33.1689 27.002L30.3174 22.1729C33.0518 20.4248 34.8633 17.3633 34.8633 13.8867C34.8633 8.4668 30.4541 4.05762 25.0342 4.05762C19.6143 4.05762 15.2051 8.4668 15.2051 13.8867C15.2051 17.3633 17.0215 20.4248 19.751 22.1729C18.5742 24.1504 17.3438 26.1621 16.7822 26.9922C15.5713 26.4648 14.2383 26.1719 12.832 26.1719C7.37305 26.1719 2.93457 30.6104 2.93457 36.0693C2.93457 41.5283 7.37305 45.9668 12.832 45.9668C18.291 45.9668 22.7295 41.5283 22.7295 36.0693C22.7295 32.5391 20.8691 29.4336 18.0811 27.6807C18.1396 27.5928 18.1982 27.5 18.2666 27.3975C18.5889 26.8994 19.0234 26.2012 19.5605 25.3223C20.127 24.3945 20.6885 23.4521 21.0352 22.8711C22.2559 23.418 23.6084 23.7207 25.0293 23.7207C26.4502 23.7207 27.8027 23.418 29.0234 22.8711L31.8701 27.6953C29.0918 29.4482 27.2461 32.5488 27.2461 36.0693C27.2461 41.5283 31.6846 45.9668 37.1436 45.9668C42.6025 45.9668 47.041 41.5283 47.041 36.0693C47.041 30.6104 42.6074 26.167 37.1484 26.167ZM7.71973 42.7637C7.7002 42.6807 7.69043 42.5977 7.68555 42.5146L7.61719 40.7227C7.60254 40.2539 7.77832 39.8047 8.11035 39.458C8.47168 39.082 8.96484 38.877 9.50195 38.877H16.1719C17.2119 38.877 18.0566 39.6777 18.0566 40.6641V42.4561C18.0566 42.5391 18.0518 42.6172 18.0371 42.6953C16.6016 43.8232 14.7949 44.4922 12.8369 44.4922C10.918 44.4971 9.14063 43.8477 7.71973 42.7637ZM10.8545 35.5908V32.9297C10.8545 31.9287 11.6699 31.1133 12.6709 31.1133H13.0029C14.0039 31.1133 14.8193 31.9287 14.8193 32.9297V35.5908C14.8193 36.5918 14.0039 37.4072 13.0029 37.4072H12.6709C11.6699 37.4121 10.8545 36.5967 10.8545 35.5908ZM21.2695 36.0645C21.2695 37.9932 20.6201 39.7754 19.5215 41.1963V40.6641C19.5215 38.8721 18.0176 37.4121 16.1719 37.4121H15.7373C16.084 36.8896 16.2891 36.2646 16.2891 35.5957V32.9346C16.2891 31.123 14.8145 29.6533 13.0078 29.6533H12.6758C10.8643 29.6533 9.39453 31.1279 9.39453 32.9346V35.5957C9.39453 36.2695 9.59961 36.8945 9.94629 37.4121H9.51172C8.58887 37.4121 7.7002 37.7881 7.06543 38.4424C6.4502 39.0771 6.13281 39.9072 6.16211 40.7812L6.18164 41.2256C5.07324 39.7998 4.41406 38.0078 4.41406 36.0693C4.41406 31.4209 8.19824 27.6367 12.8467 27.6367C17.4951 27.6367 21.2695 31.416 21.2695 36.0645ZM17.2607 27.2119C17.2803 27.2217 17.2998 27.2314 17.3242 27.2412V27.2461C17.2998 27.2314 17.2803 27.2217 17.2607 27.2119ZM16.6699 13.8867C16.6699 9.27246 20.4248 5.52246 25.0342 5.52246C29.6436 5.52246 33.3984 9.27734 33.3984 13.8867C33.3984 15.7959 32.7539 17.5537 31.6748 18.9648V18.4521C31.6748 16.6699 30.1807 15.2148 28.3447 15.2148H27.8906C28.252 14.6826 28.4619 14.043 28.4619 13.3545V10.8398C28.4619 9.00391 26.9678 7.51465 25.1367 7.51465H24.9316C23.0957 7.51465 21.6064 9.00879 21.6064 10.8398V13.3545C21.6064 14.043 21.8164 14.6875 22.1777 15.2148H21.7285C20.8105 15.2148 19.9268 15.5859 19.2969 16.2354C18.6865 16.8652 18.3691 17.6904 18.3984 18.5596L18.4131 18.9844C17.3242 17.5781 16.6699 15.8057 16.6699 13.8867ZM23.0713 13.3545V10.8398C23.0713 9.81445 23.9062 8.97949 24.9316 8.97949H25.1367C26.1621 8.97949 26.9971 9.81445 26.9971 10.8398V13.3545C26.9971 14.3799 26.1621 15.2148 25.1367 15.2148H24.9316C23.9062 15.2197 23.0713 14.3848 23.0713 13.3545ZM19.9609 20.5322C19.9463 20.4541 19.9316 20.3711 19.9316 20.2881L19.8584 18.5107C19.8438 18.0469 20.0146 17.6025 20.3467 17.2559C20.7031 16.8848 21.1963 16.6797 21.7236 16.6797H28.3447C29.375 16.6797 30.21 17.4756 30.21 18.4521V20.2295C30.21 20.3076 30.2051 20.3906 30.1904 20.4688C28.7695 21.5869 26.9775 22.251 25.0342 22.251C23.1299 22.251 21.3721 21.6113 19.9609 20.5322ZM37.1484 44.4971C32.5 44.4971 28.7158 40.7129 28.7158 36.0645C28.7158 31.416 32.5 27.6318 37.1484 27.6318C41.7969 27.6318 45.5811 31.416 45.5811 36.0645C45.5811 40.7129 41.7969 44.4971 37.1484 44.4971Z" fill="#2C69FF"/>
<path d="M41.416 35.332H37.8809V31.7969C37.8809 31.3916 37.5537 31.0645 37.1484 31.0645C36.7432 31.0645 36.416 31.3916 36.416 31.7969V35.332H32.8809C32.4756 35.332 32.1484 35.6592 32.1484 36.0645C32.1484 36.4697 32.4756 36.7969 32.8809 36.7969H36.416V40.332C36.416 40.7373 36.7432 41.0645 37.1484 41.0645C37.5537 41.0645 37.8809 40.7373 37.8809 40.332V36.7969H41.416C41.8213 36.7969 42.1484 36.4697 42.1484 36.0645C42.1484 35.6592 41.8213 35.332 41.416 35.332Z" fill="#2C69FF"/>
</svg>
