<svg width="60" height="60" viewBox="0 0 60 60" fill="none" xmlns="http://www.w3.org/2000/svg">
<path d="M59.5 30C59.5 46.2924 46.2924 59.5 30 59.5C13.7076 59.5 0.5 46.2924 0.5 30C0.5 13.7076 13.7076 0.5 30 0.5C46.2924 0.5 59.5 13.7076 59.5 30Z" stroke="#2C69FF"/>
<path d="M41.7812 43H18.2188C17.8955 43 17.5855 42.8716 17.357 42.643C17.1284 42.4145 17 42.1045 17 41.7812V18.2188C17 17.8955 17.1284 17.5855 17.357 17.357C17.5855 17.1284 17.8955 17 18.2188 17H41.7812C42.1045 17 42.4145 17.1284 42.643 17.357C42.8716 17.5855 43 17.8955 43 18.2188V41.7812C43 42.1045 42.8716 42.4145 42.643 42.643C42.4145 42.8716 42.1045 43 41.7812 43ZM40.5625 19.4375H19.4375V40.5625H40.5625V19.4375ZM21.2372 30.1942L24.4872 28.1629C24.6868 28.0404 24.9175 27.978 25.1516 27.9832C25.3858 27.9884 25.6135 28.061 25.8075 28.1922L25.8124 28.1849L31.2001 31.7761L37.4059 27.3959C37.5351 27.2984 37.6825 27.2277 37.8394 27.1877C37.9962 27.1478 38.1594 27.1395 38.3195 27.1633C38.4796 27.1872 38.6334 27.2427 38.7718 27.3266C38.9102 27.4105 39.0306 27.5211 39.1257 27.6521C39.2209 27.783 39.2891 27.9316 39.3262 28.0891C39.3634 28.2467 39.3688 28.41 39.3421 28.5696C39.3154 28.7293 39.2572 28.882 39.1709 29.0189C39.0845 29.1559 38.9718 29.2742 38.8392 29.3671L31.933 34.2421C31.7276 34.3905 31.481 34.4711 31.2276 34.4729C30.9742 34.4746 30.7266 34.3973 30.5192 34.2518L25.1112 30.6468L22.5632 32.2392C22.4289 32.3306 22.2778 32.3942 22.1187 32.4263C21.9595 32.4584 21.7956 32.4584 21.6364 32.4263C21.4773 32.3942 21.3262 32.3305 21.1919 32.2392C21.0577 32.1478 20.9431 32.0306 20.8548 31.8944C20.7665 31.7581 20.7064 31.6056 20.6778 31.4458C20.6493 31.2859 20.653 31.122 20.6887 30.9637C20.7244 30.8053 20.7913 30.6556 20.8857 30.5235C20.98 30.3913 21.099 30.2794 21.2372 30.1942Z" fill="#2C69FF"/>
</svg>

