<svg width="60" height="60" viewBox="0 0 60 60" fill="none" xmlns="http://www.w3.org/2000/svg">
<path d="M59.5 30C59.5 46.2924 46.2924 59.5 30 59.5C13.7076 59.5 0.5 46.2924 0.5 30C0.5 13.7076 13.7076 0.5 30 0.5C46.2924 0.5 59.5 13.7076 59.5 30Z" stroke="#2C69FF"/>
<path d="M42.6935 37.7143H34.4194V39.8571L36.1613 41.5714V42H24.8387V41.5714L26.5806 39.8571V37.7143H18.3065C17.96 37.7143 17.6277 37.5788 17.3826 37.3377C17.1376 37.0966 17 36.7696 17 36.4286V19.2857C17 18.9447 17.1376 18.6177 17.3826 18.3766C17.6277 18.1355 17.96 18 18.3065 18H42.6935C43.04 18 43.3724 18.1355 43.6174 18.3766C43.8624 18.6177 44 18.9447 44 19.2857V36.4286C44 36.7696 43.8624 37.0966 43.6174 37.3377C43.3724 37.5788 43.04 37.7143 42.6935 37.7143ZM42.2581 19.7143H18.7419V34.2857H42.2581V19.7143ZM27.8871 25.7143C28.0587 25.7142 28.2287 25.7474 28.3872 25.812C28.5458 25.8765 28.6898 25.9712 28.8112 26.0906L29.629 26.8963L32.1896 24.3771C32.3101 24.2543 32.4543 24.1564 32.6137 24.089C32.7731 24.0216 32.9445 23.9862 33.118 23.9847C33.2915 23.9832 33.4635 24.0157 33.6241 24.0804C33.7846 24.145 33.9305 24.2405 34.0532 24.3612C34.1759 24.4819 34.2729 24.6255 34.3386 24.7835C34.4042 24.9415 34.4373 25.1108 34.4358 25.2815C34.4343 25.4522 34.3982 25.6209 34.3297 25.7778C34.2613 25.9347 34.1618 26.0765 34.037 26.1951L30.5532 29.6237C30.3082 29.8647 29.9759 30.0002 29.6295 30.0002C29.283 30.0002 28.9508 29.8647 28.7058 29.6237L26.9638 27.9094C26.781 27.7296 26.6565 27.5006 26.6061 27.2512C26.5556 27.0018 26.5814 26.7433 26.6803 26.5083C26.7791 26.2733 26.9464 26.0725 27.1613 25.9311C27.3761 25.7898 27.6287 25.7143 27.8871 25.7143Z" fill="#2C69FF"/>
</svg>
