<svg width="50" height="50" viewBox="0 0 50 50" fill="none" xmlns="http://www.w3.org/2000/svg">
<path d="M42.754 29.3162C41.3691 24.3155 38.4036 20.455 33.7677 17.8294C33.2349 17.5276 32.6716 17.2763 32.1217 17.0011C32.1252 16.9935 32.1278 16.9765 32.138 16.9674C32.2303 16.8811 32.3246 16.7968 32.4176 16.7112C33.3717 15.8289 34.2283 14.8083 34.676 13.6043C34.893 13.0207 34.9467 12.7666 35.0974 12.2249C35.3778 10.5138 35.0555 9.47357 34.0046 8.60891C32.5843 7.4401 30.9729 7.3019 29.2708 7.98798C29.1527 8.03545 29.0743 8.07012 28.9566 7.9624C26.7657 5.95741 23.2483 5.93872 21.0423 7.91833C20.9394 8.01081 20.8648 8.03415 20.7311 7.97469C19.8361 7.57606 18.9004 7.49077 17.94 7.68279C16.1199 8.04679 14.6145 9.54512 14.8817 11.5914C15.1135 13.3667 15.8245 14.903 17.0503 16.2272C17.3019 16.4992 17.5693 16.7574 17.8401 17.0324C17.7727 17.0641 17.7058 17.0971 17.6377 17.1273C11.376 19.8983 7.14603 25.9191 6.65082 32.7674C6.51381 34.6612 6.62843 36.5364 7.1198 38.3934C7.89363 41.3186 10.5526 43.5099 13.7451 43.5028C21.2685 43.4861 28.7921 43.5045 36.3156 43.4934C38.7325 43.4898 40.593 42.4399 41.9431 40.5284C42.6292 39.5568 42.95 38.4534 43.1368 37.2975C43.5716 34.6088 43.4813 31.9436 42.754 29.3162ZM41.2092 36.0027C41.0476 37.0555 40.8724 38.1597 40.2783 39.0447C39.109 40.7861 36.8692 41.7422 34.7761 41.7457C28.2604 41.7558 21.7444 41.739 15.2287 41.7542C12.4636 41.7606 9.85579 40.2242 9.18545 37.5597C8.75994 35.8679 8.80591 33.7519 8.92468 32.0267C9.35374 25.7885 15.0049 19.9057 20.4281 17.3816C20.4871 17.3542 18.8653 15.9341 18.6472 15.6864C17.5854 14.4802 16.9224 13.5031 16.7218 11.886C16.4753 9.90068 17.9618 9.31493 18.8615 9.12556C19.6935 8.95048 21.4592 9.83678 21.5484 9.75238C23.459 7.94911 26.5054 7.96629 28.4028 9.79251C28.5048 9.89064 28.5726 9.85916 28.6748 9.81584C30.1491 9.19071 31.3957 8.80558 32.6259 9.87015C33.5361 10.6579 33.5572 11.2429 33.334 12.4799C33.1985 12.9931 32.3566 14.3653 32.0353 14.7908C30.8475 16.3621 29.685 17.365 29.6047 17.4434C29.596 17.4518 32.1436 18.646 32.5694 18.9701C36.5019 21.9622 39.153 24.2762 40.3524 28.8314C40.9822 31.2248 41.5857 33.5536 41.2092 36.0027ZM24.9941 25.2136L22.7658 22.8245C22.4564 22.4927 22.2396 22.2438 22.1158 22.0779C21.8685 21.8457 21.5434 21.6549 21.1409 21.5056C20.7388 21.3564 20.3984 21.4476 20.1198 21.7793C19.8722 22.1442 19.8104 22.501 19.934 22.8495C20.0578 23.1978 20.1971 23.4717 20.3519 23.6706L21.0481 24.3676C21.3885 24.7658 21.7599 25.1971 22.1624 25.6616C22.6265 26.1925 23.1372 26.7567 23.6942 27.354L23.6479 28.3992H20.4912C20.2126 28.3992 19.9728 28.5152 19.7715 28.7477C19.5705 28.9797 19.4698 29.2286 19.4698 29.4942C19.4698 29.7596 19.5628 29.992 19.7484 30.191C19.934 30.3902 20.1816 30.4898 20.4912 30.4898H23.6479V32.2318H20.4912C20.2126 32.2318 19.9729 32.3231 19.7716 32.5055C19.5705 32.688 19.4699 32.9288 19.4699 33.2273C19.4391 33.4929 19.5243 33.7167 19.7253 33.8991C19.9264 34.0818 20.1819 34.1731 20.4912 34.1731H23.6479V35.1685C23.6789 35.633 23.8182 35.9565 24.0659 36.1389C24.3131 36.3214 24.6228 36.4129 24.9942 36.4129C25.3656 36.4458 25.6673 36.3214 25.8994 36.0395C26.1315 35.7575 26.2476 35.467 26.2476 35.1684V34.1728H29.4971C29.8064 34.1728 30.0619 34.098 30.263 33.9487C30.4644 33.7995 30.5492 33.559 30.5185 33.227C30.5185 32.5303 30.0851 32.1818 29.2185 32.1818H26.2476L26.2939 30.4894L29.3116 30.4398C29.7447 30.4729 30.0544 30.3817 30.2399 30.166C30.4257 29.9503 30.5185 29.6931 30.5185 29.3946C30.5185 29.1289 30.4179 28.8885 30.2168 28.6728C30.0154 28.4572 29.6984 28.3492 29.265 28.3492H26.2477V27.4036C26.7739 26.8727 27.2535 26.3582 27.6867 25.8605C28.0581 25.4623 28.4295 25.0558 28.8008 24.6412C29.1722 24.2263 29.4507 23.9359 29.6364 23.7701C30.3483 23.1064 30.503 22.5258 30.1006 22.0281C29.8841 21.7293 29.6055 21.58 29.265 21.58C28.9247 21.58 28.6153 21.7129 28.3367 21.9782C28.1819 22.111 27.9188 22.3514 27.5474 22.6999C27.176 23.0484 26.8046 23.405 26.4332 23.7701C25.9998 24.2016 25.5201 24.6827 24.9941 25.2136Z" fill="#2C69FF"/>
</svg>
