<svg width="60" height="60" viewBox="0 0 60 60" fill="none" xmlns="http://www.w3.org/2000/svg">
<path d="M59.5 30C59.5 46.2924 46.2924 59.5 30 59.5C13.7076 59.5 0.5 46.2924 0.5 30C0.5 13.7076 13.7076 0.5 30 0.5C46.2924 0.5 59.5 13.7076 59.5 30Z" stroke="#2C69FF"/>
<path d="M42.2403 38.0352L30.4826 42.9005C30.3303 42.9661 30.1662 43 30.0004 43C29.8346 43 29.6705 42.9661 29.5182 42.9005L17.7605 38.0352C17.5359 37.9441 17.3435 37.7879 17.2081 37.5869C17.0726 37.3858 17.0002 37.149 17 36.9066V18.2186C17 18.0182 17.0494 17.821 17.1439 17.6443C17.2383 17.4676 17.3748 17.3169 17.5414 17.2056C17.7079 17.0942 17.8993 17.0257 18.0987 17.0059C18.298 16.9862 18.4992 17.0159 18.6843 17.0924L18.6949 17.0965L30 21.7749L41.3027 17.0981L41.3133 17.094C41.4984 17.017 41.6996 16.9869 41.8992 17.0063C42.0988 17.0257 42.2905 17.0941 42.4573 17.2053C42.6241 17.3165 42.7609 17.4671 42.8556 17.6439C42.9503 17.8206 42.9999 18.0181 43 18.2186V36.9066C42.9999 37.1489 42.9276 37.3858 42.7923 37.5868C42.657 37.7878 42.4648 37.9439 42.2403 38.0352ZM28.7812 23.9062L19.4375 20.0394V36.0941L28.7812 39.9609V23.9062ZM40.5625 20.0394L31.2188 23.9062V39.956L40.5625 36.0941V20.0394ZM33.1517 25.6377L37.6204 23.6064C37.7665 23.5377 37.9247 23.4987 38.086 23.4916C38.2472 23.4846 38.4083 23.5096 38.5597 23.5653C38.7112 23.621 38.8501 23.7062 38.9684 23.8161C39.0867 23.9259 39.182 24.0581 39.2488 24.2051C39.3155 24.352 39.3524 24.5107 39.3574 24.672C39.3623 24.8334 39.3351 24.9941 39.2774 25.1448C39.2198 25.2956 39.1327 25.4334 39.0214 25.5502C38.91 25.667 38.7766 25.7606 38.6287 25.8254L34.16 27.8568C34.0139 27.9255 33.8557 27.9644 33.6945 27.9714C33.5332 27.9785 33.3722 27.9534 33.2207 27.8977C33.0692 27.842 32.9303 27.7569 32.812 27.6471C32.6937 27.5373 32.5984 27.405 32.5317 27.2581C32.4649 27.1111 32.428 26.9523 32.4231 26.791C32.4181 26.6297 32.4453 26.469 32.503 26.3183C32.5607 26.1676 32.6477 26.0298 32.7591 25.9129C32.8704 25.7961 33.0039 25.7025 33.1517 25.6377ZM33.1517 30.1066L37.6204 28.0753C37.7665 28.0066 37.9247 27.9676 38.086 27.9605C38.2472 27.9535 38.4083 27.9785 38.5597 28.0342C38.7112 28.0899 38.8501 28.1751 38.9684 28.2849C39.0867 28.3948 39.182 28.527 39.2488 28.6739C39.3155 28.8209 39.3524 28.9796 39.3574 29.1409C39.3623 29.3022 39.3351 29.463 39.2774 29.6137C39.2198 29.7645 39.1327 29.9023 39.0214 30.0191C38.91 30.1359 38.7766 30.2295 38.6287 30.2943L34.16 32.3256C34.0136 32.3972 33.8544 32.4386 33.6917 32.4475C33.5291 32.4565 33.3663 32.4327 33.2129 32.3776C33.0596 32.3225 32.9189 32.2373 32.7991 32.127C32.6793 32.0166 32.5828 31.8833 32.5154 31.735C32.4479 31.5867 32.4109 31.4263 32.4066 31.2635C32.4022 31.1006 32.4305 30.9385 32.4898 30.7868C32.5491 30.635 32.6382 30.4967 32.7519 30.38C32.8656 30.2633 33.0016 30.1698 33.1517 30.1066ZM33.1517 34.5754L37.6204 32.5441C37.7665 32.4754 37.9247 32.4364 38.086 32.4294C38.2472 32.4223 38.4083 32.4474 38.5597 32.5031C38.7112 32.5588 38.8501 32.644 38.9684 32.7538C39.0867 32.8636 39.182 32.9959 39.2488 33.1428C39.3155 33.2898 39.3524 33.4484 39.3574 33.6098C39.3623 33.7711 39.3351 33.9318 39.2774 34.0826C39.2198 34.2333 39.1327 34.3711 39.0214 34.488C38.91 34.6048 38.7766 34.6984 38.6287 34.7632L34.16 36.7945C34.0017 36.867 33.8296 36.9043 33.6554 36.9041C33.3769 36.9043 33.1066 36.8092 32.8897 36.6344C32.6728 36.4596 32.5223 36.2158 32.4633 35.9435C32.4043 35.6712 32.4404 35.3869 32.5655 35.138C32.6906 34.8891 32.8972 34.6905 33.1509 34.5754H33.1517ZM21.875 23.5C22.0491 23.4997 22.2213 23.5371 22.3796 23.6097L26.8483 25.641C26.9961 25.7058 27.1296 25.7994 27.2409 25.9162C27.3523 26.033 27.4393 26.1708 27.497 26.3216C27.5547 26.4723 27.5819 26.633 27.5769 26.7943C27.572 26.9556 27.5351 27.1144 27.4683 27.2613C27.4016 27.4083 27.3063 27.5404 27.188 27.6503C27.0697 27.7601 26.9308 27.8453 26.7793 27.901C26.6278 27.9567 26.4668 27.9817 26.3055 27.9747C26.1443 27.9676 25.9861 27.9286 25.84 27.8599L21.3713 25.8286C21.1176 25.7136 20.9111 25.5151 20.7859 25.2662C20.6608 25.0174 20.6247 24.7333 20.6836 24.4611C20.7425 24.1888 20.8928 23.945 21.1096 23.7701C21.3264 23.5953 21.5965 23.4999 21.875 23.5ZM21.875 27.9688C22.049 27.9687 22.2211 28.0058 22.3796 28.0777L26.8483 30.109C26.9984 30.1723 27.1344 30.265 27.2481 30.3817C27.3618 30.4984 27.4509 30.6366 27.5102 30.7884C27.5695 30.9401 27.5978 31.1022 27.5934 31.265C27.5891 31.4279 27.5521 31.5883 27.4846 31.7366C27.4172 31.8849 27.3207 32.0182 27.2009 32.1285C27.0811 32.2389 26.9404 32.3242 26.7871 32.3793C26.6337 32.4344 26.4709 32.4581 26.3083 32.4491C26.1456 32.4402 25.9864 32.3988 25.84 32.3272L21.3713 30.2959C21.1186 30.1803 20.913 29.9818 20.7886 29.7333C20.6641 29.4849 20.6284 29.2013 20.6872 28.9297C20.746 28.6581 20.8958 28.4148 21.1118 28.24C21.3279 28.0652 21.5971 27.9696 21.875 27.9688ZM21.875 32.4377C22.0491 32.4375 22.2212 32.475 22.3796 32.5474L26.8483 34.5787C26.9961 34.6435 27.1296 34.7371 27.2409 34.8539C27.3523 34.9708 27.4393 35.1086 27.497 35.2593C27.5547 35.4101 27.5819 35.5707 27.5769 35.732C27.572 35.8934 27.5351 36.0522 27.4683 36.1991C27.4016 36.346 27.3063 36.4782 27.188 36.588C27.0697 36.6978 26.9308 36.783 26.7793 36.8387C26.6278 36.8944 26.4668 36.9195 26.3055 36.9124C26.1443 36.9054 25.9861 36.8664 25.84 36.7977L21.3713 34.7664C21.1176 34.6513 20.9111 34.4528 20.7859 34.204C20.6608 33.9552 20.6247 33.671 20.6836 33.3988C20.7425 33.1266 20.8928 32.8828 21.1096 32.7079C21.3264 32.533 21.5965 32.4377 21.875 32.4377Z" fill="#2C69FF"/>
</svg>
