<svg width="25" height="26" viewBox="0 0 25 26" fill="none" xmlns="http://www.w3.org/2000/svg">
<g id="Frame 131">
<rect y="0.5" width="25" height="25" rx="4" fill="#37D16C"/>
<path id="Vector" d="M20.8459 6.36585C20.2609 6.08171 19.6438 5.94671 19.0099 5.87985C18.871 5.86442 18.727 5.87728 18.5432 5.87728C20.761 7.71328 21.9529 10.0301 22.0018 12.8664C22.0416 15.2694 21.2136 17.3716 19.5756 19.1459C16.4565 22.5247 10.825 23.1727 6.87661 19.6254C6.78026 20.2852 6.78894 20.9561 6.90232 21.6131C6.60199 21.2662 6.35775 20.8745 6.17846 20.4521C5.90747 19.8029 5.73207 19.1177 5.65775 18.4181C5.63996 18.2714 5.58895 18.1307 5.50861 18.0067C4.76755 16.8956 4.28353 15.6333 4.09175 14.3116C3.95907 13.3996 3.97035 12.4725 4.12518 11.564C4.59446 8.81514 6.03704 6.72585 8.40146 5.27042C9.62032 4.52085 10.9613 4.11842 12.3949 4.022C13.9214 3.91488 15.4501 4.19805 16.837 4.84485C16.962 4.89891 17.0969 4.92648 17.233 4.92585C18.1439 4.92821 19.0449 5.11496 19.8816 5.47485C20.3033 5.65485 20.6145 5.966 20.8459 6.36457V6.36585ZM7.17875 17.7367C7.11961 18.044 7.05661 18.3153 7.01804 18.5891C7.00518 18.6753 7.03089 18.8 7.09004 18.8579C8.15195 19.9302 9.49233 20.6846 10.96 21.0359C12.2901 21.3638 13.6812 21.3531 15.0062 21.005C16.7271 20.5674 18.2599 19.584 19.375 18.2021C20.095 17.3266 20.6106 16.3404 20.9269 15.2476C21.1473 14.4785 21.256 13.6818 21.2496 12.8819C21.2451 12.07 21.1167 11.2636 20.869 10.4904C20.2776 8.63385 19.168 7.172 17.5622 6.08042C17.4748 6.02257 17.3295 6.01228 17.2189 6.03028C16.3768 6.16528 15.6529 6.58571 14.9213 6.99071C14.1422 7.42142 13.4556 7.97557 12.7665 8.52971C12.6917 8.59834 12.5997 8.64544 12.5003 8.666C11.3046 8.78814 10.3558 9.33714 9.65375 10.3027C9.46089 10.5663 9.32589 10.8697 9.15875 11.1654H16.6763C16.0682 9.70871 15.0332 8.873 13.4466 8.66085L13.5855 8.55671C14.038 8.22371 14.479 7.87528 14.947 7.56414C15.4189 7.25042 15.9152 6.97271 16.405 6.68471C16.5182 6.61785 16.6365 6.58828 16.7715 6.66928C17.967 7.37052 18.9109 8.43097 19.4689 9.69971C19.8983 10.6511 20.122 11.6514 20.194 12.6864C20.2236 13.0979 20.1992 13.5144 20.1992 13.9799H9.03918C9.10732 14.7191 9.35804 15.3324 9.80161 15.8544C10.6168 16.8187 11.7135 17.1723 12.9298 17.1851C14.1923 17.198 15.2968 16.748 16.2456 15.92C16.3356 15.8403 16.396 15.839 16.4963 15.8866C17.1058 16.1771 17.7203 16.4613 18.3323 16.748L19.2658 17.1903C19.2233 17.2661 19.195 17.3266 19.1565 17.3806C18.2732 18.602 17.1315 19.4789 15.676 19.8954C14.2359 20.3182 12.714 20.3805 11.2442 20.0767C9.84146 19.7874 8.60461 19.1883 7.58504 18.1687C7.45647 18.0401 7.33432 17.9013 7.18004 17.7367H7.17875ZM5.63589 16.8689C5.65132 16.7711 5.65646 16.7184 5.66675 16.667C5.77475 16.1463 5.80946 15.596 6.00618 15.1113C6.65289 13.5196 7.63518 12.1259 8.71904 10.8016L9.36189 10.0173C8.82189 10.3606 8.31404 10.7373 7.90518 11.2259C7.50147 11.7093 7.09261 12.1901 6.72618 12.7031C6.35846 13.2174 6.04218 13.7664 5.70275 14.3C5.69118 14.2409 5.67575 14.1637 5.66418 14.0866C5.50939 13.0828 5.55352 12.0583 5.79404 11.0716C6.55004 7.97042 9.35289 5.70371 12.5556 5.61628C12.841 5.60857 13.1342 5.63042 13.4119 5.57771C13.9493 5.47357 14.4778 5.32442 15.01 5.19842C15.1669 5.15985 15.325 5.13671 15.5269 5.09942C12.6495 4.09657 8.87204 4.83842 6.50375 7.74542C4.08532 10.7154 4.28332 14.5366 5.63589 16.8701V16.8689Z" fill="white"/>
</g>
</svg>
