<svg width="18" height="18" viewBox="0 0 18 18" fill="none" xmlns="http://www.w3.org/2000/svg">
<g id="Frame" clip-path="url(#clip0_29_223)">
<path id="Vector" d="M4 15C3.62782 15 3.32586 15.224 3.32586 15.5C3.32586 15.776 3.62782 16 4 16H13.2431C13.6153 16 13.9173 15.776 13.9173 15.5C13.9173 15.224 13.6153 15 13.2431 15H4Z" fill="white"/>
<path id="Subtract" fill-rule="evenodd" clip-rule="evenodd" d="M15.773 2.68779C15.773 2.3156 16.075 2.01364 16.4472 2.01364C16.8194 2.01364 17.1213 2.3156 17.1213 2.68779V15.0805C17.1213 16.6903 15.8117 18 14.2018 18H3.4699C2.04086 18 0.878662 16.8378 0.878662 15.4087C0.878662 15.3664 0.88166 15.325 0.88464 15.2838C0.88561 15.2704 0.886578 15.2571 0.88744 15.2437C0.886503 15.2287 0.885441 15.214 0.884388 15.1994C0.881493 15.1592 0.878662 15.1199 0.878662 15.0787V2.94059C0.878662 1.33072 2.18833 0.0210571 3.7982 0.0210571H11.2822C12.8921 0.0210571 14.2018 1.33072 14.2018 2.94059V11.2427C14.2018 12.6419 13.2134 13.8112 11.9002 14.0956C11.8124 14.1377 11.7159 14.1623 11.6123 14.1623H3.4699C2.83965 14.1623 2.32351 14.6345 2.24275 15.242C2.32702 16.0302 2.98712 16.6499 3.7982 16.6499H14.2018C15.0673 16.6499 15.773 15.946 15.773 15.0787V2.68779ZM8.90169 9.4872C8.42768 9.74703 7.88169 9.8945 7.30411 9.8945C5.45723 9.8945 3.95445 8.39172 3.9527 6.54484C3.9527 4.69797 5.45548 3.19519 7.30235 3.19519C9.14923 3.19519 10.652 4.69797 10.652 6.54484C10.652 7.32608 10.3816 8.04236 9.93222 8.61292L11.3033 9.98403C11.5667 10.2474 11.5667 10.674 11.3033 10.9373C11.1717 11.069 10.9996 11.1339 10.8276 11.1339C10.6555 11.1339 10.4835 11.069 10.3518 10.9373L8.90169 9.4872ZM9.30547 6.54484C9.30547 5.44058 8.40837 4.54172 7.30411 4.54172C6.19985 4.54172 5.30099 5.44058 5.30274 6.54484C5.30274 7.64735 6.2016 8.54621 7.30411 8.54621C8.40661 8.54621 9.30547 7.64911 9.30547 6.54484Z" fill="white"/>
</g>
<defs>
<clipPath id="clip0_29_223">
<rect width="18" height="18" fill="white"/>
</clipPath>
</defs>
</svg>
