<svg width="18" height="18" viewBox="0 0 18 18" fill="none" xmlns="http://www.w3.org/2000/svg">
<g id="Frame" clip-path="url(#clip0_29_290)">
<path id="Vector" d="M6.07686 5.22814C6.34669 5.453 6.70646 5.58791 7.02127 5.54292C7.38104 5.54292 7.69583 5.36305 7.96565 5.13819C8.28048 4.86836 8.5053 4.50859 8.68519 4.10386C9 3.33931 9 2.39493 8.73018 1.58544C8.55028 1.04579 8.23549 0.551107 7.78577 0.236318C7.51595 0.0564232 7.1112 -0.0335065 6.75142 0.0114584C6.52658 0.0564232 6.30172 0.146371 6.07686 0.281283C5.67213 0.551107 5.40229 1.00083 5.22239 1.45054C4.99755 2.26002 4.95257 3.06951 5.17744 3.879C5.35732 4.37368 5.62715 4.86836 6.07686 5.22812V5.22814ZM10.574 5.2731C10.8888 5.54292 11.2935 5.72282 11.6983 5.72282C12.058 5.76778 12.3729 5.67786 12.6876 5.49796C13.0025 5.31808 13.2723 5.04824 13.4522 4.73345C13.677 4.37368 13.8569 4.01391 13.9918 3.60916C14.0818 3.29437 14.1267 2.9346 14.0818 2.57482C14.0368 2.08014 13.8119 1.63042 13.4971 1.22568C13.2723 0.955861 13.0025 0.686037 12.6877 0.551107C12.4628 0.461177 12.193 0.37123 11.9681 0.416195C11.6533 0.461177 11.3835 0.641054 11.1586 0.820949C10.8438 1.09077 10.574 1.40556 10.3941 1.76533C10.2142 2.08014 10.0344 2.43991 9.98937 2.84465C9.9444 3.29437 9.9444 3.74409 10.0344 4.14882C10.1243 4.55356 10.2592 4.95829 10.574 5.27312V5.2731ZM4.32297 8.96076C4.6378 8.69094 4.81767 8.33115 4.95259 7.97138C5.13246 7.38677 5.13246 6.80213 5.0875 6.2175C5.0875 5.99264 4.99755 5.76778 4.9076 5.54292C4.68274 5.04824 4.27801 4.59854 3.78332 4.3287C3.37859 4.14882 2.97385 4.05887 2.61406 4.14882C2.16436 4.19379 1.80459 4.50859 1.53477 4.86836C1.17499 5.36305 0.995117 5.99266 0.905152 6.57727C0.860187 6.93705 0.905152 7.29682 0.995099 7.65657C1.13001 8.19624 1.39984 8.69092 1.80457 9.05069C2.1194 9.32052 2.52413 9.45545 2.92887 9.45545C3.42355 9.45545 3.91822 9.32053 4.32297 8.96076ZM17.2747 7.61161C17.2298 7.25183 17.1398 6.93705 16.9599 6.62224C16.78 6.26247 16.4652 5.9027 16.1055 5.72282C15.7007 5.49796 15.206 5.453 14.7563 5.49796C14.5315 5.54293 14.2616 5.58791 14.0368 5.72282C13.722 5.9027 13.4971 6.2175 13.3173 6.57727C13.1374 7.02699 13.0474 7.52168 13.0474 8.01636C13.0474 8.46606 13.0474 8.96076 13.1823 9.41048C13.2723 9.72527 13.4522 10.085 13.767 10.2649C14.0818 10.5347 14.4865 10.6247 14.8913 10.6697C15.206 10.7146 15.5658 10.7146 15.8806 10.6247C16.1954 10.5348 16.5102 10.3549 16.6901 10.085C16.915 9.81522 17.0499 9.45545 17.0949 9.14064C17.3197 8.60099 17.2747 8.10631 17.2747 7.61161ZM16.0155 14.4023C15.9706 13.7727 15.6558 13.1431 15.2061 12.6484C15.1161 12.5585 15.0262 12.4685 14.8912 12.3786C14.3066 11.8839 13.722 11.3442 13.1374 10.8046C12.5527 10.2199 12.0131 9.59036 11.5184 8.91578C11.1586 8.33115 10.6639 7.79148 9.98937 7.47669C9.58463 7.29682 9.08995 7.20687 8.64023 7.25184C7.83076 7.34178 7.1112 7.79148 6.61651 8.4211C6.4816 8.55601 6.39167 8.7359 6.30172 8.91578C5.94195 9.45543 5.49225 9.9951 4.99755 10.4448C4.72773 10.7146 4.4579 10.9395 4.18808 11.1644C4.05315 11.2993 3.87325 11.4342 3.73836 11.5691C3.19871 11.9738 2.65904 12.5135 2.34424 13.0981C2.11938 13.5029 1.98447 13.9526 1.9395 14.4472C1.9395 14.852 1.98447 15.2567 2.11938 15.6165C2.25429 16.0213 2.43418 16.426 2.70403 16.7408C3.15373 17.2805 3.82829 17.6402 4.50287 17.6852C5.35732 17.7302 6.21178 17.6852 7.02127 17.5503C7.38104 17.5053 7.74081 17.3704 8.14555 17.3254C8.95502 17.2355 9.76451 17.2805 10.529 17.5053C11.1586 17.7302 11.8332 17.8201 12.5078 17.8651C13.1823 17.9101 13.9019 17.8201 14.5315 17.4604C14.9812 17.2355 15.341 16.8307 15.5658 16.381C15.9256 15.7964 16.1055 15.1218 16.0155 14.4023ZM8.46035 16.2461H6.39167C6.16681 16.2461 5.94195 16.2461 5.71709 16.2011C5.26737 16.1112 4.86262 15.8414 4.5928 15.4366C4.36795 15.1668 4.23304 14.852 4.18806 14.4922C4.14309 14.1339 4.14309 13.7713 4.18806 13.4129C4.27801 13.0082 4.50287 12.6484 4.77271 12.3786C4.99755 12.1537 5.31236 11.9738 5.62715 11.8389C5.76206 11.7939 5.89697 11.749 6.0319 11.749H7.24613V10.0401H8.41537C8.46035 12.1537 8.46035 14.2224 8.46035 16.2461ZM13.0924 16.2461H10.2592C9.9444 16.2011 9.67458 16.1112 9.44972 15.9313C9.17989 15.7065 9.04496 15.3467 9.04496 15.0319V11.9738H10.2142V14.807C10.2142 14.9419 10.2592 15.0319 10.3491 15.1218C10.4391 15.2118 10.574 15.2567 10.7089 15.2567H11.9231V11.9289H13.0924V16.2461Z" fill="white"/>
<path id="Vector_2" d="M5.98696 12.9182C5.76208 13.0082 5.53722 13.188 5.40231 13.4579C5.31238 13.6827 5.2674 13.9076 5.2674 14.1324C5.2674 14.4023 5.35734 14.6721 5.49225 14.8969C5.67215 15.1668 5.98694 15.3467 6.30173 15.3017H7.24615V12.8732H6.21178C6.16682 12.8283 6.07687 12.8732 5.98692 12.9182H5.98696Z" fill="white"/>
</g>
<defs>
<clipPath id="clip0_29_290">
<rect width="18" height="18" fill="white"/>
</clipPath>
</defs>
</svg>
