<svg width="20" height="20" viewBox="0 0 20 20" fill="none" xmlns="http://www.w3.org/2000/svg">
<path d="M19.8325 16.1481C20.4138 17.0895 19.3713 18.2083 18.4013 17.6789C18.1292 17.5282 17.8853 17.3318 17.68 17.0983C15.8176 14.9782 13.8751 12.928 11.9626 10.8478C11.8913 10.7679 11.8126 10.688 11.7126 10.5881C11.4613 10.8079 11.2213 11.0276 10.9701 11.2474C10.6601 10.9077 10.3601 10.5769 10.0288 10.2173C9.84884 10.3671 9.66884 10.5169 9.47884 10.678C8.13635 9.27708 6.80386 7.86617 5.43262 6.43653C6.79511 5.19542 8.13635 3.96556 9.50759 2.71572C10.8701 4.13537 12.2226 5.53629 13.5838 6.96593L13.0038 7.50657C13.3138 7.84619 13.6138 8.18705 13.9351 8.53666C13.7351 8.72645 13.5351 8.90624 13.3238 9.10727L13.6038 9.41692C15.5476 11.4971 17.45 13.6084 19.4413 15.6387C19.5925 15.7985 19.7325 15.9683 19.8325 16.1481ZM12.5726 20H0.0151478C0.0151478 19.5293 -0.0248519 19.0885 0.0251478 18.649C0.0951474 18.0297 0.546395 17.6189 1.17764 17.529C1.24764 17.519 1.30764 17.4991 1.38764 17.4891L1.41764 17.3293C1.45764 16.6887 1.79764 16.3491 2.43888 16.3491C3.81013 16.3391 5.18262 16.3491 6.55511 16.3491H10.1401C10.8501 16.3491 11.1313 16.6088 11.2513 17.3193C11.2613 17.4092 11.3813 17.519 11.4713 17.539C12.1926 17.7088 12.5826 18.1796 12.5826 18.91C12.5726 19.2596 12.5726 19.6192 12.5726 20ZM9.33884 11.778C9.33884 11.8479 9.33884 11.9079 9.32884 11.9778C9.22884 12.5684 8.09635 13.4586 7.51635 13.3687C7.26635 13.3275 6.98511 13.2076 6.81511 13.0279C5.48262 11.6669 4.18137 10.2772 2.86888 8.89626C2.37888 8.37684 2.39888 7.78626 2.93013 7.31678C3.26013 7.01712 3.54013 6.6363 4.03137 6.53641C4.41137 6.46649 4.74262 6.53641 5.01262 6.8161C6.36261 8.22826 7.70635 9.63917 9.03759 11.0576C9.20759 11.2374 9.27759 11.5171 9.39884 11.748C9.37884 11.748 9.35884 11.768 9.33884 11.778ZM9.66884 1.59448V1.56451C9.76884 0.804119 10.3901 0.464502 10.9401 0.124884C11.3713 -0.146061 11.8813 0.0449742 12.3126 0.494468C13.5438 1.78551 14.7751 3.07531 16.0076 4.37635C16.6688 5.06557 16.6488 5.58623 15.9376 6.22676C15.7776 6.3666 15.6276 6.51644 15.4563 6.64629C14.9863 7.02711 14.3651 6.9959 13.9438 6.55639C12.6326 5.18543 11.3213 3.81573 10.0288 2.42479C9.82884 2.21503 9.72884 1.90538 9.57884 1.64442C9.60999 1.62992 9.64006 1.61323 9.66884 1.59448Z" fill="#2C69FF"/>
</svg>
