<svg width="25" height="26" viewBox="0 0 25 26" fill="none" xmlns="http://www.w3.org/2000/svg">
<g id="Frame" clip-path="url(#clip0_29_236)">
<path id="Vector" d="M4.5 0.5H20.5C23.5 0.5 25 2 25 5V21C25 24 23.5 25.5 20.5 25.5H4.5C1.5 25.5 0 24 0 21V5C0 2 1.5 0.5 4.5 0.5Z" fill="#111111"/>
<path id="Vector_2" d="M4.98724 16.872C4.98903 15.2799 5.6223 13.7535 6.74811 12.6276C7.87393 11.5018 9.40035 10.8686 10.9925 10.8668V14.4698C10.3557 14.4705 9.74513 14.7238 9.29483 15.1741C8.84452 15.6244 8.59122 16.2349 8.59049 16.8718C8.59049 18.052 9.22874 19.3218 10.6302 19.3218C10.7235 19.3218 12.9142 19.3003 12.9142 17.437V3.78027H16.7537C16.7558 4.64132 17.099 5.46647 17.7081 6.07505C18.3172 6.68362 19.1427 7.02602 20.0037 7.02727L20.0005 10.6238C18.7746 10.6332 17.5698 10.3045 16.5185 9.67377L16.517 17.437C16.517 21.0015 13.4837 22.9248 10.6297 22.9248C7.41324 22.9255 4.98724 20.323 4.98724 16.872Z" fill="#FF4040"/>
<path id="Vector_3" d="M4.02649 15.911C4.02828 14.3189 4.66154 12.7925 5.78736 11.6666C6.91318 10.5408 8.4396 9.90756 10.0317 9.90577V13.5088C9.39491 13.5095 8.78438 13.7628 8.33407 14.2131C7.88377 14.6634 7.63047 15.2739 7.62974 15.9108C7.62974 17.091 8.26799 18.3608 9.66949 18.3608C9.76274 18.3608 11.9535 18.3393 11.9535 16.476V2.81927H15.793C15.795 3.68032 16.1382 4.50547 16.7473 5.11405C17.3565 5.72262 18.1819 6.06502 19.043 6.06628L19.0397 9.66277C17.8138 9.67219 16.609 9.34348 15.5577 8.71277L15.5562 16.476C15.5562 20.0405 12.523 21.9638 9.66899 21.9638C6.45249 21.9645 4.02649 19.362 4.02649 15.911Z" fill="#00F5FF"/>
<path id="Vector_4" d="M10.032 10.939C6.15452 11.431 3.08752 16.3765 6.26952 20.8268C9.20902 23.231 15.3928 21.8328 15.564 16.631L15.5598 8.71727C16.6173 9.33802 17.822 9.66367 19.0483 9.66027V6.87752C18.3273 6.63402 17.704 6.16465 17.2708 5.53902C16.6351 5.12086 16.1633 4.49596 15.9353 3.77002H12.916L12.914 17.4765C12.9113 19.3923 9.71652 20.0745 8.90552 18.2153C6.87452 17.2443 7.33377 13.554 10.0363 13.5138L10.032 10.939Z" fill="white"/>
</g>
<defs>
<clipPath id="clip0_29_236">
<rect width="25" height="25" fill="white" transform="translate(0 0.5)"/>
</clipPath>
</defs>
</svg>
