<svg width="20" height="18" viewBox="0 0 20 18" fill="none" xmlns="http://www.w3.org/2000/svg">
<path d="M15.0997 9.59214V9.59297L18.0415 6.80738L18.4332 7.20491V17.0076C18.4332 17.5285 18.0169 17.9506 17.504 17.9506H16.0289C15.5159 17.9506 15.0997 17.5285 15.0997 17.0076V9.59214ZM10.0019 12.7769L10.5902 13.3736L13.335 10.986V17.0076C13.335 17.5285 12.9191 17.9506 12.4058 17.9506H10.9307C10.4181 17.9506 10.0019 17.5285 10.0019 17.0076V12.7769ZM4.90405 10.9856L6.47206 9.79173L8.23717 11.3835V17.0072C8.23717 17.528 7.82089 17.9497 7.30795 17.9497H5.83286C5.31991 17.9497 4.90363 17.5276 4.90363 17.0072V10.986L4.90405 10.9856ZM14.315 0.0411377H20.0012V6.01067L18.0407 3.8222L10.5902 10.3889L6.47206 6.80738L0.00166677 12.3786V9.99091L6.47206 4.41932L10.5894 8.00079L16.6681 2.62796L14.315 0.0411377ZM0 15.5496L3.33937 12.5869V17.0159C3.33937 17.5368 2.92351 17.9585 2.41015 17.9585H0.929223C0.416692 17.9589 0 17.5364 0 17.0159V15.5496Z" fill="#2C69FF"/>
</svg>
