<svg width="25" height="26" viewBox="0 0 25 26" fill="none" xmlns="http://www.w3.org/2000/svg">
<g id="Frame 131">
<rect y="0.5" width="25" height="25" rx="4" fill="#FC9027"/>
<g id="Group 11">
<path id="Vector" d="M16.1976 15.5645C15.8111 15.7094 15.5503 15.8737 15.5696 16.0669L15.5503 18.1054C15.5503 18.1054 15.5503 18.6561 16.1879 18.5499L17.3473 18.2697V17.7093L16.2845 17.8929L16.2556 16.2891C16.2556 16.2891 17.0864 16.0862 19.1056 15.7191L19.3568 15.6611L19.3665 18.5885C19.3665 18.5885 19.2602 19.2551 18.5646 19.487L14.4392 20.4435C14.4392 20.4435 13.3185 20.656 11.8307 20.0377L12.9321 18.5016L12.9901 18.4243L13.0287 18.2793V18.2214L13.0384 16.8785V16.7335L12.9901 16.6369L12.9321 16.5596L12.8355 16.463L10.7196 14.3472L10.7003 14.3279L10.681 14.3086L10.6617 14.2892V14.1057L10.71 13.9704C10.71 13.9704 10.9322 13.6323 11.2897 13.555L11.3766 13.5357L11.4056 13.526C12.5456 13.4584 18.9124 12.5405 19.3568 13.8448L19.3762 14.9559L16.1976 15.5645Z" fill="white"/>
<path id="Vector_2" d="M9.76319 14.4921C9.64725 14.4149 9.51199 14.3569 9.36708 14.3376L5.99529 13.9028C5.52189 13.8448 5.04848 14.0767 5.04848 14.5791L5.00018 19.3228C4.99052 19.8252 5.37697 20.3855 5.84071 20.5208L9.34775 21.5159C9.55064 21.5062 9.75353 21.4676 9.93709 21.3903L12.3621 18.318L12.3717 17.1007L9.76319 14.4921ZM9.34775 19.5933C9.34775 19.8928 9.11588 20.086 8.82604 20.0281L6.65226 19.5643C6.36242 19.5064 6.13055 19.2069 6.13055 18.9074V15.6612C6.13055 15.3617 6.36242 15.1684 6.65226 15.2264L8.82604 15.6901C9.11588 15.7481 9.34775 16.0476 9.34775 16.3471V19.5933ZM16.9222 6.08684C15.9561 6.08684 15.0962 6.5699 14.5359 7.31382C14.0528 5.40089 12.4297 4 10.4974 4C8.1884 4 6.30445 6.01921 6.30445 8.52148C6.30445 10.6663 7.68601 12.4536 9.54098 12.927L16.9222 12.6082C18.6033 12.6082 19.9752 11.1493 19.9752 9.35235C19.9752 7.55535 18.6129 6.08684 16.9222 6.08684ZM11.1641 10.9754C10.0337 10.9754 9.10622 9.90304 9.10622 8.57945C9.10622 7.25585 10.024 6.18345 11.1641 6.18345C12.3041 6.18345 13.2219 7.25585 13.2219 8.57945C13.2219 9.90304 12.3041 10.9754 11.1641 10.9754ZM17.4053 10.9271C16.642 10.9271 16.0237 10.2122 16.0237 9.32336C16.0237 8.43453 16.642 7.71959 17.4053 7.71959C18.1685 7.71959 18.7868 8.43453 18.7868 9.32336C18.7868 10.2122 18.1685 10.9271 17.4053 10.9271Z" fill="white"/>
</g>
</g>
</svg>
