<svg width="25" height="26" viewBox="0 0 25 26" fill="none" xmlns="http://www.w3.org/2000/svg">
<g id="Frame 131">
<rect y="0.5" width="25" height="25" rx="4" fill="#FFCF00"/>
<path id="Vector" d="M4.81453 9.0302C4.81453 9.04484 4.81453 9.05674 4.82217 9.05674C4.82981 9.05674 4.83649 9.07047 4.84509 9.08786C4.85368 9.10525 4.86514 9.11897 4.86992 9.11897C4.87469 9.11897 4.87947 9.12721 4.87947 9.13728C4.87981 9.14854 4.88381 9.15942 4.89093 9.1684C4.91862 9.1986 4.92626 9.20866 4.92626 9.2169C4.92626 9.21933 4.92727 9.22166 4.92906 9.22337C4.93085 9.22509 4.93328 9.22605 4.93581 9.22605C4.94059 9.22605 4.94536 9.23429 4.94536 9.24436C4.94514 9.24888 4.94617 9.25338 4.94835 9.2574C4.95053 9.26142 4.95378 9.26481 4.95778 9.26724C4.96946 9.2766 4.97808 9.28899 4.98261 9.30293C4.98929 9.32032 4.99789 9.33405 5.00171 9.33405C5.00553 9.33405 5.01126 9.34411 5.01412 9.35692C5.01699 9.36974 5.02367 9.3798 5.0294 9.3798C5.03513 9.3798 5.03895 9.38621 5.03895 9.39353C5.03895 9.40085 5.03895 9.40726 5.0485 9.40726C5.05805 9.40726 5.05805 9.41458 5.05805 9.42465C5.05809 9.42922 5.05944 9.4337 5.06197 9.43757C5.0645 9.44145 5.06811 9.44458 5.07238 9.44661C5.07681 9.44895 5.08048 9.4524 5.08301 9.4566C5.08553 9.46079 5.08681 9.46557 5.08671 9.47041C5.08671 9.48048 5.08671 9.48871 5.09626 9.48871C5.10581 9.48871 5.10581 9.49512 5.10581 9.50244C5.10581 9.50608 5.10731 9.50957 5.11 9.51215C5.11269 9.51472 5.11633 9.51617 5.12013 9.51617C5.12873 9.51617 5.13446 9.52441 5.13446 9.53905C5.13446 9.55369 5.13446 9.56193 5.14401 9.56193C5.15356 9.56193 5.15356 9.56742 5.15356 9.57383C5.15806 9.58781 5.16629 9.60043 5.17743 9.61043C5.18567 9.6193 5.19215 9.62953 5.19653 9.64063C5.20397 9.66466 5.21779 9.68642 5.23664 9.70378C5.23664 9.70378 5.24333 9.71019 5.24333 9.71751C5.24333 9.72483 5.24333 9.73124 5.25288 9.73124C5.26243 9.73124 5.26243 9.73673 5.26243 9.74405C5.26243 9.75137 5.29299 9.81178 5.30254 9.81178C5.31209 9.81178 5.30922 9.81818 5.30922 9.8255C5.30922 9.83282 5.30922 9.83923 5.31877 9.83923C5.32832 9.83923 5.32832 9.84747 5.32832 9.85754C5.3281 9.86206 5.32913 9.86656 5.33131 9.87058C5.33349 9.8746 5.33674 9.87799 5.34074 9.88041C5.35242 9.88978 5.36104 9.90217 5.36557 9.91611C5.37225 9.9335 5.38371 9.94722 5.3904 9.94722C5.39708 9.94722 5.40281 9.95729 5.40281 9.9701C5.40281 9.98292 5.40281 9.99298 5.41236 9.99298C5.42192 9.99298 5.42192 9.99939 5.42192 10.0067C5.42192 10.014 5.42192 10.0204 5.43147 10.0204C5.434 10.0204 5.43643 10.0214 5.43822 10.0231C5.44001 10.0248 5.44102 10.0272 5.44102 10.0296C5.44102 10.0351 5.06378 10.0387 4.32842 10.0387H3.21583V10.5009C3.21583 10.9146 3.21583 10.964 3.23111 10.9686C3.24639 10.9732 4.09922 10.9741 5.14114 10.9741H7.03589V11.5049H5.38085C3.99799 11.5049 3.7239 11.5049 3.71435 11.5168C3.70091 11.6689 3.69708 11.8218 3.70289 11.9744V12.4228H7.03589V12.9719H3.06112V13.9036H12.1433V12.9793H8.17235V12.4301H11.5092V11.9854C11.5092 11.5818 11.5092 11.5397 11.4958 11.5278C11.4824 11.5159 11.4204 11.5113 9.82453 11.5113H8.17235V10.9805H11.9829L11.9886 10.9512V10.0488H10.8884C9.91908 10.0488 9.78824 10.0488 9.78824 10.0333C9.78824 10.0177 9.78824 10.0195 9.79779 10.0195C9.80032 10.0195 9.80275 10.0186 9.80454 10.0168C9.80633 10.0151 9.80734 10.0128 9.80734 10.0104C9.81262 9.99592 9.82072 9.98257 9.83121 9.97102C9.84259 9.95833 9.85076 9.9433 9.85509 9.92709C9.85509 9.91885 9.85509 9.91245 9.86464 9.91245C9.86602 9.91233 9.86737 9.91196 9.86859 9.91134C9.86982 9.91073 9.87091 9.90988 9.8718 9.90886C9.87269 9.90784 9.87336 9.90666 9.87377 9.90539C9.87418 9.90412 9.87432 9.90279 9.87419 9.90146C9.87888 9.88783 9.88709 9.87555 9.89807 9.86577C9.91037 9.85407 9.91869 9.83907 9.92194 9.82276C9.92194 9.81269 9.92194 9.80445 9.93149 9.80445C9.94104 9.80445 9.94773 9.79073 9.95632 9.77334C9.96492 9.75595 9.9716 9.73215 9.9716 9.73215C9.9716 9.73215 9.97924 9.72209 9.97924 9.70927C9.97924 9.69646 9.98497 9.68639 9.99166 9.68639C9.99834 9.68639 10.0098 9.67267 10.0165 9.65528C10.0209 9.6413 10.0296 9.62888 10.0413 9.61959C10.0453 9.61716 10.0486 9.61377 10.0507 9.60975C10.0529 9.60573 10.054 9.60123 10.0537 9.59671C10.0537 9.58664 10.0537 9.5784 10.0633 9.5784C10.0728 9.5784 10.0728 9.572 10.0728 9.56467C10.0728 9.55735 10.0728 9.55095 10.0824 9.55095C10.0919 9.55095 10.0919 9.54545 10.0919 9.53813C10.0934 9.52875 10.0985 9.52025 10.1063 9.51434C10.1147 9.50702 10.1198 9.49684 10.1206 9.48597C10.1206 9.47682 10.1206 9.46949 10.1301 9.46949C10.1397 9.46949 10.1397 9.46309 10.1397 9.45577C10.1397 9.44844 10.1397 9.44204 10.1483 9.44204C10.1569 9.44204 10.1865 9.3917 10.1865 9.37706C10.1919 9.36559 10.2 9.35554 10.2104 9.34777C10.2221 9.33863 10.2305 9.32612 10.2342 9.31208C10.2342 9.30384 10.2342 9.29744 10.2438 9.29744C10.2533 9.29744 10.2581 9.29012 10.2581 9.27456C10.2581 9.259 10.2677 9.25168 10.2724 9.25168C10.2772 9.25168 10.281 9.24527 10.281 9.23795C10.281 9.23063 10.281 9.22422 10.2906 9.22422C10.3001 9.22422 10.3001 9.21599 10.3001 9.20683C10.3005 9.2021 10.302 9.19751 10.3045 9.19339C10.307 9.18927 10.3104 9.18574 10.3145 9.18304C10.3253 9.17347 10.334 9.16197 10.3402 9.14918C10.3473 9.13548 10.3559 9.12258 10.366 9.11074C10.3719 9.10551 10.3762 9.09887 10.3784 9.09152C10.3784 9.0842 10.3784 9.07871 10.3851 9.07871C10.3918 9.07871 10.4157 9.03478 10.4157 9.0183C10.4157 9.00183 9.41292 9 9.40337 9.02929C9.40337 9.03478 9.39 9.03844 9.37758 9.03844C9.36517 9.03844 9.35466 9.03844 9.35466 9.04759C9.35466 9.05674 9.34607 9.05674 9.33556 9.05674C9.33049 9.05654 9.32546 9.05772 9.32106 9.06015C9.31667 9.06258 9.31308 9.06616 9.31073 9.07047C9.30861 9.07457 9.30535 9.07802 9.3013 9.08044C9.29725 9.08287 9.29258 9.08417 9.28781 9.0842C9.22647 9.12264 9.17252 9.17094 9.12832 9.22697C9.12846 9.22817 9.12834 9.22939 9.12798 9.23055C9.12761 9.2317 9.12702 9.23278 9.12622 9.23372C9.12542 9.23466 9.12443 9.23543 9.12332 9.236C9.12221 9.23657 9.12099 9.23692 9.11973 9.23703C9.11495 9.23703 9.10349 9.25259 9.09394 9.2709C9.0827 9.29674 9.0665 9.32033 9.04619 9.34045C9.03908 9.34942 9.03507 9.3603 9.03473 9.37157C9.03473 9.38164 9.03473 9.38987 9.02709 9.38987C9.01945 9.38987 9.01086 9.4036 9.00131 9.42099C8.99176 9.43838 8.9803 9.4521 8.97648 9.4521C8.97266 9.4521 8.96884 9.46217 8.96884 9.47498C8.96884 9.4878 8.96311 9.49786 8.95451 9.49786C8.95071 9.49786 8.94707 9.49931 8.94438 9.50189C8.9417 9.50446 8.94019 9.50795 8.94019 9.51159C8.94019 9.51891 8.94019 9.52532 8.93064 9.52532C8.92109 9.52532 8.92109 9.53356 8.92109 9.54362C8.92109 9.55369 8.92109 9.56193 8.91249 9.56193C8.9039 9.56193 8.90103 9.57108 8.89721 9.58115C8.89171 9.59495 8.88362 9.60767 8.87333 9.61867C8.86409 9.62799 8.85809 9.63981 8.85614 9.65253C8.85587 9.65681 8.8544 9.66095 8.85188 9.66449C8.84935 9.66803 8.84588 9.67086 8.84182 9.67267C8.83718 9.67468 8.83321 9.67788 8.83035 9.68192C8.82748 9.68595 8.82583 9.69067 8.82558 9.69555C8.82558 9.70561 8.82558 9.71385 8.81603 9.71385C8.81478 9.71385 8.81354 9.71409 8.81238 9.71455C8.81122 9.71501 8.81017 9.71568 8.80928 9.71653C8.80839 9.71738 8.80769 9.71839 8.80721 9.7195C8.80673 9.72061 8.80648 9.7218 8.80648 9.723C8.80497 9.73124 8.80099 9.73887 8.79502 9.74497C8.76637 9.77608 8.75969 9.78523 8.75969 9.79805C8.75538 9.81238 8.74713 9.82534 8.73581 9.83557C8.72467 9.84558 8.71644 9.85819 8.71194 9.87218C8.71194 9.87858 8.71194 9.88408 8.7043 9.88408C8.69666 9.88408 8.68042 9.91062 8.66896 9.9399C8.66896 9.94814 8.65941 9.95546 8.65464 9.95546C8.64986 9.95546 8.64604 9.9637 8.64604 9.97376C8.64604 9.98383 8.64604 9.99207 8.6384 9.99207C8.63076 9.99207 8.62599 10.0021 8.62026 10.0149L8.60975 10.0378H7.6089C6.7618 10.0378 6.60422 10.0378 6.60422 10.025C6.60296 10.016 6.59818 10.0079 6.59085 10.0021C6.57904 9.98998 6.56937 9.97607 6.5622 9.96095C6.55361 9.94356 6.5431 9.92984 6.53833 9.92984C6.53355 9.92984 6.53355 9.9216 6.53355 9.91519C6.53355 9.90879 6.53355 9.89689 6.524 9.89689C6.51445 9.89689 6.51445 9.89048 6.51445 9.88316C6.51445 9.87584 6.51445 9.86943 6.50586 9.86943C6.49726 9.86943 6.4944 9.85937 6.49153 9.84655C6.48867 9.83374 6.47816 9.82367 6.47339 9.82367C6.46861 9.82367 6.46384 9.81544 6.46384 9.80537C6.46384 9.7953 6.46384 9.78707 6.45428 9.78707C6.44473 9.78707 6.44474 9.78066 6.44474 9.77334C6.44474 9.7697 6.44323 9.7662 6.44054 9.76363C6.43785 9.76106 6.43421 9.75961 6.43041 9.75961C6.42181 9.75961 6.41608 9.75137 6.41608 9.73673C6.41608 9.72209 6.41608 9.71385 6.40653 9.71385C6.39698 9.71385 6.39698 9.70836 6.39698 9.70195C6.39244 9.68799 6.38422 9.67538 6.37311 9.66534C6.36097 9.65389 6.35266 9.63924 6.34923 9.62325C6.34923 9.61318 6.34923 9.60586 6.33968 9.60586C6.3383 9.60574 6.33696 9.60537 6.33573 9.60475C6.3345 9.60414 6.33341 9.60329 6.33252 9.60227C6.33163 9.60125 6.33097 9.60007 6.33056 9.5988C6.33015 9.59753 6.33 9.5962 6.33013 9.59487C6.32544 9.58124 6.31723 9.56896 6.30626 9.55918C6.29475 9.54873 6.28649 9.53542 6.28238 9.52074C6.28204 9.5166 6.28053 9.51261 6.27801 9.50923C6.27548 9.50584 6.27204 9.50318 6.26806 9.50153C6.26378 9.49949 6.26018 9.49636 6.25765 9.49249C6.25512 9.48861 6.25377 9.48413 6.25373 9.47956C6.25373 9.47041 6.25373 9.46217 6.24705 9.46217C6.24036 9.46217 6.23463 9.45027 6.22699 9.43472C6.22088 9.42093 6.21285 9.408 6.20312 9.39628C6.19208 9.38243 6.18278 9.36737 6.17542 9.35143C6.16683 9.33313 6.15441 9.31757 6.14964 9.31757C6.14486 9.31757 6.14104 9.30933 6.14104 9.29927C6.14104 9.2892 6.14104 9.28096 6.13149 9.28096C6.12194 9.28096 6.12194 9.27547 6.12194 9.26815C6.12148 9.26426 6.11989 9.26058 6.11736 9.2575C6.11483 9.25443 6.11145 9.2521 6.10761 9.25076C6.1037 9.24927 6.1003 9.24677 6.09777 9.24354C6.09524 9.24031 6.09369 9.23648 6.09329 9.23246C6.05489 9.17781 6.00672 9.1301 5.95099 9.09152C5.93798 9.08547 5.92631 9.07708 5.91661 9.06681C5.91341 9.06329 5.90944 9.06048 5.90499 9.05858C5.90053 9.05669 5.8957 9.05574 5.89083 9.05583C5.88032 9.05583 5.87268 9.05583 5.87268 9.04667C5.87268 9.03752 5.86218 9.03752 5.84976 9.03752C5.83735 9.03752 5.82589 9.03752 5.82398 9.02837C5.81634 9.00824 5.72274 9 5.27866 9H4.81453V9.0302ZM13.4479 13.576V17.9991H17.3768C21.1061 17.9991 21.3067 17.9991 21.3181 17.9808C21.3241 17.9751 21.3313 17.9707 21.3392 17.968C21.3471 17.9653 21.3556 17.9644 21.364 17.9652C21.3831 17.9652 21.3983 17.9652 21.3983 17.9561C21.3983 17.9469 21.4079 17.9469 21.4184 17.9469C21.4289 17.9469 21.5139 17.9195 21.5139 17.9094C21.5139 17.8993 21.5196 17.9021 21.5273 17.9021C21.5349 17.9021 21.5979 17.8728 21.5979 17.8636C21.5979 17.8545 21.5979 17.8572 21.6084 17.8572C21.617 17.8558 21.625 17.852 21.6314 17.8462C21.66 17.8215 21.6724 17.8124 21.6791 17.8124C21.7412 17.7632 21.7964 17.7066 21.8434 17.644C21.851 17.6275 21.8615 17.6147 21.8663 17.6147C21.8711 17.6147 21.8825 17.601 21.8892 17.5836C21.8959 17.5662 21.9045 17.5525 21.9083 17.5525C21.9184 17.5413 21.9259 17.5282 21.9303 17.514C21.9389 17.493 21.9503 17.4692 21.9561 17.46C21.9613 17.4491 21.9642 17.4373 21.9647 17.4253C21.965 17.4193 21.9666 17.4134 21.9694 17.4081C21.9721 17.4027 21.9761 17.398 21.9809 17.3941C21.9962 17.3832 21.9971 17.1745 22 13.2666V9.14826H13.4479V13.576ZM20.9476 13.4844C20.9476 16.3435 20.9476 16.7142 20.9333 16.7242C20.9248 16.7315 20.9197 16.7417 20.9189 16.7526C20.9189 16.7617 20.9189 16.7691 20.9094 16.7691C20.907 16.7691 20.9047 16.7699 20.9029 16.7714C20.9012 16.7729 20.9001 16.775 20.8998 16.7773C20.8998 16.7947 20.8282 16.8523 20.7852 16.8688C20.7684 16.8739 20.753 16.8827 20.7403 16.8944C20.7403 16.8944 19.3422 16.9018 17.6337 16.9018H14.527V10.2538H20.9476V13.4844ZM18.4999 10.5339C18.4841 10.7104 18.4802 10.8877 18.4884 11.0647V11.5845H14.8135V12.529L14.8345 12.5427C14.8527 12.5546 15.0532 12.5564 16.4313 12.561H18.0071L17.9889 12.5811C17.9824 12.5896 17.9739 12.5965 17.9641 12.6013C17.9536 12.6013 17.9307 12.626 17.9307 12.637C17.9302 12.64 17.9286 12.6427 17.9261 12.6445C17.9236 12.6464 17.9205 12.6473 17.9173 12.647C17.913 12.6469 17.9087 12.6482 17.9053 12.6507C17.9018 12.6532 17.8993 12.6567 17.8982 12.6608C17.8833 12.6762 17.867 12.6902 17.8495 12.7029C17.8164 12.7291 17.7846 12.7559 17.754 12.7834C17.691 12.8401 17.6776 12.8511 17.67 12.8511C17.6556 12.8596 17.6428 12.8701 17.6318 12.8822C17.6208 12.8941 17.6082 12.9045 17.5945 12.9134C17.5859 12.9134 17.563 12.939 17.563 12.9491C17.563 12.9504 17.5627 12.9517 17.5622 12.9529C17.5617 12.9541 17.5609 12.9552 17.5599 12.9562C17.559 12.9571 17.5578 12.9578 17.5565 12.9584C17.5552 12.9589 17.5539 12.9591 17.5525 12.9591C17.5442 12.9606 17.5365 12.9644 17.5305 12.9701C17.518 12.9805 17.505 12.9903 17.4914 12.9994C17.4653 13.019 17.4404 13.0401 17.4169 13.0625C17.3899 13.0877 17.3615 13.1116 17.3319 13.1339C17.3051 13.1541 17.2795 13.1758 17.2555 13.1989C17.2414 13.2144 17.2246 13.2274 17.2058 13.2373C17.2001 13.2373 17.1963 13.2428 17.1963 13.2502C17.1963 13.2575 17.1839 13.2675 17.1686 13.2739C17.1512 13.2815 17.1359 13.2928 17.1237 13.3069C17.1141 13.3188 17.1036 13.3289 17.0989 13.3289C17.0941 13.3289 17.0645 13.3527 17.0645 13.3646C17.0645 13.367 17.0635 13.3693 17.0617 13.371C17.0599 13.3727 17.0575 13.3737 17.0549 13.3737C17.0429 13.3779 17.0321 13.3848 17.0234 13.3938C17.011 13.4048 16.9871 13.424 16.9699 13.4369C16.9433 13.4572 16.9178 13.4789 16.8935 13.5018C16.8784 13.5173 16.8622 13.5317 16.8448 13.5448C16.8154 13.564 16.7879 13.5857 16.7627 13.6098C16.7531 13.6194 16.7422 13.6277 16.7302 13.6345C16.7216 13.6345 16.6987 13.6602 16.6987 13.6702C16.6989 13.6715 16.6987 13.6728 16.6983 13.674C16.6979 13.6752 16.6972 13.6763 16.6963 13.6773C16.6954 13.6782 16.6943 13.679 16.6931 13.6795C16.6918 13.68 16.6905 13.6803 16.6892 13.6803C16.6768 13.6844 16.6657 13.6913 16.6567 13.7004C16.6233 13.7306 16.6061 13.7434 16.6004 13.7434C16.575 13.7629 16.551 13.784 16.5287 13.8066C16.5063 13.8298 16.4817 13.8509 16.4552 13.8697C16.4346 13.8825 16.4157 13.8975 16.3988 13.9146C16.3824 13.931 16.3645 13.946 16.3454 13.9594C16.3368 13.9594 16.3138 13.9851 16.3138 13.9951C16.3134 13.9977 16.312 14 16.3099 14.0017C16.3078 14.0034 16.3051 14.0043 16.3024 14.0043C16.2882 14.0088 16.2754 14.0167 16.2651 14.0272C16.256 14.0364 16.2454 14.0441 16.2336 14.05C16.2241 14.05 16.2012 14.0747 16.2012 14.0857C16.2013 14.087 16.2011 14.0883 16.2007 14.0895C16.2003 14.0907 16.1996 14.0918 16.1987 14.0928C16.1978 14.0937 16.1967 14.0945 16.1955 14.095C16.1943 14.0955 16.1929 14.0958 16.1916 14.0958C16.1736 14.1048 16.1574 14.1169 16.1439 14.1315C16.1309 14.1452 16.1162 14.1572 16.0999 14.1672C16.0744 14.1847 16.0504 14.2043 16.0283 14.2257C16.0061 14.2475 15.9818 14.2671 15.9557 14.2843C15.9557 14.2843 15.9481 14.2907 15.9481 14.298C15.9482 14.2997 15.948 14.3014 15.9474 14.303C15.9469 14.3046 15.946 14.3061 15.9448 14.3074C15.9437 14.3087 15.9423 14.3097 15.9407 14.3105C15.9391 14.3112 15.9374 14.3117 15.9357 14.3118C15.9232 14.3118 15.8936 14.3347 15.8211 14.4033C15.7937 14.4271 15.7657 14.4503 15.737 14.4728C15.7084 14.4954 15.6765 14.5217 15.6415 14.5516C15.6259 14.5682 15.6079 14.5827 15.588 14.5946C15.588 14.5946 15.5775 14.601 15.5747 14.6083C15.5718 14.6156 15.5651 14.622 15.5594 14.622C15.5433 14.6295 15.529 14.6401 15.5174 14.6531C15.5063 14.6653 15.4934 14.6757 15.4792 14.6843C15.4696 14.6843 15.4457 14.709 15.4457 14.72C15.4459 14.7212 15.4457 14.7225 15.4453 14.7237C15.4449 14.725 15.4442 14.7261 15.4433 14.727C15.4424 14.728 15.4413 14.7287 15.4401 14.7292C15.4389 14.7298 15.4375 14.73 15.4362 14.73C15.4095 14.7427 15.3855 14.7601 15.3655 14.7813C15.3596 14.787 15.3519 14.7908 15.3436 14.7923C15.333 14.7923 15.3283 16.1156 15.3436 16.1257C15.3588 16.1358 15.3942 16.1138 15.3942 16.1037C15.3943 16.1026 15.3946 16.1016 15.3952 16.1006C15.3957 16.0997 15.3965 16.0988 15.3973 16.0981C15.3982 16.0975 15.3993 16.097 15.4004 16.0967C15.4014 16.0964 15.4026 16.0963 15.4037 16.0964C15.4375 16.0757 15.4661 16.0482 15.4878 16.0159C15.4878 16.0113 15.4944 16.0067 15.5021 16.0067C15.5097 16.0067 15.5164 16.0067 15.5164 15.9985C15.5164 15.9902 15.525 15.9875 15.5346 15.9847C15.5606 15.9696 15.5844 15.9511 15.6052 15.9298C15.623 15.912 15.6421 15.8954 15.6625 15.8804C15.6739 15.8736 15.6842 15.8653 15.6931 15.8557C15.7242 15.8241 15.7592 15.7961 15.7972 15.7724C15.7972 15.7724 15.8039 15.766 15.8039 15.7587C15.8036 15.7571 15.8037 15.7555 15.804 15.754C15.8044 15.7524 15.8051 15.751 15.8061 15.7497C15.8071 15.7484 15.8083 15.7474 15.8097 15.7465C15.8112 15.7457 15.8127 15.7452 15.8144 15.745C15.8245 15.7425 15.8335 15.7371 15.8402 15.7294C15.8599 15.7113 15.8806 15.6942 15.9022 15.6782C15.9353 15.6525 15.9672 15.6257 15.9977 15.5976C16.0579 15.5418 16.0732 15.5299 16.0808 15.5299C16.0948 15.5214 16.1074 15.5109 16.1181 15.4988C16.1293 15.4857 16.1433 15.4751 16.1591 15.4677C16.1618 15.4674 16.1642 15.4663 16.166 15.4644C16.1677 15.4625 16.1687 15.4601 16.1687 15.4576C16.1711 15.449 16.1758 15.4412 16.1823 15.435C16.1888 15.4287 16.197 15.4242 16.2059 15.4219C16.2117 15.4219 16.2164 15.4219 16.2164 15.4155C16.2282 15.4018 16.2424 15.3904 16.2585 15.3816C16.2814 15.367 16.3005 15.3496 16.3005 15.3432C16.3005 15.3404 16.3015 15.3378 16.3035 15.3357C16.3054 15.3337 16.3081 15.3324 16.311 15.3322C16.3305 15.3218 16.348 15.3082 16.3626 15.2919C16.3769 15.2762 16.3936 15.2626 16.4122 15.2517C16.4333 15.2392 16.4525 15.2241 16.4695 15.2068C16.4864 15.1898 16.5053 15.1747 16.5259 15.162C16.5259 15.162 16.5383 15.1519 16.5459 15.1391C16.5536 15.1263 16.5622 15.1162 16.5669 15.1162C16.574 15.1149 16.5806 15.1117 16.586 15.1071C16.6347 15.0677 16.6548 15.0531 16.6605 15.0531C16.6662 15.0531 16.6672 15.0467 16.6672 15.0394C16.6672 15.032 16.6672 15.0256 16.6768 15.0256C16.6944 15.0172 16.7103 15.0057 16.7235 14.9918C16.7522 14.9635 16.7843 14.9386 16.8191 14.9176C16.8357 14.9057 16.851 14.8922 16.8649 14.8774C16.8792 14.8612 16.8963 14.8476 16.9155 14.8371C16.9212 14.8371 16.9251 14.8307 16.9251 14.8234C16.9251 14.8197 16.9266 14.8162 16.9293 14.8137C16.9319 14.8111 16.9356 14.8096 16.9394 14.8096C16.947 14.8096 16.9518 14.8096 16.948 14.8005C16.9442 14.7913 16.948 14.7913 16.9566 14.7913C16.971 14.7873 16.984 14.7794 16.9938 14.7685C17.0024 14.7587 17.0132 14.7509 17.0253 14.7456C17.0253 14.7456 17.0397 14.7355 17.0463 14.7227C17.053 14.7099 17.0626 14.6998 17.0674 14.6998C17.0759 14.6971 17.0835 14.6924 17.0897 14.6862C17.0959 14.68 17.1003 14.6724 17.1027 14.6641C17.1032 14.6614 17.1047 14.6589 17.107 14.6572C17.1093 14.6555 17.1122 14.6547 17.1151 14.655C17.1297 14.6506 17.1428 14.6427 17.1533 14.6321C17.1623 14.6231 17.1726 14.6154 17.1839 14.6092C17.2057 14.5927 17.2261 14.5747 17.245 14.5552C17.264 14.5352 17.2851 14.5171 17.308 14.5012C17.3274 14.4899 17.3454 14.4764 17.3615 14.461C17.3778 14.4454 17.3961 14.4319 17.4159 14.4207C17.4159 14.4207 17.4236 14.4143 17.4236 14.407C17.4233 14.4037 17.4243 14.4005 17.4265 14.3979C17.4286 14.3954 17.4317 14.3937 17.435 14.3932C17.4417 14.3932 17.4551 14.3832 17.4646 14.3703C17.4742 14.3575 17.4866 14.3475 17.4914 14.3475C17.5038 14.3426 17.5146 14.3347 17.5229 14.3246C17.5305 14.3153 17.5399 14.3076 17.5506 14.3017C17.5672 14.2907 17.5822 14.2778 17.5955 14.2633C17.6195 14.2401 17.645 14.2184 17.6719 14.1983C17.7052 14.1738 17.7371 14.1475 17.7674 14.1196C17.7857 14.1004 17.8062 14.0832 17.8285 14.0683C17.8407 14.0627 17.8517 14.055 17.861 14.0455C17.8701 14.0362 17.8807 14.0285 17.8925 14.0226C17.902 14.0226 17.925 13.9979 17.925 13.9869C17.9252 13.9845 17.9262 13.9823 17.928 13.9806C17.9297 13.979 17.932 13.9779 17.9345 13.9777C17.9434 13.9755 17.9516 13.9709 17.9581 13.9647C17.9647 13.9584 17.9694 13.9506 17.9718 13.942C17.9716 13.9408 17.9718 13.9395 17.9722 13.9383C17.9726 13.937 17.9733 13.9359 17.9742 13.935C17.9751 13.934 17.9762 13.9333 17.9774 13.9327C17.9786 13.9322 17.98 13.932 17.9813 13.932C17.9918 13.932 18.0042 13.9228 18.0424 13.889C18.0506 13.8806 18.0603 13.8738 18.0711 13.8688C18.0932 13.8527 18.1136 13.8346 18.1322 13.8148C18.1475 13.7944 18.1651 13.7757 18.1847 13.759C18.2379 13.7213 18.2878 13.6793 18.3337 13.6336C18.3441 13.6229 18.356 13.6137 18.369 13.6062C18.3991 13.5882 18.4264 13.5663 18.4502 13.5412C18.4592 13.5313 18.4698 13.5229 18.4817 13.5165C18.4817 13.5165 18.4875 13.9841 18.4875 14.5552C18.4875 15.2416 18.4875 15.594 18.4779 15.594C18.4684 15.594 18.4684 15.6013 18.4684 15.6095C18.4684 15.6571 18.4626 15.6571 17.754 15.6571C17.244 15.6571 17.0941 15.6571 17.0798 15.6681C17.0654 15.6791 17.0607 15.6882 17.0607 16.1449V16.6107H18.0319C18.6737 16.6107 19.0032 16.6107 19.0032 16.6016C19.0032 16.5924 19.0194 16.5924 19.0395 16.5924C19.0566 16.5935 19.0735 16.5886 19.0872 16.5787C19.0964 16.57 19.1087 16.5651 19.1216 16.565C19.134 16.565 19.1436 16.565 19.1436 16.5558C19.1436 16.5467 19.1521 16.5467 19.1627 16.5467C19.1744 16.5464 19.1858 16.5425 19.1951 16.5357C19.2238 16.511 19.2362 16.5018 19.2429 16.5018C19.3084 16.4481 19.3664 16.3866 19.4157 16.3188C19.4157 16.3096 19.4157 16.3023 19.4253 16.3023C19.4348 16.3023 19.4367 16.2923 19.4406 16.2794C19.4444 16.2666 19.4501 16.2566 19.4549 16.2566C19.4597 16.2566 19.4635 16.2465 19.4635 16.2337C19.4635 16.2209 19.4635 16.2108 19.473 16.2108C19.4826 16.2108 19.4826 16.1934 19.4826 16.1714C19.4826 16.1495 19.4826 16.1303 19.4969 16.1266C19.5112 16.1229 19.5112 15.9152 19.5112 14.3401V12.5692H20.0842C20.577 12.5692 20.6573 12.5692 20.6573 12.5537C20.6573 12.5381 20.6658 12.3487 20.6658 12.0659V11.5845H19.5112V10.5284H19.0137C18.844 10.5195 18.6739 10.5223 18.5047 10.5366M6.98909 14.1626C6.99319 14.2004 6.98995 14.2385 6.97954 14.2752C6.97381 14.2752 6.96999 14.3063 6.96999 14.3502C6.96999 14.3941 6.96999 14.428 6.95567 14.4372C6.94134 14.4463 6.94134 14.4646 6.94134 14.4976C6.94375 14.5191 6.93907 14.5409 6.92797 14.5598C6.91651 14.5708 6.64147 14.5726 4.98929 14.5726H3.0659L3.06112 14.5927V15.5482H6.51063L6.49917 15.5683C6.48964 15.5835 6.47878 15.5979 6.4667 15.6113C6.45756 15.6202 6.45041 15.6308 6.44569 15.6425C6.44086 15.6532 6.43331 15.6627 6.42372 15.6699C6.40914 15.684 6.39719 15.7004 6.38839 15.7184C6.38075 15.734 6.3712 15.7477 6.36738 15.7477C6.35214 15.7534 6.33981 15.7646 6.333 15.7788C6.32683 15.7901 6.31876 15.8003 6.30912 15.809C6.299 15.8181 6.29088 15.829 6.28525 15.8411C6.28229 15.8487 6.27758 15.8557 6.27147 15.8614C6.26535 15.8671 6.25799 15.8714 6.24991 15.874C6.24991 15.874 6.23559 15.8841 6.2289 15.8969C6.22222 15.9097 6.21171 15.9198 6.20503 15.9198C6.19834 15.9198 6.18879 15.9298 6.18211 15.9417C6.1738 15.9554 6.16196 15.9667 6.14773 15.9747C6.13531 15.9811 6.12481 15.9902 6.12481 15.9939C6.12481 15.9976 6.10093 16.0278 6.09233 16.0278C6.08374 16.0278 6.07514 16.0369 6.01402 16.0909C6.0032 16.1019 5.99063 16.1112 5.97678 16.1184C5.97678 16.1184 5.96245 16.1284 5.95195 16.1412C5.94491 16.1521 5.93408 16.1602 5.92139 16.1641C5.90717 16.1682 5.89432 16.1757 5.88414 16.1861C5.86929 16.1991 5.85295 16.2105 5.83544 16.22C5.81271 16.2306 5.79179 16.2445 5.77336 16.2611C5.767 16.2669 5.75903 16.2707 5.75044 16.2721C5.74791 16.2721 5.74548 16.2731 5.74369 16.2748C5.7419 16.2765 5.74089 16.2788 5.74089 16.2813C5.74089 16.2858 5.7342 16.2904 5.72561 16.2904C5.7087 16.2946 5.69301 16.3024 5.67977 16.3133C5.66772 16.3234 5.65378 16.3311 5.6387 16.3362C5.63617 16.3362 5.63374 16.3371 5.63195 16.3389C5.63016 16.3406 5.62915 16.3429 5.62915 16.3453C5.62915 16.3499 5.62056 16.3545 5.61005 16.3545C5.605 16.3544 5.60002 16.3556 5.59564 16.358C5.59126 16.3605 5.58766 16.364 5.58522 16.3682C5.58232 16.3727 5.57821 16.3763 5.57334 16.3787C5.56847 16.3811 5.563 16.3822 5.55753 16.3819C5.54511 16.3819 5.53461 16.3819 5.53461 16.3911C5.53461 16.4002 5.52601 16.4002 5.51551 16.4002C5.51045 16.4001 5.50547 16.4014 5.50109 16.4038C5.49672 16.4062 5.49311 16.4097 5.49068 16.414C5.48777 16.4184 5.48367 16.4221 5.47879 16.4245C5.47392 16.4269 5.46846 16.428 5.46298 16.4277C5.45057 16.4277 5.44006 16.4277 5.44006 16.4369C5.44006 16.446 5.42956 16.446 5.41714 16.446C5.41197 16.4456 5.40678 16.4463 5.40186 16.4478C5.39694 16.4494 5.3924 16.4519 5.38849 16.4552C5.38555 16.4581 5.38199 16.4605 5.37804 16.4621C5.37409 16.4636 5.36985 16.4644 5.36557 16.4643C5.35375 16.4653 5.34264 16.4702 5.33405 16.478C5.32635 16.4855 5.31627 16.4903 5.3054 16.4918C5.29441 16.4924 5.28367 16.4952 5.27389 16.5C5.26018 16.5062 5.24576 16.5108 5.23091 16.5137C5.21659 16.5137 5.20704 16.5229 5.2099 16.5275C5.21277 16.532 5.20131 16.5366 5.18316 16.5366C5.16972 16.5355 5.15626 16.5387 5.14496 16.5458C5.13537 16.5526 5.12347 16.5559 5.11154 16.5549C5.09339 16.5549 5.08384 16.5549 5.08384 16.5686C5.08384 16.5824 5.07429 16.5824 5.05137 16.5824C5.02845 16.5824 5.0189 16.5824 5.0189 16.5915C5.0189 16.6007 5.00171 16.6007 4.98165 16.6007C4.9616 16.6007 4.94441 16.6007 4.94441 16.6098C4.94441 16.619 4.93295 16.619 4.91767 16.619C4.90176 16.6192 4.88622 16.6236 4.87278 16.6318C4.85814 16.6405 4.84131 16.6452 4.82408 16.6455C4.80689 16.6455 4.79352 16.6455 4.79352 16.6547C4.79352 16.6638 4.77824 16.6638 4.76009 16.6638C4.74195 16.6638 4.72476 16.6684 4.72189 16.6775C4.71903 16.6867 4.70374 16.6913 4.67987 16.6913C4.65599 16.6913 4.64358 16.6913 4.64358 16.7004C4.64358 16.7096 4.62639 16.7096 4.60538 16.7096C4.58437 16.7096 4.56527 16.7142 4.5624 16.7233C4.55954 16.7325 4.5433 16.737 4.51561 16.737C4.48791 16.737 4.47454 16.737 4.47454 16.7462C4.47454 16.7553 4.45831 16.7553 4.4373 16.7553C4.42232 16.7539 4.40724 16.7571 4.39432 16.7645C4.3817 16.7718 4.36697 16.775 4.3523 16.7736C4.33434 16.773 4.31662 16.7778 4.30168 16.7874C4.28458 16.7976 4.26452 16.8024 4.24438 16.8011C4.22051 16.8011 4.20141 16.8011 4.20141 16.8102C4.20141 16.8194 4.18326 16.8194 4.16034 16.8194C4.14167 16.8176 4.12297 16.8225 4.10782 16.8331C4.10018 16.8423 4.07917 16.8469 4.04574 16.8469C4.01231 16.8469 3.99512 16.8469 3.99512 16.856C3.99512 16.8652 3.97029 16.8652 3.94069 16.8652C3.91932 16.8639 3.89789 16.8667 3.87766 16.8734C3.8553 16.8812 3.83172 16.8852 3.80794 16.8853C3.77356 16.8853 3.74587 16.8935 3.74396 16.8999C3.74205 16.9063 3.71626 16.9109 3.67233 16.9109C3.64656 16.9094 3.62071 16.9122 3.59593 16.9192C3.5648 16.9272 3.53268 16.9313 3.50043 16.9311C3.46795 16.9293 3.43545 16.934 3.40493 16.9448C3.35541 16.9572 3.30418 16.9621 3.25308 16.9594C3.17286 16.9594 3.08309 16.9667 3.05348 16.9695L3 16.9622V18L3.1805 17.9936C3.24823 17.9965 3.31605 17.9903 3.38201 17.9753C3.41601 17.9639 3.45213 17.9596 3.48801 17.9625C3.51663 17.9652 3.54554 17.9624 3.57301 17.9542C3.5959 17.9448 3.6207 17.9405 3.64559 17.9414C3.72068 17.9404 3.79526 17.9293 3.86715 17.9085C3.88912 17.9007 3.91257 17.8976 3.93591 17.8993C3.9577 17.9012 3.97963 17.8981 3.9999 17.8902C4.0172 17.8825 4.03631 17.8793 4.05529 17.881C4.08776 17.881 4.10877 17.8764 4.11737 17.8673C4.12596 17.8581 4.14602 17.8536 4.17944 17.8536C4.19843 17.8553 4.21754 17.8521 4.23483 17.8444C4.25051 17.837 4.26802 17.8338 4.28545 17.8353C4.30567 17.8377 4.32613 17.8328 4.34275 17.8215C4.35967 17.8101 4.38048 17.8052 4.40101 17.8078C4.42966 17.8078 4.44494 17.8078 4.44112 17.7987C4.4373 17.7895 4.45449 17.7895 4.48696 17.7895C4.50615 17.7911 4.52546 17.7882 4.5433 17.7813C4.55956 17.7731 4.57749 17.7684 4.59583 17.7675C4.62161 17.7675 4.64262 17.7575 4.64262 17.7529C4.64262 17.7483 4.66172 17.7447 4.68464 17.7447C4.70116 17.7463 4.71781 17.7431 4.7324 17.7355C4.74334 17.7284 4.7565 17.7252 4.76964 17.7264C4.78607 17.7267 4.80217 17.7219 4.81548 17.7126C4.82944 17.7033 4.84619 17.6984 4.86323 17.6989C4.88138 17.6989 4.89666 17.6989 4.89666 17.6897C4.89666 17.6806 4.91289 17.6806 4.93295 17.6806C4.95007 17.6816 4.96701 17.6768 4.9807 17.6669C4.99284 17.6575 5.00809 17.6526 5.02367 17.6531C5.04086 17.6531 5.05519 17.6531 5.05519 17.644C5.05519 17.6348 5.06665 17.6348 5.08002 17.6348C5.12062 17.6313 5.16015 17.6204 5.19653 17.6028C5.21364 17.5952 5.23213 17.5909 5.25097 17.59C5.26625 17.59 5.27866 17.59 5.27866 17.5808C5.27866 17.5717 5.29108 17.5717 5.30731 17.5717C5.32355 17.5717 5.33787 17.5662 5.34074 17.558C5.3436 17.5497 5.35793 17.5442 5.37703 17.5442C5.39018 17.5455 5.40336 17.5422 5.41427 17.5351C5.42222 17.5286 5.4325 17.5253 5.44293 17.5259C5.46585 17.5259 5.47158 17.5259 5.52983 17.4957C5.54534 17.488 5.56216 17.4831 5.57949 17.4811C5.58904 17.4811 5.59764 17.4811 5.59764 17.4719C5.59764 17.4628 5.61005 17.4628 5.62533 17.4628C5.63176 17.4633 5.63824 17.4625 5.64433 17.4604C5.65042 17.4584 5.65598 17.4551 5.66067 17.4509C5.66735 17.4399 5.68645 17.4335 5.75044 17.4207C5.76477 17.4207 5.77623 17.4097 5.77623 17.4033C5.77623 17.3969 5.78578 17.3905 5.79915 17.3905C5.80432 17.3909 5.80951 17.3902 5.81443 17.3887C5.81935 17.3871 5.82389 17.3846 5.8278 17.3813C5.83036 17.3784 5.83358 17.3761 5.83722 17.3745C5.84085 17.3729 5.84481 17.3721 5.84881 17.3722C5.88076 17.3674 5.91078 17.3544 5.93571 17.3347C5.93571 17.3347 5.94622 17.3273 5.95959 17.3273C5.97296 17.3273 5.98346 17.3273 5.98346 17.3182C5.98346 17.309 5.99397 17.309 6.00734 17.309C6.0131 17.3095 6.01888 17.3084 6.02409 17.306C6.02929 17.3036 6.03373 17.2999 6.03694 17.2953C6.03961 17.2911 6.0434 17.2875 6.04793 17.2851C6.05245 17.2827 6.05755 17.2815 6.06273 17.2816C6.08015 17.2789 6.09677 17.2727 6.11143 17.2633C6.1249 17.2548 6.13893 17.2471 6.15346 17.2404C6.19062 17.2268 6.22565 17.2083 6.25755 17.1855C6.26486 17.1783 6.27477 17.174 6.28525 17.1736C6.2948 17.1736 6.30244 17.1736 6.30244 17.1653C6.30244 17.1571 6.31294 17.1544 6.32631 17.1516C6.33968 17.1489 6.35019 17.1425 6.35019 17.137C6.35019 17.1315 6.35783 17.1278 6.36738 17.1278C6.38097 17.1261 6.39366 17.1203 6.40367 17.1113C6.41515 17.1015 6.42842 17.0937 6.44282 17.0885C6.45428 17.0885 6.46288 17.0784 6.46288 17.0738C6.46288 17.0692 6.47052 17.0656 6.47912 17.0656C6.48771 17.0656 6.53355 17.0537 6.53355 17.0372C6.53355 17.0207 6.54215 17.0272 6.55361 17.0272C6.56993 17.0243 6.58476 17.0163 6.59563 17.0043C6.60496 16.9932 6.61764 16.9852 6.63192 16.9814C6.63956 16.9814 6.64624 16.9814 6.64624 16.9722C6.64624 16.971 6.64651 16.9697 6.64705 16.9685C6.64759 16.9673 6.64838 16.9663 6.64937 16.9654C6.65036 16.9646 6.65153 16.9639 6.6528 16.9635C6.65407 16.9631 6.65542 16.963 6.65675 16.9631C6.66534 16.9616 6.6733 16.9578 6.67967 16.9521C6.70832 16.9274 6.72073 16.9182 6.72742 16.9182C6.7381 16.9124 6.74751 16.9046 6.75511 16.8954C6.76354 16.885 6.77477 16.8771 6.78758 16.8725C6.80387 16.8653 6.81824 16.8547 6.82961 16.8414C6.84059 16.8288 6.85385 16.8183 6.86876 16.8102C6.88139 16.8048 6.89276 16.7971 6.90219 16.7874C6.9113 16.7781 6.92195 16.7704 6.9337 16.7645C6.94325 16.7645 6.96617 16.7398 6.96617 16.7288C6.96604 16.7275 6.96619 16.7262 6.96661 16.725C6.96703 16.7238 6.96771 16.7227 6.96861 16.7217C6.96951 16.7208 6.97061 16.72 6.97183 16.7195C6.97306 16.719 6.97438 16.7187 6.97572 16.7187C7.09036 16.6312 7.19417 16.5314 7.28515 16.4213C7.28538 16.419 7.28649 16.4169 7.28826 16.4154C7.29003 16.4139 7.29232 16.413 7.2947 16.4131C7.30616 16.4131 7.33194 16.3902 7.33194 16.3801C7.33194 16.37 7.34245 16.3655 7.35486 16.3563C7.36957 16.3447 7.38133 16.3299 7.38924 16.3133C7.39593 16.2987 7.40643 16.2868 7.41407 16.2868C7.42171 16.2868 7.42744 16.2868 7.42744 16.2776C7.43264 16.2647 7.4408 16.2532 7.45132 16.2437C7.46184 16.2343 7.47 16.2228 7.47519 16.2099C7.47519 16.2044 7.48379 16.1943 7.4943 16.1879C7.5048 16.1815 7.5134 16.1714 7.5134 16.1678C7.52361 16.1479 7.5361 16.1292 7.55064 16.112C7.56416 16.0948 7.57539 16.076 7.58407 16.0561C7.58405 16.0539 7.58493 16.0517 7.58652 16.05C7.58811 16.0483 7.5903 16.0472 7.59266 16.047C7.59744 16.047 7.60317 16.0406 7.60412 16.0323C7.60508 16.0241 7.63277 16.0323 7.67288 16.0872C7.68759 16.1068 7.70387 16.1251 7.72159 16.1422C7.73066 16.1488 7.73815 16.1572 7.74355 16.1669C7.74511 16.1734 7.7484 16.1794 7.7531 16.1843L7.78175 16.2172C7.80276 16.2419 7.93074 16.3764 7.97276 16.4158C7.98288 16.4246 7.99157 16.4348 7.99854 16.446C8.05593 16.5069 8.11716 16.5644 8.1819 16.6181C8.21756 16.6473 8.25226 16.6779 8.286 16.7096C8.30625 16.7296 8.32795 16.7483 8.35094 16.7654C8.36223 16.7716 8.37252 16.7793 8.3815 16.7883C8.39093 16.798 8.4023 16.8058 8.41493 16.8112C8.42321 16.8141 8.43065 16.8188 8.43663 16.825C8.44261 16.8312 8.44696 16.8387 8.44931 16.8469C8.44931 16.8523 8.45599 16.8569 8.46363 16.8569C8.47127 16.8569 8.47796 16.8569 8.47796 16.8661C8.47796 16.8752 8.48369 16.8752 8.49133 16.8752C8.49539 16.8757 8.49923 16.8772 8.50244 16.8796C8.50564 16.882 8.50808 16.8853 8.50947 16.889C8.51087 16.8926 8.51331 16.8959 8.51651 16.8983C8.51972 16.9007 8.52356 16.9022 8.52762 16.9027C8.53836 16.9054 8.5476 16.9119 8.55341 16.921C8.55921 16.9301 8.56845 16.9366 8.57919 16.9393C8.58588 16.9393 8.59161 16.9393 8.59161 16.9475C8.59161 16.9558 8.60593 16.9631 8.62408 16.9713C8.64222 16.9796 8.65655 16.9905 8.65655 16.9969C8.65655 17.0034 8.66992 17.0134 8.68711 17.0198C8.70317 17.0289 8.71767 17.0403 8.73008 17.0537C8.73803 17.0633 8.74861 17.0706 8.76064 17.0747C8.77407 17.0797 8.78615 17.0875 8.79598 17.0976C8.80642 17.1083 8.81959 17.1162 8.83418 17.1205C8.84826 17.1247 8.86083 17.1327 8.87047 17.1434C8.88033 17.1543 8.89326 17.1622 8.90772 17.1663C8.91536 17.1663 8.92109 17.1663 8.92109 17.1754C8.92109 17.1846 8.92777 17.1846 8.93541 17.1846C8.94305 17.1846 8.94974 17.1846 8.94974 17.191C8.94974 17.1974 9.00417 17.2294 9.02041 17.2294C9.03664 17.2294 9.03378 17.2294 9.03378 17.2386C9.03378 17.2477 9.04046 17.2477 9.0481 17.2477C9.05574 17.2477 9.06243 17.2477 9.06243 17.2541C9.06243 17.2605 9.11686 17.2926 9.1331 17.2926C9.14933 17.2926 9.14647 17.2926 9.14647 17.3017C9.14647 17.3109 9.15697 17.3127 9.17034 17.3164C9.18371 17.32 9.19422 17.3255 9.19422 17.3301C9.19422 17.3347 9.20281 17.3383 9.21236 17.3383C9.21672 17.338 9.2211 17.3386 9.22521 17.34C9.22932 17.3414 9.23307 17.3437 9.23624 17.3466C9.27087 17.3705 9.30923 17.389 9.34989 17.4015C9.35364 17.4021 9.35713 17.4038 9.35999 17.4062C9.36285 17.4086 9.36497 17.4117 9.36612 17.4152C9.37062 17.4186 9.376 17.4209 9.38171 17.4217C9.38742 17.4225 9.39324 17.4218 9.39859 17.4198C9.41196 17.4198 9.42247 17.4198 9.42247 17.4289C9.42247 17.4381 9.43297 17.4381 9.44539 17.4381C9.45087 17.4378 9.45633 17.4389 9.4612 17.4413C9.46607 17.4437 9.47018 17.4473 9.47308 17.4518C9.47552 17.456 9.47913 17.4596 9.4835 17.462C9.48788 17.4644 9.49286 17.4656 9.49791 17.4655C9.50842 17.4655 9.51701 17.4655 9.51701 17.4747C9.51701 17.4838 9.52752 17.4838 9.54089 17.4838C9.55426 17.4838 9.56476 17.4838 9.56476 17.4912C9.59272 17.5113 9.62561 17.5242 9.66027 17.5287C9.66886 17.5287 9.6765 17.5287 9.6765 17.5378C9.6765 17.547 9.6851 17.547 9.6956 17.547C9.70806 17.5477 9.71986 17.5526 9.72903 17.5607C9.73941 17.5693 9.75257 17.5741 9.76627 17.5744C9.77869 17.5744 9.78919 17.5744 9.78919 17.5836C9.78919 17.5927 9.79779 17.5927 9.80925 17.5927C9.82663 17.5945 9.84349 17.5995 9.85891 17.6074C9.91526 17.6358 9.92099 17.6376 9.94391 17.6376C9.94908 17.6372 9.95427 17.6378 9.95919 17.6394C9.96411 17.641 9.96865 17.6435 9.97256 17.6467C9.9838 17.6539 9.9973 17.6572 10.0108 17.6559C10.0337 17.6559 10.0432 17.6559 10.0432 17.6696C10.0432 17.6833 10.0528 17.6833 10.0757 17.6833C10.0986 17.6833 10.1082 17.6833 10.1082 17.6925C10.1082 17.7016 10.1225 17.7016 10.1406 17.7016C10.1588 17.7016 10.1741 17.7016 10.176 17.7117C10.1779 17.7218 10.2237 17.7328 10.2963 17.7437C10.3104 17.7447 10.324 17.7495 10.3355 17.7575C10.3505 17.766 10.3676 17.7707 10.3851 17.7712C10.409 17.7712 10.4281 17.7794 10.4281 17.784C10.4281 17.7886 10.4472 17.7923 10.4701 17.7923C10.493 17.7923 10.5121 17.7923 10.5121 17.8014C10.5121 17.8106 10.5331 17.8106 10.5589 17.8106C10.5847 17.8106 10.6076 17.8106 10.6115 17.8243C10.6153 17.838 10.6296 17.838 10.6573 17.838C10.6735 17.8364 10.6899 17.8396 10.7041 17.8472C10.7211 17.8548 10.7399 17.858 10.7585 17.8563C10.7817 17.8555 10.8046 17.8602 10.8254 17.87C10.8449 17.8794 10.8666 17.8838 10.8884 17.8829C10.9058 17.8814 10.9234 17.8846 10.939 17.892C10.9599 17.9 10.9825 17.9032 11.0049 17.9012C11.0431 17.9012 11.066 17.9012 11.068 17.9121C11.0699 17.9231 11.0985 17.924 11.1415 17.9268C11.1681 17.9267 11.1945 17.9307 11.2198 17.9387C11.2478 17.9458 11.2768 17.9486 11.3058 17.9469C11.3338 17.9448 11.362 17.9479 11.3888 17.9561C11.4244 17.9647 11.4611 17.9678 11.4977 17.9652C11.5712 17.9652 11.6047 17.9652 11.6133 17.9771C11.8177 17.9957 12.0231 18.0021 12.2283 17.9963C12.234 17.9963 12.2369 17.8051 12.2369 17.4921V16.9915H12.0554C11.9055 16.9915 11.8711 16.9915 11.8644 16.9777C11.8578 16.964 11.8253 16.9622 11.7384 16.9622C11.7009 16.966 11.6629 16.9629 11.6266 16.953C11.6266 16.9475 11.5951 16.9439 11.5512 16.9439C11.5073 16.9439 11.4719 16.9439 11.4614 16.9301C11.4509 16.9164 11.428 16.9164 11.3869 16.9164C11.3459 16.9164 11.3268 16.9164 11.3268 16.9073C11.3268 16.8981 11.3019 16.8981 11.2714 16.8981C11.2408 16.8981 11.2141 16.8981 11.2122 16.888C11.2103 16.878 11.1845 16.8761 11.1549 16.8734C11.1253 16.8707 11.1014 16.8652 11.1014 16.8615C11.1014 16.8578 11.0804 16.8533 11.0546 16.8533C11.0288 16.8533 11.0078 16.8533 11.0078 16.8441C11.0078 16.835 10.9868 16.835 10.962 16.835C10.9417 16.8374 10.9213 16.8325 10.9046 16.8212C10.891 16.8113 10.874 16.8065 10.8569 16.8075C10.8368 16.8075 10.8206 16.8075 10.8206 16.7984C10.8206 16.7892 10.8034 16.7892 10.7824 16.7892C10.7638 16.7901 10.7454 16.7853 10.7299 16.7755C10.7149 16.766 10.6972 16.7612 10.6793 16.7617C10.6592 16.7617 10.642 16.7617 10.642 16.7526C10.642 16.7434 10.6267 16.7434 10.6095 16.7434C10.5924 16.7434 10.5771 16.7434 10.5771 16.7343C10.5771 16.7251 10.5589 16.7251 10.536 16.7251C10.5131 16.7251 10.493 16.7251 10.4892 16.7114C10.4854 16.6977 10.4711 16.6977 10.451 16.6977C10.431 16.6977 10.4176 16.6977 10.4176 16.6885C10.4176 16.6794 10.4042 16.6794 10.3889 16.6794C10.3734 16.6795 10.3583 16.6747 10.346 16.6656C10.3358 16.6573 10.323 16.6524 10.3097 16.6519C10.3047 16.6522 10.2996 16.6516 10.2949 16.65C10.2901 16.6484 10.2857 16.646 10.282 16.6428C10.2707 16.6356 10.2572 16.6323 10.2438 16.6336C10.2256 16.6336 10.2113 16.6336 10.2113 16.6254C10.2113 16.6171 10.196 16.6144 10.1779 16.6107C10.1641 16.6094 10.151 16.6046 10.1397 16.597C10.1287 16.5928 10.1165 16.5925 10.1053 16.5961C10.09 16.5961 10.0776 16.5961 10.0776 16.5869C10.0776 16.5778 10.0633 16.5778 10.0461 16.5778C10.0289 16.5778 10.0117 16.5723 10.0088 16.5641C10.006 16.5558 9.99166 16.5503 9.97542 16.5503C9.96348 16.5513 9.95158 16.5481 9.942 16.5412C9.93826 16.5379 9.93389 16.5355 9.92913 16.5339C9.92437 16.5323 9.91932 16.5317 9.9143 16.532C9.90173 16.5318 9.88975 16.5268 9.88087 16.5183C9.87171 16.5096 9.85938 16.5047 9.84649 16.5046C9.83408 16.5046 9.82453 16.5046 9.82453 16.4954C9.82453 16.4863 9.81498 16.4863 9.80352 16.4863C9.78942 16.4851 9.7759 16.4804 9.76436 16.4725C9.75399 16.4653 9.74179 16.4609 9.72903 16.4597C9.71948 16.4597 9.71184 16.4597 9.71184 16.4506C9.71184 16.4414 9.70324 16.4414 9.69369 16.4414C9.68926 16.4416 9.68485 16.4409 9.68074 16.4393C9.67662 16.4377 9.6729 16.4353 9.66982 16.4323C9.66692 16.4293 9.66336 16.4269 9.65941 16.4253C9.65545 16.4237 9.65118 16.423 9.6469 16.4231C9.64212 16.4231 9.63746 16.4218 9.63341 16.4194C9.62936 16.4169 9.6261 16.4135 9.62398 16.4094C9.62162 16.4051 9.61804 16.4015 9.61364 16.3991C9.60925 16.3966 9.60422 16.3955 9.59915 16.3957C9.58864 16.3957 9.58005 16.3957 9.58005 16.3865C9.58005 16.3774 9.57145 16.3774 9.56095 16.3774C9.55622 16.3776 9.55153 16.3766 9.54733 16.3745C9.54314 16.3724 9.5396 16.3693 9.53707 16.3655C9.52733 16.3542 9.51439 16.346 9.49982 16.3417C9.48168 16.3353 9.46735 16.327 9.46735 16.3243C9.45665 16.3148 9.44395 16.3076 9.43011 16.3032C9.4091 16.2941 9.39286 16.284 9.39286 16.2794C9.39286 16.2749 9.38618 16.2712 9.37854 16.2712C9.36426 16.2674 9.35158 16.2594 9.34225 16.2483C9.33364 16.2378 9.32203 16.2298 9.30882 16.2254C9.29564 16.221 9.28404 16.2131 9.2754 16.2026C9.26717 16.1924 9.2563 16.1845 9.24388 16.1797C9.24135 16.1797 9.23892 16.1787 9.23713 16.177C9.23534 16.1753 9.23433 16.173 9.23433 16.1705C9.23433 16.166 9.22764 16.1614 9.22001 16.1614C9.21564 16.1612 9.21144 16.1597 9.20789 16.1573C9.20434 16.1549 9.20158 16.1515 9.19995 16.1477C9.19995 16.1403 9.1904 16.1339 9.18562 16.1339C9.17022 16.1262 9.15658 16.1156 9.14551 16.1028C9.13485 16.0907 9.12229 16.0802 9.10827 16.0717C9.10158 16.0717 9.08535 16.0598 9.05097 16.0287C9.04125 16.02 9.02944 16.0137 9.01659 16.0104C9.01525 16.0104 9.01392 16.0101 9.0127 16.0096C9.01147 16.0091 9.01037 16.0083 9.00947 16.0074C9.00857 16.0064 9.00789 16.0053 9.00747 16.0041C9.00705 16.0029 9.0069 16.0016 9.00704 16.0003C9.00475 15.9917 9.00008 15.9838 8.99353 15.9776C8.98697 15.9713 8.97877 15.9668 8.96979 15.9646C8.96846 15.9647 8.96711 15.9646 8.96584 15.9642C8.96457 15.9638 8.9634 15.9631 8.96241 15.9623C8.96142 15.9614 8.96063 15.9604 8.96009 15.9592C8.95955 15.958 8.95928 15.9567 8.95929 15.9555C8.93127 15.9169 8.89635 15.8835 8.85614 15.8566C8.85361 15.8566 8.85118 15.8557 8.84939 15.8539C8.8476 15.8522 8.84659 15.8499 8.84659 15.8475C8.83242 15.8254 8.81506 15.8054 8.79502 15.788C8.77018 15.7646 8.74749 15.7392 8.72722 15.712C8.71862 15.6974 8.70621 15.6864 8.69952 15.6864C8.69663 15.6867 8.69373 15.6859 8.69143 15.6842C8.68912 15.6825 8.68758 15.68 8.68711 15.6772C8.68003 15.6621 8.66998 15.6485 8.6575 15.637C8.64033 15.6187 8.62468 15.5991 8.61071 15.5784L8.59352 15.5519H12.1433V14.5717H8.1437V14.4912C8.1437 14.4344 8.1437 14.4106 8.15803 14.3996C8.17236 14.3887 8.17235 14.3548 8.17235 14.2166V14.05H6.98909V14.1626Z" fill="black"/>
</g>
</svg>
