<svg width="20" height="20" viewBox="0 0 20 20" fill="none" xmlns="http://www.w3.org/2000/svg">
<path d="M14.068 7.55005C11.012 7.55005 8.53601 10.028 8.53601 13.082C8.53601 16.136 11.014 18.614 14.068 18.614C17.122 18.614 19.6 16.138 19.6 13.082C19.6 10.026 17.122 7.55005 14.068 7.55005ZM14.068 17.916C11.398 17.916 9.23401 15.752 9.23401 13.082C9.23401 10.412 11.398 8.24805 14.068 8.24805C16.738 8.24805 18.902 10.412 18.902 13.082C18.902 15.752 16.736 17.916 14.068 17.916Z" fill="#2C69FF"/>
<path d="M14.0679 8.48206C11.5259 8.48206 9.46594 10.5421 9.46594 13.0841C9.46594 15.6261 11.5259 17.6861 14.0679 17.6861C16.6099 17.6861 18.6699 15.6261 18.6699 13.0841C18.6699 10.5421 16.6079 8.48206 14.0679 8.48206ZM14.2999 15.2621V16.0201H13.7399V15.3001C13.2399 15.2881 12.7699 15.1641 12.4839 15.0101L12.6939 14.4661C12.9799 14.6141 13.4159 14.7561 13.8739 14.7561C14.4679 14.7561 14.7839 14.4661 14.7839 14.1001C14.7839 13.7281 14.5059 13.5001 13.8219 13.2521C13.0779 12.9741 12.5479 12.6521 12.5479 12.0401C12.5479 11.4401 12.9799 10.9881 13.7999 10.8661V10.1001H14.3799V10.8281C14.8599 10.8401 15.2139 10.9521 15.4539 11.0621L15.2459 11.5881C15.0359 11.4961 14.6839 11.3601 14.2259 11.3601C13.6699 11.3601 13.3919 11.6621 13.3919 11.9421C13.3919 12.2881 13.7299 12.4741 14.3619 12.7281C15.2199 13.0441 15.6279 13.3841 15.6279 14.0261C15.6299 14.6321 15.1599 15.1381 14.2999 15.2621Z" fill="#2C69FF"/>
<path d="M11.7 1.73C11.7 1.538 11.544 1.38 11.35 1.38H2.33002C2.13602 1.38 1.98002 1.536 1.98002 1.73V5.072C1.98002 5.264 2.13602 5.42201 2.33002 5.42201H11.352C11.544 5.42201 11.702 5.266 11.702 5.072V1.73H11.7ZM7.51603 13.42C7.52203 12.04 7.90002 10.8 8.55202 9.74H2.61602C2.39402 9.74 2.22002 9.926 2.22002 10.148V13.016C2.22002 13.238 2.39402 13.42 2.61602 13.42H7.51603ZM10.544 5.64001H0.760024C0.568024 5.64001 0.400024 5.79801 0.400024 5.992V9.02C0.400024 9.212 0.566024 9.36 0.760024 9.36H8.80002C9.35602 8.56 10.06 7.906 10.88 7.396V5.992C10.88 5.79801 10.736 5.64001 10.544 5.64001ZM1.57402 14C1.38202 14 1.24002 14.184 1.24002 14.378V17.29C1.24002 17.482 1.38202 17.62 1.57402 17.62H8.88403C8.13002 16.62 7.64802 15.38 7.53802 14H1.57402Z" fill="#2C69FF"/>
</svg>
