<svg width="25" height="26" viewBox="0 0 25 26" fill="none" xmlns="http://www.w3.org/2000/svg">
<g id="Frame 131">
<rect y="0.5" width="25" height="25" rx="4" fill="#5992E6"/>
<path id="Vector" d="M12.4796 4.01718C15.4107 3.84391 17.5639 5.00597 19.099 6.39441C20.5654 7.72069 21.8722 9.81693 21.9892 12.4774C22.1208 15.4704 21.0358 17.5452 19.6118 19.0964C18.2201 20.6124 16.2191 21.8433 13.5284 21.9863C10.6903 22.1372 8.44486 21.0188 6.909 19.6091C5.35449 18.1822 4.193 16.2793 4.01884 13.5261C3.83487 10.6181 5.02614 8.40936 6.37293 6.93045C7.42143 5.77908 8.73327 4.86046 10.5217 4.34344C11.1306 4.16747 11.8341 4.05533 12.4796 4.01718ZM10.0323 5.602C8.42558 6.42086 7.18896 7.50666 6.27973 9.14456C5.68023 10.2245 5.1943 11.8258 5.27751 13.5728C5.30407 14.1305 5.29753 14.7392 5.44066 15.2508C5.65748 16.0259 6.23923 16.9401 6.67596 17.5814C7.60213 18.9415 8.92184 20.2769 10.9646 20.4248C11.9365 20.4952 13.0949 20.3041 13.9247 19.8422C14.6907 19.4158 15.4484 18.1168 14.9503 16.9289C14.7594 16.4738 14.2131 16.0518 13.7849 15.7402C12.8155 15.0351 11.7747 14.6595 10.7315 14.0855C10.1053 13.7409 9.43224 13.3683 9.03008 12.9202C8.2132 12.0098 7.5225 10.4542 7.91132 8.79497C8.16643 7.70633 8.76726 6.86699 9.42631 6.20796C9.66519 5.9691 9.93374 5.7943 10.1022 5.55539C10.0707 5.55884 10.0546 5.59061 10.0323 5.602ZM20.7306 12.4541C20.7246 11.3473 20.511 10.516 20.1479 9.77383C19.6734 8.80414 19.0658 7.92273 18.3764 7.23343C17.4345 6.29157 16.1642 5.43591 14.2976 5.55539C13.4848 5.60741 12.589 5.85737 12.0833 6.13806C11.328 6.55728 10.5983 7.8043 11.0578 9.07464C11.2282 9.54569 11.849 9.97529 12.2931 10.2866C13.3007 10.9928 14.3038 11.3762 15.3697 11.9879C15.832 12.2532 16.4431 12.5351 16.8381 12.9202C17.5042 13.5695 18.1142 14.7739 18.19 15.9034C18.3202 17.8462 17.2757 19.1653 16.302 20.0519C16.1621 20.1793 15.9765 20.2644 15.8825 20.4481C18.5817 18.986 20.7535 16.7167 20.7306 12.4541Z" fill="white"/>
</g>
</svg>
