<svg width="17" height="20" viewBox="0 0 17 20" fill="none" xmlns="http://www.w3.org/2000/svg">
<path d="M3.36024 5.00242C3.36024 7.75495 5.65057 9.98792 8.47805 10C11.2732 10.0145 13.663 7.69212 13.6481 4.97342C13.6332 2.22571 11.3354 0 8.50292 0C5.66549 0 3.36024 2.24021 3.36024 5.00242ZM10.1392 10.1257L8.52779 11.6916C8.51535 11.7037 8.49795 11.7037 8.488 11.6916L6.88651 10.1353C6.87905 10.1281 6.87159 10.1257 6.86164 10.1257C5.50385 10.3383 4.38977 10.812 3.49204 11.4886C-2.32704 15.8893 -0.623592 20 6.74476 20H9.7687C17.6642 20 19.3677 15.8797 13.5213 11.4862C12.6186 10.8096 11.502 10.3383 10.1392 10.1257ZM8.50541 18.5718L6.75471 16.8705C6.74725 16.8632 6.74476 16.8536 6.74725 16.8415L8.47557 11.7956C8.48551 11.7714 8.52033 11.7714 8.52779 11.7956L10.2561 16.8439C10.2586 16.8536 10.2561 16.8632 10.2486 16.8729L8.50541 18.5718Z" fill="#2C69FF"/>
</svg>
