<svg width="16" height="16" viewBox="0 0 16 16" fill="none" xmlns="http://www.w3.org/2000/svg">
<g id="Frame" clip-path="url(#clip0_29_273)">
<path id="Vector" d="M8.49533 7.47685L5.48221 5.18911C5.09164 4.85432 4.75684 5.02172 4.75684 5.5797V10.6016C4.75684 11.1037 5.09164 11.2711 5.48221 10.9363L8.49533 8.6486C8.83011 8.42541 8.88592 8.03482 8.71852 7.75583C8.66273 7.58844 8.60692 7.53264 8.49533 7.47685Z" fill="white"/>
<path id="Vector_2" d="M15.3027 6.47249C12.178 3.45937 8.10474 1.67383 5.64959 0.725264C4.58942 0.334673 3.41765 0.89265 3.02706 1.89702C2.97127 2.00862 2.97127 2.12021 2.91548 2.23181V2.455C5.20321 3.18039 8.8859 4.57534 11.7316 6.80727C12.3454 7.25365 12.5128 8.14643 12.0664 8.76023C11.9548 8.9276 11.8432 9.03921 11.6758 9.095C8.99749 10.9921 6.04018 12.4987 2.91547 13.5031L2.97126 13.6705C3.13867 14.7864 4.19883 15.5118 5.3148 15.3444C5.48219 15.3444 5.5938 15.2886 5.76118 15.2328C9.22068 13.8379 12.457 11.8849 15.3027 9.4298C16.1397 8.70442 16.2513 7.42105 15.5259 6.58408C15.4143 6.58408 15.3585 6.52829 15.3027 6.47249H15.3027Z" fill="white"/>
<path id="Vector_3" d="M2.97127 2.45494H2.91548C1.79949 2.12015 0.627736 2.67814 0.460336 3.62671C-0.153445 6.52822 -0.153445 9.48553 0.460336 12.3871C0.683541 13.3356 1.91112 13.9494 2.97128 13.5588H3.02707C2.3575 9.87612 2.3575 6.13763 2.97128 2.45494H2.97127Z" fill="white"/>
</g>
<defs>
<clipPath id="clip0_29_273">
<rect width="16" height="16" fill="white"/>
</clipPath>
</defs>
</svg>
