<svg width="25" height="26" viewBox="0 0 25 26" fill="none" xmlns="http://www.w3.org/2000/svg">
<g id="Frame 131">
<rect y="0.5" width="25" height="25" rx="4" fill="#FF2742"/>
<path id="Vector" d="M18.6247 11.6497H19.2126C19.2382 11.8022 19.2639 11.7006 19.2639 11.8273V12.6905H18.6247V11.6497ZM21.6676 10.4822C21.5911 10.4075 21.5398 10.4075 21.412 10.4075H21.2839C21.079 10.4075 20.8494 10.5851 20.8238 10.7627C20.7472 10.8136 20.7472 10.8136 20.7472 10.9403V11.6497H21.463C21.7445 11.6497 22 11.3199 22 10.9899C22 10.7613 21.821 10.5824 21.6676 10.4822ZM11.8992 12.9951L12.3608 12.1828L12.5658 11.6735H11.3109C11.2853 11.7753 11.2853 11.8511 11.1832 11.8511C11.1319 11.8511 11.1063 11.8005 11.1063 11.7492V11.6751C11.1063 11.6242 11.3113 11.2435 11.3622 11.1675L11.9508 10.0255L10.6717 10C10.5693 10.5094 9.57202 11.9288 9.57202 12.411V12.5129C9.57202 12.7414 9.72542 12.7669 9.85319 12.8684L10.7226 12.8939L10.2881 13.6807L10.2368 13.8074C10.2112 13.8583 10.0069 14.4166 10.0069 14.4675V14.6183C10.0069 14.9735 10.3393 14.9735 10.7244 14.9735C11.0059 14.9735 11.5938 15.0244 11.7728 14.9229L12.2853 13.933H11.5921C11.5921 13.9075 11.5412 13.857 11.5412 13.8311C11.5412 13.7041 11.8224 13.1965 11.8992 13.0949V12.9951ZM4.43213 14.0101L4.63711 11.6497H3.38366C3.20464 11.6497 3.28117 12.1591 3.28117 12.335C3.28117 12.6406 3.23026 12.8681 3.20464 13.1218C3.20464 13.4518 3.15339 13.5293 3.15339 13.858C3.15339 14.2892 3.0509 14.3673 3.02562 14.6193L3 14.7463L3.69044 16.0659C4.02285 15.8123 4.43213 14.6699 4.43213 14.0101ZM9.18837 16.4975V16.5994H9.31648L9.64889 16.65L11.1319 16.6249L11.7469 15.381C10.9796 15.381 10.4425 15.4319 9.82893 15.2791L9.18837 16.4975ZM8.57342 15.9644V15.8625H8.59905L9.0606 14.9239C9.08622 14.822 9.18837 14.7202 9.18837 14.7202C9.18837 14.6947 9.03497 14.1619 9.00935 14.0349C8.95845 13.8064 8.95845 13.4766 8.95845 13.2226C8.95845 12.7659 8.83033 12.1567 8.83033 11.6745H7.5779C7.62881 11.903 7.68039 12.6134 7.68039 12.8674C7.68039 13.2481 7.75726 13.7303 7.78288 14.111C7.83413 14.6692 8.14091 15.9131 8.52457 16.0146L8.57342 15.9644ZM5.50623 15.6092H4.68631V15.7111C4.68631 16.1933 5.09627 16.6249 5.58139 16.6249C5.99135 16.6249 6.24621 16.5739 6.42523 16.3454C6.60424 16.1933 6.75764 15.8381 6.75764 15.5335V10H5.50623V15.6092ZM15.6326 11.6751C15.7095 11.6751 15.7351 11.6497 15.7351 11.5733V10.4075H12.7687V11.6751H13.6382V15.3806H12.4633C12.3099 15.3806 11.8241 16.4215 11.7728 16.6245H16.1458V15.3806H14.8909V11.6751H15.6326ZM16.5277 11.6497C16.6302 11.6751 16.5021 11.6751 16.6302 11.6751H17.3975V12.6905H16.144V13.934H17.3972V16.6245H18.6247V13.934L20.4657 13.9846C20.5935 14.0356 20.7472 14.0865 20.7472 14.3402V15.5582H19.4941C19.4941 16.1929 19.9799 16.6245 20.6447 16.6245C21.5654 16.6245 22 16.2945 22 15.3552V14.0101C22 13.2994 21.5654 12.6905 20.9262 12.6905H20.5163V11.9543C20.5163 11.0153 20.0038 10.4061 19.1098 10.4061H18.6247V10H17.4228V10.4075H16.5287L16.5277 11.6497Z" fill="white"/>
</g>
</svg>
