<svg width="20" height="20" viewBox="0 0 20 20" fill="none" xmlns="http://www.w3.org/2000/svg">
<path d="M5.50686 1H2.12543C1.504 1 1 1.5031 1 2.1268V17.8732C1 18.4942 1.504 19 2.12543 19H5.50686C6.12829 19 6.63229 18.4951 6.63229 17.8732V2.1268C6.63229 1.504 6.12829 1 5.50686 1ZM3.25857 16.192C3.25884 16.1174 3.27356 16.0437 3.30186 15.9753C3.33015 15.9069 3.37142 15.8453 3.42314 15.7942C3.53059 15.6876 3.67304 15.6286 3.82086 15.6295C3.97514 15.6295 4.11657 15.6925 4.21943 15.7942C4.27105 15.8455 4.31216 15.9073 4.34026 15.9759C4.36835 16.0444 4.38285 16.1183 4.38285 16.1929C4.38285 16.2675 4.36835 16.3414 4.34026 16.4099C4.31216 16.4785 4.27105 16.5403 4.21943 16.5916C4.11177 16.6984 3.96897 16.7574 3.82086 16.7563C3.50971 16.7563 3.25857 16.5043 3.25857 16.1929V16.192ZM4.384 12.1123C4.38356 12.1312 4.37957 12.1498 4.37226 12.1671C4.36495 12.1844 4.35447 12.2 4.34142 12.2131C4.32837 12.2261 4.31299 12.2363 4.29618 12.2431C4.27936 12.2499 4.26144 12.2532 4.24343 12.2527H3.39914C3.36289 12.2532 3.3279 12.2388 3.30163 12.2126C3.27536 12.1863 3.25991 12.1503 3.25857 12.1123V3.385C3.2589 3.36601 3.26281 3.34728 3.27007 3.32988C3.27733 3.31249 3.28779 3.29677 3.30085 3.28364C3.31392 3.2705 3.32933 3.26021 3.3462 3.25336C3.36307 3.2465 3.38106 3.24322 3.39914 3.2437H4.24343C4.31971 3.2437 4.384 3.3067 4.384 3.385V12.1123ZM11.692 1H8.30971C7.68914 1 7.18514 1.5031 7.18514 2.1268V17.8732C7.18514 18.4942 7.68914 19 8.30971 19H11.692C12.3126 19 12.8174 18.4951 12.8174 17.8732V2.1268C12.8149 1.504 12.3126 1 11.692 1ZM9.44286 16.192C9.44286 16.0381 9.50714 15.8968 9.60743 15.7942C9.71487 15.6876 9.85732 15.6286 10.0051 15.6295C10.1594 15.6295 10.3009 15.6925 10.4029 15.7942C10.4547 15.8454 10.496 15.9072 10.5243 15.9757C10.5526 16.0443 10.5673 16.1182 10.5674 16.1929C10.5668 16.2675 10.552 16.3413 10.5237 16.4098C10.4954 16.4783 10.4543 16.5401 10.4029 16.5916C10.2954 16.6982 10.153 16.7572 10.0051 16.7563C9.694 16.7563 9.44286 16.5043 9.44286 16.1929V16.192ZM10.5657 12.1123C10.5644 12.1503 10.5489 12.1863 10.5227 12.2126C10.4964 12.2388 10.4614 12.2532 10.4251 12.2527H9.58086C9.54461 12.2532 9.50961 12.2388 9.48335 12.2126C9.45708 12.1863 9.44163 12.1503 9.44029 12.1123V3.385C9.44029 3.3085 9.50457 3.2437 9.58086 3.2437H10.4251C10.5023 3.2437 10.5657 3.3067 10.5657 3.385V12.1123ZM17.8746 1H14.4931C13.8717 1 13.3677 1.5031 13.3677 2.1268V17.8732C13.3677 18.4942 13.8717 19 14.4931 19H17.8746C18.496 19 19 18.4951 19 17.8732V2.1268C19 1.504 18.496 1 17.8746 1ZM15.6263 16.192C15.6266 16.1174 15.6413 16.0437 15.6696 15.9753C15.6979 15.9069 15.7391 15.8453 15.7909 15.7942C15.8983 15.6876 16.0408 15.6286 16.1886 15.6295C16.3429 15.6295 16.4843 15.6925 16.5871 15.7942C16.6388 15.8455 16.6799 15.9073 16.708 15.9759C16.7361 16.0444 16.7506 16.1183 16.7506 16.1929C16.7506 16.2675 16.7361 16.3414 16.708 16.4099C16.6799 16.4785 16.6388 16.5403 16.5871 16.5916C16.4795 16.6984 16.3367 16.7574 16.1886 16.7563C15.8774 16.7563 15.6263 16.5043 15.6263 16.1929V16.192ZM16.7517 12.1123C16.7513 12.1312 16.7473 12.1498 16.74 12.1671C16.7327 12.1844 16.7222 12.2 16.7091 12.2131C16.6961 12.2261 16.6807 12.2363 16.6639 12.2431C16.6471 12.2499 16.6292 12.2532 16.6111 12.2527H15.7669C15.7306 12.2532 15.6956 12.2388 15.6693 12.2126C15.6431 12.1863 15.6276 12.1503 15.6263 12.1123V3.385C15.6266 3.36601 15.6305 3.34728 15.6378 3.32988C15.645 3.31249 15.6555 3.29677 15.6686 3.28364C15.6816 3.2705 15.697 3.26021 15.7139 3.25336C15.7308 3.2465 15.7488 3.24322 15.7669 3.2437H16.6111C16.6874 3.2437 16.7517 3.3067 16.7517 3.385V12.1123Z" fill="#2C69FF"/>
</svg>
