<svg width="284" height="33" viewBox="0 0 284 33" fill="none" xmlns="http://www.w3.org/2000/svg">
<path d="M21.8242 14.4614H20.8748H15.7974H14.848H11.4631C10.2523 16.6767 8.64242 19.0572 6.49591 21.4513H12.385H13.5409C13.5409 21.4513 14.3252 19.4975 15.2058 16.5804H21.4802C22.3471 19.4975 23.1451 21.4513 23.1451 21.4513H24.356H30.1901C28.0436 19.0572 26.4337 16.6905 25.2228 14.4614H21.8242Z" fill="white"/>
<path d="M29.048 6.81082C29.791 6.59066 30.3414 5.84764 30.2726 5.0771C30.1626 4.54047 29.3232 4.44416 29.0755 4.91198C29.0067 5.29726 29.3232 5.58621 29.681 5.65501C29.0755 6.65946 27.7409 6.39803 26.8052 6.12284C25.0302 5.50365 23.5992 4.19648 21.7141 3.79745H21.7004H21.1775H19.8703H19.2099H19.1273L19.1135 3.81121L19.0998 3.99009L19.0723 4.26528L19.0585 4.37536L18.9622 4.44416L18.4944 4.81567L18.3292 4.9395L18.1641 4.81567L17.6825 4.44416L17.5862 4.37536L17.5725 4.25152L17.5312 3.81121C17.5174 3.79745 17.5174 3.79745 17.5037 3.78369H17.4624H16.8707H15.7562H14.9719H14.9581C13.073 4.18272 11.642 5.50365 9.86704 6.10908C8.91763 6.38427 7.5967 6.6457 6.99127 5.64125C7.33526 5.57245 7.65174 5.2835 7.5967 4.89822C7.33526 4.4304 6.50968 4.52671 6.39961 5.06334C6.33081 5.83388 6.88119 6.57691 7.62422 6.79706C6.71608 8.54454 5.73914 10.2645 4.85852 12.012C4.9686 13.5943 6.49592 14.9015 8.07829 14.8052C9.60561 14.7777 10.9265 13.498 11.0779 11.9845C10.156 10.292 9.3029 8.57206 8.39476 6.86586C9.41297 6.83834 10.4312 6.60442 11.3531 6.12284C12.4539 5.54493 13.417 5.7926 14.6004 6.15036H15.7699H17.3385H18.5769H19.3337C19.4988 8.00791 19.8153 9.86547 20.1868 11.6129H16.4717C16.6643 10.7048 16.8432 9.75539 16.9946 8.80597H13.8849C13.417 10.2783 12.7566 11.9569 11.8347 13.7457H14.848H15.9763H20.6821H21.8104H24.8376C23.2965 10.7598 22.4847 8.10423 22.0719 6.16411C23.2552 5.80636 24.2184 5.55869 25.3192 6.1366C26.2273 6.60442 27.2455 6.8521 28.2775 6.87962C27.3831 8.58582 26.53 10.3058 25.5943 11.9982C25.7457 13.498 27.0666 14.7914 28.594 14.8189C30.1763 14.9153 31.7036 13.6219 31.8137 12.0257C30.9331 10.2645 29.9699 8.5583 29.048 6.81082ZM10.4174 11.9982C9.67441 11.9982 8.91762 11.9982 8.1746 11.9982L7.74805 11.9845C7.03255 11.9845 6.30329 11.9845 5.58779 11.9982C6.30329 10.5259 6.97751 8.98485 7.77557 7.5676H8.21588C9.00019 9.01237 9.67441 10.5259 10.4174 11.9982ZM28.9379 11.9982L28.5114 12.012C27.7684 11.9982 27.0116 12.012 26.2686 12.012C27.0116 10.5397 27.6858 9.02613 28.4701 7.58136H28.9104L28.9242 7.65016C29.7223 9.06741 30.3827 10.5672 31.0982 12.0257C30.369 11.9845 29.6535 11.9982 28.9379 11.9982Z" fill="white"/>
<path d="M17.8063 3.79739C17.8201 3.93499 17.8339 4.14139 17.8476 4.25146L18.3292 4.62297L18.797 4.25146C18.8108 4.14139 18.8246 3.94875 18.8383 3.79739C18.8383 3.75612 18.8383 3.7286 18.8521 3.70108C19.086 3.43964 19.4437 3.17821 19.3199 2.77918C19.1685 2.13247 18.7145 1.62337 18.3292 1.11426C17.9439 1.63713 17.4761 2.13247 17.3385 2.77918C17.2284 3.17821 17.5862 3.43964 17.8201 3.70108C17.7926 3.7286 17.8063 3.75612 17.8063 3.79739Z" fill="white"/>
<path fill-rule="evenodd" clip-rule="evenodd" d="M9.01398 30.4501C11.1192 30.4226 11.9035 30.395 13.3896 29.6383C14.6142 29.0053 16.458 28.8127 17.944 29.4731C19.774 30.2987 20.7097 32.115 22.9663 32.5691C23.0351 32.5828 21.5215 32.7342 19.4713 31.6747C18.6045 31.2206 17.8202 30.7665 16.9396 30.6565C14.1739 30.3125 14.5178 32.0462 11.3944 31.5096C9.88083 31.2619 9.01398 30.4501 9.01398 30.4501Z" fill="white"/>
<path fill-rule="evenodd" clip-rule="evenodd" d="M0.9646 21.0107C0.9646 21.0107 3.40006 22.3042 4.25316 23.2673C5.10626 24.2443 5.76673 25.1386 5.76673 25.1386C4.56963 25.3175 2.65704 23.9003 2.16169 23.2811C1.33611 22.2354 0.9646 21.0107 0.9646 21.0107Z" fill="white"/>
<path fill-rule="evenodd" clip-rule="evenodd" d="M4.36322 20.8047C4.72097 21.1762 5.07872 21.6165 5.36767 22.0843C5.76671 22.731 6.09694 23.5429 6.15198 24.3134C6.16574 24.4372 6.15198 24.4923 6.15198 24.4923C5.06496 24.1345 4.44577 22.3045 4.37698 21.2175C4.36322 20.956 4.36322 20.8047 4.36322 20.8047Z" fill="white"/>
<path fill-rule="evenodd" clip-rule="evenodd" d="M0.262821 16.126C0.262821 16.126 1.77639 17.5845 2.20294 18.933C2.62949 20.2814 2.90468 21.0795 2.90468 21.0795C1.8727 20.8318 0.75817 19.043 0.551775 18.3688C0.180264 17.2405 0.262821 16.126 0.262821 16.126Z" fill="white"/>
<path fill-rule="evenodd" clip-rule="evenodd" d="M3.15229 16.4429C3.01469 16.9107 2.91837 17.4473 2.87709 17.9702C2.83581 18.6857 2.91837 19.525 3.20732 20.1717C3.2486 20.2818 3.28988 20.3231 3.28988 20.3231C4.04666 19.5113 3.74395 17.7088 3.33116 16.7731C3.23485 16.5667 3.15229 16.4429 3.15229 16.4429Z" fill="white"/>
<path fill-rule="evenodd" clip-rule="evenodd" d="M2.95968 11.5444C2.69825 11.9847 2.45057 12.4939 2.28546 13.0167C2.05154 13.7322 1.91395 14.5991 2.02402 15.3421C2.03778 15.4659 2.0653 15.5072 2.0653 15.5072C3.04224 14.9018 3.20735 13.003 3.04224 11.9435C3.01472 11.6958 2.95968 11.5444 2.95968 11.5444Z" fill="white"/>
<path fill-rule="evenodd" clip-rule="evenodd" d="M0.372871 10.292C0.372871 10.292 1.40485 12.1495 1.41861 13.5668C1.43237 14.984 1.47365 15.8234 1.47365 15.8234C0.565507 15.273 0.00136068 13.2228 0.00136068 12.5073C-0.0261587 11.324 0.372871 10.292 0.372871 10.292Z" fill="white"/>
<path fill-rule="evenodd" clip-rule="evenodd" d="M2.32671 5.49023C2.32671 5.49023 2.65695 7.32027 2.28544 8.5036C1.90017 9.68693 1.69377 10.3887 1.69377 10.3887C1.10211 9.65942 1.21218 7.81562 1.39106 7.22395C1.72129 6.23326 2.32671 5.49023 2.32671 5.49023Z" fill="white"/>
<path fill-rule="evenodd" clip-rule="evenodd" d="M4.30818 7.52637C3.93666 7.80156 3.56516 8.14555 3.24868 8.51706C2.82213 9.02617 2.40934 9.71416 2.25799 10.3746C2.23047 10.4847 2.23047 10.526 2.23047 10.526C3.24868 10.3746 4.03298 8.83354 4.25314 7.88412C4.30818 7.66396 4.30818 7.52637 4.30818 7.52637Z" fill="white"/>
<path fill-rule="evenodd" clip-rule="evenodd" d="M5.574 1.34863C5.574 1.34863 5.34008 3.09611 4.6521 4.04553C3.96411 4.98119 3.57884 5.54533 3.57884 5.54533C3.24861 4.70599 3.89532 3.08235 4.23931 2.61452C4.80345 1.83022 5.574 1.34863 5.574 1.34863Z" fill="white"/>
<path fill-rule="evenodd" clip-rule="evenodd" d="M6.75732 3.67383C6.35829 3.81142 5.91798 4.00406 5.53271 4.25173C5.00984 4.58197 4.4457 5.07731 4.12922 5.61394C4.07418 5.71026 4.06042 5.75154 4.06042 5.75154C5.0236 5.9029 6.13813 4.7746 6.5922 3.9903C6.71604 3.78391 6.75732 3.67383 6.75732 3.67383Z" fill="white"/>
<path fill-rule="evenodd" clip-rule="evenodd" d="M9.74321 0C9.17906 0.192635 8.60116 0.454069 8.05077 0.798061C7.32151 1.25213 6.55097 1.92635 6.11066 2.68314C6.0281 2.80697 6.01434 2.86201 6.01434 2.86201C7.33527 3.08217 8.87635 1.51356 9.5093 0.42655C9.67442 0.165116 9.74321 0 9.74321 0Z" fill="white"/>
<path fill-rule="evenodd" clip-rule="evenodd" d="M4.41821 26.3218C4.41821 26.3218 7.43158 26.8584 8.65619 27.6014C9.8808 28.3444 10.8715 29.0737 10.8715 29.0737C9.64689 29.6791 7.17015 28.826 6.42713 28.3169C5.18876 27.4913 4.41821 26.3218 4.41821 26.3218Z" fill="white"/>
<path fill-rule="evenodd" clip-rule="evenodd" d="M7.55548 24.1895C8.14715 24.5334 8.75257 24.9738 9.2892 25.4691C10.0185 26.1571 10.734 27.0927 11.0642 28.0559C11.1192 28.221 11.1192 28.2898 11.1192 28.2898C9.57815 28.2348 8.17467 26.0883 7.69308 24.7261C7.583 24.3821 7.55548 24.1895 7.55548 24.1895Z" fill="white"/>
<path fill-rule="evenodd" clip-rule="evenodd" d="M35.9691 21.0107C35.9691 21.0107 33.5337 22.3042 32.6806 23.2673C31.8275 24.2443 31.167 25.1386 31.167 25.1386C32.3641 25.3175 34.2767 23.9003 34.772 23.2811C35.6114 22.2354 35.9691 21.0107 35.9691 21.0107Z" fill="white"/>
<path fill-rule="evenodd" clip-rule="evenodd" d="M32.5705 20.8047C32.2128 21.1762 31.855 21.6165 31.566 22.0843C31.167 22.731 30.8368 23.5429 30.7818 24.3134C30.768 24.4372 30.7818 24.4923 30.7818 24.4923C31.8825 24.1345 32.4879 22.3045 32.5705 21.2312C32.5843 20.956 32.5705 20.8047 32.5705 20.8047Z" fill="white"/>
<path fill-rule="evenodd" clip-rule="evenodd" d="M36.6846 16.126C36.6846 16.126 35.1711 17.5845 34.7583 18.933C34.3317 20.2814 34.0565 21.0795 34.0565 21.0795C35.0885 20.8318 36.203 19.043 36.4094 18.3688C36.7672 17.2405 36.6846 16.126 36.6846 16.126Z" fill="white"/>
<path fill-rule="evenodd" clip-rule="evenodd" d="M33.7813 16.4429C33.9189 16.9107 34.0153 17.4473 34.0565 17.9702C34.0978 18.6857 34.0153 19.525 33.7263 20.1717C33.685 20.2818 33.6438 20.3231 33.6438 20.3231C32.887 19.5113 33.1897 17.7088 33.6025 16.7731C33.7126 16.5667 33.7813 16.4429 33.7813 16.4429Z" fill="white"/>
<path fill-rule="evenodd" clip-rule="evenodd" d="M33.974 11.5444C34.2354 11.9847 34.4831 12.4939 34.6482 13.0167C34.8821 13.7322 35.0197 14.5991 34.9096 15.3421C34.8821 15.4659 34.8684 15.5072 34.8684 15.5072C33.8914 14.9018 33.7263 13.003 33.8914 11.9435C33.9327 11.6958 33.974 11.5444 33.974 11.5444Z" fill="white"/>
<path fill-rule="evenodd" clip-rule="evenodd" d="M36.5746 10.292C36.5746 10.292 35.5564 12.1358 35.5289 13.5668C35.5013 14.984 35.4738 15.8371 35.4738 15.8371C36.3957 15.2868 36.9461 13.2366 36.9599 12.5211C36.9599 11.324 36.5746 10.292 36.5746 10.292Z" fill="white"/>
<path fill-rule="evenodd" clip-rule="evenodd" d="M34.6069 5.49023C34.6069 5.49023 34.2767 7.32027 34.662 8.5036C35.0473 9.68693 35.2399 10.3887 35.2399 10.3887C35.8453 9.65942 35.7352 7.81562 35.5426 7.22395C35.2261 6.23326 34.6069 5.49023 34.6069 5.49023Z" fill="white"/>
<path fill-rule="evenodd" clip-rule="evenodd" d="M32.6255 7.52637C32.9971 7.80156 33.3686 8.14555 33.685 8.51706C34.1254 9.02617 34.5244 9.71416 34.6895 10.3746C34.717 10.4847 34.717 10.526 34.717 10.526C33.6988 10.3746 32.9145 8.83354 32.6943 7.88412C32.6393 7.66396 32.6255 7.52637 32.6255 7.52637Z" fill="white"/>
<path fill-rule="evenodd" clip-rule="evenodd" d="M31.3596 1.34863C31.3596 1.34863 31.6073 3.09611 32.2953 4.03177C32.9833 4.96743 33.3685 5.54533 33.3685 5.54533C33.685 4.70599 33.0521 3.08235 32.7081 2.60076C32.1302 1.83022 31.3596 1.34863 31.3596 1.34863Z" fill="white"/>
<path fill-rule="evenodd" clip-rule="evenodd" d="M30.1763 3.67383C30.5754 3.81142 31.0157 4.00406 31.4009 4.25173C31.9238 4.58197 32.488 5.07731 32.8044 5.61394C32.8595 5.71026 32.8732 5.75154 32.8732 5.75154C31.9238 5.9029 30.7955 4.7746 30.3414 3.9903C30.2314 3.78391 30.1763 3.67383 30.1763 3.67383Z" fill="white"/>
<path fill-rule="evenodd" clip-rule="evenodd" d="M27.1904 0C27.7546 0.192635 28.3462 0.454069 28.8829 0.798061C29.6121 1.25213 30.3689 1.92635 30.823 2.68314C30.8918 2.80697 30.9055 2.86201 30.9055 2.86201C29.5846 3.08217 28.0435 1.51356 27.4106 0.42655C27.2592 0.165116 27.1904 0 27.1904 0Z" fill="white"/>
<path fill-rule="evenodd" clip-rule="evenodd" d="M32.5292 26.3218C32.5292 26.3218 29.5158 26.8584 28.2912 27.6014C27.0666 28.3444 26.0759 29.0737 26.0759 29.0737C27.3005 29.6791 29.791 28.826 30.5203 28.3169C31.7449 27.4913 32.5292 26.3218 32.5292 26.3218Z" fill="white"/>
<path fill-rule="evenodd" clip-rule="evenodd" d="M29.3921 24.1895C28.8004 24.5334 28.1812 24.9738 27.6583 25.4691C26.9291 26.1571 26.2136 27.0927 25.8833 28.0559C25.8283 28.221 25.8283 28.2898 25.8283 28.2898C27.3694 28.2348 28.7729 26.0883 29.2545 24.7261C29.3508 24.3821 29.3921 24.1895 29.3921 24.1895Z" fill="white"/>
<path fill-rule="evenodd" clip-rule="evenodd" d="M27.961 30.4501C25.8558 30.4226 25.0715 30.395 23.5855 29.6383C22.3608 29.0053 20.517 28.8127 19.031 29.4731C17.201 30.2987 16.2653 32.115 14.0087 32.5691C13.9399 32.5828 15.4535 32.7342 17.5037 31.6747C18.3705 31.2206 19.1548 30.7665 20.0355 30.6565C22.8012 30.3125 22.4572 32.0462 25.5806 31.5096C27.0942 31.2619 27.961 30.4501 27.961 30.4501Z" fill="white"/>
<path d="M30.1763 22.3042H6.50964V23.515H30.1763V22.3042Z" fill="white"/>
<path d="M26.3098 24.4922H10.3623V25.703H26.3098V24.4922Z" fill="white"/>
<path d="M24.3835 26.6802H12.2888V27.891H24.3835V26.6802Z" fill="white"/>
<path d="M48.2868 12.299H50.6751C50.1168 15.2456 49.3104 17.6649 48.2868 19.4949H45.6814C46.9221 17.2307 47.7905 14.8424 48.2868 12.299ZM45.8365 8.2668L50.551 9.25934V11.5856L45.8365 10.6241V8.2668ZM46.1777 4.26562L50.52 5.22715V7.58443L46.1777 6.62291V4.26562ZM50.396 16.9515H54.5212V7.30528H51.1404V5.07206H60.5385V7.30528H57.1576V16.9515H61.1278V19.3398H50.396V16.9515Z" fill="white"/>
<path d="M64.2605 11.4306H66.2766C65.9044 13.5397 65.3461 15.4628 64.6017 17.1997H62.4926C63.299 15.3387 63.8883 13.4157 64.2605 11.4306ZM69.7505 17.3238H72.511V10.9033H69.5954C69.5644 12.5472 69.3473 14.067 68.913 15.4318C68.4788 16.7965 67.7654 18.1302 66.8039 19.495H63.9193C65.191 18.0992 66.0905 16.7655 66.6178 15.4318C67.1451 14.098 67.3932 12.6092 67.4242 10.9033H63.7953V8.82519H67.4552V8.01875H66.3697V7.11926H62.9888V5.01012H66.3386V4.01758H68.5408V5.01012H72.1698V4.01758H74.372V5.01012H77.7218V7.11926H74.372V8.01875H72.1698V7.11926H68.5408V7.67756H69.5954V8.82519H74.6822V19.464H69.7505V17.3238ZM77.3496 10.0348C77.8149 12.4231 78.094 15.0906 78.2181 18.0682H76.1089C75.9849 15.4628 75.7057 12.7953 75.2405 10.0348H77.3496Z" fill="white"/>
<path d="M85.1039 16.1141V18.3163L79.4898 18.6574V16.4552L85.1039 16.1141ZM79.6449 6.21969H81.2267V4.26562H83.3979V6.21969H84.9488V8.42188H79.6449V6.21969ZM81.5369 9.1973L81.9712 15.6178H80.1412L79.6759 9.1973H81.5369ZM82.9637 9.1973H84.7937L84.3284 15.6178H82.4984L82.9637 9.1973ZM86.2825 10.7171H85.6311V4.45173H94.1608V10.7171H88.6088L88.3606 11.3375H94.7811V19.5259H92.6409V17.1376L90.0976 15.928L87.7093 17.0446V17.2927H91.9896V19.1847H85.6622V13.8188H87.7403V15.0285L89.105 14.3771V13.3536H85.383L86.2825 10.7171ZM91.9896 6.84003V6.06461H87.8023V6.84003H91.9896ZM91.9896 9.07323V8.29781H87.8023V9.07323H91.9896ZM92.6409 15.0905V13.3225H91.0901V14.3771L92.6409 15.0905Z" fill="white"/>
<path d="M96.5491 7.4914H97.3555L99.1855 4.20361H101.729L99.8989 7.4914H102.07L101.512 5.56836H103.652L104.8 9.53851H96.5491V7.4914ZM96.8903 10.3449H104.272V19.4949H102.132V17.9131H99.0304V19.4949H96.8903V10.3449ZM102.132 13.3226V12.299H99.0304V13.3226H102.132ZM102.132 16.1141V15.1215H99.0304V16.1141H102.132ZM105.389 4.26565H107.56V6.34378C108.832 6.00259 110.165 5.4753 111.592 4.82395V6.99513C110.352 7.61547 109.018 8.11173 107.56 8.4219V9.29038H111.778V11.4305H105.389V4.26565ZM105.389 11.8958H107.56V13.8809C108.863 13.5087 110.227 12.9814 111.592 12.299V14.5322C110.321 15.1836 108.987 15.6798 107.56 15.99V17.1687H111.778V19.3398H105.389V11.8958Z" fill="white"/>
<path d="M115.252 12.299H117.516C117.175 15.0905 116.586 17.5098 115.78 19.4949H113.298C114.291 17.0756 114.942 14.6873 115.252 12.299ZM113.453 8.2668L117.485 9.25934V11.5236L113.453 10.562V8.2668ZM113.794 4.26562L117.454 5.22715V7.52239L113.794 6.56087V4.26562ZM120.928 12.6402H118.013V10.469H121.797V7.86358H118.323V5.6924H121.797V4.29664H124.154V5.6924H128.062V7.86358H124.154V10.5H128.558V12.6712H123.441L121.269 17.1997H125.612L124.898 14.5632H127.163L128.465 19.3398H117.734L120.928 12.6402Z" fill="white"/>
<path d="M135.506 10.6864H139.042V9.63184H135.258V9.29066C134.948 10.3452 134.483 11.3067 133.893 12.1752V19.5262H131.691V14.5015C131.288 14.8427 130.761 15.1528 130.171 15.494V12.8266C131.629 11.834 132.653 10.4693 133.242 8.70134H135.258V7.77083H139.042V6.74727H135.506V4.91728H139.042V4.11084H141.213V4.91728H145.059V7.61575H145.928V9.81794H145.059V12.5164H141.213V13.4469H145.339V15.3079H141.213V16.2694H145.742V18.1925H141.213V19.5262H139.042V18.1925H134.669V16.2384H139.042V15.2769H135.072V13.4159H139.042V12.4854H135.506V10.6864ZM130.202 8.29811C131.567 7.30557 132.498 5.94084 132.994 4.23491H135.072C134.359 7.21253 132.746 9.44574 130.202 10.9345V8.29811ZM142.95 7.73981V6.71625H141.213V7.73981H142.95ZM142.95 10.6864V9.63184H141.213V10.6864H142.95Z" fill="white"/>
<path d="M147.603 10.1285L151.666 8.94987V11.2761L147.603 12.4548V10.1285ZM147.758 4.35938L151.666 5.41395V7.74021L147.758 6.68564V4.35938ZM161.188 19.3405H148.564V12.5478H161.188V19.3405ZM158.986 17.2314V14.688H150.797V17.2314H158.986ZM152.876 6.15835C153.062 5.63107 153.186 5.07276 153.279 4.45243H162.026V7.77123H159.916V6.31344H155.016C154.892 6.80971 154.706 7.33699 154.519 7.83326H152.131C152.472 7.24394 152.721 6.68564 152.876 6.15835ZM152.441 10.3146C154.519 9.63224 155.791 8.42259 156.256 6.68564H158.397C158.273 7.18191 158.148 7.64716 157.962 8.05038L162.026 10.4077V12.7339L156.939 9.81834C155.884 11.1521 154.395 12.0205 152.41 12.5168V10.3146H152.441Z" fill="white"/>
<path d="M163.949 9.10432H167.981V16.1451L169.128 15.6489V18.1612L165.717 19.65V11.3685H163.949V9.10432ZM167.391 4.26569L168.57 7.92568H166.275L165.096 4.26569H167.391ZM179.147 19.495H175.332V17.2928H177.038V7.73958H171.858C171.734 8.1428 171.579 8.57703 171.362 8.98025H175.642V16.7034H169.749V9.63161H168.539C168.973 8.85619 169.377 7.98771 169.718 6.99518C170.059 6.00264 170.276 5.04111 170.369 4.07959H172.664C172.633 4.51383 172.54 5.0101 172.416 5.5684H179.147V19.495ZM173.781 12.0199V10.9033H171.61V12.0199H173.781ZM173.781 14.8114V13.6948H171.61V14.8114H173.781Z" fill="white"/>
<path d="M181.349 16.1142C181.473 15.0286 181.504 13.7569 181.504 12.3302V4.48291H186.777V19.4951H184.823V15.2457H183.396C183.303 16.7656 183.117 18.1924 182.838 19.4951H180.76C181.039 18.3474 181.225 17.2308 181.349 16.1142ZM184.854 8.85629V6.65409H183.458V8.85629H184.854ZM184.854 13.1676V10.9654H183.458V12.3612V13.1676H184.854ZM187.832 4.54494H195.989L195.431 9.94188H191.274V7.95679H193.477L193.601 6.65409H189.941V10.7173H196.485C195.989 12.7024 195.338 14.5324 194.469 16.2073L196.485 19.5261H194.376L193.415 17.9442C193.011 18.5335 192.639 19.0608 192.236 19.5261H187.832V4.54494ZM192.112 16.3934L189.972 12.7024H189.91V19.2469C190.747 18.3474 191.461 17.3859 192.112 16.3934ZM193.166 14.5634C193.477 13.9741 193.756 13.3537 194.004 12.6714H192.143L193.166 14.5634Z" fill="white"/>
<path d="M203.402 9.38331C202.689 8.85603 202.068 8.29772 201.51 7.67739C200.642 8.26671 199.68 8.66993 198.656 8.82501V6.62282C199.277 6.37468 199.835 6.06452 200.269 5.72333C200.735 5.38215 201.107 4.97892 201.448 4.51367H211.684C210.784 6.52977 209.512 8.14264 207.806 9.41433C209.171 9.94162 210.97 10.3759 213.172 10.7791V12.8882C210.164 12.454 207.62 11.7406 205.573 10.7481C205.17 10.9652 204.674 11.1513 204.177 11.3684H205.449C205.449 12.0197 205.387 12.6401 205.294 13.1984H212.397L211.932 19.5568H207.465V17.3857H209.822L209.978 15.3075H204.581C204.022 16.3931 203.216 17.2926 202.192 18.037C201.138 18.7814 199.866 19.3397 198.315 19.7119V17.4167C200.052 16.9204 201.293 16.207 202.037 15.3075H198.718V13.1364H203.092C203.216 12.6401 203.278 12.1128 203.278 11.6165C201.758 12.1128 199.99 12.516 197.974 12.8262V10.717C200.176 10.3759 201.944 9.94162 203.402 9.38331ZM205.604 8.29772C206.411 7.80146 207.155 7.21214 207.806 6.52977H203.371C204.053 7.21214 204.798 7.80146 205.604 8.29772Z" fill="white"/>
<path d="M217.142 12.7641C216.398 13.5085 215.561 14.1289 214.63 14.6561V11.8956C216.274 10.686 217.484 9.19718 218.259 7.3982H214.909V5.25804H219.003C219.128 4.73076 219.221 4.29652 219.283 3.92432H221.423C221.392 4.32754 221.299 4.76177 221.175 5.25804H230.077V7.3982H220.554C220.43 7.73939 220.275 8.1426 220.058 8.57684H228.96V19.5878H226.789V17.4787H219.221V19.5878H217.049V12.7641H217.142ZM226.851 12.0197V10.655H219.283V12.0197H226.851ZM226.851 15.4005V14.0668H219.283V15.4316L226.851 15.4005Z" fill="white"/>
<path d="M232.155 4.45217H237.8C237.8 5.69284 237.707 6.80945 237.552 7.80198C237.397 8.82554 237.148 9.8491 236.776 10.8727C237.366 11.9893 237.676 13.1679 237.676 14.3465C237.676 15.4942 237.397 16.6108 236.838 17.6964H234.574C234.946 17.107 235.225 16.5487 235.38 16.0214C235.567 15.4631 235.629 14.9048 235.629 14.3465C235.629 13.7572 235.536 13.1989 235.38 12.6716C235.194 12.1133 234.946 11.555 234.574 10.9657C235.101 9.50791 235.442 8.05012 235.598 6.62335H234.264V19.4953H232.124V4.45217H232.155ZM238.11 4.39014H246.484V12.5476H243.197C243.383 13.6642 243.786 14.5947 244.406 15.3391L245.461 12.9818H247.415L246.205 15.6803H244.717C245.368 16.3937 246.236 16.9209 247.26 17.2621V19.6504C245.399 19.0611 243.972 18.1306 242.918 16.8589C241.894 15.5872 241.274 14.1294 241.057 12.5165H240.25V17.3242H241.832V19.4953H238.11V4.39014ZM244.344 7.46081V6.43725H240.281V7.46081H244.344ZM244.344 10.4694V9.44588H240.281V10.4694H244.344Z" fill="white"/>
<path d="M250.734 8.17386C251.354 6.80912 251.819 5.41336 252.192 3.95557H254.549C254.208 5.50641 253.742 6.9642 253.215 8.32894C252.657 9.69368 251.974 11.0894 251.168 12.5162H248.376C249.338 10.9654 250.144 9.50758 250.734 8.17386ZM249.369 17.1998H251.354L255.169 9.04233H257.713L253.897 17.1998H259.977L258.922 14.6564H261.435L263.389 19.3709H249.369V17.1998ZM260.473 3.95557C260.845 5.41336 261.31 6.80912 261.931 8.17386C262.551 9.5386 263.327 10.9654 264.319 12.5162H261.528C260.69 11.1205 260.008 9.7247 259.48 8.32894C258.922 6.9642 258.488 5.50641 258.147 3.95557H260.473Z" fill="white"/>
<path d="M265.467 7.73943H277.315V9.81755H265.467V7.73943ZM266.428 4.51367H280.51V19.5258H276.695V17.3546H278.339V6.68486H266.428V4.51367ZM276.199 10.9031V17.975H266.552V10.9031H276.199ZM274.058 15.8348V13.0123H268.754V15.8348H274.058Z" fill="white"/>
<path d="M46.5189 27.5906C46.5499 27.5906 46.612 27.5906 46.705 27.5906C46.8911 27.5906 47.0462 27.5596 47.1393 27.4666C47.2323 27.4046 47.3254 27.2805 47.3564 27.1254C47.3874 26.9703 47.4184 26.7842 47.4184 26.5361V22.5659H48.597V26.7842C48.597 28.0249 47.9147 28.6452 46.5189 28.5832V27.5906Z" fill="white"/>
<path d="M50.3339 22.5659H51.5126V27.5906H50.3339V22.5659Z" fill="white"/>
<path d="M56.2272 26.1946H54.6143L54.2421 27.6214H53.0014L54.4592 22.5967H56.4443L57.9021 27.6214H56.6304L56.2272 26.1946ZM56.01 25.3262L55.4517 23.217L54.8934 25.3262H56.01Z" fill="white"/>
<path d="M60.5385 23.7133H60.5074V27.6214H59.3288V22.5967H61.2208L62.4305 26.5668H62.5235V22.5967H63.6712V27.6214H61.7481L60.5385 23.7133Z" fill="white"/>
<path d="M69.6574 27.3733C69.4403 27.4664 69.1922 27.5594 68.9441 27.6215C68.6959 27.6835 68.3858 27.6835 68.0756 27.6835C67.5173 27.6835 67.052 27.5904 66.6178 27.3733C66.1836 27.1562 65.8734 26.877 65.6253 26.5048C65.3771 26.1326 65.2531 25.6674 65.2531 25.1711C65.2531 24.6438 65.3771 24.2096 65.5942 23.7754C65.8424 23.3721 66.1525 23.062 66.5868 22.8138C66.99 22.5967 67.4863 22.4727 68.0136 22.4727C68.2617 22.4727 68.5408 22.5037 68.82 22.5657C69.0991 22.6277 69.3163 22.6898 69.5024 22.7518V23.6203C69.0061 23.4652 68.5719 23.3721 68.1686 23.3721C67.6413 23.3721 67.2381 23.5272 66.928 23.8064C66.6178 24.1165 66.4317 24.5508 66.4317 25.1401C66.4317 25.4813 66.4937 25.7604 66.6798 26.0086C66.8349 26.2567 67.052 26.4428 67.3002 26.5669C67.5483 26.6909 67.8275 26.753 68.1376 26.753C68.3237 26.753 68.5098 26.753 68.6649 26.722V25.6054H68.1066V24.7059H69.6574V27.3733Z" fill="white"/>
<path d="M72.8521 27.6837C72.2008 27.6837 71.6425 27.5597 71.1152 27.2805V26.226C71.3633 26.381 71.6735 26.5361 71.9836 26.6292C72.2938 26.7532 72.573 26.7843 72.8521 26.7843C73.0692 26.7843 73.2243 26.7222 73.3484 26.6292C73.4725 26.5361 73.5345 26.412 73.5345 26.257C73.5345 26.0709 73.4725 25.8848 73.3174 25.7297C73.1623 25.5746 72.9452 25.4505 72.635 25.3575C72.2628 25.2334 71.9836 25.1404 71.7975 25.0163C71.5804 24.8922 71.4564 24.7371 71.3323 24.5821C71.2392 24.396 71.1772 24.1788 71.1772 23.8997C71.1772 23.6516 71.2392 23.4034 71.3633 23.1863C71.4874 22.9692 71.6735 22.8141 71.9216 22.659C72.1697 22.5349 72.4489 22.4729 72.7901 22.4419C72.8211 22.4419 72.9141 22.4419 72.9762 22.4419C73.2243 22.4419 73.4725 22.4729 73.7206 22.5039C73.9687 22.566 74.1858 22.628 74.3409 22.69V23.6205C74.1548 23.5275 73.9377 23.4655 73.6896 23.4344C73.4414 23.3724 73.2243 23.3414 73.0382 23.3414C72.7901 23.3414 72.604 23.3724 72.4799 23.4654C72.3558 23.5585 72.2938 23.6826 72.2938 23.8377C72.2938 23.9617 72.3558 24.0858 72.5109 24.2099C72.635 24.3339 72.8521 24.427 73.1623 24.52C73.5035 24.6131 73.7826 24.7371 74.0308 24.8612C74.2479 24.9853 74.434 25.1404 74.558 25.3575C74.6821 25.5746 74.7441 25.8227 74.7441 26.1329C74.7441 26.412 74.6821 26.6912 74.558 26.9083C74.434 27.1254 74.2479 27.3115 73.9997 27.4356C73.7516 27.5597 73.4725 27.6217 73.1623 27.6527C73.0692 27.6837 72.9762 27.6837 72.8521 27.6837Z" fill="white"/>
<path d="M76.8224 27.1562C76.4191 26.784 76.233 26.2877 76.233 25.6673V22.5967H77.4117V25.6673C77.4117 25.8845 77.4737 26.0706 77.5668 26.2257C77.6598 26.3807 77.7839 26.5048 77.939 26.5668C78.094 26.6599 78.2801 26.6909 78.4352 26.6909C78.6213 26.6909 78.8074 26.6599 78.9625 26.5668C79.1176 26.4738 79.2417 26.3497 79.3347 26.1946C79.4278 26.0396 79.4588 25.8534 79.4588 25.6673V22.5967H80.6374V25.6673C80.6374 26.3187 80.4513 26.815 80.0481 27.1562C79.6449 27.5284 79.1176 27.7145 78.4352 27.7145C77.7839 27.6834 77.2256 27.5284 76.8224 27.1562Z" fill="white"/>
<path d="M84.5145 27.5906C84.5455 27.5906 84.6075 27.5906 84.7006 27.5906C84.8867 27.5906 85.0418 27.5596 85.1348 27.4666C85.2279 27.4046 85.3209 27.2805 85.3519 27.1254C85.3829 26.9703 85.414 26.7842 85.414 26.5361V22.5659H86.5926V26.7842C86.5926 28.0249 85.9102 28.6452 84.5145 28.5832V27.5906Z" fill="white"/>
<path d="M88.3606 22.5659H89.5392V27.5906H88.3606V22.5659Z" fill="white"/>
<path d="M91.2762 22.5659H94.8121V23.5274H92.4548V24.613H94.5019V25.5125H92.4548V26.5981H94.8121V27.5596H91.2762V22.5659Z" fill="white"/>
<path d="M97.5105 23.7133H97.4795V27.6214H96.3319V22.5967H98.2239L99.4336 26.5668H99.5266V22.5967H100.674V27.6214H98.7202L97.5105 23.7133Z" fill="white"/>
<path d="M102.38 22.5659H105.916V23.5274H103.559V24.613H105.606V25.5125H103.559V26.5981H105.916V27.5596H102.38V22.5659Z" fill="white"/>
<path d="M108.615 23.7133H108.584V27.6214H107.405V22.5967H109.297L110.507 26.5668H110.6V22.5967H111.747V27.6214H109.824L108.615 23.7133Z" fill="white"/>
<path d="M117.733 27.3733C117.516 27.4664 117.268 27.5594 117.02 27.6215C116.772 27.6835 116.462 27.6835 116.152 27.6835C115.593 27.6835 115.128 27.5904 114.694 27.3733C114.26 27.1562 113.949 26.877 113.701 26.5048C113.453 26.1326 113.329 25.6674 113.329 25.1711C113.329 24.6438 113.453 24.2096 113.67 23.7754C113.918 23.3721 114.229 23.062 114.663 22.8138C115.066 22.5967 115.562 22.4727 116.09 22.4727C116.338 22.4727 116.617 22.5037 116.896 22.5657C117.175 22.6277 117.392 22.6898 117.578 22.7518V23.6203C117.082 23.4652 116.648 23.3721 116.245 23.3721C115.717 23.3721 115.314 23.5272 115.004 23.8064C114.694 24.1165 114.508 24.5508 114.508 25.1401C114.508 25.4813 114.57 25.7604 114.756 26.0086C114.911 26.2567 115.128 26.4428 115.376 26.5669C115.624 26.6909 115.903 26.753 116.214 26.753C116.4 26.753 116.586 26.753 116.741 26.722V25.6054H116.183V24.7059H117.733V27.3733Z" fill="white"/>
<path d="M123.286 22.5659V26.6291H125.302V27.5906H122.076V22.5659H123.286Z" fill="white"/>
<path d="M126.728 22.5659H130.264V23.5274H127.907V24.613H129.954V25.5125H127.907V26.5981H130.264V27.5596H126.728V22.5659Z" fill="white"/>
<path d="M136.002 27.3733C135.785 27.4664 135.537 27.5594 135.289 27.6215C135.041 27.6835 134.731 27.6835 134.421 27.6835C133.862 27.6835 133.397 27.5904 132.963 27.3733C132.529 27.1562 132.218 26.877 131.97 26.5048C131.722 26.1326 131.598 25.6674 131.598 25.1711C131.598 24.6438 131.722 24.2096 131.939 23.7754C132.187 23.3721 132.498 23.062 132.932 22.8138C133.335 22.5967 133.831 22.4727 134.359 22.4727C134.607 22.4727 134.886 22.5037 135.165 22.5657C135.444 22.6277 135.661 22.6898 135.847 22.7518V23.6203C135.351 23.4652 134.917 23.3721 134.514 23.3721C133.986 23.3721 133.583 23.5272 133.273 23.8064C132.963 24.1165 132.808 24.5508 132.808 25.1401C132.808 25.4813 132.87 25.7604 133.056 26.0086C133.211 26.2567 133.428 26.4428 133.676 26.5669C133.924 26.6909 134.203 26.753 134.514 26.753C134.7 26.753 134.886 26.753 135.041 26.722V25.6054H134.483V24.7059H136.033V27.3733H136.002Z" fill="white"/>
<path d="M140.624 26.1946H139.042L138.67 27.6214H137.429L138.887 22.5967H140.872L142.33 27.6214H141.058L140.624 26.1946ZM140.407 25.3262L139.849 23.217L139.29 25.3262H140.407Z" fill="white"/>
<path d="M144.904 22.5659V26.6291H146.92V27.5906H143.695V22.5659H144.904Z" fill="white"/>
<path d="M152.286 27.4046C151.852 27.2185 151.542 26.9083 151.294 26.5361C151.046 26.1639 150.922 25.6986 150.922 25.1713C150.922 24.613 151.046 24.1478 151.263 23.7446C151.511 23.3414 151.821 23.0312 152.255 22.8141C152.69 22.597 153.155 22.5039 153.682 22.5039C153.961 22.5039 154.209 22.5349 154.489 22.597C154.768 22.659 154.985 22.721 155.171 22.7831V23.6825C154.675 23.4964 154.24 23.4034 153.837 23.4034C153.341 23.4034 152.938 23.5585 152.627 23.8376C152.317 24.1168 152.162 24.582 152.162 25.1713C152.162 25.4815 152.224 25.7607 152.379 26.0088C152.534 26.2569 152.721 26.443 152.969 26.5671C153.217 26.6912 153.496 26.7842 153.775 26.7842H153.93C154.147 26.7842 154.364 26.7532 154.582 26.6912C154.799 26.6291 154.985 26.5361 155.171 26.443V27.4356C154.954 27.5286 154.737 27.5907 154.52 27.6217C154.302 27.6527 154.023 27.6837 153.713 27.6837C153.186 27.6837 152.69 27.5907 152.286 27.4046Z" fill="white"/>
<path d="M157.869 27.4046C157.497 27.2185 157.187 26.9083 156.97 26.5361C156.753 26.1639 156.66 25.6986 156.66 25.1713C156.66 24.613 156.753 24.1478 156.97 23.7446C157.187 23.3414 157.466 23.0312 157.869 22.8141C158.242 22.597 158.707 22.5039 159.234 22.5039C159.761 22.5039 160.196 22.597 160.599 22.8141C160.971 23.0312 161.281 23.3414 161.498 23.7446C161.715 24.1478 161.808 24.613 161.808 25.1713C161.808 25.6986 161.715 26.1639 161.498 26.5671C161.281 26.9393 161.002 27.2495 160.63 27.4356C160.258 27.6217 159.792 27.7458 159.265 27.7458C158.707 27.6837 158.273 27.5907 157.869 27.4046ZM158.273 26.381C158.49 26.6912 158.831 26.8152 159.234 26.8152C159.637 26.8152 159.947 26.6602 160.196 26.381C160.413 26.0708 160.537 25.6676 160.537 25.1713C160.537 24.8302 160.475 24.52 160.382 24.2719C160.289 23.9927 160.134 23.8066 159.947 23.6515C159.761 23.4964 159.513 23.4344 159.234 23.4344C158.955 23.4344 158.738 23.4964 158.552 23.6515C158.366 23.8066 158.211 24.0237 158.086 24.2719C157.993 24.551 157.931 24.8302 157.931 25.1713C157.931 25.6676 158.055 26.0708 158.273 26.381Z" fill="white"/>
<path d="M164.569 23.7133H164.538V27.6214H163.39V22.5967H165.282L166.492 26.5668H166.585V22.5967H167.733V27.6214H165.81L164.569 23.7133Z" fill="white"/>
<path d="M170.989 27.6837C170.338 27.6837 169.78 27.5597 169.252 27.2805V26.226C169.501 26.381 169.811 26.5361 170.121 26.6292C170.431 26.7532 170.71 26.7843 170.989 26.7843C171.207 26.7843 171.362 26.7222 171.486 26.6292C171.61 26.5361 171.672 26.412 171.672 26.257C171.672 26.0709 171.61 25.8848 171.455 25.7297C171.3 25.5746 171.082 25.4505 170.772 25.3575C170.4 25.2334 170.121 25.1404 169.935 25.0163C169.718 24.8922 169.594 24.7371 169.47 24.5821C169.377 24.396 169.314 24.1788 169.314 23.8997C169.314 23.6516 169.377 23.4034 169.501 23.1863C169.625 22.9692 169.811 22.8141 170.059 22.659C170.307 22.5349 170.586 22.4729 170.927 22.4419C170.958 22.4419 171.051 22.4419 171.113 22.4419C171.362 22.4419 171.61 22.4729 171.858 22.5039C172.106 22.566 172.323 22.628 172.478 22.69V23.6205C172.292 23.5275 172.075 23.4655 171.827 23.4344C171.579 23.3724 171.362 23.3414 171.175 23.3414C170.927 23.3414 170.741 23.3724 170.617 23.4654C170.493 23.5585 170.431 23.6826 170.431 23.8377C170.431 23.9617 170.493 24.0858 170.648 24.2099C170.772 24.3339 170.989 24.427 171.3 24.52C171.641 24.6131 171.92 24.7371 172.168 24.8612C172.385 24.9853 172.571 25.1404 172.695 25.3575C172.819 25.5746 172.881 25.8227 172.881 26.1329C172.881 26.412 172.819 26.6912 172.695 26.9083C172.571 27.1254 172.385 27.3115 172.137 27.4356C171.889 27.5597 171.61 27.6217 171.3 27.6527C171.207 27.6837 171.113 27.6837 170.989 27.6837Z" fill="white"/>
<path d="M174.96 27.1562C174.556 26.784 174.37 26.2877 174.37 25.6673V22.5967H175.549V25.6673C175.549 25.8845 175.611 26.0706 175.704 26.2257C175.797 26.3807 175.921 26.5048 176.076 26.5668C176.231 26.6599 176.417 26.6909 176.573 26.6909C176.759 26.6909 176.945 26.6599 177.1 26.5668C177.255 26.4738 177.379 26.3497 177.472 26.1946C177.565 26.0396 177.596 25.8534 177.596 25.6673V22.5967H178.775V25.6673C178.775 26.3187 178.589 26.815 178.185 27.1562C177.782 27.5284 177.255 27.7145 176.573 27.7145C175.921 27.6834 175.363 27.5284 174.96 27.1562Z" fill="white"/>
<path d="M181.69 22.5659V26.6291H183.706V27.5906H180.481V22.5659H181.69Z" fill="white"/>
<path d="M184.296 22.5659H188.08V23.5274H186.777V27.5906H185.598V23.5274H184.296V22.5659Z" fill="white"/>
<path d="M189.506 22.5659H190.685V27.5906H189.506V22.5659Z" fill="white"/>
<path d="M193.632 23.7133H193.601V27.6214H192.453V22.5967H194.345L195.555 26.5668H195.648V22.5967H196.795V27.6214H194.872L193.632 23.7133Z" fill="white"/>
<path d="M202.751 27.3733C202.534 27.4664 202.285 27.5594 202.037 27.6215C201.789 27.6835 201.479 27.6835 201.169 27.6835C200.611 27.6835 200.145 27.5904 199.711 27.3733C199.277 27.1562 198.967 26.877 198.719 26.5048C198.47 26.1326 198.346 25.6674 198.346 25.1711C198.346 24.6438 198.47 24.2096 198.687 23.7754C198.936 23.3721 199.246 23.062 199.68 22.8138C200.083 22.5967 200.58 22.4727 201.107 22.4727C201.355 22.4727 201.634 22.5037 201.913 22.5657C202.192 22.6277 202.41 22.6898 202.596 22.7518V23.6203C202.099 23.4652 201.665 23.3721 201.262 23.3721C200.735 23.3721 200.331 23.5272 200.021 23.8064C199.711 24.1165 199.556 24.5508 199.556 25.1401C199.556 25.4813 199.618 25.7604 199.804 26.0086C199.959 26.2567 200.176 26.4428 200.424 26.5669C200.673 26.6909 200.952 26.753 201.262 26.753C201.448 26.753 201.634 26.753 201.789 26.722V25.6054H201.231V24.7059H202.782V27.3733H202.751Z" fill="white"/>
<path d="M208.706 27.6837C208.055 27.6837 207.496 27.5597 206.969 27.2805V26.226C207.217 26.381 207.527 26.5361 207.837 26.6292C208.148 26.7532 208.427 26.7843 208.706 26.7843C208.923 26.7843 209.078 26.7222 209.202 26.6292C209.326 26.5361 209.388 26.412 209.388 26.257C209.388 26.0709 209.326 25.8848 209.171 25.7297C209.016 25.5746 208.799 25.4505 208.489 25.3575C208.117 25.2334 207.837 25.1404 207.651 25.0163C207.434 24.8922 207.31 24.7371 207.186 24.5821C207.093 24.396 207.031 24.1788 207.031 23.8997C207.031 23.6516 207.093 23.4034 207.217 23.1863C207.341 22.9692 207.527 22.8141 207.775 22.659C208.024 22.5349 208.303 22.4729 208.644 22.4419C208.675 22.4419 208.768 22.4419 208.83 22.4419C209.078 22.4419 209.326 22.4729 209.574 22.5039C209.823 22.566 210.04 22.628 210.195 22.69V23.6205C210.009 23.5275 209.792 23.4655 209.543 23.4344C209.295 23.3724 209.078 23.3414 208.892 23.3414C208.644 23.3414 208.458 23.3724 208.334 23.4654C208.21 23.5585 208.148 23.6826 208.148 23.8377C208.148 23.9617 208.21 24.0858 208.365 24.2099C208.489 24.3339 208.706 24.427 209.016 24.52C209.357 24.6131 209.636 24.7371 209.885 24.8612C210.102 24.9853 210.288 25.1404 210.412 25.3575C210.536 25.5746 210.598 25.8227 210.598 26.1329C210.598 26.412 210.536 26.6912 210.412 26.9083C210.288 27.1254 210.102 27.3115 209.854 27.4356C209.605 27.5597 209.326 27.6217 209.016 27.6527C208.892 27.6837 208.83 27.6837 208.706 27.6837Z" fill="white"/>
<path d="M212.087 22.5659H215.623V23.5274H213.265V24.613H215.313V25.5125H213.265V26.5981H215.623V27.5596H212.087V22.5659Z" fill="white"/>
<path d="M219.438 22.5659C219.934 22.5659 220.337 22.69 220.647 22.9691C220.927 23.2173 221.082 23.5895 221.082 24.0857C221.082 24.489 220.989 24.7991 220.771 25.0473C220.554 25.2954 220.275 25.4505 219.903 25.5125C220.182 25.8227 220.43 26.1329 220.647 26.474C220.864 26.8152 221.082 27.1874 221.268 27.6217H220.182C219.965 27.1564 219.748 26.7842 219.562 26.5051C219.376 26.1949 219.128 25.9157 218.817 25.6056H218.29V27.6527H217.111V22.628H219.438V22.5659ZM219.345 24.7371C219.593 24.7371 219.779 24.6751 219.903 24.551C220.027 24.4269 220.089 24.2718 220.089 24.0857C220.089 23.8996 220.027 23.7446 219.872 23.6205C219.748 23.4964 219.562 23.4344 219.314 23.4344H218.259V24.7681H219.345V24.7371Z" fill="white"/>
<path d="M222.353 22.5659H223.625L224.835 26.7842H224.866L226.075 22.5659H227.347L225.796 27.5906H223.873L222.353 22.5659Z" fill="white"/>
<path d="M228.743 22.5659H229.921V27.5906H228.743V22.5659Z" fill="white"/>
<path d="M232.899 27.4046C232.465 27.2185 232.155 26.9083 231.906 26.5361C231.658 26.1639 231.534 25.6986 231.534 25.1713C231.534 24.613 231.658 24.1478 231.875 23.7446C232.124 23.3414 232.434 23.0312 232.868 22.8141C233.302 22.597 233.767 22.5039 234.326 22.5039C234.605 22.5039 234.853 22.5349 235.132 22.597C235.411 22.659 235.628 22.721 235.815 22.7831V23.6825C235.318 23.4964 234.884 23.4034 234.481 23.4034C233.985 23.4034 233.581 23.5585 233.271 23.8376C232.961 24.1168 232.806 24.582 232.806 25.1713C232.806 25.4815 232.868 25.7607 233.023 26.0088C233.178 26.2569 233.364 26.443 233.612 26.5671C233.861 26.6912 234.14 26.7842 234.419 26.7842H234.574C234.791 26.7842 235.008 26.7532 235.225 26.6912C235.442 26.6291 235.628 26.5361 235.784 26.443V27.4356C235.566 27.5286 235.349 27.5907 235.132 27.6217C234.915 27.6527 234.636 27.6837 234.326 27.6837C233.798 27.6837 233.302 27.5907 232.899 27.4046Z" fill="white"/>
<path d="M237.427 22.5659H240.963V23.5274H238.606V24.613H240.653V25.5125H238.606V26.5981H240.963V27.5596H237.427V22.5659Z" fill="white"/>
<path d="M246.422 27.4046C245.988 27.2185 245.678 26.9083 245.43 26.5361C245.182 26.1639 245.058 25.6986 245.058 25.1713C245.058 24.613 245.182 24.1478 245.399 23.7446C245.647 23.3414 245.957 23.0312 246.391 22.8141C246.826 22.597 247.291 22.5039 247.849 22.5039C248.128 22.5039 248.376 22.5349 248.656 22.597C248.935 22.659 249.152 22.721 249.338 22.7831V23.6825C248.842 23.4964 248.407 23.4034 248.004 23.4034C247.508 23.4034 247.105 23.5585 246.795 23.8376C246.484 24.1168 246.329 24.582 246.329 25.1713C246.329 25.4815 246.391 25.7607 246.546 26.0088C246.702 26.2569 246.888 26.443 247.136 26.5671C247.384 26.6912 247.663 26.7842 247.942 26.7842H248.097C248.314 26.7842 248.532 26.7532 248.749 26.6912C248.966 26.6291 249.152 26.5361 249.307 26.443V27.4356C249.09 27.5286 248.873 27.5907 248.656 27.6217C248.439 27.6527 248.159 27.6837 247.849 27.6837C247.322 27.6837 246.826 27.5907 246.422 27.4046Z" fill="white"/>
<path d="M252.036 27.4046C251.664 27.2185 251.354 26.9083 251.137 26.5361C250.92 26.1639 250.827 25.6986 250.827 25.1713C250.827 24.613 250.92 24.1478 251.137 23.7446C251.354 23.3414 251.633 23.0312 252.036 22.8141C252.409 22.597 252.874 22.5039 253.401 22.5039C253.928 22.5039 254.363 22.597 254.766 22.8141C255.138 23.0312 255.448 23.3414 255.665 23.7446C255.883 24.1478 255.976 24.613 255.976 25.1713C255.976 25.6986 255.883 26.1639 255.665 26.5671C255.448 26.9393 255.169 27.2495 254.797 27.4356C254.425 27.6217 253.959 27.7458 253.432 27.7458C252.874 27.6837 252.409 27.5907 252.036 27.4046ZM252.44 26.381C252.657 26.6912 252.998 26.8152 253.401 26.8152C253.804 26.8152 254.115 26.6602 254.363 26.381C254.58 26.0708 254.704 25.6676 254.704 25.1713C254.704 24.8302 254.642 24.52 254.549 24.2719C254.456 23.9927 254.301 23.8066 254.115 23.6515C253.928 23.4964 253.68 23.4344 253.401 23.4344C253.122 23.4344 252.905 23.4964 252.719 23.6515C252.533 23.8066 252.378 24.0237 252.254 24.2719C252.16 24.551 252.098 24.8302 252.098 25.1713C252.067 25.6676 252.192 26.0708 252.44 26.381Z" fill="white"/>
<path d="M258.86 26.4121V27.5908H257.682V26.4121H258.86Z" fill="white"/>
<path d="M261.155 26.4121H262.21L261.373 28.5213H260.535L261.155 26.4121Z" fill="white"/>
<path d="M267.886 22.5659V26.6291H269.902V27.5906H266.676V22.5659H267.886Z" fill="white"/>
<path d="M270.491 22.5659H274.276V23.5274H272.973V27.5906H271.794V23.5274H270.491V22.5659Z" fill="white"/>
<path d="M275.671 22.5659H277.594C278.37 22.5659 278.99 22.783 279.393 23.2483C279.796 23.6825 280.013 24.3029 280.013 25.1093C280.013 25.9157 279.796 26.5361 279.393 26.9703C278.99 27.4045 278.37 27.6217 277.563 27.6217H275.671V22.5659ZM277.594 26.7222C277.78 26.7222 277.997 26.6601 278.152 26.5361C278.339 26.412 278.494 26.2259 278.587 25.9778C278.711 25.7296 278.742 25.4505 278.742 25.1093C278.742 24.7991 278.68 24.52 278.587 24.2718C278.494 24.0237 278.339 23.8376 278.152 23.6825C277.966 23.5274 277.78 23.4654 277.563 23.4654H276.819V26.7222H277.594Z" fill="white"/>
</svg>
